<svg width="174" height="138" viewBox="0 0 174 138" fill="none" xmlns="http://www.w3.org/2000/svg">
<path d="M37.3705 58.2556C33.0305 50.0156 23.4205 35.1656 10.6305 35.3156C-7.04955 35.5256 13.5305 75.4856 13.5305 75.4856C13.5305 75.4856 -3.15954 108.206 11.3905 111.666C25.9505 115.126 38.2305 94.6156 38.2305 94.6156" fill="#FF6700"/>
<path d="M108.02 127.255C115.11 120.285 117.31 111.035 112.94 106.595C108.57 102.155 99.2803 104.205 92.2003 111.175C85.1103 118.145 82.9103 127.395 87.2803 131.835C91.6503 136.275 100.94 134.225 108.02 127.255Z" fill="black"/>
<path d="M108.02 127.255C115.11 120.285 117.31 111.035 112.94 106.595C108.57 102.155 99.2803 104.205 92.2003 111.175C85.1103 118.145 82.9103 127.395 87.2803 131.835C91.6503 136.275 100.94 134.225 108.02 127.255Z" fill="black" fill-opacity="0.2"/>
<path d="M108.02 127.255C115.11 120.285 117.31 111.035 112.94 106.595C108.57 102.155 99.2803 104.205 92.2003 111.175C85.1103 118.145 82.9103 127.395 87.2803 131.835C91.6503 136.275 100.94 134.225 108.02 127.255Z" fill="black"/>
<path d="M108.02 127.255C115.11 120.285 117.31 111.035 112.94 106.595C108.57 102.155 99.2803 104.205 92.2003 111.175C85.1103 118.145 82.9103 127.395 87.2803 131.835C91.6503 136.275 100.94 134.225 108.02 127.255Z" fill="black" fill-opacity="0.2"/>
<path d="M115.34 38.3246C115.34 38.3246 103.48 15.5546 77.3903 5.35459C64.8403 0.454593 59.7403 8.09458 66.9803 17.7146C76.2003 29.9646 41.2603 5.84457 63.6903 45.7046L115.35 38.3146L115.34 38.3246Z" fill="#FF6700"/>
<path d="M95.5101 29.2457L106.71 25.9257L87.5601 10.3157L69.8801 3.8457L63.8501 8.03571C63.8501 8.03571 89.4301 16.5557 95.5001 29.2557L95.5101 29.2457Z" fill="#FECB8B"/>
<path d="M112.21 36.7151C111.66 37.5151 111.66 38.9851 112.16 39.7151V39.6851L112.11 39.5851C110.48 35.3051 107.88 31.4451 104.98 27.9151C98.4101 20.2351 90.1001 14.0251 80.9401 9.83511C77.5801 8.48511 73.4902 6.55509 69.9802 6.87509C65.9402 7.08509 66.6401 10.3851 68.1201 13.0751C69.8201 16.1251 74.0301 19.5451 71.3701 23.3751C69.0601 26.5151 64.4801 24.9151 61.4701 25.1151C60.5701 25.1251 59.9002 25.3751 59.9502 25.4251C59.9502 25.4451 60.0601 25.3451 60.0701 25.3351C59.7601 28.1351 61.3602 31.5051 62.4502 34.2251C62.7902 35.0251 63.4801 36.6351 63.8501 37.4251C64.8201 39.5751 65.8201 41.7451 66.7601 43.9751L63.2002 42.2151C79.6402 39.7951 95.5801 38.2551 112.23 36.7051L112.21 36.7151ZM118.47 39.9351C100.69 43.3251 82.1801 46.6951 64.1501 49.1951C62.6801 49.4051 61.2902 48.6551 60.6102 47.4351C56.8702 42.0751 53.7901 36.2051 52.4101 29.6751C50.5801 19.9651 56.4101 16.2451 65.4401 17.8351C66.0101 17.9051 66.5702 17.9651 66.8902 17.9751C67.0302 17.9851 67.1302 17.9551 66.8902 18.0251C65.8102 18.3451 64.9302 19.5151 64.9302 20.6551C64.9102 20.8751 64.9502 21.1351 65.0202 21.3251C64.2102 19.6751 62.7601 18.0451 61.9801 16.1951C60.5901 13.2351 59.7401 9.89513 60.9401 6.48513C63.5701 -0.574866 72.4401 0.105141 78.0301 2.55514C79.7701 3.28514 81.5601 4.1851 83.2801 4.9551C84.8201 5.8451 86.7801 6.82509 88.2801 7.75509L91.5001 9.79513C99.9701 15.4151 107.07 22.7851 113.55 30.5451C114.78 31.9651 116.03 33.5851 117.21 35.0551L117.82 35.8351L118.13 36.2351L118.21 36.3351C118.86 37.3051 118.94 38.8651 118.48 39.9151L118.47 39.9351Z" fill="black"/>
<path d="M112.21 36.7151C111.66 37.5151 111.66 38.9851 112.16 39.7151V39.6851L112.11 39.5851C110.48 35.3051 107.88 31.4451 104.98 27.9151C98.4101 20.2351 90.1001 14.0251 80.9401 9.83511C77.5801 8.48511 73.4902 6.55509 69.9802 6.87509C65.9402 7.08509 66.6401 10.3851 68.1201 13.0751C69.8201 16.1251 74.0301 19.5451 71.3701 23.3751C69.0601 26.5151 64.4801 24.9151 61.4701 25.1151C60.5701 25.1251 59.9002 25.3751 59.9502 25.4251C59.9502 25.4451 60.0601 25.3451 60.0701 25.3351C59.7601 28.1351 61.3602 31.5051 62.4502 34.2251C62.7902 35.0251 63.4801 36.6351 63.8501 37.4251C64.8201 39.5751 65.8201 41.7451 66.7601 43.9751L63.2002 42.2151C79.6402 39.7951 95.5801 38.2551 112.23 36.7051L112.21 36.7151ZM118.47 39.9351C100.69 43.3251 82.1801 46.6951 64.1501 49.1951C62.6801 49.4051 61.2902 48.6551 60.6102 47.4351C56.8702 42.0751 53.7901 36.2051 52.4101 29.6751C50.5801 19.9651 56.4101 16.2451 65.4401 17.8351C66.0101 17.9051 66.5702 17.9651 66.8902 17.9751C67.0302 17.9851 67.1302 17.9551 66.8902 18.0251C65.8102 18.3451 64.9302 19.5151 64.9302 20.6551C64.9102 20.8751 64.9502 21.1351 65.0202 21.3251C64.2102 19.6751 62.7601 18.0451 61.9801 16.1951C60.5901 13.2351 59.7401 9.89513 60.9401 6.48513C63.5701 -0.574866 72.4401 0.105141 78.0301 2.55514C79.7701 3.28514 81.5601 4.1851 83.2801 4.9551C84.8201 5.8451 86.7801 6.82509 88.2801 7.75509L91.5001 9.79513C99.9701 15.4151 107.07 22.7851 113.55 30.5451C114.78 31.9651 116.03 33.5851 117.21 35.0551L117.82 35.8351L118.13 36.2351L118.21 36.3351C118.86 37.3051 118.94 38.8651 118.48 39.9151L118.47 39.9351Z" fill="black" fill-opacity="0.2"/>
<path d="M112.21 36.7151C111.66 37.5151 111.66 38.9851 112.16 39.7151V39.6851L112.11 39.5851C110.48 35.3051 107.88 31.4451 104.98 27.9151C98.4101 20.2351 90.1001 14.0251 80.9401 9.83511C77.5801 8.48511 73.4902 6.55509 69.9802 6.87509C65.9402 7.08509 66.6401 10.3851 68.1201 13.0751C69.8201 16.1251 74.0301 19.5451 71.3701 23.3751C69.0601 26.5151 64.4801 24.9151 61.4701 25.1151C60.5701 25.1251 59.9002 25.3751 59.9502 25.4251C59.9502 25.4451 60.0601 25.3451 60.0701 25.3351C59.7601 28.1351 61.3602 31.5051 62.4502 34.2251C62.7902 35.0251 63.4801 36.6351 63.8501 37.4251C64.8201 39.5751 65.8201 41.7451 66.7601 43.9751L63.2002 42.2151C79.6402 39.7951 95.5801 38.2551 112.23 36.7051L112.21 36.7151ZM118.47 39.9351C100.69 43.3251 82.1801 46.6951 64.1501 49.1951C62.6801 49.4051 61.2902 48.6551 60.6102 47.4351C56.8702 42.0751 53.7901 36.2051 52.4101 29.6751C50.5801 19.9651 56.4101 16.2451 65.4401 17.8351C66.0101 17.9051 66.5702 17.9651 66.8902 17.9751C67.0302 17.9851 67.1302 17.9551 66.8902 18.0251C65.8102 18.3451 64.9302 19.5151 64.9302 20.6551C64.9102 20.8751 64.9502 21.1351 65.0202 21.3251C64.2102 19.6751 62.7601 18.0451 61.9801 16.1951C60.5901 13.2351 59.7401 9.89513 60.9401 6.48513C63.5701 -0.574866 72.4401 0.105141 78.0301 2.55514C79.7701 3.28514 81.5601 4.1851 83.2801 4.9551C84.8201 5.8451 86.7801 6.82509 88.2801 7.75509L91.5001 9.79513C99.9701 15.4151 107.07 22.7851 113.55 30.5451C114.78 31.9651 116.03 33.5851 117.21 35.0551L117.82 35.8351L118.13 36.2351L118.21 36.3351C118.86 37.3051 118.94 38.8651 118.48 39.9151L118.47 39.9351Z" fill="black"/>
<path d="M112.21 36.7151C111.66 37.5151 111.66 38.9851 112.16 39.7151V39.6851L112.11 39.5851C110.48 35.3051 107.88 31.4451 104.98 27.9151C98.4101 20.2351 90.1001 14.0251 80.9401 9.83511C77.5801 8.48511 73.4902 6.55509 69.9802 6.87509C65.9402 7.08509 66.6401 10.3851 68.1201 13.0751C69.8201 16.1251 74.0301 19.5451 71.3701 23.3751C69.0601 26.5151 64.4801 24.9151 61.4701 25.1151C60.5701 25.1251 59.9002 25.3751 59.9502 25.4251C59.9502 25.4451 60.0601 25.3451 60.0701 25.3351C59.7601 28.1351 61.3602 31.5051 62.4502 34.2251C62.7902 35.0251 63.4801 36.6351 63.8501 37.4251C64.8201 39.5751 65.8201 41.7451 66.7601 43.9751L63.2002 42.2151C79.6402 39.7951 95.5801 38.2551 112.23 36.7051L112.21 36.7151ZM118.47 39.9351C100.69 43.3251 82.1801 46.6951 64.1501 49.1951C62.6801 49.4051 61.2902 48.6551 60.6102 47.4351C56.8702 42.0751 53.7901 36.2051 52.4101 29.6751C50.5801 19.9651 56.4101 16.2451 65.4401 17.8351C66.0101 17.9051 66.5702 17.9651 66.8902 17.9751C67.0302 17.9851 67.1302 17.9551 66.8902 18.0251C65.8102 18.3451 64.9302 19.5151 64.9302 20.6551C64.9102 20.8751 64.9502 21.1351 65.0202 21.3251C64.2102 19.6751 62.7601 18.0451 61.9801 16.1951C60.5901 13.2351 59.7401 9.89513 60.9401 6.48513C63.5701 -0.574866 72.4401 0.105141 78.0301 2.55514C79.7701 3.28514 81.5601 4.1851 83.2801 4.9551C84.8201 5.8451 86.7801 6.82509 88.2801 7.75509L91.5001 9.79513C99.9701 15.4151 107.07 22.7851 113.55 30.5451C114.78 31.9651 116.03 33.5851 117.21 35.0551L117.82 35.8351L118.13 36.2351L118.21 36.3351C118.86 37.3051 118.94 38.8651 118.48 39.9151L118.47 39.9351Z" fill="black" fill-opacity="0.2"/>
<path d="M38.2301 94.6059L38.3901 91.5859C49.1101 105.446 70.1501 118.436 91.2501 118.436C121.37 118.436 145.79 98.0159 145.79 72.8459C145.79 47.6759 121.37 27.2559 91.2501 27.2559C70.7201 27.2559 48.0701 42.9359 37.3701 58.2759" fill="#FECB8B"/>
<path d="M89.2202 108.586C94.7102 111.546 106.43 112.756 115.18 110.876C123.16 109.156 106.98 120.366 89.9902 119.866L89.2302 108.586H89.2202Z" fill="#FF6700"/>
<path d="M30.22 64.3954C22.07 46.6254 9.97004 40.3554 7.02004 48.0754C5.20004 20.3854 28.86 46.1254 33.52 56.8054L30.22 64.3954Z" fill="#FECB8B"/>
<path d="M13.3003 108.455C25.3203 108.065 30.6403 89.3947 30.5903 83.3047L37.3403 94.0247C29.9003 104.045 21.9503 109.505 13.3003 108.455Z" fill="black"/>
<path d="M13.3003 108.455C25.3203 108.065 30.6403 89.3947 30.5903 83.3047L37.3403 94.0247C29.9003 104.045 21.9503 109.505 13.3003 108.455Z" fill="black" fill-opacity="0.2"/>
<path d="M13.3003 108.455C25.3203 108.065 30.6403 89.3947 30.5903 83.3047L37.3403 94.0247C29.9003 104.045 21.9503 109.505 13.3003 108.455Z" fill="black"/>
<path d="M13.3003 108.455C25.3203 108.065 30.6403 89.3947 30.5903 83.3047L37.3403 94.0247C29.9003 104.045 21.9503 109.505 13.3003 108.455Z" fill="black" fill-opacity="0.2"/>
<path d="M35.07 81.7344C37.42 84.0644 30.25 71.5444 34.25 63.3744C54.72 21.4644 99.74 27.6744 95.51 29.2544C60.53 42.3544 57.23 79.9944 74.63 103.854L62.32 109.274C56.15 110.044 33.04 90.3844 35.07 81.7544V81.7344Z" fill="#FF6700"/>
<path d="M41.2503 96.4142C35.0403 106.014 24.7903 116.934 12.2403 115.394C7.74026 114.834 3.98026 112.184 2.64026 107.454C-0.139736 97.5142 6.12026 82.8542 10.4003 73.8842C10.4003 73.8842 10.4003 77.1042 10.4003 77.0942C5.79026 67.3742 -1.39973 51.0642 0.610265 40.3242C2.32027 31.8942 10.4603 30.9542 17.2903 33.3342C24.6503 35.9742 29.9303 41.6742 34.2803 47.7342C36.3603 50.6942 38.2003 53.7742 39.8503 56.9542C41.4403 60.2842 36.7303 62.7342 34.9003 59.5642C30.3703 51.4642 24.3103 42.3942 15.3403 39.1542C12.7103 38.2742 9.19026 38.1642 8.17026 39.1442C4.96026 42.1342 7.71026 51.3442 8.89026 55.3242C10.9003 61.6442 13.6603 67.9942 16.6603 73.8842C17.2003 74.9242 17.1603 76.1142 16.6603 77.0942C14.0903 82.3442 11.7903 88.0142 10.2803 93.6542C9.33026 97.5742 7.51026 105.004 10.8503 107.694C12.5903 108.664 14.7603 108.674 16.7303 108.364C23.3203 107.104 28.7103 101.534 32.7803 96.2942C33.6203 95.1942 34.5002 93.9342 35.2202 92.7742C37.7602 88.8842 43.5203 92.3642 41.2303 96.4242L41.2503 96.4142Z" fill="black"/>
<path d="M41.2503 96.4142C35.0403 106.014 24.7903 116.934 12.2403 115.394C7.74026 114.834 3.98026 112.184 2.64026 107.454C-0.139736 97.5142 6.12026 82.8542 10.4003 73.8842C10.4003 73.8842 10.4003 77.1042 10.4003 77.0942C5.79026 67.3742 -1.39973 51.0642 0.610265 40.3242C2.32027 31.8942 10.4603 30.9542 17.2903 33.3342C24.6503 35.9742 29.9303 41.6742 34.2803 47.7342C36.3603 50.6942 38.2003 53.7742 39.8503 56.9542C41.4403 60.2842 36.7303 62.7342 34.9003 59.5642C30.3703 51.4642 24.3103 42.3942 15.3403 39.1542C12.7103 38.2742 9.19026 38.1642 8.17026 39.1442C4.96026 42.1342 7.71026 51.3442 8.89026 55.3242C10.9003 61.6442 13.6603 67.9942 16.6603 73.8842C17.2003 74.9242 17.1603 76.1142 16.6603 77.0942C14.0903 82.3442 11.7903 88.0142 10.2803 93.6542C9.33026 97.5742 7.51026 105.004 10.8503 107.694C12.5903 108.664 14.7603 108.674 16.7303 108.364C23.3203 107.104 28.7103 101.534 32.7803 96.2942C33.6203 95.1942 34.5002 93.9342 35.2202 92.7742C37.7602 88.8842 43.5203 92.3642 41.2303 96.4242L41.2503 96.4142Z" fill="black" fill-opacity="0.2"/>
<path d="M41.2503 96.4142C35.0403 106.014 24.7903 116.934 12.2403 115.394C7.74026 114.834 3.98026 112.184 2.64026 107.454C-0.139736 97.5142 6.12026 82.8542 10.4003 73.8842C10.4003 73.8842 10.4003 77.1042 10.4003 77.0942C5.79026 67.3742 -1.39973 51.0642 0.610265 40.3242C2.32027 31.8942 10.4603 30.9542 17.2903 33.3342C24.6503 35.9742 29.9303 41.6742 34.2803 47.7342C36.3603 50.6942 38.2003 53.7742 39.8503 56.9542C41.4403 60.2842 36.7303 62.7342 34.9003 59.5642C30.3703 51.4642 24.3103 42.3942 15.3403 39.1542C12.7103 38.2742 9.19026 38.1642 8.17026 39.1442C4.96026 42.1342 7.71026 51.3442 8.89026 55.3242C10.9003 61.6442 13.6603 67.9942 16.6603 73.8842C17.2003 74.9242 17.1603 76.1142 16.6603 77.0942C14.0903 82.3442 11.7903 88.0142 10.2803 93.6542C9.33026 97.5742 7.51026 105.004 10.8503 107.694C12.5903 108.664 14.7603 108.674 16.7303 108.364C23.3203 107.104 28.7103 101.534 32.7803 96.2942C33.6203 95.1942 34.5002 93.9342 35.2202 92.7742C37.7602 88.8842 43.5203 92.3642 41.2303 96.4242L41.2503 96.4142Z" fill="black"/>
<path d="M41.2503 96.4142C35.0403 106.014 24.7903 116.934 12.2403 115.394C7.74026 114.834 3.98026 112.184 2.64026 107.454C-0.139736 97.5142 6.12026 82.8542 10.4003 73.8842C10.4003 73.8842 10.4003 77.1042 10.4003 77.0942C5.79026 67.3742 -1.39973 51.0642 0.610265 40.3242C2.32027 31.8942 10.4603 30.9542 17.2903 33.3342C24.6503 35.9742 29.9303 41.6742 34.2803 47.7342C36.3603 50.6942 38.2003 53.7742 39.8503 56.9542C41.4403 60.2842 36.7303 62.7342 34.9003 59.5642C30.3703 51.4642 24.3103 42.3942 15.3403 39.1542C12.7103 38.2742 9.19026 38.1642 8.17026 39.1442C4.96026 42.1342 7.71026 51.3442 8.89026 55.3242C10.9003 61.6442 13.6603 67.9942 16.6603 73.8842C17.2003 74.9242 17.1603 76.1142 16.6603 77.0942C14.0903 82.3442 11.7903 88.0142 10.2803 93.6542C9.33026 97.5742 7.51026 105.004 10.8503 107.694C12.5903 108.664 14.7603 108.674 16.7303 108.364C23.3203 107.104 28.7103 101.534 32.7803 96.2942C33.6203 95.1942 34.5002 93.9342 35.2202 92.7742C37.7602 88.8842 43.5203 92.3642 41.2303 96.4242L41.2503 96.4142Z" fill="black" fill-opacity="0.2"/>
<path d="M31.4504 61.9057C41.8804 43.1457 64.8305 27.1257 86.1805 24.6057C108.77 22.5757 133.42 33.4757 143.87 54.2957C156.8 80.7057 140.1 108.536 114.11 118.086C105.19 121.446 95.5604 122.726 86.0804 121.936C68.5104 120.066 52.0004 111.216 40.1304 98.2458C39.1504 97.2458 37.8804 95.5557 36.9804 94.4757C34.4404 91.2057 32.3404 87.6358 30.7404 83.7458C30.2004 82.4658 30.8004 80.9857 32.0804 80.4457C33.3004 79.9257 34.7004 80.4457 35.2904 81.6057C37.9304 86.7957 41.7604 91.4857 46.1904 95.5357C59.0504 107.306 76.7704 115.496 94.4004 114.566C117.27 113.816 142.58 98.2557 143.26 73.4057C143.86 48.2157 118.88 31.3057 95.6404 30.2657C83.8204 29.2057 72.1704 33.4157 61.9604 39.7157C52.0004 45.9957 42.5804 54.4857 37.0204 64.8457C34.9604 68.4857 29.5904 65.6457 31.4504 61.8857H31.4404L31.4504 61.9057Z" fill="black"/>
<path d="M31.4504 61.9057C41.8804 43.1457 64.8305 27.1257 86.1805 24.6057C108.77 22.5757 133.42 33.4757 143.87 54.2957C156.8 80.7057 140.1 108.536 114.11 118.086C105.19 121.446 95.5604 122.726 86.0804 121.936C68.5104 120.066 52.0004 111.216 40.1304 98.2458C39.1504 97.2458 37.8804 95.5557 36.9804 94.4757C34.4404 91.2057 32.3404 87.6358 30.7404 83.7458C30.2004 82.4658 30.8004 80.9857 32.0804 80.4457C33.3004 79.9257 34.7004 80.4457 35.2904 81.6057C37.9304 86.7957 41.7604 91.4857 46.1904 95.5357C59.0504 107.306 76.7704 115.496 94.4004 114.566C117.27 113.816 142.58 98.2557 143.26 73.4057C143.86 48.2157 118.88 31.3057 95.6404 30.2657C83.8204 29.2057 72.1704 33.4157 61.9604 39.7157C52.0004 45.9957 42.5804 54.4857 37.0204 64.8457C34.9604 68.4857 29.5904 65.6457 31.4504 61.8857H31.4404L31.4504 61.9057Z" fill="black" fill-opacity="0.2"/>
<path d="M31.4504 61.9057C41.8804 43.1457 64.8305 27.1257 86.1805 24.6057C108.77 22.5757 133.42 33.4757 143.87 54.2957C156.8 80.7057 140.1 108.536 114.11 118.086C105.19 121.446 95.5604 122.726 86.0804 121.936C68.5104 120.066 52.0004 111.216 40.1304 98.2458C39.1504 97.2458 37.8804 95.5557 36.9804 94.4757C34.4404 91.2057 32.3404 87.6358 30.7404 83.7458C30.2004 82.4658 30.8004 80.9857 32.0804 80.4457C33.3004 79.9257 34.7004 80.4457 35.2904 81.6057C37.9304 86.7957 41.7604 91.4857 46.1904 95.5357C59.0504 107.306 76.7704 115.496 94.4004 114.566C117.27 113.816 142.58 98.2557 143.26 73.4057C143.86 48.2157 118.88 31.3057 95.6404 30.2657C83.8204 29.2057 72.1704 33.4157 61.9604 39.7157C52.0004 45.9957 42.5804 54.4857 37.0204 64.8457C34.9604 68.4857 29.5904 65.6457 31.4504 61.8857H31.4404L31.4504 61.9057Z" fill="black"/>
<path d="M31.4504 61.9057C41.8804 43.1457 64.8305 27.1257 86.1805 24.6057C108.77 22.5757 133.42 33.4757 143.87 54.2957C156.8 80.7057 140.1 108.536 114.11 118.086C105.19 121.446 95.5604 122.726 86.0804 121.936C68.5104 120.066 52.0004 111.216 40.1304 98.2458C39.1504 97.2458 37.8804 95.5557 36.9804 94.4757C34.4404 91.2057 32.3404 87.6358 30.7404 83.7458C30.2004 82.4658 30.8004 80.9857 32.0804 80.4457C33.3004 79.9257 34.7004 80.4457 35.2904 81.6057C37.9304 86.7957 41.7604 91.4857 46.1904 95.5357C59.0504 107.306 76.7704 115.496 94.4004 114.566C117.27 113.816 142.58 98.2557 143.26 73.4057C143.86 48.2157 118.88 31.3057 95.6404 30.2657C83.8204 29.2057 72.1704 33.4157 61.9604 39.7157C52.0004 45.9957 42.5804 54.4857 37.0204 64.8457C34.9604 68.4857 29.5904 65.6457 31.4504 61.8857H31.4404L31.4504 61.9057Z" fill="black" fill-opacity="0.2"/>
<path d="M79.9804 129.225C88.7704 123.355 92.9104 114.115 89.2204 108.585C85.5304 103.055 75.4104 103.335 66.6204 109.205C57.8304 115.075 53.6904 124.315 57.3804 129.845C61.0704 135.375 71.1904 135.095 79.9804 129.225Z" fill="#FECB8B"/>
<path d="M89.7804 111.696C89.1204 110.326 88.0204 107.426 86.6804 106.596C88.0904 112.236 82.9304 120.496 74.4904 124.576C67.4904 127.956 60.8504 125.106 58.6504 118.826C58.7704 119.326 56.3204 127.306 56.5504 127.766C59.3404 133.536 69.0404 134.616 78.2104 130.176C87.3904 125.736 92.5704 117.466 89.7804 111.696Z" fill="#FF6700"/>
<path d="M75.3302 106.196C70.0102 109.836 64.6602 114.056 61.7102 119.626C59.4502 124.026 58.7902 129.076 64.9002 129.866C69.2302 130.406 73.8102 128.876 77.6202 126.726C81.6402 124.486 84.8102 120.926 86.5002 116.606C87.5302 113.806 87.9602 110.566 86.7002 107.796C86.3302 107.106 86.6302 106.236 87.3402 105.906C89.5502 104.876 91.1802 110.376 91.3502 111.886C92.1802 117.916 89.7402 123.936 85.7802 128.436C78.6502 136.456 62.4902 142.406 54.4302 132.556C48.2302 123.616 55.9302 112.346 63.6702 107.546C66.8802 105.456 70.3602 103.966 73.9302 103.036C74.8602 102.796 75.8202 103.356 76.0602 104.286C76.2502 105.036 75.9402 105.786 75.3302 106.176V106.196Z" fill="black"/>
<path d="M75.3302 106.196C70.0102 109.836 64.6602 114.056 61.7102 119.626C59.4502 124.026 58.7902 129.076 64.9002 129.866C69.2302 130.406 73.8102 128.876 77.6202 126.726C81.6402 124.486 84.8102 120.926 86.5002 116.606C87.5302 113.806 87.9602 110.566 86.7002 107.796C86.3302 107.106 86.6302 106.236 87.3402 105.906C89.5502 104.876 91.1802 110.376 91.3502 111.886C92.1802 117.916 89.7402 123.936 85.7802 128.436C78.6502 136.456 62.4902 142.406 54.4302 132.556C48.2302 123.616 55.9302 112.346 63.6702 107.546C66.8802 105.456 70.3602 103.966 73.9302 103.036C74.8602 102.796 75.8202 103.356 76.0602 104.286C76.2502 105.036 75.9402 105.786 75.3302 106.176V106.196Z" fill="black" fill-opacity="0.2"/>
<path d="M75.3302 106.196C70.0102 109.836 64.6602 114.056 61.7102 119.626C59.4502 124.026 58.7902 129.076 64.9002 129.866C69.2302 130.406 73.8102 128.876 77.6202 126.726C81.6402 124.486 84.8102 120.926 86.5002 116.606C87.5302 113.806 87.9602 110.566 86.7002 107.796C86.3302 107.106 86.6302 106.236 87.3402 105.906C89.5502 104.876 91.1802 110.376 91.3502 111.886C92.1802 117.916 89.7402 123.936 85.7802 128.436C78.6502 136.456 62.4902 142.406 54.4302 132.556C48.2302 123.616 55.9302 112.346 63.6702 107.546C66.8802 105.456 70.3602 103.966 73.9302 103.036C74.8602 102.796 75.8202 103.356 76.0602 104.286C76.2502 105.036 75.9402 105.786 75.3302 106.176V106.196Z" fill="black"/>
<path d="M75.3302 106.196C70.0102 109.836 64.6602 114.056 61.7102 119.626C59.4502 124.026 58.7902 129.076 64.9002 129.866C69.2302 130.406 73.8102 128.876 77.6202 126.726C81.6402 124.486 84.8102 120.926 86.5002 116.606C87.5302 113.806 87.9602 110.566 86.7002 107.796C86.3302 107.106 86.6302 106.236 87.3402 105.906C89.5502 104.876 91.1802 110.376 91.3502 111.886C92.1802 117.916 89.7402 123.936 85.7802 128.436C78.6502 136.456 62.4902 142.406 54.4302 132.556C48.2302 123.616 55.9302 112.346 63.6702 107.546C66.8802 105.456 70.3602 103.966 73.9302 103.036C74.8602 102.796 75.8202 103.356 76.0602 104.286C76.2502 105.036 75.9402 105.786 75.3302 106.176V106.196Z" fill="black" fill-opacity="0.2"/>
<path d="M121.52 68.2042C124.72 67.2942 126.09 62.2243 124.58 56.8643C123.06 51.5143 119.24 47.9042 116.04 48.8142C112.83 49.7242 111.47 54.7942 112.98 60.1542C114.49 65.5042 118.32 69.1142 121.52 68.2042Z" fill="black"/>
<path d="M121.52 68.2042C124.72 67.2942 126.09 62.2243 124.58 56.8643C123.06 51.5143 119.24 47.9042 116.04 48.8142C112.83 49.7242 111.47 54.7942 112.98 60.1542C114.49 65.5042 118.32 69.1142 121.52 68.2042Z" fill="black" fill-opacity="0.2"/>
<path d="M121.52 68.2042C124.72 67.2942 126.09 62.2243 124.58 56.8643C123.06 51.5143 119.24 47.9042 116.04 48.8142C112.83 49.7242 111.47 54.7942 112.98 60.1542C114.49 65.5042 118.32 69.1142 121.52 68.2042Z" fill="black"/>
<path d="M121.52 68.2042C124.72 67.2942 126.09 62.2243 124.58 56.8643C123.06 51.5143 119.24 47.9042 116.04 48.8142C112.83 49.7242 111.47 54.7942 112.98 60.1542C114.49 65.5042 118.32 69.1142 121.52 68.2042Z" fill="black" fill-opacity="0.2"/>
<path d="M124.7 60.8941C125.95 60.5441 126.54 58.7341 126.01 56.8741C125.48 55.0041 124.04 53.7841 122.78 54.1341C121.53 54.4841 120.94 56.2941 121.47 58.1541C122 60.0241 123.44 61.2441 124.7 60.8941Z" fill="white"/>
<path d="M97.0501 77.7645C97.0501 77.7045 97.0201 77.6845 96.7701 77.6145C96.5501 77.5545 96.1501 77.5345 95.8601 77.5845C94.2001 77.7745 93.1001 79.7845 93.8701 81.3145C94.0101 81.6645 94.4001 82.0845 94.5601 82.2545C94.6701 82.3645 94.5001 82.3145 94.7301 82.4645C94.9601 82.5845 95.2301 82.6645 95.4901 82.7045C97.8101 83.0545 99.5001 80.3945 98.2401 78.4445C98.1501 78.2845 98.0001 78.1145 97.8901 77.9745C97.8301 77.8945 97.8601 77.9145 97.8801 77.9145C100.64 79.9545 102.84 82.6245 104.44 85.6645C105.08 86.9445 104.56 88.5145 103.28 89.1545C101.22 90.1945 99.7801 88.1945 98.5101 86.8845C97.6901 85.9945 96.0401 84.2245 95.2101 83.3445C94.6501 82.7345 93.8401 82.0645 93.4201 81.3445C92.1301 79.1345 94.3501 76.4045 96.8001 77.2845C97.2501 77.4445 97.5601 77.7145 97.8501 77.9845C98.1201 78.2145 98.6101 78.7545 98.7601 79.2245C99.5701 81.1945 97.7201 83.3045 95.7101 82.8045C92.0101 81.7845 93.4201 76.5945 97.0601 77.7845L97.0501 77.7645Z" fill="black"/>
<path d="M97.0501 77.7645C97.0501 77.7045 97.0201 77.6845 96.7701 77.6145C96.5501 77.5545 96.1501 77.5345 95.8601 77.5845C94.2001 77.7745 93.1001 79.7845 93.8701 81.3145C94.0101 81.6645 94.4001 82.0845 94.5601 82.2545C94.6701 82.3645 94.5001 82.3145 94.7301 82.4645C94.9601 82.5845 95.2301 82.6645 95.4901 82.7045C97.8101 83.0545 99.5001 80.3945 98.2401 78.4445C98.1501 78.2845 98.0001 78.1145 97.8901 77.9745C97.8301 77.8945 97.8601 77.9145 97.8801 77.9145C100.64 79.9545 102.84 82.6245 104.44 85.6645C105.08 86.9445 104.56 88.5145 103.28 89.1545C101.22 90.1945 99.7801 88.1945 98.5101 86.8845C97.6901 85.9945 96.0401 84.2245 95.2101 83.3445C94.6501 82.7345 93.8401 82.0645 93.4201 81.3445C92.1301 79.1345 94.3501 76.4045 96.8001 77.2845C97.2501 77.4445 97.5601 77.7145 97.8501 77.9845C98.1201 78.2145 98.6101 78.7545 98.7601 79.2245C99.5701 81.1945 97.7201 83.3045 95.7101 82.8045C92.0101 81.7845 93.4201 76.5945 97.0601 77.7845L97.0501 77.7645Z" fill="black" fill-opacity="0.2"/>
<path d="M102.34 87.1445C102.34 87.1445 101.84 85.2145 99.2903 82.5745C96.7403 79.9345 93.8503 78.7145 93.8503 78.7145C88.6503 78.5645 80.2203 80.6645 77.7303 85.7845C77.0003 87.2845 76.2003 90.3145 79.0603 93.7545C80.7503 95.7845 82.7603 96.5645 84.8803 96.5645C89.4203 96.5645 94.4603 92.9945 97.9103 90.5545C99.0803 89.7245 102.56 87.1245 102.34 87.1345V87.1445Z" fill="#FF6700"/>
<path d="M89.4901 54.8247C94.1601 55.6147 98.79 56.5347 103.45 57.3947C105.02 57.6847 106.06 59.1847 105.77 60.7547C105.46 62.6247 103.54 63.1647 102.03 63.7347C100.86 64.0947 97.9601 64.8347 96.7401 65.1747C94.3901 65.8147 92.04 66.4547 89.66 67.0347C88.65 67.2847 87.63 66.6647 87.38 65.6647C87.16 64.7947 87.6 63.9147 88.37 63.5247C90.56 62.4347 92.76 61.3947 94.97 60.3647C96.94 59.5047 99.6 57.9847 101.67 57.4747L101.93 63.1246C97.4701 61.5646 92.98 60.0646 88.54 58.4346C86.42 57.6446 87.28 54.4547 89.5 54.8247H89.4901Z" fill="black"/>
<path d="M89.4901 54.8247C94.1601 55.6147 98.79 56.5347 103.45 57.3947C105.02 57.6847 106.06 59.1847 105.77 60.7547C105.46 62.6247 103.54 63.1647 102.03 63.7347C100.86 64.0947 97.9601 64.8347 96.7401 65.1747C94.3901 65.8147 92.04 66.4547 89.66 67.0347C88.65 67.2847 87.63 66.6647 87.38 65.6647C87.16 64.7947 87.6 63.9147 88.37 63.5247C90.56 62.4347 92.76 61.3947 94.97 60.3647C96.94 59.5047 99.6 57.9847 101.67 57.4747L101.93 63.1246C97.4701 61.5646 92.98 60.0646 88.54 58.4346C86.42 57.6446 87.28 54.4547 89.5 54.8247H89.4901Z" fill="black" fill-opacity="0.2"/>
<path d="M148.15 64.385C149.2 64.575 150.24 64.785 151.28 65.025C151.97 65.005 152.66 64.995 153.36 64.975L148.15 64.375V64.385Z" fill="#FF6700"/>
<path d="M111.51 57.9453C112.22 77.1853 118.96 78.4553 125.2 80.3553C131.44 82.2553 135.69 83.1153 141.17 84.6053C142.23 82.4253 144.31 73.2653 144.31 73.2653L111.51 57.9453Z" fill="#FF6700"/>
<path d="M125.77 74.1546C120.18 74.1546 115.09 69.4746 113.12 62.5146C112.19 59.2246 112.11 55.8046 112.9 52.8846C114 48.8246 116.67 45.9146 120.25 44.9046C121.11 44.6646 151.96 40.7246 152.85 40.7246C158.44 40.7246 151.22 47.9546 153.19 54.9146C155.52 63.1446 162.86 76.1346 156.47 77.9446C155.61 78.1846 126.67 74.1646 125.77 74.1646V74.1546Z" fill="black"/>
<path d="M125.77 74.1546C120.18 74.1546 115.09 69.4746 113.12 62.5146C112.19 59.2246 112.11 55.8046 112.9 52.8846C114 48.8246 116.67 45.9146 120.25 44.9046C121.11 44.6646 151.96 40.7246 152.85 40.7246C158.44 40.7246 151.22 47.9546 153.19 54.9146C155.52 63.1446 162.86 76.1346 156.47 77.9446C155.61 78.1846 126.67 74.1646 125.77 74.1646V74.1546Z" fill="black" fill-opacity="0.2"/>
<path d="M158.18 77.1854C151.44 77.1854 145.32 71.5554 142.95 63.1754C141.83 59.2154 141.73 55.0954 142.68 51.5754C144 46.6854 147.22 43.1754 151.53 41.9654C152.57 41.6754 153.64 41.5254 154.72 41.5254C161.46 41.5254 167.58 47.1554 169.95 55.5354C172.76 65.4454 169.07 74.5654 161.37 76.7454C160.33 77.0354 159.26 77.1854 158.18 77.1854Z" fill="white"/>
<path d="M158.18 77.1854C151.44 77.1854 145.32 71.5554 142.95 63.1754C141.83 59.2154 141.73 55.0954 142.68 51.5754C144 46.6854 147.22 43.1754 151.53 41.9654C152.57 41.6754 153.64 41.5254 154.72 41.5254C161.46 41.5254 167.58 47.1554 169.95 55.5354C172.76 65.4454 169.07 74.5654 161.37 76.7454C160.33 77.0354 159.26 77.1854 158.18 77.1854Z" stroke="black" stroke-width="6" stroke-linecap="round" stroke-linejoin="round"/>
<path d="M158.18 77.1854C151.44 77.1854 145.32 71.5554 142.95 63.1754C141.83 59.2154 141.73 55.0954 142.68 51.5754C144 46.6854 147.22 43.1754 151.53 41.9654C152.57 41.6754 153.64 41.5254 154.72 41.5254C161.46 41.5254 167.58 47.1554 169.95 55.5354C172.76 65.4454 169.07 74.5654 161.37 76.7454C160.33 77.0354 159.26 77.1854 158.18 77.1854Z" stroke="black" stroke-opacity="0.2" stroke-width="6" stroke-linecap="round" stroke-linejoin="round"/>
<path d="M159.2 69.046C162.4 68.136 163.77 63.066 162.26 57.706C160.74 52.356 156.92 48.746 153.72 49.656C150.51 50.566 149.15 55.636 150.66 60.996C152.17 66.346 156 69.956 159.2 69.046Z" fill="black"/>
<path d="M159.2 69.046C162.4 68.136 163.77 63.066 162.26 57.706C160.74 52.356 156.92 48.746 153.72 49.656C150.51 50.566 149.15 55.636 150.66 60.996C152.17 66.346 156 69.956 159.2 69.046Z" fill="black" fill-opacity="0.2"/>
<path d="M162.38 61.7359C163.63 61.3859 164.22 59.5759 163.69 57.7159C163.16 55.8459 161.72 54.6259 160.46 54.9759C159.21 55.3259 158.62 57.1359 159.15 58.9959C159.68 60.8659 161.12 62.0859 162.38 61.7359Z" fill="white"/>
<path d="M156.47 77.9443C155.61 78.1843 126.67 74.1644 125.77 74.1644C120.18 74.1644 115.09 69.4844 113.12 62.5244C112.19 59.2344 112.11 55.8143 112.9 52.8943C114 48.8343 116.67 45.9244 120.25 44.9144C121.11 44.6744 151.96 40.7344 152.85 40.7344" stroke="black" stroke-width="2" stroke-miterlimit="10"/>
<path d="M156.47 77.9443C155.61 78.1843 126.67 74.1644 125.77 74.1644C120.18 74.1644 115.09 69.4844 113.12 62.5244C112.19 59.2344 112.11 55.8143 112.9 52.8943C114 48.8343 116.67 45.9244 120.25 44.9144C121.11 44.6744 151.96 40.7344 152.85 40.7344" stroke="black" stroke-opacity="0.2" stroke-width="2" stroke-miterlimit="10"/>
</svg>
