<svg width="177" height="138" viewBox="0 0 177 138" fill="none" xmlns="http://www.w3.org/2000/svg">
<g clip-path="url(#clip0_12468_5950)">
<path d="M161.244 91.3602C150.824 93.1902 135.164 90.3802 134.014 83.8502C132.864 77.3202 146.674 69.5402 157.084 67.7102C167.504 65.8802 175.714 70.1902 176.854 76.7202C178.004 83.2502 171.654 89.5302 161.234 91.3602H161.244Z" fill="black"/>
<path d="M37.2645 58.3298C32.9245 50.0898 23.3145 35.2398 10.5245 35.3898C-7.1555 35.5998 13.4245 75.5598 13.4245 75.5598C13.4245 75.5598 -3.2655 108.28 11.2845 111.74C25.8445 115.2 38.1245 94.6898 38.1245 94.6898" fill="#FF6700"/>
<path d="M115.224 38.4008C115.224 38.4008 103.364 15.6308 77.2741 5.43076C64.7241 0.530763 59.6241 8.17076 66.8641 17.7908C76.0841 30.0408 41.1441 5.92076 63.5741 45.7808L115.234 38.3908L115.224 38.4008Z" fill="#FF6700"/>
<path d="M95.4041 29.3199L106.604 25.9999L87.4541 10.3899L69.7741 3.91992L63.7441 8.10992C63.7441 8.10992 89.3241 16.6299 95.3941 29.3299L95.4041 29.3199Z" fill="#FECB8B"/>
<path d="M112.094 36.7894C111.544 37.5894 111.544 39.0594 112.044 39.7894V39.7594L111.994 39.6594C110.364 35.3794 107.764 31.5194 104.864 27.9894C98.2944 20.3094 89.9844 14.0994 80.8244 9.90936C77.4644 8.55936 73.3744 6.62936 69.8644 6.94936C65.8244 7.15936 66.5244 10.4594 68.0044 13.1494C69.7044 16.1994 73.9144 19.6194 71.2544 23.4494C68.9444 26.5894 64.3644 24.9894 61.3544 25.1894C60.4544 25.1994 59.7844 25.4494 59.8344 25.4994C59.8344 25.5194 59.9444 25.4194 59.9544 25.4094C59.6444 28.2094 61.2444 31.5794 62.3344 34.2994C62.6744 35.0994 63.3644 36.7094 63.7344 37.4994C64.7044 39.6494 65.7044 41.8194 66.6444 44.0494L63.0844 42.2894C79.5244 39.8694 95.4644 38.3294 112.114 36.7794L112.094 36.7894ZM118.354 40.0094C100.574 43.3994 82.0644 46.7694 64.0344 49.2694C62.5644 49.4794 61.1744 48.7294 60.4944 47.5094C56.7544 42.1494 53.6744 36.2794 52.2944 29.7494C50.4644 20.0394 56.2944 16.3194 65.3244 17.9094C65.8944 17.9794 66.4544 18.0394 66.7744 18.0494C66.9144 18.0594 67.0144 18.0294 66.7744 18.0994C65.6944 18.4194 64.8144 19.5894 64.8144 20.7294C64.7944 20.9494 64.8344 21.2094 64.9044 21.3994C64.0944 19.7494 62.6444 18.1194 61.8644 16.2694C60.4744 13.3094 59.6244 9.96936 60.8244 6.55936C63.4544 -0.500643 72.3244 0.179357 77.9144 2.62936C79.6544 3.35936 81.4444 4.25936 83.1644 5.02936C84.7044 5.91936 86.6644 6.89936 88.1644 7.82936L91.3844 9.86936C99.8544 15.4894 106.954 22.8594 113.434 30.6194C114.664 32.0394 115.914 33.6594 117.094 35.1294L117.704 35.9094L118.014 36.3094L118.094 36.4094C118.744 37.3794 118.824 38.9394 118.364 39.9894L118.354 40.0094Z" fill="black"/>
<path d="M112.094 36.7894C111.544 37.5894 111.544 39.0594 112.044 39.7894V39.7594L111.994 39.6594C110.364 35.3794 107.764 31.5194 104.864 27.9894C98.2944 20.3094 89.9844 14.0994 80.8244 9.90936C77.4644 8.55936 73.3744 6.62936 69.8644 6.94936C65.8244 7.15936 66.5244 10.4594 68.0044 13.1494C69.7044 16.1994 73.9144 19.6194 71.2544 23.4494C68.9444 26.5894 64.3644 24.9894 61.3544 25.1894C60.4544 25.1994 59.7844 25.4494 59.8344 25.4994C59.8344 25.5194 59.9444 25.4194 59.9544 25.4094C59.6444 28.2094 61.2444 31.5794 62.3344 34.2994C62.6744 35.0994 63.3644 36.7094 63.7344 37.4994C64.7044 39.6494 65.7044 41.8194 66.6444 44.0494L63.0844 42.2894C79.5244 39.8694 95.4644 38.3294 112.114 36.7794L112.094 36.7894ZM118.354 40.0094C100.574 43.3994 82.0644 46.7694 64.0344 49.2694C62.5644 49.4794 61.1744 48.7294 60.4944 47.5094C56.7544 42.1494 53.6744 36.2794 52.2944 29.7494C50.4644 20.0394 56.2944 16.3194 65.3244 17.9094C65.8944 17.9794 66.4544 18.0394 66.7744 18.0494C66.9144 18.0594 67.0144 18.0294 66.7744 18.0994C65.6944 18.4194 64.8144 19.5894 64.8144 20.7294C64.7944 20.9494 64.8344 21.2094 64.9044 21.3994C64.0944 19.7494 62.6444 18.1194 61.8644 16.2694C60.4744 13.3094 59.6244 9.96936 60.8244 6.55936C63.4544 -0.500643 72.3244 0.179357 77.9144 2.62936C79.6544 3.35936 81.4444 4.25936 83.1644 5.02936C84.7044 5.91936 86.6644 6.89936 88.1644 7.82936L91.3844 9.86936C99.8544 15.4894 106.954 22.8594 113.434 30.6194C114.664 32.0394 115.914 33.6594 117.094 35.1294L117.704 35.9094L118.014 36.3094L118.094 36.4094C118.744 37.3794 118.824 38.9394 118.364 39.9894L118.354 40.0094Z" fill="black"/>
<path d="M38.1144 94.6801L38.2744 91.6601C48.9944 105.52 70.0344 118.51 91.1344 118.51C121.254 118.51 145.674 98.0901 145.674 72.9201C145.674 47.7501 121.254 27.3301 91.1344 27.3301C70.6044 27.3301 47.9544 43.0101 37.2544 58.3501" fill="#FECB8B"/>
<path d="M30.1043 64.4696C21.9543 46.6996 9.85431 40.4296 6.90431 48.1496C5.08431 20.4596 28.7443 46.1996 33.4043 56.8796L30.1043 64.4696Z" fill="#FECB8B"/>
<path d="M13.1841 108.519C25.2041 108.129 30.5241 89.4591 30.4741 83.3691L37.2241 94.0891C29.7841 104.109 21.8341 109.569 13.1841 108.519Z" fill="black"/>
<path d="M13.1841 108.519C25.2041 108.129 30.5241 89.4591 30.4741 83.3691L37.2241 94.0891C29.7841 104.109 21.8341 109.569 13.1841 108.519Z" fill="black"/>
<path d="M76.2943 118.511C70.1243 119.281 32.9243 90.4506 34.9543 81.8206C37.3043 84.1406 30.1343 71.6306 34.1343 63.4506C54.6043 21.5306 99.6243 27.7406 95.3943 29.3206C60.4143 42.4206 47.9143 94.1606 89.1143 108.661C94.6043 111.621 106.324 112.831 115.074 110.951C123.054 109.231 87.5943 119.781 70.5943 119.291" fill="#FF6700"/>
<path d="M41.1342 96.4904C34.9242 106.09 24.6742 117.01 12.1242 115.47C7.62416 114.91 3.86416 112.26 2.52416 107.53C-0.255845 97.5904 6.00415 82.9304 10.2842 73.9604C10.2842 73.9604 10.2842 77.1804 10.2842 77.1704C5.68415 67.4504 -1.51584 51.1304 0.504155 40.4004C2.21416 31.9704 10.3542 31.0304 17.1842 33.4104C24.5442 36.0504 29.8242 41.7504 34.1742 47.8104C36.2542 50.7704 38.0942 53.8504 39.7442 57.0304C41.3342 60.3604 36.6242 62.8104 34.7942 59.6404C30.2642 51.5404 24.2042 42.4704 15.2342 39.2304C12.6042 38.3504 9.08416 38.2404 8.06416 39.2204C4.85416 42.2104 7.60415 51.4204 8.78415 55.4004C10.7942 61.7204 13.5542 68.0704 16.5542 73.9604C17.0942 75.0004 17.0542 76.1904 16.5542 77.1704C13.9842 82.4204 11.6842 88.0904 10.1742 93.7304C9.22416 97.6504 7.40416 105.08 10.7442 107.77C12.4842 108.74 14.6542 108.75 16.6242 108.44C23.2142 107.18 28.6042 101.61 32.6742 96.3704C33.5142 95.2704 34.3942 94.0104 35.1142 92.8504C37.6542 88.9604 43.4142 92.4404 41.1242 96.5004L41.1342 96.4904Z" fill="black"/>
<path d="M41.1342 96.4904C34.9242 106.09 24.6742 117.01 12.1242 115.47C7.62416 114.91 3.86416 112.26 2.52416 107.53C-0.255845 97.5904 6.00415 82.9304 10.2842 73.9604C10.2842 73.9604 10.2842 77.1804 10.2842 77.1704C5.68415 67.4504 -1.51584 51.1304 0.504155 40.4004C2.21416 31.9704 10.3542 31.0304 17.1842 33.4104C24.5442 36.0504 29.8242 41.7504 34.1742 47.8104C36.2542 50.7704 38.0942 53.8504 39.7442 57.0304C41.3342 60.3604 36.6242 62.8104 34.7942 59.6404C30.2642 51.5404 24.2042 42.4704 15.2342 39.2304C12.6042 38.3504 9.08416 38.2404 8.06416 39.2204C4.85416 42.2104 7.60415 51.4204 8.78415 55.4004C10.7942 61.7204 13.5542 68.0704 16.5542 73.9604C17.0942 75.0004 17.0542 76.1904 16.5542 77.1704C13.9842 82.4204 11.6842 88.0904 10.1742 93.7304C9.22416 97.6504 7.40416 105.08 10.7442 107.77C12.4842 108.74 14.6542 108.75 16.6242 108.44C23.2142 107.18 28.6042 101.61 32.6742 96.3704C33.5142 95.2704 34.3942 94.0104 35.1142 92.8504C37.6542 88.9604 43.4142 92.4404 41.1242 96.5004L41.1342 96.4904Z" fill="black"/>
<path d="M31.3342 61.98C41.7642 43.22 64.7142 27.2 86.0642 24.68C108.654 22.65 133.304 33.55 143.754 54.37C156.684 80.78 139.984 108.61 113.994 118.16C105.074 121.52 95.4442 122.8 85.9642 122.01C68.3942 120.14 51.8842 111.29 40.0142 98.32C39.0342 97.32 37.7642 95.63 36.8642 94.55C34.3242 91.28 32.2242 87.71 30.6242 83.82C30.0842 82.54 30.6842 81.06 31.9642 80.52C33.1842 80 34.5842 80.52 35.1742 81.68C37.8142 86.87 41.6442 91.56 46.0742 95.61C58.9342 107.38 76.6542 115.57 94.2842 114.64C117.154 113.89 142.464 98.33 143.144 73.48C143.744 48.29 118.764 31.38 95.5242 30.34C83.7042 29.28 72.0542 33.49 61.8442 39.79C51.8842 46.07 42.4642 54.56 36.9042 64.92C34.8442 68.56 29.4742 65.72 31.3342 61.96H31.3242L31.3342 61.98Z" fill="black"/>
<path d="M103.304 72.3594C106.714 71.3994 108.174 65.9994 106.554 60.2994C104.944 54.5994 100.874 50.7694 97.4645 51.7294C94.0545 52.6894 92.5945 58.0894 94.2145 63.7894C95.8245 69.4894 99.8945 73.3194 103.304 72.3594Z" fill="black"/>
<path d="M103.304 72.3594C106.714 71.3994 108.174 65.9994 106.554 60.2994C104.944 54.5994 100.874 50.7694 97.4645 51.7294C94.0545 52.6894 92.5945 58.0894 94.2145 63.7894C95.8245 69.4894 99.8945 73.3194 103.304 72.3594Z" fill="black"/>
<path d="M107.624 69.34C108.954 68.96 109.584 67.05 109.024 65.06C108.464 63.07 106.924 61.77 105.594 62.15C104.264 62.53 103.634 64.44 104.194 66.43C104.754 68.42 106.294 69.72 107.624 69.34Z" fill="white"/>
<path d="M121.414 68.2804C124.614 67.3704 125.984 62.3004 124.474 56.9404C122.954 51.5904 119.134 47.9804 115.934 48.8904C112.724 49.8004 111.364 54.8704 112.874 60.2304C114.384 65.5804 118.214 69.1904 121.414 68.2804Z" fill="black"/>
<path d="M121.414 68.2804C124.614 67.3704 125.984 62.3004 124.474 56.9404C122.954 51.5904 119.134 47.9804 115.934 48.8904C112.724 49.8004 111.364 54.8704 112.874 60.2304C114.384 65.5804 118.214 69.1904 121.414 68.2804Z" fill="black"/>
<path d="M126.044 65.4292C127.294 65.0792 127.884 63.2692 127.354 61.4092C126.824 59.5392 125.384 58.3192 124.124 58.6692C122.874 59.0192 122.284 60.8292 122.814 62.6892C123.344 64.5592 124.784 65.7792 126.044 65.4292Z" fill="white"/>
<path d="M108.314 44.4205C109.744 40.0705 115.534 38.0005 119.374 40.4605C121.134 41.4505 123.874 44.3604 121.384 45.9704C120.844 46.2904 120.244 46.2205 119.674 46.1205C118.314 45.8505 117.144 45.3505 115.794 45.4005C113.874 45.2905 112.184 46.6004 110.294 46.7904C108.974 47.0604 107.824 45.6605 108.314 44.4205Z" fill="black"/>
<path d="M83.9541 46.6602C84.3841 37.5202 94.2341 32.4502 101.924 37.4402C103.504 38.3502 102.884 40.8601 101.094 40.9501C99.8441 41.0701 98.6041 40.8802 97.3941 41.0002C92.8941 40.9502 89.9041 43.9002 87.5941 47.5101C86.5641 49.3001 83.9641 48.7701 83.9541 46.6701V46.6602Z" fill="black"/>
<path d="M108.744 135.29L132.584 133.05L144.714 110.95L164.994 105.11L170.364 57.3301L149.674 63.3001L137.544 85.4001L113.704 87.6401L108.744 135.29Z" fill="white" stroke="black" stroke-width="5" stroke-linejoin="round"/>
<path d="M139.704 85.0006C138.464 100.411 136.724 117.321 134.744 132.651L131.334 132.301C131.644 128.321 131.984 124.341 132.354 120.361C132.914 114.411 134.154 102.461 134.844 96.5306C135.294 92.5606 135.784 88.6006 136.304 84.6406L139.714 84.9906L139.704 85.0006Z" fill="black"/>
<path d="M151.644 65.6705C150.404 81.0805 148.664 97.9905 146.684 113.321L143.274 112.971C143.584 108.991 143.924 105.011 144.294 101.031C144.854 95.0805 146.094 83.1305 146.784 77.2005C147.234 73.2305 147.724 69.2705 148.244 65.3105L151.654 65.6605L151.644 65.6705Z" fill="black"/>
<path d="M94.2342 126.28C84.1642 123.05 77.6542 115.3 79.6842 108.97C81.7142 102.64 91.5242 100.13 101.584 103.36C111.654 106.59 118.164 114.34 116.134 120.67C114.104 127 104.294 129.51 94.2342 126.28Z" fill="#FECB8B"/>
<path d="M80.004 112.119C80.264 110.619 80.524 107.529 81.584 106.359C81.784 112.169 89.004 118.689 98.244 120.299C105.904 121.629 111.504 117.059 111.904 110.419C111.924 110.929 116.464 117.929 116.384 118.439C115.284 124.749 106.254 128.449 96.214 126.709C86.174 124.959 78.914 118.429 80.014 112.119H80.004Z" fill="#FF6700"/>
<path d="M92.3841 102.86C98.5041 104.9 104.804 107.49 109.174 112.04C112.554 115.65 114.574 120.32 108.914 122.76C104.894 124.46 100.074 124.25 95.8241 123.24C91.3441 122.19 87.3141 119.64 84.5041 115.95C82.7541 113.54 81.4341 110.54 81.8941 107.54C82.0541 106.77 81.5341 106.02 80.7641 105.9C78.3541 105.51 78.2941 111.25 78.5541 112.75C79.4141 118.78 83.4141 123.89 88.4541 127.13C97.5141 132.89 114.684 134.17 119.724 122.48C123.234 112.18 112.734 103.45 103.964 100.97C100.294 99.8401 96.5441 99.3601 92.8641 99.4501C91.9041 99.4701 91.1341 100.28 91.1641 101.24C91.1841 102.01 91.6941 102.64 92.3841 102.86Z" fill="black"/>
<path d="M118.564 73.7204C118.654 73.7904 118.994 74.0603 118.874 73.9103C117.314 72.5803 114.724 73.4403 113.954 74.9903C114.214 74.3403 114.764 73.6603 115.404 73.2003C120.264 69.9103 124.224 77.5503 118.794 79.6003C119.264 79.4703 119.964 78.9403 120.214 78.5003C120.354 78.2803 120.414 78.1204 120.314 78.2904C120.234 78.4004 120.184 78.6103 119.654 79.2003C119.074 79.9303 117.424 80.5903 116.344 80.3003C115.184 80.1203 114.224 79.2903 113.594 78.4303C111.054 75.1103 115.434 71.0204 118.574 73.7204H118.564Z" fill="black"/>
</g>
<defs>
<clipPath id="clip0_12468_5950">
<rect width="176.85" height="136.87" fill="white" transform="translate(0.154297 0.919922)"/>
</clipPath>
</defs>
</svg>
