<svg width="149" height="123" viewBox="0 0 149 123" fill="none" xmlns="http://www.w3.org/2000/svg">
<path d="M37.2513 58.1833C32.9113 49.9433 23.3013 35.0933 10.5113 35.2433C-7.16868 35.4533 13.4113 75.4133 13.4113 75.4133C13.4113 75.4133 -3.27871 108.133 11.2713 111.593C25.8313 115.053 38.1113 94.5433 38.1113 94.5433" fill="#FF6700"/>
<path d="M115.221 38.2523C115.221 38.2523 103.361 15.4823 77.2712 5.28233C64.7212 0.382325 59.6212 8.02233 66.8612 17.6423C76.0812 29.8923 41.1412 5.77233 63.5712 45.6323L115.231 38.2423L115.221 38.2523Z" fill="#FF6700"/>
<path d="M95.391 29.1637L106.591 25.8437L87.4409 10.2337L69.761 3.76367L63.731 7.95367C63.731 7.95367 89.311 16.4737 95.381 29.1737L95.391 29.1637Z" fill="#FECB8B"/>
<path d="M112.091 36.6431C111.541 37.4431 111.541 38.9131 112.041 39.6431V39.6131L111.991 39.5131C110.361 35.2331 107.761 31.3731 104.861 27.8431C98.291 20.1631 89.981 13.9531 80.821 9.76311C77.461 8.41311 73.371 6.48311 69.861 6.80311C65.821 7.01311 66.521 10.3131 68.001 13.0031C69.701 16.0531 73.911 19.4731 71.251 23.3031C68.941 26.4431 64.361 24.8431 61.351 25.0431C60.451 25.0531 59.781 25.3031 59.831 25.3531C59.831 25.3731 59.941 25.2731 59.951 25.2631C59.641 28.0631 61.241 31.4331 62.331 34.1531C62.671 34.9531 63.361 36.5631 63.731 37.3531C64.701 39.5031 65.701 41.6731 66.641 43.9031L63.081 42.1431C79.521 39.7231 95.461 38.1831 112.111 36.6331L112.091 36.6431ZM118.351 39.8531C100.571 43.2431 82.061 46.6131 64.031 49.1131C62.561 49.3231 61.171 48.5731 60.491 47.3531C56.751 41.9931 53.671 36.1231 52.291 29.5931C50.461 19.8831 56.291 16.1631 65.321 17.7531C65.891 17.8231 66.451 17.8831 66.771 17.8931C66.911 17.9031 67.011 17.8731 66.771 17.9431C65.691 18.2631 64.811 19.4331 64.811 20.5731C64.791 20.7931 64.831 21.0531 64.901 21.2431C64.091 19.5931 62.641 17.9631 61.861 16.1131C60.471 13.1531 59.621 9.81311 60.821 6.40311C63.451 -0.656888 72.321 0.023104 77.911 2.4731C79.651 3.2031 81.441 4.10311 83.161 4.87311C84.701 5.76311 86.661 6.7431 88.161 7.6731L91.381 9.71311C99.851 15.3331 106.951 22.7031 113.431 30.4631C114.661 31.8831 115.911 33.5031 117.091 34.9731L117.701 35.7531L118.011 36.1531L118.091 36.2531C118.741 37.2231 118.821 38.7831 118.361 39.8331L118.351 39.8531Z" fill="black"/>
<path d="M112.091 36.6431C111.541 37.4431 111.541 38.9131 112.041 39.6431V39.6131L111.991 39.5131C110.361 35.2331 107.761 31.3731 104.861 27.8431C98.291 20.1631 89.981 13.9531 80.821 9.76311C77.461 8.41311 73.371 6.48311 69.861 6.80311C65.821 7.01311 66.521 10.3131 68.001 13.0031C69.701 16.0531 73.911 19.4731 71.251 23.3031C68.941 26.4431 64.361 24.8431 61.351 25.0431C60.451 25.0531 59.781 25.3031 59.831 25.3531C59.831 25.3731 59.941 25.2731 59.951 25.2631C59.641 28.0631 61.241 31.4331 62.331 34.1531C62.671 34.9531 63.361 36.5631 63.731 37.3531C64.701 39.5031 65.701 41.6731 66.641 43.9031L63.081 42.1431C79.521 39.7231 95.461 38.1831 112.111 36.6331L112.091 36.6431ZM118.351 39.8531C100.571 43.2431 82.061 46.6131 64.031 49.1131C62.561 49.3231 61.171 48.5731 60.491 47.3531C56.751 41.9931 53.671 36.1231 52.291 29.5931C50.461 19.8831 56.291 16.1631 65.321 17.7531C65.891 17.8231 66.451 17.8831 66.771 17.8931C66.911 17.9031 67.011 17.8731 66.771 17.9431C65.691 18.2631 64.811 19.4331 64.811 20.5731C64.791 20.7931 64.831 21.0531 64.901 21.2431C64.091 19.5931 62.641 17.9631 61.861 16.1131C60.471 13.1531 59.621 9.81311 60.821 6.40311C63.451 -0.656888 72.321 0.023104 77.911 2.4731C79.651 3.2031 81.441 4.10311 83.161 4.87311C84.701 5.76311 86.661 6.7431 88.161 7.6731L91.381 9.71311C99.851 15.3331 106.951 22.7031 113.431 30.4631C114.661 31.8831 115.911 33.5031 117.091 34.9731L117.701 35.7531L118.011 36.1531L118.091 36.2531C118.741 37.2231 118.821 38.7831 118.361 39.8331L118.351 39.8531Z" fill="black" fill-opacity="0.2"/>
<path d="M112.091 36.6431C111.541 37.4431 111.541 38.9131 112.041 39.6431V39.6131L111.991 39.5131C110.361 35.2331 107.761 31.3731 104.861 27.8431C98.291 20.1631 89.981 13.9531 80.821 9.76311C77.461 8.41311 73.371 6.48311 69.861 6.80311C65.821 7.01311 66.521 10.3131 68.001 13.0031C69.701 16.0531 73.911 19.4731 71.251 23.3031C68.941 26.4431 64.361 24.8431 61.351 25.0431C60.451 25.0531 59.781 25.3031 59.831 25.3531C59.831 25.3731 59.941 25.2731 59.951 25.2631C59.641 28.0631 61.241 31.4331 62.331 34.1531C62.671 34.9531 63.361 36.5631 63.731 37.3531C64.701 39.5031 65.701 41.6731 66.641 43.9031L63.081 42.1431C79.521 39.7231 95.461 38.1831 112.111 36.6331L112.091 36.6431ZM118.351 39.8531C100.571 43.2431 82.061 46.6131 64.031 49.1131C62.561 49.3231 61.171 48.5731 60.491 47.3531C56.751 41.9931 53.671 36.1231 52.291 29.5931C50.461 19.8831 56.291 16.1631 65.321 17.7531C65.891 17.8231 66.451 17.8831 66.771 17.8931C66.911 17.9031 67.011 17.8731 66.771 17.9431C65.691 18.2631 64.811 19.4331 64.811 20.5731C64.791 20.7931 64.831 21.0531 64.901 21.2431C64.091 19.5931 62.641 17.9631 61.861 16.1131C60.471 13.1531 59.621 9.81311 60.821 6.40311C63.451 -0.656888 72.321 0.023104 77.911 2.4731C79.651 3.2031 81.441 4.10311 83.161 4.87311C84.701 5.76311 86.661 6.7431 88.161 7.6731L91.381 9.71311C99.851 15.3331 106.951 22.7031 113.431 30.4631C114.661 31.8831 115.911 33.5031 117.091 34.9731L117.701 35.7531L118.011 36.1531L118.091 36.2531C118.741 37.2231 118.821 38.7831 118.361 39.8331L118.351 39.8531Z" fill="black"/>
<path d="M112.091 36.6431C111.541 37.4431 111.541 38.9131 112.041 39.6431V39.6131L111.991 39.5131C110.361 35.2331 107.761 31.3731 104.861 27.8431C98.291 20.1631 89.981 13.9531 80.821 9.76311C77.461 8.41311 73.371 6.48311 69.861 6.80311C65.821 7.01311 66.521 10.3131 68.001 13.0031C69.701 16.0531 73.911 19.4731 71.251 23.3031C68.941 26.4431 64.361 24.8431 61.351 25.0431C60.451 25.0531 59.781 25.3031 59.831 25.3531C59.831 25.3731 59.941 25.2731 59.951 25.2631C59.641 28.0631 61.241 31.4331 62.331 34.1531C62.671 34.9531 63.361 36.5631 63.731 37.3531C64.701 39.5031 65.701 41.6731 66.641 43.9031L63.081 42.1431C79.521 39.7231 95.461 38.1831 112.111 36.6331L112.091 36.6431ZM118.351 39.8531C100.571 43.2431 82.061 46.6131 64.031 49.1131C62.561 49.3231 61.171 48.5731 60.491 47.3531C56.751 41.9931 53.671 36.1231 52.291 29.5931C50.461 19.8831 56.291 16.1631 65.321 17.7531C65.891 17.8231 66.451 17.8831 66.771 17.8931C66.911 17.9031 67.011 17.8731 66.771 17.9431C65.691 18.2631 64.811 19.4331 64.811 20.5731C64.791 20.7931 64.831 21.0531 64.901 21.2431C64.091 19.5931 62.641 17.9631 61.861 16.1131C60.471 13.1531 59.621 9.81311 60.821 6.40311C63.451 -0.656888 72.321 0.023104 77.911 2.4731C79.651 3.2031 81.441 4.10311 83.161 4.87311C84.701 5.76311 86.661 6.7431 88.161 7.6731L91.381 9.71311C99.851 15.3331 106.951 22.7031 113.431 30.4631C114.661 31.8831 115.911 33.5031 117.091 34.9731L117.701 35.7531L118.011 36.1531L118.091 36.2531C118.741 37.2231 118.821 38.7831 118.361 39.8331L118.351 39.8531Z" fill="black" fill-opacity="0.2"/>
<path d="M38.111 94.5336L38.271 91.5136C48.991 105.374 70.031 118.364 91.131 118.364C121.251 118.364 145.671 97.9436 145.671 72.7736C145.671 47.6036 121.251 27.1836 91.131 27.1836C70.601 27.1836 47.951 42.8636 37.251 58.2036" fill="#FECB8B"/>
<path d="M30.1009 64.3232C21.9509 46.5532 9.8509 40.2831 6.9009 48.0031C5.0809 20.3131 28.7409 46.0532 33.4009 56.7332L30.1009 64.3232Z" fill="#FECB8B"/>
<path d="M13.1812 108.373C25.2012 107.983 30.5212 89.3127 30.4712 83.2227L37.2212 93.9427C29.7812 103.963 21.8312 109.423 13.1812 108.373Z" fill="black"/>
<path d="M13.1812 108.373C25.2012 107.983 30.5212 89.3127 30.4712 83.2227L37.2212 93.9427C29.7812 103.963 21.8312 109.423 13.1812 108.373Z" fill="black" fill-opacity="0.2"/>
<path d="M13.1812 108.373C25.2012 107.983 30.5212 89.3127 30.4712 83.2227L37.2212 93.9427C29.7812 103.963 21.8312 109.423 13.1812 108.373Z" fill="black"/>
<path d="M13.1812 108.373C25.2012 107.983 30.5212 89.3127 30.4712 83.2227L37.2212 93.9427C29.7812 103.963 21.8312 109.423 13.1812 108.373Z" fill="black" fill-opacity="0.2"/>
<path d="M76.2811 118.352C70.1111 119.122 32.9111 90.2924 34.9411 81.6624C37.2911 83.9824 30.1211 71.4724 34.1211 63.2924C54.5911 21.3824 99.6111 27.5924 95.3811 29.1724C60.4011 42.2724 47.9011 94.0124 89.1011 108.512C94.5911 111.472 106.311 112.682 115.061 110.802C123.041 109.082 87.5811 119.632 70.5811 119.142" fill="#FF6700"/>
<path d="M41.1311 96.3439C34.9211 105.944 24.6711 116.864 12.1211 115.324C7.62113 114.764 3.86112 112.114 2.52112 107.384C-0.258877 97.4439 6.00113 82.7839 10.2811 73.8139C10.2811 73.8139 10.2811 77.0339 10.2811 77.0239C5.67113 67.3039 -1.51888 50.9939 0.491124 40.2539C2.20112 31.8239 10.3411 30.8839 17.1711 33.2639C24.5311 35.9039 29.8111 41.6039 34.1611 47.6639C36.2411 50.6239 38.0811 53.7039 39.7311 56.8839C41.3211 60.2139 36.6111 62.6639 34.7811 59.4939C30.2511 51.3939 24.1911 42.3239 15.2211 39.0839C12.5911 38.2039 9.07112 38.0939 8.05112 39.0739C4.84112 42.0639 7.59112 51.2739 8.77112 55.2539C10.7811 61.5739 13.5411 67.9239 16.5411 73.8139C17.0811 74.8539 17.0411 76.0439 16.5411 77.0239C13.9711 82.2739 11.6711 87.9439 10.1611 93.5839C9.21114 97.5039 7.39114 104.934 10.7311 107.624C12.4711 108.594 14.6412 108.604 16.6112 108.294C23.2012 107.034 28.5911 101.464 32.6611 96.2239C33.5011 95.1239 34.3811 93.8639 35.1011 92.7039C37.6411 88.8139 43.4011 92.2939 41.1111 96.3539L41.1311 96.3439Z" fill="black"/>
<path d="M41.1311 96.3439C34.9211 105.944 24.6711 116.864 12.1211 115.324C7.62113 114.764 3.86112 112.114 2.52112 107.384C-0.258877 97.4439 6.00113 82.7839 10.2811 73.8139C10.2811 73.8139 10.2811 77.0339 10.2811 77.0239C5.67113 67.3039 -1.51888 50.9939 0.491124 40.2539C2.20112 31.8239 10.3411 30.8839 17.1711 33.2639C24.5311 35.9039 29.8111 41.6039 34.1611 47.6639C36.2411 50.6239 38.0811 53.7039 39.7311 56.8839C41.3211 60.2139 36.6111 62.6639 34.7811 59.4939C30.2511 51.3939 24.1911 42.3239 15.2211 39.0839C12.5911 38.2039 9.07112 38.0939 8.05112 39.0739C4.84112 42.0639 7.59112 51.2739 8.77112 55.2539C10.7811 61.5739 13.5411 67.9239 16.5411 73.8139C17.0811 74.8539 17.0411 76.0439 16.5411 77.0239C13.9711 82.2739 11.6711 87.9439 10.1611 93.5839C9.21114 97.5039 7.39114 104.934 10.7311 107.624C12.4711 108.594 14.6412 108.604 16.6112 108.294C23.2012 107.034 28.5911 101.464 32.6611 96.2239C33.5011 95.1239 34.3811 93.8639 35.1011 92.7039C37.6411 88.8139 43.4011 92.2939 41.1111 96.3539L41.1311 96.3439Z" fill="black" fill-opacity="0.2"/>
<path d="M41.1311 96.3439C34.9211 105.944 24.6711 116.864 12.1211 115.324C7.62113 114.764 3.86112 112.114 2.52112 107.384C-0.258877 97.4439 6.00113 82.7839 10.2811 73.8139C10.2811 73.8139 10.2811 77.0339 10.2811 77.0239C5.67113 67.3039 -1.51888 50.9939 0.491124 40.2539C2.20112 31.8239 10.3411 30.8839 17.1711 33.2639C24.5311 35.9039 29.8111 41.6039 34.1611 47.6639C36.2411 50.6239 38.0811 53.7039 39.7311 56.8839C41.3211 60.2139 36.6111 62.6639 34.7811 59.4939C30.2511 51.3939 24.1911 42.3239 15.2211 39.0839C12.5911 38.2039 9.07112 38.0939 8.05112 39.0739C4.84112 42.0639 7.59112 51.2739 8.77112 55.2539C10.7811 61.5739 13.5411 67.9239 16.5411 73.8139C17.0811 74.8539 17.0411 76.0439 16.5411 77.0239C13.9711 82.2739 11.6711 87.9439 10.1611 93.5839C9.21114 97.5039 7.39114 104.934 10.7311 107.624C12.4711 108.594 14.6412 108.604 16.6112 108.294C23.2012 107.034 28.5911 101.464 32.6611 96.2239C33.5011 95.1239 34.3811 93.8639 35.1011 92.7039C37.6411 88.8139 43.4011 92.2939 41.1111 96.3539L41.1311 96.3439Z" fill="black"/>
<path d="M41.1311 96.3439C34.9211 105.944 24.6711 116.864 12.1211 115.324C7.62113 114.764 3.86112 112.114 2.52112 107.384C-0.258877 97.4439 6.00113 82.7839 10.2811 73.8139C10.2811 73.8139 10.2811 77.0339 10.2811 77.0239C5.67113 67.3039 -1.51888 50.9939 0.491124 40.2539C2.20112 31.8239 10.3411 30.8839 17.1711 33.2639C24.5311 35.9039 29.8111 41.6039 34.1611 47.6639C36.2411 50.6239 38.0811 53.7039 39.7311 56.8839C41.3211 60.2139 36.6111 62.6639 34.7811 59.4939C30.2511 51.3939 24.1911 42.3239 15.2211 39.0839C12.5911 38.2039 9.07112 38.0939 8.05112 39.0739C4.84112 42.0639 7.59112 51.2739 8.77112 55.2539C10.7811 61.5739 13.5411 67.9239 16.5411 73.8139C17.0811 74.8539 17.0411 76.0439 16.5411 77.0239C13.9711 82.2739 11.6711 87.9439 10.1611 93.5839C9.21114 97.5039 7.39114 104.934 10.7311 107.624C12.4711 108.594 14.6412 108.604 16.6112 108.294C23.2012 107.034 28.5911 101.464 32.6611 96.2239C33.5011 95.1239 34.3811 93.8639 35.1011 92.7039C37.6411 88.8139 43.4011 92.2939 41.1111 96.3539L41.1311 96.3439Z" fill="black" fill-opacity="0.2"/>
<path d="M31.3313 61.8237C41.7613 43.0637 64.7113 27.0437 86.0613 24.5237C108.651 22.4937 133.301 33.3937 143.751 54.2137C156.681 80.6237 139.981 108.454 113.991 118.004C105.071 121.364 95.4413 122.644 85.9613 121.854C68.3913 119.984 51.8813 111.134 40.0113 98.1637C39.0313 97.1637 37.7613 95.4737 36.8613 94.3937C34.3213 91.1237 32.2213 87.5537 30.6213 83.6637C30.0813 82.3837 30.6813 80.9037 31.9613 80.3637C33.1813 79.8437 34.5813 80.3637 35.1713 81.5237C37.8113 86.7137 41.6413 91.4037 46.0713 95.4537C58.9313 107.224 76.6513 115.414 94.2813 114.484C117.151 113.734 142.461 98.1737 143.141 73.3237C143.741 48.1337 118.761 31.2237 95.5213 30.1837C83.7013 29.1237 72.0513 33.3337 61.8413 39.6337C51.8813 45.9137 42.4613 54.4037 36.9013 64.7637C34.8413 68.4037 29.4713 65.5637 31.3313 61.8037H31.3213L31.3313 61.8237Z" fill="black"/>
<path d="M31.3313 61.8237C41.7613 43.0637 64.7113 27.0437 86.0613 24.5237C108.651 22.4937 133.301 33.3937 143.751 54.2137C156.681 80.6237 139.981 108.454 113.991 118.004C105.071 121.364 95.4413 122.644 85.9613 121.854C68.3913 119.984 51.8813 111.134 40.0113 98.1637C39.0313 97.1637 37.7613 95.4737 36.8613 94.3937C34.3213 91.1237 32.2213 87.5537 30.6213 83.6637C30.0813 82.3837 30.6813 80.9037 31.9613 80.3637C33.1813 79.8437 34.5813 80.3637 35.1713 81.5237C37.8113 86.7137 41.6413 91.4037 46.0713 95.4537C58.9313 107.224 76.6513 115.414 94.2813 114.484C117.151 113.734 142.461 98.1737 143.141 73.3237C143.741 48.1337 118.761 31.2237 95.5213 30.1837C83.7013 29.1237 72.0513 33.3337 61.8413 39.6337C51.8813 45.9137 42.4613 54.4037 36.9013 64.7637C34.8413 68.4037 29.4713 65.5637 31.3313 61.8037H31.3213L31.3313 61.8237Z" fill="black" fill-opacity="0.2"/>
<path d="M80.201 84.722C70.851 89.652 65.7809 98.412 68.8809 104.292C71.9809 110.172 82.0709 110.942 91.4209 106.012C100.771 101.082 105.841 92.322 102.741 86.442C99.6409 80.562 89.551 79.792 80.201 84.722Z" fill="#FECB8B"/>
<path d="M68.6409 101.133C69.1509 102.563 69.9508 105.563 71.2008 106.533C70.3908 100.783 76.3708 93.1026 85.1908 89.9126C92.5108 87.2726 98.8108 90.8026 100.351 97.2726C100.281 96.7626 103.541 89.0826 103.371 88.5926C101.191 82.5626 91.6608 80.4926 82.0708 83.9526C72.4808 87.4126 66.4708 95.1126 68.6508 101.133H68.6409Z" fill="#FF6700"/>
<path d="M82.4411 108.113C88.1111 105.043 93.8711 101.403 97.3811 96.1627C100.081 92.0127 101.261 87.0727 95.2611 85.6527C91.0111 84.6727 86.2911 85.7127 82.2811 87.4527C78.0511 89.2627 74.5311 92.4827 72.4011 96.6027C71.0911 99.2727 70.3211 102.463 71.2911 105.343C71.5811 106.073 71.2011 106.903 70.4611 107.153C68.1611 107.953 67.1011 102.313 67.1011 100.783C66.9011 94.7027 69.9511 88.9627 74.3611 84.9027C82.2811 77.6627 98.9711 73.4227 105.961 84.0527C111.201 93.5927 102.381 104.003 94.1811 107.973C90.7711 109.723 87.1511 110.843 83.5111 111.393C82.5611 111.533 81.6711 110.883 81.5211 109.923C81.4111 109.163 81.8011 108.443 82.4411 108.113Z" fill="black"/>
<path d="M82.4411 108.113C88.1111 105.043 93.8711 101.403 97.3811 96.1627C100.081 92.0127 101.261 87.0727 95.2611 85.6527C91.0111 84.6727 86.2911 85.7127 82.2811 87.4527C78.0511 89.2627 74.5311 92.4827 72.4011 96.6027C71.0911 99.2727 70.3211 102.463 71.2911 105.343C71.5811 106.073 71.2011 106.903 70.4611 107.153C68.1611 107.953 67.1011 102.313 67.1011 100.783C66.9011 94.7027 69.9511 88.9627 74.3611 84.9027C82.2811 77.6627 98.9711 73.4227 105.961 84.0527C111.201 93.5927 102.381 104.003 94.1811 107.973C90.7711 109.723 87.1511 110.843 83.5111 111.393C82.5611 111.533 81.6711 110.883 81.5211 109.923C81.4111 109.163 81.8011 108.443 82.4411 108.113Z" fill="black" fill-opacity="0.2"/>
<path d="M103.291 72.2032C106.701 71.2432 108.161 65.8432 106.541 60.1432C104.931 54.4432 100.861 50.6132 97.4513 51.5732C94.0413 52.5332 92.5813 57.9332 94.2013 63.6332C95.8113 69.3332 99.8813 73.1632 103.291 72.2032Z" fill="black"/>
<path d="M103.291 72.2032C106.701 71.2432 108.161 65.8432 106.541 60.1432C104.931 54.4432 100.861 50.6132 97.4513 51.5732C94.0413 52.5332 92.5813 57.9332 94.2013 63.6332C95.8113 69.3332 99.8813 73.1632 103.291 72.2032Z" fill="black" fill-opacity="0.2"/>
<path d="M103.291 72.2032C106.701 71.2432 108.161 65.8432 106.541 60.1432C104.931 54.4432 100.861 50.6132 97.4513 51.5732C94.0413 52.5332 92.5813 57.9332 94.2013 63.6332C95.8113 69.3332 99.8813 73.1632 103.291 72.2032Z" fill="black"/>
<path d="M103.291 72.2032C106.701 71.2432 108.161 65.8432 106.541 60.1432C104.931 54.4432 100.861 50.6132 97.4513 51.5732C94.0413 52.5332 92.5813 57.9332 94.2013 63.6332C95.8113 69.3332 99.8813 73.1632 103.291 72.2032Z" fill="black" fill-opacity="0.2"/>
<path d="M97.491 57.5939C98.821 57.2139 99.451 55.3039 98.891 53.3139C98.331 51.3239 96.791 50.0239 95.461 50.4039C94.131 50.7839 93.501 52.6939 94.061 54.6839C94.621 56.6739 96.161 57.9739 97.491 57.5939Z" fill="white"/>
<path d="M121.401 68.1222C124.601 67.2122 125.971 62.1422 124.461 56.7822C122.941 51.4322 119.121 47.8222 115.921 48.7322C112.711 49.6422 111.351 54.7122 112.861 60.0722C114.371 65.4222 118.201 69.0322 121.401 68.1222Z" fill="black"/>
<path d="M121.401 68.1222C124.601 67.2122 125.971 62.1422 124.461 56.7822C122.941 51.4322 119.121 47.8222 115.921 48.7322C112.711 49.6422 111.351 54.7122 112.861 60.0722C114.371 65.4222 118.201 69.0322 121.401 68.1222Z" fill="black" fill-opacity="0.2"/>
<path d="M121.401 68.1222C124.601 67.2122 125.971 62.1422 124.461 56.7822C122.941 51.4322 119.121 47.8222 115.921 48.7322C112.711 49.6422 111.351 54.7122 112.861 60.0722C114.371 65.4222 118.201 69.0322 121.401 68.1222Z" fill="black"/>
<path d="M121.401 68.1222C124.601 67.2122 125.971 62.1422 124.461 56.7822C122.941 51.4322 119.121 47.8222 115.921 48.7322C112.711 49.6422 111.351 54.7122 112.861 60.0722C114.371 65.4222 118.201 69.0322 121.401 68.1222Z" fill="black" fill-opacity="0.2"/>
<path d="M115.311 54.1929C116.561 53.8429 117.151 52.0329 116.621 50.1729C116.091 48.3029 114.651 47.0829 113.391 47.4329C112.141 47.7829 111.551 49.5929 112.081 51.4529C112.611 53.3229 114.051 54.5429 115.311 54.1929Z" fill="white"/>
<path d="M108.791 76.553C111.071 75.143 113.181 72.563 116.101 71.443C118.641 70.473 121.361 72.003 121.861 74.723C122.331 77.053 122.181 80.763 119.001 80.443C117.871 80.293 117.011 79.423 116.811 78.353C116.661 77.603 116.601 76.813 116.351 76.203C116.311 76.123 116.251 76.063 116.371 76.303C116.411 76.363 116.561 76.583 116.761 76.703C117.041 77.003 118.001 77.123 118.111 77.053C116.941 77.683 115.681 78.803 114.281 79.693C113.131 80.403 111.921 81.233 109.921 81.563C107.251 82.023 105.881 78.403 108.141 76.963L108.791 76.543V76.553Z" fill="black"/>
<path d="M108.791 76.553C111.071 75.143 113.181 72.563 116.101 71.443C118.641 70.473 121.361 72.003 121.861 74.723C122.331 77.053 122.181 80.763 119.001 80.443C117.871 80.293 117.011 79.423 116.811 78.353C116.661 77.603 116.601 76.813 116.351 76.203C116.311 76.123 116.251 76.063 116.371 76.303C116.411 76.363 116.561 76.583 116.761 76.703C117.041 77.003 118.001 77.123 118.111 77.053C116.941 77.683 115.681 78.803 114.281 79.693C113.131 80.403 111.921 81.233 109.921 81.563C107.251 82.023 105.881 78.403 108.141 76.963L108.791 76.543V76.553Z" fill="black" fill-opacity="0.2"/>
</svg>
