<svg width="99" height="100" viewBox="0 0 99 100" fill="none" xmlns="http://www.w3.org/2000/svg">
<path d="M49.3218 89.9463C71.2861 89.9463 89.0918 72.1406 89.0918 50.1762C89.0918 28.2119 71.2861 10.4062 49.3218 10.4062C27.3574 10.4062 9.55176 28.2119 9.55176 50.1762C9.55176 72.1406 27.3574 89.9463 49.3218 89.9463Z" fill="#E7FF84"/>
<path d="M10.0518 37.3153C14.3818 20.0553 31.5618 7.33532 49.3218 7.95532C50.6718 7.95532 51.7718 9.03532 51.7718 10.3853C51.7818 11.7553 50.6618 12.8353 49.3218 12.8453C47.3718 12.9653 45.4318 13.1153 43.5118 13.4453C29.8518 15.6253 18.0218 25.4053 12.9818 38.2853C12.2718 40.0453 9.58183 39.1753 10.0518 37.3253V37.3153Z" fill="black"/>
<path d="M10.0518 37.3153C14.3818 20.0553 31.5618 7.33532 49.3218 7.95532C50.6718 7.95532 51.7718 9.03532 51.7718 10.3853C51.7818 11.7553 50.6618 12.8353 49.3218 12.8453C47.3718 12.9653 45.4318 13.1153 43.5118 13.4453C29.8518 15.6253 18.0218 25.4053 12.9818 38.2853C12.2718 40.0453 9.58183 39.1753 10.0518 37.3253V37.3153Z" fill="black" fill-opacity="0.2"/>
<path d="M47.872 1.2756C50.692 3.5756 53.422 5.9556 56.202 8.2956C58.312 10.2156 55.812 12.4456 54.212 13.6656C52.162 15.3356 49.942 17.2156 47.872 18.8356C47.192 19.3656 46.202 19.2556 45.672 18.5656C45.222 17.9856 45.232 17.1856 45.672 16.6256C46.792 15.1956 47.952 13.7856 49.112 12.3856L50.842 10.2756C51.422 9.5756 51.972 8.8556 52.692 8.2856V11.8056C50.352 9.0256 47.972 6.2956 45.672 3.4756C44.502 2.0256 46.432 0.105599 47.872 1.2756Z" fill="black"/>
<path d="M47.872 1.2756C50.692 3.5756 53.422 5.9556 56.202 8.2956C58.312 10.2156 55.812 12.4456 54.212 13.6656C52.162 15.3356 49.942 17.2156 47.872 18.8356C47.192 19.3656 46.202 19.2556 45.672 18.5656C45.222 17.9856 45.232 17.1856 45.672 16.6256C46.792 15.1956 47.952 13.7856 49.112 12.3856L50.842 10.2756C51.422 9.5756 51.972 8.8556 52.692 8.2856V11.8056C50.352 9.0256 47.972 6.2956 45.672 3.4756C44.502 2.0256 46.432 0.105599 47.872 1.2756Z" fill="black" fill-opacity="0.2"/>
<path d="M88.6019 63.0253C84.2719 80.2853 67.0919 93.0053 49.3319 92.3853C47.9819 92.3853 46.8819 91.3053 46.8819 89.9553C46.8719 88.5853 47.9919 87.5053 49.3319 87.4953C51.2819 87.3753 53.2219 87.2253 55.1419 86.8953C68.8019 84.7153 80.6319 74.9353 85.6719 62.0553C86.3819 60.2953 89.0719 61.1653 88.6019 63.0153V63.0253Z" fill="black"/>
<path d="M88.6019 63.0253C84.2719 80.2853 67.0919 93.0053 49.3319 92.3853C47.9819 92.3853 46.8819 91.3053 46.8819 89.9553C46.8719 88.5853 47.9919 87.5053 49.3319 87.4953C51.2819 87.3753 53.2219 87.2253 55.1419 86.8953C68.8019 84.7153 80.6319 74.9353 85.6719 62.0553C86.3819 60.2953 89.0719 61.1653 88.6019 63.0153V63.0253Z" fill="black" fill-opacity="0.2"/>
<path d="M51.1619 98.7256C48.3419 96.4256 45.6119 94.0456 42.8319 91.7056C40.7219 89.7856 43.2219 87.5556 44.8219 86.3356C46.8719 84.6656 49.0919 82.7856 51.1619 81.1656C51.8419 80.6356 52.8319 80.7456 53.3619 81.4356C53.8119 82.0156 53.8019 82.8156 53.3619 83.3756C52.2419 84.8056 51.0819 86.2156 49.9219 87.6156L48.1919 89.7256C47.6119 90.4256 47.0619 91.1456 46.3419 91.7156V88.1956C48.6819 90.9756 51.0619 93.7056 53.3619 96.5256C54.5319 97.9756 52.6019 99.8956 51.1619 98.7256Z" fill="black"/>
<path d="M51.1619 98.7256C48.3419 96.4256 45.6119 94.0456 42.8319 91.7056C40.7219 89.7856 43.2219 87.5556 44.8219 86.3356C46.8719 84.6656 49.0919 82.7856 51.1619 81.1656C51.8419 80.6356 52.8319 80.7456 53.3619 81.4356C53.8119 82.0156 53.8019 82.8156 53.3619 83.3756C52.2419 84.8056 51.0819 86.2156 49.9219 87.6156L48.1919 89.7256C47.6119 90.4256 47.0619 91.1456 46.3419 91.7156V88.1956C48.6819 90.9756 51.0619 93.7056 53.3619 96.5256C54.5319 97.9756 52.6019 99.8956 51.1619 98.7256Z" fill="black" fill-opacity="0.2"/>
<path d="M62.1825 10.8946C79.4425 15.2246 92.1625 32.4046 91.5425 50.1646C91.5425 51.5146 90.4625 52.6146 89.1125 52.6146C87.7425 52.6246 86.6625 51.5046 86.6525 50.1646C86.5325 48.2146 86.3825 46.2746 86.0525 44.3546C83.8725 30.6946 74.0925 18.8646 61.2125 13.8246C59.4525 13.1146 60.3225 10.4246 62.1725 10.8946H62.1825Z" fill="black"/>
<path d="M62.1825 10.8946C79.4425 15.2246 92.1625 32.4046 91.5425 50.1646C91.5425 51.5146 90.4625 52.6146 89.1125 52.6146C87.7425 52.6246 86.6625 51.5046 86.6525 50.1646C86.5325 48.2146 86.3825 46.2746 86.0525 44.3546C83.8725 30.6946 74.0925 18.8646 61.2125 13.8246C59.4525 13.1146 60.3225 10.4246 62.1725 10.8946H62.1825Z" fill="black" fill-opacity="0.2"/>
<path d="M97.8726 48.5448C95.5726 51.3648 93.1926 54.0948 90.8526 56.8748C88.9326 58.9848 86.7026 56.4848 85.4826 54.8848C83.8126 52.8348 81.9326 50.6148 80.3126 48.5448C79.7826 47.8648 79.8926 46.8748 80.5826 46.3448C81.1626 45.8948 81.9626 45.9048 82.5226 46.3448C83.9526 47.4648 85.3626 48.6248 86.7626 49.7848L88.8726 51.5148C89.5726 52.0948 90.2926 52.6448 90.8626 53.3648H87.3426C90.1226 51.0248 92.8526 48.6448 95.6726 46.3448C97.1226 45.1748 99.0426 47.1048 97.8726 48.5448Z" fill="black"/>
<path d="M97.8726 48.5448C95.5726 51.3648 93.1926 54.0948 90.8526 56.8748C88.9326 58.9848 86.7026 56.4848 85.4826 54.8848C83.8126 52.8348 81.9326 50.6148 80.3126 48.5448C79.7826 47.8648 79.8926 46.8748 80.5826 46.3448C81.1626 45.8948 81.9626 45.9048 82.5226 46.3448C83.9526 47.4648 85.3626 48.6248 86.7626 49.7848L88.8726 51.5148C89.5726 52.0948 90.2926 52.6448 90.8626 53.3648H87.3426C90.1226 51.0248 92.8526 48.6448 95.6726 46.3448C97.1226 45.1748 99.0426 47.1048 97.8726 48.5448Z" fill="black" fill-opacity="0.2"/>
<path d="M36.4716 89.4447C19.2116 85.1147 6.49157 67.9347 7.11157 50.1747C7.11157 48.8247 8.19157 47.7247 9.54157 47.7247C10.9116 47.7147 11.9916 48.8347 12.0016 50.1747C12.1216 52.1247 12.2716 54.0647 12.6016 55.9847C14.7816 69.6447 24.5616 81.4747 37.4416 86.5147C39.2016 87.2247 38.3316 89.9147 36.4816 89.4447H36.4716Z" fill="black"/>
<path d="M36.4716 89.4447C19.2116 85.1147 6.49157 67.9347 7.11157 50.1747C7.11157 48.8247 8.19157 47.7247 9.54157 47.7247C10.9116 47.7147 11.9916 48.8347 12.0016 50.1747C12.1216 52.1247 12.2716 54.0647 12.6016 55.9847C14.7816 69.6447 24.5616 81.4747 37.4416 86.5147C39.2016 87.2247 38.3316 89.9147 36.4816 89.4447H36.4716Z" fill="black" fill-opacity="0.2"/>
<path d="M0.771692 51.8055C3.07169 48.9855 5.45169 46.2555 7.79169 43.4755C9.71169 41.3655 11.9417 43.8655 13.1617 45.4655C14.8317 47.5155 16.7117 49.7355 18.3317 51.8155C18.8617 52.4955 18.7517 53.4855 18.0617 54.0155C17.4817 54.4655 16.6817 54.4555 16.1217 54.0155C14.6917 52.8955 13.2817 51.7355 11.8817 50.5755L9.77169 48.8455C9.07169 48.2655 8.35169 47.7155 7.78169 46.9955H11.3017C8.52169 49.3355 5.79169 51.7155 2.97169 54.0155C1.52169 55.1855 -0.398308 53.2555 0.771692 51.8155V51.8055Z" fill="black"/>
<path d="M0.771692 51.8055C3.07169 48.9855 5.45169 46.2555 7.79169 43.4755C9.71169 41.3655 11.9417 43.8655 13.1617 45.4655C14.8317 47.5155 16.7117 49.7355 18.3317 51.8155C18.8617 52.4955 18.7517 53.4855 18.0617 54.0155C17.4817 54.4655 16.6817 54.4555 16.1217 54.0155C14.6917 52.8955 13.2817 51.7355 11.8817 50.5755L9.77169 48.8455C9.07169 48.2655 8.35169 47.7155 7.78169 46.9955H11.3017C8.52169 49.3355 5.79169 51.7155 2.97169 54.0155C1.52169 55.1855 -0.398308 53.2555 0.771692 51.8155V51.8055Z" fill="black" fill-opacity="0.2"/>
<path d="M49.3223 10.4062H52.9323" stroke="black" stroke-width="5"/>
<path d="M49.3223 10.4062H52.9323" stroke="black" stroke-opacity="0.2" stroke-width="5"/>
<path d="M67.352 46.3258C65.642 42.9158 62.442 40.5458 58.862 39.3958C57.382 37.7058 55.772 36.1258 53.882 34.8658L53.052 34.3358C52.662 34.0958 52.152 33.8458 51.762 33.6158C51.322 33.4158 50.862 33.1858 50.422 32.9958C48.992 32.3658 46.702 32.1858 46.032 34.0058C45.722 34.8758 45.942 35.7458 46.302 36.5058C46.342 36.6158 46.412 36.7458 46.472 36.8458C44.562 36.7458 43.412 37.7458 43.842 39.9758C43.992 40.6358 44.192 41.2758 44.462 41.8958C42.782 43.0458 41.252 44.4258 40.032 45.9558C39.762 45.5058 39.482 45.0558 39.182 44.6358C38.062 43.0758 36.702 41.6058 34.812 40.9258C33.052 40.3058 30.962 40.5558 30.522 42.7258C30.032 45.3358 31.662 49.2458 32.842 51.7658C31.752 54.0958 30.362 57.5858 31.042 59.9958C31.392 61.2158 32.352 61.8858 33.522 62.0358C36.562 62.4058 39.072 59.9558 40.682 57.6058C40.682 57.6058 40.692 57.6158 40.702 57.6258C42.022 59.0758 43.562 60.3058 45.252 61.3058C43.972 62.7358 43.202 64.7658 44.382 66.4558C46.452 68.9858 50.612 67.4658 52.452 65.3958C52.882 64.9158 53.222 64.3658 53.482 63.7758C55.612 63.8358 57.742 63.4858 59.732 62.7358C66.422 60.2858 70.712 53.1058 67.382 46.3158H67.372L67.352 46.3258Z" fill="black"/>
<path d="M67.352 46.3258C65.642 42.9158 62.442 40.5458 58.862 39.3958C57.382 37.7058 55.772 36.1258 53.882 34.8658L53.052 34.3358C52.662 34.0958 52.152 33.8458 51.762 33.6158C51.322 33.4158 50.862 33.1858 50.422 32.9958C48.992 32.3658 46.702 32.1858 46.032 34.0058C45.722 34.8758 45.942 35.7458 46.302 36.5058C46.342 36.6158 46.412 36.7458 46.472 36.8458C44.562 36.7458 43.412 37.7458 43.842 39.9758C43.992 40.6358 44.192 41.2758 44.462 41.8958C42.782 43.0458 41.252 44.4258 40.032 45.9558C39.762 45.5058 39.482 45.0558 39.182 44.6358C38.062 43.0758 36.702 41.6058 34.812 40.9258C33.052 40.3058 30.962 40.5558 30.522 42.7258C30.032 45.3358 31.662 49.2458 32.842 51.7658C31.752 54.0958 30.362 57.5858 31.042 59.9958C31.392 61.2158 32.352 61.8858 33.522 62.0358C36.562 62.4058 39.072 59.9558 40.682 57.6058C40.682 57.6058 40.692 57.6158 40.702 57.6258C42.022 59.0758 43.562 60.3058 45.252 61.3058C43.972 62.7358 43.202 64.7658 44.382 66.4558C46.452 68.9858 50.612 67.4658 52.452 65.3958C52.882 64.9158 53.222 64.3658 53.482 63.7758C55.612 63.8358 57.742 63.4858 59.732 62.7358C66.422 60.2858 70.712 53.1058 67.382 46.3158H67.372L67.352 46.3258Z" fill="black" fill-opacity="0.2"/>
<path d="M71.5723 46.5645C72.5167 46.5645 73.2823 45.7989 73.2823 44.8545C73.2823 43.9101 72.5167 43.1445 71.5723 43.1445C70.6279 43.1445 69.8623 43.9101 69.8623 44.8545C69.8623 45.7989 70.6279 46.5645 71.5723 46.5645Z" fill="black"/>
<path d="M71.5723 46.5645C72.5167 46.5645 73.2823 45.7989 73.2823 44.8545C73.2823 43.9101 72.5167 43.1445 71.5723 43.1445C70.6279 43.1445 69.8623 43.9101 69.8623 44.8545C69.8623 45.7989 70.6279 46.5645 71.5723 46.5645Z" fill="black" fill-opacity="0.2"/>
<path d="M68.5219 31.9149C69.9358 31.9149 71.0819 30.7688 71.0819 29.3549C71.0819 27.9411 69.9358 26.7949 68.5219 26.7949C67.1081 26.7949 65.9619 27.9411 65.9619 29.3549C65.9619 30.7688 67.1081 31.9149 68.5219 31.9149Z" fill="black"/>
<path d="M68.5219 31.9149C69.9358 31.9149 71.0819 30.7688 71.0819 29.3549C71.0819 27.9411 69.9358 26.7949 68.5219 26.7949C67.1081 26.7949 65.9619 27.9411 65.9619 29.3549C65.9619 30.7688 67.1081 31.9149 68.5219 31.9149Z" fill="black" fill-opacity="0.2"/>
<path d="M75.4022 40.4059C77.2855 40.4059 78.8122 38.8792 78.8122 36.9959C78.8122 35.1127 77.2855 33.5859 75.4022 33.5859C73.5189 33.5859 71.9922 35.1127 71.9922 36.9959C71.9922 38.8792 73.5189 40.4059 75.4022 40.4059Z" fill="black"/>
<path d="M75.4022 40.4059C77.2855 40.4059 78.8122 38.8792 78.8122 36.9959C78.8122 35.1127 77.2855 33.5859 75.4022 33.5859C73.5189 33.5859 71.9922 35.1127 71.9922 36.9959C71.9922 38.8792 73.5189 40.4059 75.4022 40.4059Z" fill="black" fill-opacity="0.2"/>
</svg>
