<svg width="149" height="123" viewBox="0 0 149 123" fill="none" xmlns="http://www.w3.org/2000/svg">
<path d="M37.806 58.1833C33.466 49.9433 23.856 35.0933 11.066 35.2433C-6.614 35.4533 13.966 75.4133 13.966 75.4133C13.966 75.4133 -2.72399 108.133 11.826 111.593C26.386 115.053 38.666 94.5433 38.666 94.5433" fill="#FF6700"/>
<path d="M115.766 38.2523C115.766 38.2523 103.906 15.4823 77.8161 5.28233C65.2661 0.382325 60.1661 8.02233 67.4061 17.6423C76.6261 29.8923 41.6861 5.77233 64.1161 45.6323L115.776 38.2423L115.766 38.2523Z" fill="#FF6700"/>
<path d="M95.9461 29.1637L107.146 25.8437L87.9961 10.2337L70.3161 3.76367L64.2861 7.95367C64.2861 7.95367 89.8661 16.4737 95.9361 29.1737L95.9461 29.1637Z" fill="#FECB8B"/>
<path d="M112.646 36.6431C112.096 37.4431 112.096 38.9131 112.596 39.6431V39.6131L112.546 39.5131C110.916 35.2331 108.316 31.3731 105.416 27.8431C98.8459 20.1631 90.5359 13.9531 81.3759 9.76311C78.0159 8.41311 73.9259 6.48311 70.4159 6.80311C66.3759 7.01311 67.0759 10.3131 68.5559 13.0031C70.2559 16.0531 74.4659 19.4731 71.8059 23.3031C69.4959 26.4431 64.9159 24.8431 61.9059 25.0431C61.0059 25.0531 60.3359 25.3031 60.3859 25.3531C60.3859 25.3731 60.4959 25.2731 60.5059 25.2631C60.1959 28.0631 61.7959 31.4331 62.8859 34.1531C63.2259 34.9531 63.9159 36.5631 64.2859 37.3531C65.2559 39.5031 66.2559 41.6731 67.1959 43.9031L63.6359 42.1431C80.0759 39.7231 96.0159 38.1831 112.666 36.6331L112.646 36.6431ZM118.896 39.8531C101.116 43.2431 82.6059 46.6131 64.5759 49.1131C63.1059 49.3231 61.7159 48.5731 61.0359 47.3531C57.2959 41.9931 54.2159 36.1231 52.8359 29.5931C51.0059 19.8831 56.8359 16.1631 65.8659 17.7531C66.4359 17.8231 66.9959 17.8831 67.3159 17.8931C67.4559 17.9031 67.5559 17.8731 67.3159 17.9431C66.2359 18.2631 65.3559 19.4331 65.3559 20.5731C65.3359 20.7931 65.3759 21.0531 65.4459 21.2431C64.6359 19.5931 63.1859 17.9631 62.4059 16.1131C61.0159 13.1531 60.1659 9.81311 61.3659 6.40311C63.9959 -0.656888 72.8659 0.023104 78.4559 2.4731C80.1959 3.2031 81.9859 4.10311 83.7059 4.87311C85.2459 5.76311 87.2059 6.7431 88.7059 7.6731L91.9259 9.71311C100.396 15.3331 107.496 22.7031 113.976 30.4631C115.206 31.8831 116.456 33.5031 117.636 34.9731L118.246 35.7531L118.556 36.1531L118.636 36.2531C119.286 37.2231 119.366 38.7831 118.906 39.8331L118.896 39.8531Z" fill="black"/>
<path d="M112.646 36.6431C112.096 37.4431 112.096 38.9131 112.596 39.6431V39.6131L112.546 39.5131C110.916 35.2331 108.316 31.3731 105.416 27.8431C98.8459 20.1631 90.5359 13.9531 81.3759 9.76311C78.0159 8.41311 73.9259 6.48311 70.4159 6.80311C66.3759 7.01311 67.0759 10.3131 68.5559 13.0031C70.2559 16.0531 74.4659 19.4731 71.8059 23.3031C69.4959 26.4431 64.9159 24.8431 61.9059 25.0431C61.0059 25.0531 60.3359 25.3031 60.3859 25.3531C60.3859 25.3731 60.4959 25.2731 60.5059 25.2631C60.1959 28.0631 61.7959 31.4331 62.8859 34.1531C63.2259 34.9531 63.9159 36.5631 64.2859 37.3531C65.2559 39.5031 66.2559 41.6731 67.1959 43.9031L63.6359 42.1431C80.0759 39.7231 96.0159 38.1831 112.666 36.6331L112.646 36.6431ZM118.896 39.8531C101.116 43.2431 82.6059 46.6131 64.5759 49.1131C63.1059 49.3231 61.7159 48.5731 61.0359 47.3531C57.2959 41.9931 54.2159 36.1231 52.8359 29.5931C51.0059 19.8831 56.8359 16.1631 65.8659 17.7531C66.4359 17.8231 66.9959 17.8831 67.3159 17.8931C67.4559 17.9031 67.5559 17.8731 67.3159 17.9431C66.2359 18.2631 65.3559 19.4331 65.3559 20.5731C65.3359 20.7931 65.3759 21.0531 65.4459 21.2431C64.6359 19.5931 63.1859 17.9631 62.4059 16.1131C61.0159 13.1531 60.1659 9.81311 61.3659 6.40311C63.9959 -0.656888 72.8659 0.023104 78.4559 2.4731C80.1959 3.2031 81.9859 4.10311 83.7059 4.87311C85.2459 5.76311 87.2059 6.7431 88.7059 7.6731L91.9259 9.71311C100.396 15.3331 107.496 22.7031 113.976 30.4631C115.206 31.8831 116.456 33.5031 117.636 34.9731L118.246 35.7531L118.556 36.1531L118.636 36.2531C119.286 37.2231 119.366 38.7831 118.906 39.8331L118.896 39.8531Z" fill="black" fill-opacity="0.2"/>
<path d="M112.646 36.6431C112.096 37.4431 112.096 38.9131 112.596 39.6431V39.6131L112.546 39.5131C110.916 35.2331 108.316 31.3731 105.416 27.8431C98.8459 20.1631 90.5359 13.9531 81.3759 9.76311C78.0159 8.41311 73.9259 6.48311 70.4159 6.80311C66.3759 7.01311 67.0759 10.3131 68.5559 13.0031C70.2559 16.0531 74.4659 19.4731 71.8059 23.3031C69.4959 26.4431 64.9159 24.8431 61.9059 25.0431C61.0059 25.0531 60.3359 25.3031 60.3859 25.3531C60.3859 25.3731 60.4959 25.2731 60.5059 25.2631C60.1959 28.0631 61.7959 31.4331 62.8859 34.1531C63.2259 34.9531 63.9159 36.5631 64.2859 37.3531C65.2559 39.5031 66.2559 41.6731 67.1959 43.9031L63.6359 42.1431C80.0759 39.7231 96.0159 38.1831 112.666 36.6331L112.646 36.6431ZM118.896 39.8531C101.116 43.2431 82.6059 46.6131 64.5759 49.1131C63.1059 49.3231 61.7159 48.5731 61.0359 47.3531C57.2959 41.9931 54.2159 36.1231 52.8359 29.5931C51.0059 19.8831 56.8359 16.1631 65.8659 17.7531C66.4359 17.8231 66.9959 17.8831 67.3159 17.8931C67.4559 17.9031 67.5559 17.8731 67.3159 17.9431C66.2359 18.2631 65.3559 19.4331 65.3559 20.5731C65.3359 20.7931 65.3759 21.0531 65.4459 21.2431C64.6359 19.5931 63.1859 17.9631 62.4059 16.1131C61.0159 13.1531 60.1659 9.81311 61.3659 6.40311C63.9959 -0.656888 72.8659 0.023104 78.4559 2.4731C80.1959 3.2031 81.9859 4.10311 83.7059 4.87311C85.2459 5.76311 87.2059 6.7431 88.7059 7.6731L91.9259 9.71311C100.396 15.3331 107.496 22.7031 113.976 30.4631C115.206 31.8831 116.456 33.5031 117.636 34.9731L118.246 35.7531L118.556 36.1531L118.636 36.2531C119.286 37.2231 119.366 38.7831 118.906 39.8331L118.896 39.8531Z" fill="black"/>
<path d="M112.646 36.6431C112.096 37.4431 112.096 38.9131 112.596 39.6431V39.6131L112.546 39.5131C110.916 35.2331 108.316 31.3731 105.416 27.8431C98.8459 20.1631 90.5359 13.9531 81.3759 9.76311C78.0159 8.41311 73.9259 6.48311 70.4159 6.80311C66.3759 7.01311 67.0759 10.3131 68.5559 13.0031C70.2559 16.0531 74.4659 19.4731 71.8059 23.3031C69.4959 26.4431 64.9159 24.8431 61.9059 25.0431C61.0059 25.0531 60.3359 25.3031 60.3859 25.3531C60.3859 25.3731 60.4959 25.2731 60.5059 25.2631C60.1959 28.0631 61.7959 31.4331 62.8859 34.1531C63.2259 34.9531 63.9159 36.5631 64.2859 37.3531C65.2559 39.5031 66.2559 41.6731 67.1959 43.9031L63.6359 42.1431C80.0759 39.7231 96.0159 38.1831 112.666 36.6331L112.646 36.6431ZM118.896 39.8531C101.116 43.2431 82.6059 46.6131 64.5759 49.1131C63.1059 49.3231 61.7159 48.5731 61.0359 47.3531C57.2959 41.9931 54.2159 36.1231 52.8359 29.5931C51.0059 19.8831 56.8359 16.1631 65.8659 17.7531C66.4359 17.8231 66.9959 17.8831 67.3159 17.8931C67.4559 17.9031 67.5559 17.8731 67.3159 17.9431C66.2359 18.2631 65.3559 19.4331 65.3559 20.5731C65.3359 20.7931 65.3759 21.0531 65.4459 21.2431C64.6359 19.5931 63.1859 17.9631 62.4059 16.1131C61.0159 13.1531 60.1659 9.81311 61.3659 6.40311C63.9959 -0.656888 72.8659 0.023104 78.4559 2.4731C80.1959 3.2031 81.9859 4.10311 83.7059 4.87311C85.2459 5.76311 87.2059 6.7431 88.7059 7.6731L91.9259 9.71311C100.396 15.3331 107.496 22.7031 113.976 30.4631C115.206 31.8831 116.456 33.5031 117.636 34.9731L118.246 35.7531L118.556 36.1531L118.636 36.2531C119.286 37.2231 119.366 38.7831 118.906 39.8331L118.896 39.8531Z" fill="black" fill-opacity="0.2"/>
<path d="M38.6559 94.5336L38.8159 91.5136C49.5359 105.374 70.5759 118.364 91.6759 118.364C121.796 118.364 146.216 97.9436 146.216 72.7736C146.216 47.6036 121.796 27.1836 91.6759 27.1836C71.1459 27.1836 48.4959 42.8636 37.7959 58.2036" fill="#FECB8B"/>
<path d="M30.6561 64.3232C22.5061 46.5532 10.4061 40.2831 7.45607 48.0031C5.63607 20.3131 29.2961 46.0532 33.9561 56.7332L30.6561 64.3232Z" fill="#FECB8B"/>
<path d="M13.7261 108.373C25.7461 107.983 31.0661 89.3127 31.0161 83.2227L37.7661 93.9427C30.3261 103.963 22.3761 109.423 13.7261 108.373Z" fill="black"/>
<path d="M13.7261 108.373C25.7461 107.983 31.0661 89.3127 31.0161 83.2227L37.7661 93.9427C30.3261 103.963 22.3761 109.423 13.7261 108.373Z" fill="black" fill-opacity="0.2"/>
<path d="M13.7261 108.373C25.7461 107.983 31.0661 89.3127 31.0161 83.2227L37.7661 93.9427C30.3261 103.963 22.3761 109.423 13.7261 108.373Z" fill="black"/>
<path d="M13.7261 108.373C25.7461 107.983 31.0661 89.3127 31.0161 83.2227L37.7661 93.9427C30.3261 103.963 22.3761 109.423 13.7261 108.373Z" fill="black" fill-opacity="0.2"/>
<path d="M76.8358 118.352C70.6658 119.122 33.4658 90.2924 35.4958 81.6624C37.8458 83.9824 30.6758 71.4724 34.6758 63.2924C55.1458 21.3824 100.166 27.5924 95.9358 29.1724C60.9558 42.2724 48.4558 94.0124 89.6558 108.512C95.1458 111.472 106.866 112.682 115.616 110.802C123.596 109.082 88.1358 119.632 71.1358 119.142" fill="#FF6700"/>
<path d="M41.6761 96.3439C35.4661 105.944 25.2161 116.864 12.6661 115.324C8.16605 114.764 4.40604 112.114 3.06604 107.384C0.286045 97.4439 6.54605 82.7839 10.8261 73.8139C10.8261 73.8139 10.8261 77.0339 10.8261 77.0239C6.21605 67.3039 -0.973954 50.9939 1.03605 40.2539C2.74605 31.8239 10.8861 30.8839 17.7161 33.2639C25.0761 35.9039 30.356 41.6039 34.706 47.6639C36.786 50.6239 38.6261 53.7039 40.2761 56.8839C41.8661 60.2139 37.1561 62.6639 35.3261 59.4939C30.7961 51.3939 24.7361 42.3239 15.7661 39.0839C13.1361 38.2039 9.61604 38.0939 8.59604 39.0739C5.38604 42.0639 8.13604 51.2739 9.31604 55.2539C11.326 61.5739 14.0861 67.9239 17.0861 73.8139C17.6261 74.8539 17.5861 76.0439 17.0861 77.0239C14.5161 82.2739 12.216 87.9439 10.706 93.5839C9.75604 97.5039 7.93605 104.934 11.2761 107.624C13.0161 108.594 15.1861 108.604 17.1561 108.294C23.7461 107.034 29.136 101.464 33.206 96.2239C34.046 95.1239 34.926 93.8639 35.646 92.7039C38.186 88.8139 43.946 92.2939 41.656 96.3539L41.6761 96.3439Z" fill="black"/>
<path d="M41.6761 96.3439C35.4661 105.944 25.2161 116.864 12.6661 115.324C8.16605 114.764 4.40604 112.114 3.06604 107.384C0.286045 97.4439 6.54605 82.7839 10.8261 73.8139C10.8261 73.8139 10.8261 77.0339 10.8261 77.0239C6.21605 67.3039 -0.973954 50.9939 1.03605 40.2539C2.74605 31.8239 10.8861 30.8839 17.7161 33.2639C25.0761 35.9039 30.356 41.6039 34.706 47.6639C36.786 50.6239 38.6261 53.7039 40.2761 56.8839C41.8661 60.2139 37.1561 62.6639 35.3261 59.4939C30.7961 51.3939 24.7361 42.3239 15.7661 39.0839C13.1361 38.2039 9.61604 38.0939 8.59604 39.0739C5.38604 42.0639 8.13604 51.2739 9.31604 55.2539C11.326 61.5739 14.0861 67.9239 17.0861 73.8139C17.6261 74.8539 17.5861 76.0439 17.0861 77.0239C14.5161 82.2739 12.216 87.9439 10.706 93.5839C9.75604 97.5039 7.93605 104.934 11.2761 107.624C13.0161 108.594 15.1861 108.604 17.1561 108.294C23.7461 107.034 29.136 101.464 33.206 96.2239C34.046 95.1239 34.926 93.8639 35.646 92.7039C38.186 88.8139 43.946 92.2939 41.656 96.3539L41.6761 96.3439Z" fill="black" fill-opacity="0.2"/>
<path d="M41.6761 96.3439C35.4661 105.944 25.2161 116.864 12.6661 115.324C8.16605 114.764 4.40604 112.114 3.06604 107.384C0.286045 97.4439 6.54605 82.7839 10.8261 73.8139C10.8261 73.8139 10.8261 77.0339 10.8261 77.0239C6.21605 67.3039 -0.973954 50.9939 1.03605 40.2539C2.74605 31.8239 10.8861 30.8839 17.7161 33.2639C25.0761 35.9039 30.356 41.6039 34.706 47.6639C36.786 50.6239 38.6261 53.7039 40.2761 56.8839C41.8661 60.2139 37.1561 62.6639 35.3261 59.4939C30.7961 51.3939 24.7361 42.3239 15.7661 39.0839C13.1361 38.2039 9.61604 38.0939 8.59604 39.0739C5.38604 42.0639 8.13604 51.2739 9.31604 55.2539C11.326 61.5739 14.0861 67.9239 17.0861 73.8139C17.6261 74.8539 17.5861 76.0439 17.0861 77.0239C14.5161 82.2739 12.216 87.9439 10.706 93.5839C9.75604 97.5039 7.93605 104.934 11.2761 107.624C13.0161 108.594 15.1861 108.604 17.1561 108.294C23.7461 107.034 29.136 101.464 33.206 96.2239C34.046 95.1239 34.926 93.8639 35.646 92.7039C38.186 88.8139 43.946 92.2939 41.656 96.3539L41.6761 96.3439Z" fill="black"/>
<path d="M41.6761 96.3439C35.4661 105.944 25.2161 116.864 12.6661 115.324C8.16605 114.764 4.40604 112.114 3.06604 107.384C0.286045 97.4439 6.54605 82.7839 10.8261 73.8139C10.8261 73.8139 10.8261 77.0339 10.8261 77.0239C6.21605 67.3039 -0.973954 50.9939 1.03605 40.2539C2.74605 31.8239 10.8861 30.8839 17.7161 33.2639C25.0761 35.9039 30.356 41.6039 34.706 47.6639C36.786 50.6239 38.6261 53.7039 40.2761 56.8839C41.8661 60.2139 37.1561 62.6639 35.3261 59.4939C30.7961 51.3939 24.7361 42.3239 15.7661 39.0839C13.1361 38.2039 9.61604 38.0939 8.59604 39.0739C5.38604 42.0639 8.13604 51.2739 9.31604 55.2539C11.326 61.5739 14.0861 67.9239 17.0861 73.8139C17.6261 74.8539 17.5861 76.0439 17.0861 77.0239C14.5161 82.2739 12.216 87.9439 10.706 93.5839C9.75604 97.5039 7.93605 104.934 11.2761 107.624C13.0161 108.594 15.1861 108.604 17.1561 108.294C23.7461 107.034 29.136 101.464 33.206 96.2239C34.046 95.1239 34.926 93.8639 35.646 92.7039C38.186 88.8139 43.946 92.2939 41.656 96.3539L41.6761 96.3439Z" fill="black" fill-opacity="0.2"/>
<path d="M31.8762 61.8237C42.3062 43.0637 65.2562 27.0437 86.6062 24.5237C109.196 22.4937 133.846 33.3937 144.296 54.2137C157.226 80.6237 140.526 108.454 114.536 118.004C105.616 121.364 95.9862 122.644 86.5062 121.854C68.9362 119.984 52.4262 111.134 40.5562 98.1637C39.5762 97.1637 38.3062 95.4737 37.4062 94.3937C34.8662 91.1237 32.7662 87.5537 31.1662 83.6637C30.6262 82.3837 31.2262 80.9037 32.5062 80.3637C33.7262 79.8437 35.1262 80.3637 35.7162 81.5237C38.3562 86.7137 42.1862 91.4037 46.6162 95.4537C59.4762 107.224 77.1962 115.414 94.8262 114.484C117.696 113.734 143.006 98.1737 143.686 73.3237C144.286 48.1337 119.306 31.2237 96.0662 30.1837C84.2462 29.1237 72.5962 33.3337 62.3862 39.6337C52.4262 45.9137 43.0062 54.4037 37.4462 64.7637C35.3862 68.4037 30.0162 65.5637 31.8762 61.8037H31.8662L31.8762 61.8237Z" fill="black"/>
<path d="M31.8762 61.8237C42.3062 43.0637 65.2562 27.0437 86.6062 24.5237C109.196 22.4937 133.846 33.3937 144.296 54.2137C157.226 80.6237 140.526 108.454 114.536 118.004C105.616 121.364 95.9862 122.644 86.5062 121.854C68.9362 119.984 52.4262 111.134 40.5562 98.1637C39.5762 97.1637 38.3062 95.4737 37.4062 94.3937C34.8662 91.1237 32.7662 87.5537 31.1662 83.6637C30.6262 82.3837 31.2262 80.9037 32.5062 80.3637C33.7262 79.8437 35.1262 80.3637 35.7162 81.5237C38.3562 86.7137 42.1862 91.4037 46.6162 95.4537C59.4762 107.224 77.1962 115.414 94.8262 114.484C117.696 113.734 143.006 98.1737 143.686 73.3237C144.286 48.1337 119.306 31.2237 96.0662 30.1837C84.2462 29.1237 72.5962 33.3337 62.3862 39.6337C52.4262 45.9137 43.0062 54.4037 37.4462 64.7637C35.3862 68.4037 30.0162 65.5637 31.8762 61.8037H31.8662L31.8762 61.8237Z" fill="black" fill-opacity="0.2"/>
<path d="M80.7463 84.722C71.3963 89.652 66.3264 98.412 69.4264 104.292C72.5264 110.172 82.6163 110.942 91.9663 106.012C101.316 101.082 106.386 92.322 103.286 86.442C100.186 80.562 90.0963 79.792 80.7463 84.722Z" fill="#FECB8B"/>
<path d="M69.1862 101.133C69.6962 102.563 70.4962 105.563 71.7462 106.533C70.9362 100.783 76.9163 93.1026 85.7362 89.9126C93.0563 87.2726 99.3563 90.8026 100.896 97.2726C100.826 96.7626 104.086 89.0826 103.916 88.5926C101.736 82.5626 92.2063 80.4926 82.6163 83.9526C73.0263 87.4126 67.0162 95.1126 69.1962 101.133H69.1862Z" fill="#FF6700"/>
<path d="M82.9963 108.113C88.6663 105.043 94.4263 101.403 97.9363 96.1627C100.636 92.0127 101.816 87.0727 95.8163 85.6527C91.5663 84.6727 86.8463 85.7127 82.8363 87.4527C78.6063 89.2627 75.0863 92.4827 72.9563 96.6027C71.6463 99.2727 70.8763 102.463 71.8463 105.343C72.1363 106.073 71.7563 106.903 71.0163 107.153C68.7163 107.953 67.6563 102.313 67.6563 100.783C67.4563 94.7027 70.5063 88.9627 74.9163 84.9027C82.8363 77.6627 99.5263 73.4227 106.516 84.0527C111.756 93.5927 102.936 104.003 94.7363 107.973C91.3263 109.723 87.7063 110.843 84.0663 111.393C83.1163 111.533 82.2263 110.883 82.0763 109.923C81.9663 109.163 82.3563 108.443 82.9963 108.113Z" fill="black"/>
<path d="M82.9963 108.113C88.6663 105.043 94.4263 101.403 97.9363 96.1627C100.636 92.0127 101.816 87.0727 95.8163 85.6527C91.5663 84.6727 86.8463 85.7127 82.8363 87.4527C78.6063 89.2627 75.0863 92.4827 72.9563 96.6027C71.6463 99.2727 70.8763 102.463 71.8463 105.343C72.1363 106.073 71.7563 106.903 71.0163 107.153C68.7163 107.953 67.6563 102.313 67.6563 100.783C67.4563 94.7027 70.5063 88.9627 74.9163 84.9027C82.8363 77.6627 99.5263 73.4227 106.516 84.0527C111.756 93.5927 102.936 104.003 94.7363 107.973C91.3263 109.723 87.7063 110.843 84.0663 111.393C83.1163 111.533 82.2263 110.883 82.0763 109.923C81.9663 109.163 82.3563 108.443 82.9963 108.113Z" fill="black" fill-opacity="0.2"/>
<path d="M103.846 72.2032C107.256 71.2432 108.716 65.8432 107.096 60.1432C105.486 54.4432 101.416 50.6132 98.006 51.5732C94.596 52.5332 93.136 57.9332 94.756 63.6332C96.366 69.3332 100.436 73.1632 103.846 72.2032Z" fill="black"/>
<path d="M103.846 72.2032C107.256 71.2432 108.716 65.8432 107.096 60.1432C105.486 54.4432 101.416 50.6132 98.006 51.5732C94.596 52.5332 93.136 57.9332 94.756 63.6332C96.366 69.3332 100.436 73.1632 103.846 72.2032Z" fill="black" fill-opacity="0.2"/>
<path d="M103.846 72.2032C107.256 71.2432 108.716 65.8432 107.096 60.1432C105.486 54.4432 101.416 50.6132 98.006 51.5732C94.596 52.5332 93.136 57.9332 94.756 63.6332C96.366 69.3332 100.436 73.1632 103.846 72.2032Z" fill="black"/>
<path d="M103.846 72.2032C107.256 71.2432 108.716 65.8432 107.096 60.1432C105.486 54.4432 101.416 50.6132 98.006 51.5732C94.596 52.5332 93.136 57.9332 94.756 63.6332C96.366 69.3332 100.436 73.1632 103.846 72.2032Z" fill="black" fill-opacity="0.2"/>
<path d="M96.366 59.3321C97.696 58.9521 98.326 57.0421 97.766 55.0521C97.206 53.0621 95.666 51.7621 94.336 52.1421C93.006 52.5221 92.376 54.4321 92.936 56.4221C93.496 58.4121 95.036 59.7121 96.366 59.3321Z" fill="white"/>
<path d="M121.956 68.1222C125.156 67.2122 126.526 62.1422 125.016 56.7822C123.496 51.4322 119.676 47.8222 116.476 48.7322C113.266 49.6422 111.906 54.7122 113.416 60.0722C114.926 65.4222 118.756 69.0322 121.956 68.1222Z" fill="black"/>
<path d="M121.956 68.1222C125.156 67.2122 126.526 62.1422 125.016 56.7822C123.496 51.4322 119.676 47.8222 116.476 48.7322C113.266 49.6422 111.906 54.7122 113.416 60.0722C114.926 65.4222 118.756 69.0322 121.956 68.1222Z" fill="black" fill-opacity="0.2"/>
<path d="M121.956 68.1222C125.156 67.2122 126.526 62.1422 125.016 56.7822C123.496 51.4322 119.676 47.8222 116.476 48.7322C113.266 49.6422 111.906 54.7122 113.416 60.0722C114.926 65.4222 118.756 69.0322 121.956 68.1222Z" fill="black"/>
<path d="M121.956 68.1222C125.156 67.2122 126.526 62.1422 125.016 56.7822C123.496 51.4322 119.676 47.8222 116.476 48.7322C113.266 49.6422 111.906 54.7122 113.416 60.0722C114.926 65.4222 118.756 69.0322 121.956 68.1222Z" fill="black" fill-opacity="0.2"/>
<path d="M114.176 55.9332C115.426 55.5832 116.016 53.7731 115.486 51.9131C114.956 50.0431 113.516 48.8231 112.256 49.1731C111.006 49.5231 110.416 51.3331 110.946 53.1931C111.476 55.0631 112.916 56.2832 114.176 55.9332Z" fill="white"/>
<path d="M120.886 80.924C117.586 80.364 115.496 79.004 112.476 78.444C111.596 78.274 110.806 78.2141 109.956 78.1841C108.536 78.1241 107.436 76.914 107.496 75.494C107.666 72.774 111.086 72.584 113.106 72.664C116.536 72.874 120.036 74.5741 122.676 76.3541C124.876 77.8441 123.466 81.334 120.886 80.924Z" fill="black"/>
<path d="M120.886 80.924C117.586 80.364 115.496 79.004 112.476 78.444C111.596 78.274 110.806 78.2141 109.956 78.1841C108.536 78.1241 107.436 76.914 107.496 75.494C107.666 72.774 111.086 72.584 113.106 72.664C116.536 72.874 120.036 74.5741 122.676 76.3541C124.876 77.8441 123.466 81.334 120.886 80.924Z" fill="black" fill-opacity="0.2"/>
<path d="M108.856 44.274C110.286 39.924 116.076 37.854 119.916 40.314C121.676 41.304 124.416 44.214 121.926 45.824C121.386 46.144 120.786 46.074 120.216 45.974C118.856 45.704 117.686 45.204 116.336 45.254C114.416 45.144 112.726 46.454 110.836 46.644C109.516 46.914 108.366 45.514 108.856 44.274Z" fill="black"/>
<path d="M108.856 44.274C110.286 39.924 116.076 37.854 119.916 40.314C121.676 41.304 124.416 44.214 121.926 45.824C121.386 46.144 120.786 46.074 120.216 45.974C118.856 45.704 117.686 45.204 116.336 45.254C114.416 45.144 112.726 46.454 110.836 46.644C109.516 46.914 108.366 45.514 108.856 44.274Z" fill="black" fill-opacity="0.2"/>
<path d="M84.5059 46.5039C84.9359 37.3639 94.7859 32.2939 102.476 37.2839C104.056 38.1939 103.436 40.7039 101.646 40.7939C100.396 40.9139 99.1559 40.7239 97.9459 40.8439C93.4459 40.7939 90.4559 43.7439 88.1459 47.3539C87.1159 49.1439 84.5159 48.6139 84.5059 46.5139V46.5039Z" fill="black"/>
<path d="M84.5059 46.5039C84.9359 37.3639 94.7859 32.2939 102.476 37.2839C104.056 38.1939 103.436 40.7039 101.646 40.7939C100.396 40.9139 99.1559 40.7239 97.9459 40.8439C93.4459 40.7939 90.4559 43.7439 88.1459 47.3539C87.1159 49.1439 84.5159 48.6139 84.5059 46.5139V46.5039Z" fill="black" fill-opacity="0.2"/>
</svg>
