<svg width="149" height="137" viewBox="0 0 149 137" fill="none" xmlns="http://www.w3.org/2000/svg">
<path d="M37.1595 57.4157C32.8195 49.1757 23.2095 34.3257 10.4195 34.4757C-7.26048 34.6857 13.3195 74.6458 13.3195 74.6458C13.3195 74.6458 -3.37048 107.366 11.1795 110.826C25.7395 114.286 38.0195 93.7758 38.0195 93.7758" fill="#FF6700"/>
<path d="M107.809 126.415C114.899 119.445 117.099 110.195 112.729 105.755C108.359 101.315 99.0694 103.365 91.9894 110.335C84.8994 117.305 82.6994 126.555 87.0694 130.995C91.4394 135.435 100.729 133.385 107.809 126.415Z" fill="black"/>
<path d="M107.809 126.415C114.899 119.445 117.099 110.195 112.729 105.755C108.359 101.315 99.0694 103.365 91.9894 110.335C84.8994 117.305 82.6994 126.555 87.0694 130.995C91.4394 135.435 100.729 133.385 107.809 126.415Z" fill="black" fill-opacity="0.2"/>
<path d="M107.809 126.415C114.899 119.445 117.099 110.195 112.729 105.755C108.359 101.315 99.0694 103.365 91.9894 110.335C84.8994 117.305 82.6994 126.555 87.0694 130.995C91.4394 135.435 100.729 133.385 107.809 126.415Z" fill="black"/>
<path d="M107.809 126.415C114.899 119.445 117.099 110.195 112.729 105.755C108.359 101.315 99.0694 103.365 91.9894 110.335C84.8994 117.305 82.6994 126.555 87.0694 130.995C91.4394 135.435 100.729 133.385 107.809 126.415Z" fill="black" fill-opacity="0.2"/>
<path d="M115.129 37.4847C115.129 37.4847 103.269 14.7147 77.1794 4.51475C64.6294 -0.385255 59.5294 7.25476 66.7694 16.8748C75.9894 29.1248 41.0494 5.00475 63.4794 44.8647L115.139 37.4747L115.129 37.4847Z" fill="#FF6700"/>
<path d="M95.2992 28.4059L106.499 25.0859L87.3492 9.47586L69.6692 3.00586L63.6392 7.19586C63.6392 7.19586 89.2192 15.7159 95.2892 28.4159L95.2992 28.4059Z" fill="#FECB8B"/>
<path d="M111.999 35.8755C111.449 36.6755 111.449 38.1455 111.949 38.8755V38.8455L111.899 38.7455C110.269 34.4655 107.669 30.6055 104.769 27.0755C98.1992 19.3955 89.8892 13.1855 80.7292 8.99554C77.3692 7.64554 73.2792 5.71552 69.7692 6.03552C65.7292 6.24552 66.4292 9.54553 67.9092 12.2355C69.6092 15.2855 73.8192 18.7055 71.1592 22.5355C68.8492 25.6755 64.2692 24.0755 61.2592 24.2755C60.3592 24.2855 59.6892 24.5355 59.7392 24.5855C59.7392 24.6055 59.8492 24.5055 59.8592 24.4955C59.5492 27.2955 61.1492 30.6655 62.2392 33.3855C62.5792 34.1855 63.2692 35.7955 63.6392 36.5855C64.6092 38.7355 65.6092 40.9055 66.5492 43.1355L62.9892 41.3755C79.4292 38.9555 95.3692 37.4155 112.019 35.8655L111.999 35.8755ZM118.259 39.0855C100.479 42.4755 81.9692 45.8455 63.9392 48.3455C62.4692 48.5555 61.0792 47.8055 60.3992 46.5855C56.6592 41.2255 53.5792 35.3555 52.1992 28.8255C50.3692 19.1155 56.1992 15.3955 65.2292 16.9855C65.7992 17.0555 66.3592 17.1155 66.6792 17.1255C66.8192 17.1355 66.9192 17.1055 66.6792 17.1755C65.5992 17.4955 64.7192 18.6655 64.7192 19.8055C64.6992 20.0255 64.7392 20.2855 64.8092 20.4755C63.9992 18.8255 62.5492 17.1955 61.7692 15.3455C60.3792 12.3855 59.5292 9.04552 60.7292 5.63552C63.3592 -1.42448 72.2292 -0.744469 77.8192 1.70553C79.5592 2.43553 81.3492 3.33553 83.0692 4.10553C84.6092 4.99553 86.5692 5.97554 88.0692 6.90554L91.2892 8.94552C99.7592 14.5655 106.859 21.9355 113.339 29.6955C114.569 31.1155 115.819 32.7355 116.999 34.2055L117.609 34.9855L117.919 35.3855L117.999 35.4855C118.649 36.4555 118.729 38.0155 118.269 39.0655L118.259 39.0855Z" fill="black"/>
<path d="M111.999 35.8755C111.449 36.6755 111.449 38.1455 111.949 38.8755V38.8455L111.899 38.7455C110.269 34.4655 107.669 30.6055 104.769 27.0755C98.1992 19.3955 89.8892 13.1855 80.7292 8.99554C77.3692 7.64554 73.2792 5.71552 69.7692 6.03552C65.7292 6.24552 66.4292 9.54553 67.9092 12.2355C69.6092 15.2855 73.8192 18.7055 71.1592 22.5355C68.8492 25.6755 64.2692 24.0755 61.2592 24.2755C60.3592 24.2855 59.6892 24.5355 59.7392 24.5855C59.7392 24.6055 59.8492 24.5055 59.8592 24.4955C59.5492 27.2955 61.1492 30.6655 62.2392 33.3855C62.5792 34.1855 63.2692 35.7955 63.6392 36.5855C64.6092 38.7355 65.6092 40.9055 66.5492 43.1355L62.9892 41.3755C79.4292 38.9555 95.3692 37.4155 112.019 35.8655L111.999 35.8755ZM118.259 39.0855C100.479 42.4755 81.9692 45.8455 63.9392 48.3455C62.4692 48.5555 61.0792 47.8055 60.3992 46.5855C56.6592 41.2255 53.5792 35.3555 52.1992 28.8255C50.3692 19.1155 56.1992 15.3955 65.2292 16.9855C65.7992 17.0555 66.3592 17.1155 66.6792 17.1255C66.8192 17.1355 66.9192 17.1055 66.6792 17.1755C65.5992 17.4955 64.7192 18.6655 64.7192 19.8055C64.6992 20.0255 64.7392 20.2855 64.8092 20.4755C63.9992 18.8255 62.5492 17.1955 61.7692 15.3455C60.3792 12.3855 59.5292 9.04552 60.7292 5.63552C63.3592 -1.42448 72.2292 -0.744469 77.8192 1.70553C79.5592 2.43553 81.3492 3.33553 83.0692 4.10553C84.6092 4.99553 86.5692 5.97554 88.0692 6.90554L91.2892 8.94552C99.7592 14.5655 106.859 21.9355 113.339 29.6955C114.569 31.1155 115.819 32.7355 116.999 34.2055L117.609 34.9855L117.919 35.3855L117.999 35.4855C118.649 36.4555 118.729 38.0155 118.269 39.0655L118.259 39.0855Z" fill="black" fill-opacity="0.2"/>
<path d="M111.999 35.8755C111.449 36.6755 111.449 38.1455 111.949 38.8755V38.8455L111.899 38.7455C110.269 34.4655 107.669 30.6055 104.769 27.0755C98.1992 19.3955 89.8892 13.1855 80.7292 8.99554C77.3692 7.64554 73.2792 5.71552 69.7692 6.03552C65.7292 6.24552 66.4292 9.54553 67.9092 12.2355C69.6092 15.2855 73.8192 18.7055 71.1592 22.5355C68.8492 25.6755 64.2692 24.0755 61.2592 24.2755C60.3592 24.2855 59.6892 24.5355 59.7392 24.5855C59.7392 24.6055 59.8492 24.5055 59.8592 24.4955C59.5492 27.2955 61.1492 30.6655 62.2392 33.3855C62.5792 34.1855 63.2692 35.7955 63.6392 36.5855C64.6092 38.7355 65.6092 40.9055 66.5492 43.1355L62.9892 41.3755C79.4292 38.9555 95.3692 37.4155 112.019 35.8655L111.999 35.8755ZM118.259 39.0855C100.479 42.4755 81.9692 45.8455 63.9392 48.3455C62.4692 48.5555 61.0792 47.8055 60.3992 46.5855C56.6592 41.2255 53.5792 35.3555 52.1992 28.8255C50.3692 19.1155 56.1992 15.3955 65.2292 16.9855C65.7992 17.0555 66.3592 17.1155 66.6792 17.1255C66.8192 17.1355 66.9192 17.1055 66.6792 17.1755C65.5992 17.4955 64.7192 18.6655 64.7192 19.8055C64.6992 20.0255 64.7392 20.2855 64.8092 20.4755C63.9992 18.8255 62.5492 17.1955 61.7692 15.3455C60.3792 12.3855 59.5292 9.04552 60.7292 5.63552C63.3592 -1.42448 72.2292 -0.744469 77.8192 1.70553C79.5592 2.43553 81.3492 3.33553 83.0692 4.10553C84.6092 4.99553 86.5692 5.97554 88.0692 6.90554L91.2892 8.94552C99.7592 14.5655 106.859 21.9355 113.339 29.6955C114.569 31.1155 115.819 32.7355 116.999 34.2055L117.609 34.9855L117.919 35.3855L117.999 35.4855C118.649 36.4555 118.729 38.0155 118.269 39.0655L118.259 39.0855Z" fill="black"/>
<path d="M111.999 35.8755C111.449 36.6755 111.449 38.1455 111.949 38.8755V38.8455L111.899 38.7455C110.269 34.4655 107.669 30.6055 104.769 27.0755C98.1992 19.3955 89.8892 13.1855 80.7292 8.99554C77.3692 7.64554 73.2792 5.71552 69.7692 6.03552C65.7292 6.24552 66.4292 9.54553 67.9092 12.2355C69.6092 15.2855 73.8192 18.7055 71.1592 22.5355C68.8492 25.6755 64.2692 24.0755 61.2592 24.2755C60.3592 24.2855 59.6892 24.5355 59.7392 24.5855C59.7392 24.6055 59.8492 24.5055 59.8592 24.4955C59.5492 27.2955 61.1492 30.6655 62.2392 33.3855C62.5792 34.1855 63.2692 35.7955 63.6392 36.5855C64.6092 38.7355 65.6092 40.9055 66.5492 43.1355L62.9892 41.3755C79.4292 38.9555 95.3692 37.4155 112.019 35.8655L111.999 35.8755ZM118.259 39.0855C100.479 42.4755 81.9692 45.8455 63.9392 48.3455C62.4692 48.5555 61.0792 47.8055 60.3992 46.5855C56.6592 41.2255 53.5792 35.3555 52.1992 28.8255C50.3692 19.1155 56.1992 15.3955 65.2292 16.9855C65.7992 17.0555 66.3592 17.1155 66.6792 17.1255C66.8192 17.1355 66.9192 17.1055 66.6792 17.1755C65.5992 17.4955 64.7192 18.6655 64.7192 19.8055C64.6992 20.0255 64.7392 20.2855 64.8092 20.4755C63.9992 18.8255 62.5492 17.1955 61.7692 15.3455C60.3792 12.3855 59.5292 9.04552 60.7292 5.63552C63.3592 -1.42448 72.2292 -0.744469 77.8192 1.70553C79.5592 2.43553 81.3492 3.33553 83.0692 4.10553C84.6092 4.99553 86.5692 5.97554 88.0692 6.90554L91.2892 8.94552C99.7592 14.5655 106.859 21.9355 113.339 29.6955C114.569 31.1155 115.819 32.7355 116.999 34.2055L117.609 34.9855L117.919 35.3855L117.999 35.4855C118.649 36.4555 118.729 38.0155 118.269 39.0655L118.259 39.0855Z" fill="black" fill-opacity="0.2"/>
<path d="M38.0192 93.766L38.1792 90.746C48.8992 104.606 69.9392 117.596 91.0392 117.596C121.159 117.596 145.579 97.176 145.579 72.006C145.579 46.836 121.159 26.416 91.0392 26.416C70.5092 26.416 47.8592 42.096 37.1592 57.436" fill="#FECB8B"/>
<path d="M89.0093 107.746C94.4993 110.706 106.219 111.916 114.969 110.036C122.949 108.316 106.769 119.526 89.7793 119.026L89.0193 107.746H89.0093Z" fill="#FF6700"/>
<path d="M30.0091 63.5556C21.8591 45.7856 9.7591 39.5156 6.8091 47.2356C4.9891 19.5456 28.6491 45.2856 33.3091 55.9656L30.0091 63.5556Z" fill="#FECB8B"/>
<path d="M13.0894 107.605C25.1094 107.215 30.4294 88.5451 30.3794 82.4551L37.1294 93.1751C29.6894 103.195 21.7394 108.655 13.0894 107.605Z" fill="black"/>
<path d="M13.0894 107.605C25.1094 107.215 30.4294 88.5451 30.3794 82.4551L37.1294 93.1751C29.6894 103.195 21.7394 108.655 13.0894 107.605Z" fill="black" fill-opacity="0.2"/>
<path d="M13.0894 107.605C25.1094 107.215 30.4294 88.5451 30.3794 82.4551L37.1294 93.1751C29.6894 103.195 21.7394 108.655 13.0894 107.605Z" fill="black"/>
<path d="M13.0894 107.605C25.1094 107.215 30.4294 88.5451 30.3794 82.4551L37.1294 93.1751C29.6894 103.195 21.7394 108.655 13.0894 107.605Z" fill="black" fill-opacity="0.2"/>
<path d="M34.8591 80.8848C37.2091 83.2148 30.0391 70.6948 34.0391 62.5248C54.5091 20.6148 99.5291 26.8248 95.2991 28.4048C60.3191 41.5048 57.0191 79.1448 74.4191 103.005L62.1091 108.425C55.9391 109.195 32.8291 89.5348 34.8591 80.9048V80.8848Z" fill="#FF6700"/>
<path d="M41.0393 95.5763C34.8293 105.176 24.5793 116.096 12.0293 114.556C7.52933 113.996 3.76933 111.346 2.42933 106.616C-0.350672 96.6763 5.90933 82.0163 10.1893 73.0463C10.1893 73.0463 10.1893 76.2663 10.1893 76.2563C5.57933 66.5363 -1.61067 50.2263 0.399328 39.4863C2.10933 31.0563 10.2493 30.1163 17.0793 32.4963C24.4393 35.1363 29.7193 40.8363 34.0693 46.8963C36.1493 49.8563 37.9893 52.9363 39.6393 56.1163C41.2293 59.4463 36.5193 61.8963 34.6893 58.7263C30.1593 50.6263 24.0993 41.5563 15.1293 38.3163C12.4993 37.4363 8.97933 37.3263 7.95933 38.3063C4.74933 41.2963 7.49933 50.5063 8.67933 54.4863C10.6893 60.8063 13.4493 67.1563 16.4493 73.0463C16.9893 74.0863 16.9493 75.2763 16.4493 76.2563C13.8793 81.5063 11.5793 87.1763 10.0693 92.8163C9.11933 96.7363 7.29933 104.166 10.6393 106.856C12.3793 107.826 14.5493 107.836 16.5193 107.526C23.1093 106.266 28.4993 100.696 32.5693 95.4563C33.4093 94.3563 34.2893 93.0963 35.0093 91.9363C37.5493 88.0463 43.3093 91.5263 41.0193 95.5863L41.0393 95.5763Z" fill="black"/>
<path d="M41.0393 95.5763C34.8293 105.176 24.5793 116.096 12.0293 114.556C7.52933 113.996 3.76933 111.346 2.42933 106.616C-0.350672 96.6763 5.90933 82.0163 10.1893 73.0463C10.1893 73.0463 10.1893 76.2663 10.1893 76.2563C5.57933 66.5363 -1.61067 50.2263 0.399328 39.4863C2.10933 31.0563 10.2493 30.1163 17.0793 32.4963C24.4393 35.1363 29.7193 40.8363 34.0693 46.8963C36.1493 49.8563 37.9893 52.9363 39.6393 56.1163C41.2293 59.4463 36.5193 61.8963 34.6893 58.7263C30.1593 50.6263 24.0993 41.5563 15.1293 38.3163C12.4993 37.4363 8.97933 37.3263 7.95933 38.3063C4.74933 41.2963 7.49933 50.5063 8.67933 54.4863C10.6893 60.8063 13.4493 67.1563 16.4493 73.0463C16.9893 74.0863 16.9493 75.2763 16.4493 76.2563C13.8793 81.5063 11.5793 87.1763 10.0693 92.8163C9.11933 96.7363 7.29933 104.166 10.6393 106.856C12.3793 107.826 14.5493 107.836 16.5193 107.526C23.1093 106.266 28.4993 100.696 32.5693 95.4563C33.4093 94.3563 34.2893 93.0963 35.0093 91.9363C37.5493 88.0463 43.3093 91.5263 41.0193 95.5863L41.0393 95.5763Z" fill="black" fill-opacity="0.2"/>
<path d="M41.0393 95.5763C34.8293 105.176 24.5793 116.096 12.0293 114.556C7.52933 113.996 3.76933 111.346 2.42933 106.616C-0.350672 96.6763 5.90933 82.0163 10.1893 73.0463C10.1893 73.0463 10.1893 76.2663 10.1893 76.2563C5.57933 66.5363 -1.61067 50.2263 0.399328 39.4863C2.10933 31.0563 10.2493 30.1163 17.0793 32.4963C24.4393 35.1363 29.7193 40.8363 34.0693 46.8963C36.1493 49.8563 37.9893 52.9363 39.6393 56.1163C41.2293 59.4463 36.5193 61.8963 34.6893 58.7263C30.1593 50.6263 24.0993 41.5563 15.1293 38.3163C12.4993 37.4363 8.97933 37.3263 7.95933 38.3063C4.74933 41.2963 7.49933 50.5063 8.67933 54.4863C10.6893 60.8063 13.4493 67.1563 16.4493 73.0463C16.9893 74.0863 16.9493 75.2763 16.4493 76.2563C13.8793 81.5063 11.5793 87.1763 10.0693 92.8163C9.11933 96.7363 7.29933 104.166 10.6393 106.856C12.3793 107.826 14.5493 107.836 16.5193 107.526C23.1093 106.266 28.4993 100.696 32.5693 95.4563C33.4093 94.3563 34.2893 93.0963 35.0093 91.9363C37.5493 88.0463 43.3093 91.5263 41.0193 95.5863L41.0393 95.5763Z" fill="black"/>
<path d="M41.0393 95.5763C34.8293 105.176 24.5793 116.096 12.0293 114.556C7.52933 113.996 3.76933 111.346 2.42933 106.616C-0.350672 96.6763 5.90933 82.0163 10.1893 73.0463C10.1893 73.0463 10.1893 76.2663 10.1893 76.2563C5.57933 66.5363 -1.61067 50.2263 0.399328 39.4863C2.10933 31.0563 10.2493 30.1163 17.0793 32.4963C24.4393 35.1363 29.7193 40.8363 34.0693 46.8963C36.1493 49.8563 37.9893 52.9363 39.6393 56.1163C41.2293 59.4463 36.5193 61.8963 34.6893 58.7263C30.1593 50.6263 24.0993 41.5563 15.1293 38.3163C12.4993 37.4363 8.97933 37.3263 7.95933 38.3063C4.74933 41.2963 7.49933 50.5063 8.67933 54.4863C10.6893 60.8063 13.4493 67.1563 16.4493 73.0463C16.9893 74.0863 16.9493 75.2763 16.4493 76.2563C13.8793 81.5063 11.5793 87.1763 10.0693 92.8163C9.11933 96.7363 7.29933 104.166 10.6393 106.856C12.3793 107.826 14.5493 107.836 16.5193 107.526C23.1093 106.266 28.4993 100.696 32.5693 95.4563C33.4093 94.3563 34.2893 93.0963 35.0093 91.9363C37.5493 88.0463 43.3093 91.5263 41.0193 95.5863L41.0393 95.5763Z" fill="black" fill-opacity="0.2"/>
<path d="M31.2395 61.0562C41.6695 42.2962 64.6195 26.2761 85.9695 23.7561C108.559 21.7261 133.209 32.6261 143.659 53.4461C156.589 79.8561 139.889 107.686 113.899 117.236C104.979 120.596 95.3495 121.876 85.8695 121.086C68.2995 119.216 51.7895 110.366 39.9195 97.3961C38.9395 96.3961 37.6695 94.7062 36.7695 93.6262C34.2295 90.3562 32.1295 86.7861 30.5295 82.8961C29.9895 81.6161 30.5895 80.1361 31.8695 79.5961C33.0895 79.0761 34.4895 79.5961 35.0795 80.7561C37.7195 85.9461 41.5495 90.6362 45.9795 94.6862C58.8395 106.456 76.5595 114.646 94.1895 113.716C117.059 112.966 142.369 97.4062 143.049 72.5562C143.649 47.3662 118.669 30.4561 95.4295 29.4161C83.6095 28.3561 71.9595 32.5661 61.7495 38.8661C51.7895 45.1461 42.3695 53.6362 36.8095 63.9962C34.7495 67.6362 29.3795 64.7961 31.2395 61.0361H31.2295L31.2395 61.0562Z" fill="black"/>
<path d="M31.2395 61.0562C41.6695 42.2962 64.6195 26.2761 85.9695 23.7561C108.559 21.7261 133.209 32.6261 143.659 53.4461C156.589 79.8561 139.889 107.686 113.899 117.236C104.979 120.596 95.3495 121.876 85.8695 121.086C68.2995 119.216 51.7895 110.366 39.9195 97.3961C38.9395 96.3961 37.6695 94.7062 36.7695 93.6262C34.2295 90.3562 32.1295 86.7861 30.5295 82.8961C29.9895 81.6161 30.5895 80.1361 31.8695 79.5961C33.0895 79.0761 34.4895 79.5961 35.0795 80.7561C37.7195 85.9461 41.5495 90.6362 45.9795 94.6862C58.8395 106.456 76.5595 114.646 94.1895 113.716C117.059 112.966 142.369 97.4062 143.049 72.5562C143.649 47.3662 118.669 30.4561 95.4295 29.4161C83.6095 28.3561 71.9595 32.5661 61.7495 38.8661C51.7895 45.1461 42.3695 53.6362 36.8095 63.9962C34.7495 67.6362 29.3795 64.7961 31.2395 61.0361H31.2295L31.2395 61.0562Z" fill="black" fill-opacity="0.2"/>
<path d="M31.2395 61.0562C41.6695 42.2962 64.6195 26.2761 85.9695 23.7561C108.559 21.7261 133.209 32.6261 143.659 53.4461C156.589 79.8561 139.889 107.686 113.899 117.236C104.979 120.596 95.3495 121.876 85.8695 121.086C68.2995 119.216 51.7895 110.366 39.9195 97.3961C38.9395 96.3961 37.6695 94.7062 36.7695 93.6262C34.2295 90.3562 32.1295 86.7861 30.5295 82.8961C29.9895 81.6161 30.5895 80.1361 31.8695 79.5961C33.0895 79.0761 34.4895 79.5961 35.0795 80.7561C37.7195 85.9461 41.5495 90.6362 45.9795 94.6862C58.8395 106.456 76.5595 114.646 94.1895 113.716C117.059 112.966 142.369 97.4062 143.049 72.5562C143.649 47.3662 118.669 30.4561 95.4295 29.4161C83.6095 28.3561 71.9595 32.5661 61.7495 38.8661C51.7895 45.1461 42.3695 53.6362 36.8095 63.9962C34.7495 67.6362 29.3795 64.7961 31.2395 61.0361H31.2295L31.2395 61.0562Z" fill="black"/>
<path d="M31.2395 61.0562C41.6695 42.2962 64.6195 26.2761 85.9695 23.7561C108.559 21.7261 133.209 32.6261 143.659 53.4461C156.589 79.8561 139.889 107.686 113.899 117.236C104.979 120.596 95.3495 121.876 85.8695 121.086C68.2995 119.216 51.7895 110.366 39.9195 97.3961C38.9395 96.3961 37.6695 94.7062 36.7695 93.6262C34.2295 90.3562 32.1295 86.7861 30.5295 82.8961C29.9895 81.6161 30.5895 80.1361 31.8695 79.5961C33.0895 79.0761 34.4895 79.5961 35.0795 80.7561C37.7195 85.9461 41.5495 90.6362 45.9795 94.6862C58.8395 106.456 76.5595 114.646 94.1895 113.716C117.059 112.966 142.369 97.4062 143.049 72.5562C143.649 47.3662 118.669 30.4561 95.4295 29.4161C83.6095 28.3561 71.9595 32.5661 61.7495 38.8661C51.7895 45.1461 42.3695 53.6362 36.8095 63.9962C34.7495 67.6362 29.3795 64.7961 31.2395 61.0361H31.2295L31.2395 61.0562Z" fill="black" fill-opacity="0.2"/>
<path d="M79.7694 128.375C88.5594 122.505 92.6995 113.265 89.0095 107.735C85.3195 102.205 75.1994 102.485 66.4094 108.355C57.6194 114.225 53.4794 123.465 57.1694 128.995C60.8594 134.525 70.9794 134.245 79.7694 128.375Z" fill="#FECB8B"/>
<path d="M89.5695 110.856C88.9095 109.486 87.8095 106.586 86.4695 105.756C87.8795 111.396 82.7195 119.656 74.2795 123.736C67.2795 127.116 60.6395 124.266 58.4395 117.986C58.5595 118.486 56.1095 126.466 56.3395 126.926C59.1295 132.696 68.8295 133.776 77.9995 129.336C87.1795 124.896 92.3595 116.626 89.5695 110.856Z" fill="#FF6700"/>
<path d="M75.1193 105.346C69.7993 108.986 64.4493 113.206 61.4993 118.776C59.2393 123.176 58.5793 128.226 64.6893 129.016C69.0193 129.556 73.5993 128.026 77.4093 125.876C81.4293 123.636 84.5993 120.076 86.2893 115.756C87.3193 112.956 87.7493 109.716 86.4893 106.946C86.1193 106.256 86.4193 105.386 87.1293 105.056C89.3393 104.026 90.9693 109.526 91.1393 111.036C91.9693 117.066 89.5293 123.086 85.5693 127.586C78.4393 135.606 62.2793 141.556 54.2193 131.706C48.0193 122.766 55.7193 111.496 63.4593 106.696C66.6693 104.606 70.1493 103.116 73.7193 102.186C74.6493 101.946 75.6093 102.506 75.8493 103.436C76.0393 104.186 75.7293 104.936 75.1193 105.326V105.346Z" fill="black"/>
<path d="M75.1193 105.346C69.7993 108.986 64.4493 113.206 61.4993 118.776C59.2393 123.176 58.5793 128.226 64.6893 129.016C69.0193 129.556 73.5993 128.026 77.4093 125.876C81.4293 123.636 84.5993 120.076 86.2893 115.756C87.3193 112.956 87.7493 109.716 86.4893 106.946C86.1193 106.256 86.4193 105.386 87.1293 105.056C89.3393 104.026 90.9693 109.526 91.1393 111.036C91.9693 117.066 89.5293 123.086 85.5693 127.586C78.4393 135.606 62.2793 141.556 54.2193 131.706C48.0193 122.766 55.7193 111.496 63.4593 106.696C66.6693 104.606 70.1493 103.116 73.7193 102.186C74.6493 101.946 75.6093 102.506 75.8493 103.436C76.0393 104.186 75.7293 104.936 75.1193 105.326V105.346Z" fill="black" fill-opacity="0.2"/>
<path d="M75.1193 105.346C69.7993 108.986 64.4493 113.206 61.4993 118.776C59.2393 123.176 58.5793 128.226 64.6893 129.016C69.0193 129.556 73.5993 128.026 77.4093 125.876C81.4293 123.636 84.5993 120.076 86.2893 115.756C87.3193 112.956 87.7493 109.716 86.4893 106.946C86.1193 106.256 86.4193 105.386 87.1293 105.056C89.3393 104.026 90.9693 109.526 91.1393 111.036C91.9693 117.066 89.5293 123.086 85.5693 127.586C78.4393 135.606 62.2793 141.556 54.2193 131.706C48.0193 122.766 55.7193 111.496 63.4593 106.696C66.6693 104.606 70.1493 103.116 73.7193 102.186C74.6493 101.946 75.6093 102.506 75.8493 103.436C76.0393 104.186 75.7293 104.936 75.1193 105.326V105.346Z" fill="black"/>
<path d="M75.1193 105.346C69.7993 108.986 64.4493 113.206 61.4993 118.776C59.2393 123.176 58.5793 128.226 64.6893 129.016C69.0193 129.556 73.5993 128.026 77.4093 125.876C81.4293 123.636 84.5993 120.076 86.2893 115.756C87.3193 112.956 87.7493 109.716 86.4893 106.946C86.1193 106.256 86.4193 105.386 87.1293 105.056C89.3393 104.026 90.9693 109.526 91.1393 111.036C91.9693 117.066 89.5293 123.086 85.5693 127.586C78.4393 135.606 62.2793 141.556 54.2193 131.706C48.0193 122.766 55.7193 111.496 63.4593 106.696C66.6693 104.606 70.1493 103.116 73.7193 102.186C74.6493 101.946 75.6093 102.506 75.8493 103.436C76.0393 104.186 75.7293 104.936 75.1193 105.326V105.346Z" fill="black" fill-opacity="0.2"/>
<path d="M121.309 67.3546C124.509 66.4446 125.879 61.3746 124.369 56.0146C122.849 50.6646 119.029 47.0546 115.829 47.9646C112.619 48.8746 111.259 53.9446 112.769 59.3046C114.279 64.6546 118.109 68.2646 121.309 67.3546Z" fill="black"/>
<path d="M121.309 67.3546C124.509 66.4446 125.879 61.3746 124.369 56.0146C122.849 50.6646 119.029 47.0546 115.829 47.9646C112.619 48.8746 111.259 53.9446 112.769 59.3046C114.279 64.6546 118.109 68.2646 121.309 67.3546Z" fill="black" fill-opacity="0.2"/>
<path d="M121.309 67.3546C124.509 66.4446 125.879 61.3746 124.369 56.0146C122.849 50.6646 119.029 47.0546 115.829 47.9646C112.619 48.8746 111.259 53.9446 112.769 59.3046C114.279 64.6546 118.109 68.2646 121.309 67.3546Z" fill="black"/>
<path d="M121.309 67.3546C124.509 66.4446 125.879 61.3746 124.369 56.0146C122.849 50.6646 119.029 47.0546 115.829 47.9646C112.619 48.8746 111.259 53.9446 112.769 59.3046C114.279 64.6546 118.109 68.2646 121.309 67.3546Z" fill="black" fill-opacity="0.2"/>
<path d="M124.489 60.0562C125.739 59.7062 126.329 57.8962 125.799 56.0362C125.269 54.1662 123.829 52.9462 122.569 53.2962C121.319 53.6462 120.729 55.4562 121.259 57.3162C121.789 59.1862 123.229 60.4062 124.489 60.0562Z" fill="white"/>
<path d="M97.1594 76.1246C96.9794 75.8246 95.9594 75.7846 95.5094 75.8646C93.0894 76.1846 91.6994 79.1046 93.0494 81.2146C93.1894 81.4846 93.6894 82.0146 93.7994 82.1246C93.9694 82.2946 93.7795 82.2446 94.1195 82.4646C96.2195 83.5546 98.9994 82.0646 99.3394 79.7146C99.5194 78.2746 99.1794 77.4646 98.3394 76.4546C98.2494 76.3446 98.2694 76.3446 98.2794 76.3346C98.7894 76.6446 99.3094 77.1046 99.7694 77.4846C101.949 79.4446 103.689 81.6346 104.919 84.3146C105.699 86.0746 104.919 88.1346 103.149 88.9246C100.849 89.9846 99.0194 88.1546 97.5394 86.6346C96.1794 85.2646 94.6794 83.5846 93.3494 82.1846C93.0194 81.8046 92.6194 81.3946 92.3794 80.9546C90.6094 77.8646 93.8294 74.1946 97.1494 75.6546C97.6794 75.9146 97.8394 76.1146 98.1694 76.4046C98.2394 76.4446 98.7094 76.9346 98.8794 77.1646C99.0794 77.4246 99.2495 77.7246 99.3695 78.0346C100.449 80.6546 97.9794 83.4646 95.3194 82.8046C90.4294 81.3946 92.3494 74.5546 97.1694 76.1246H97.1594Z" fill="black"/>
<path d="M97.1594 76.1246C96.9794 75.8246 95.9594 75.7846 95.5094 75.8646C93.0894 76.1846 91.6994 79.1046 93.0494 81.2146C93.1894 81.4846 93.6894 82.0146 93.7994 82.1246C93.9694 82.2946 93.7795 82.2446 94.1195 82.4646C96.2195 83.5546 98.9994 82.0646 99.3394 79.7146C99.5194 78.2746 99.1794 77.4646 98.3394 76.4546C98.2494 76.3446 98.2694 76.3446 98.2794 76.3346C98.7894 76.6446 99.3094 77.1046 99.7694 77.4846C101.949 79.4446 103.689 81.6346 104.919 84.3146C105.699 86.0746 104.919 88.1346 103.149 88.9246C100.849 89.9846 99.0194 88.1546 97.5394 86.6346C96.1794 85.2646 94.6794 83.5846 93.3494 82.1846C93.0194 81.8046 92.6194 81.3946 92.3794 80.9546C90.6094 77.8646 93.8294 74.1946 97.1494 75.6546C97.6794 75.9146 97.8394 76.1146 98.1694 76.4046C98.2394 76.4446 98.7094 76.9346 98.8794 77.1646C99.0794 77.4246 99.2495 77.7246 99.3695 78.0346C100.449 80.6546 97.9794 83.4646 95.3194 82.8046C90.4294 81.3946 92.3494 74.5546 97.1694 76.1246H97.1594Z" fill="black" fill-opacity="0.2"/>
<path d="M102.129 86.3047C102.129 86.3047 101.629 84.3746 99.0794 81.7346C96.5294 79.0946 93.6394 77.8747 93.6394 77.8747C88.4394 77.7247 80.0094 79.8246 77.5194 84.9446C76.7894 86.4446 75.9894 89.4746 78.8494 92.9146C80.5394 94.9446 82.5494 95.7246 84.6694 95.7246C89.2094 95.7246 94.2494 92.1547 97.6994 89.7147C98.8694 88.8847 102.349 86.2846 102.129 86.2946V86.3047Z" fill="#FF6700"/>
<path d="M89.2791 53.9848C93.9491 54.7748 98.5791 55.6948 103.239 56.5548C104.809 56.8448 105.849 58.3448 105.559 59.9148C105.249 61.7848 103.329 62.3248 101.819 62.8948C100.649 63.2548 97.7491 63.9948 96.5291 64.3348C94.1791 64.9748 91.8291 65.6148 89.4491 66.1948C88.4391 66.4448 87.4191 65.8248 87.1691 64.8248C86.9491 63.9548 87.3891 63.0748 88.1591 62.6848C90.3491 61.5948 92.5491 60.5548 94.7591 59.5248C96.7291 58.6648 99.3891 57.1448 101.459 56.6348L101.719 62.2848C97.2591 60.7248 92.7691 59.2248 88.3291 57.5948C86.2091 56.8048 87.0691 53.6148 89.2891 53.9848H89.2791Z" fill="black"/>
<path d="M89.2791 53.9848C93.9491 54.7748 98.5791 55.6948 103.239 56.5548C104.809 56.8448 105.849 58.3448 105.559 59.9148C105.249 61.7848 103.329 62.3248 101.819 62.8948C100.649 63.2548 97.7491 63.9948 96.5291 64.3348C94.1791 64.9748 91.8291 65.6148 89.4491 66.1948C88.4391 66.4448 87.4191 65.8248 87.1691 64.8248C86.9491 63.9548 87.3891 63.0748 88.1591 62.6848C90.3491 61.5948 92.5491 60.5548 94.7591 59.5248C96.7291 58.6648 99.3891 57.1448 101.459 56.6348L101.719 62.2848C97.2591 60.7248 92.7691 59.2248 88.3291 57.5948C86.2091 56.8048 87.0691 53.6148 89.2891 53.9848H89.2791Z" fill="black" fill-opacity="0.2"/>
</svg>
