<svg width="149" height="123" viewBox="0 0 149 123" fill="none" xmlns="http://www.w3.org/2000/svg">
<path d="M125.323 87.3237C118.233 94.2937 116.033 103.544 120.403 107.984C124.773 112.424 134.063 110.374 141.143 103.404C148.233 96.4337 150.433 87.1837 146.063 82.7437C141.693 78.3037 132.403 80.3537 125.323 87.3237Z" fill="black"/>
<path d="M125.323 87.3237C118.233 94.2937 116.033 103.544 120.403 107.984C124.773 112.424 134.063 110.374 141.143 103.404C148.233 96.4337 150.433 87.1837 146.063 82.7437C141.693 78.3037 132.403 80.3537 125.323 87.3237Z" fill="black" fill-opacity="0.2"/>
<path d="M37.3431 58.1833C33.0031 49.9433 23.3931 35.0933 10.6031 35.2433C-7.07689 35.4533 13.5031 75.4133 13.5031 75.4133C13.5031 75.4133 -3.18689 108.133 11.3631 111.593C25.9231 115.053 38.2031 94.5433 38.2031 94.5433" fill="#FF6700"/>
<path d="M115.313 38.2523C115.313 38.2523 103.453 15.4823 77.363 5.28233C64.813 0.382325 59.713 8.02233 66.953 17.6423C76.173 29.8923 41.233 5.77233 63.663 45.6323L115.323 38.2423L115.313 38.2523Z" fill="#FF6700"/>
<path d="M95.4827 29.1637L106.683 25.8437L87.5328 10.2337L69.8528 3.76367L63.8228 7.95367C63.8228 7.95367 89.4028 16.4737 95.4728 29.1737L95.4827 29.1637Z" fill="#FECB8B"/>
<path d="M112.183 36.6431C111.633 37.4431 111.633 38.9131 112.133 39.6431V39.6131L112.083 39.5131C110.453 35.2331 107.853 31.3731 104.953 27.8431C98.3828 20.1631 90.0728 13.9531 80.9128 9.76311C77.5528 8.41311 73.4628 6.48311 69.9528 6.80311C65.9128 7.01311 66.6128 10.3131 68.0928 13.0031C69.7928 16.0531 74.0028 19.4731 71.3428 23.3031C69.0328 26.4431 64.4528 24.8431 61.4428 25.0431C60.5428 25.0531 59.8728 25.3031 59.9228 25.3531C59.9228 25.3731 60.0328 25.2731 60.0428 25.2631C59.7328 28.0631 61.3328 31.4331 62.4228 34.1531C62.7628 34.9531 63.4528 36.5631 63.8228 37.3531C64.7928 39.5031 65.7928 41.6731 66.7328 43.9031L63.1728 42.1431C79.6128 39.7231 95.5528 38.1831 112.203 36.6331L112.183 36.6431ZM118.443 39.8531C100.663 43.2431 82.1528 46.6131 64.1228 49.1131C62.6528 49.3231 61.2628 48.5731 60.5828 47.3531C56.8428 41.9931 53.7628 36.1231 52.3828 29.5931C50.5528 19.8831 56.3828 16.1631 65.4128 17.7531C65.9828 17.8231 66.5428 17.8831 66.8628 17.8931C67.0028 17.9031 67.1028 17.8731 66.8628 17.9431C65.7828 18.2631 64.9028 19.4331 64.9028 20.5731C64.8828 20.7931 64.9228 21.0531 64.9928 21.2431C64.1828 19.5931 62.7328 17.9631 61.9528 16.1131C60.5628 13.1531 59.7128 9.81311 60.9128 6.40311C63.5428 -0.656888 72.4128 0.023104 78.0028 2.4731C79.7428 3.2031 81.5328 4.10311 83.2528 4.87311C84.7928 5.76311 86.7528 6.7431 88.2528 7.6731L91.4728 9.71311C99.9428 15.3331 107.043 22.7031 113.523 30.4631C114.753 31.8831 116.003 33.5031 117.183 34.9731L117.793 35.7531L118.103 36.1531L118.183 36.2531C118.833 37.2231 118.913 38.7831 118.453 39.8331L118.443 39.8531Z" fill="black"/>
<path d="M112.183 36.6431C111.633 37.4431 111.633 38.9131 112.133 39.6431V39.6131L112.083 39.5131C110.453 35.2331 107.853 31.3731 104.953 27.8431C98.3828 20.1631 90.0728 13.9531 80.9128 9.76311C77.5528 8.41311 73.4628 6.48311 69.9528 6.80311C65.9128 7.01311 66.6128 10.3131 68.0928 13.0031C69.7928 16.0531 74.0028 19.4731 71.3428 23.3031C69.0328 26.4431 64.4528 24.8431 61.4428 25.0431C60.5428 25.0531 59.8728 25.3031 59.9228 25.3531C59.9228 25.3731 60.0328 25.2731 60.0428 25.2631C59.7328 28.0631 61.3328 31.4331 62.4228 34.1531C62.7628 34.9531 63.4528 36.5631 63.8228 37.3531C64.7928 39.5031 65.7928 41.6731 66.7328 43.9031L63.1728 42.1431C79.6128 39.7231 95.5528 38.1831 112.203 36.6331L112.183 36.6431ZM118.443 39.8531C100.663 43.2431 82.1528 46.6131 64.1228 49.1131C62.6528 49.3231 61.2628 48.5731 60.5828 47.3531C56.8428 41.9931 53.7628 36.1231 52.3828 29.5931C50.5528 19.8831 56.3828 16.1631 65.4128 17.7531C65.9828 17.8231 66.5428 17.8831 66.8628 17.8931C67.0028 17.9031 67.1028 17.8731 66.8628 17.9431C65.7828 18.2631 64.9028 19.4331 64.9028 20.5731C64.8828 20.7931 64.9228 21.0531 64.9928 21.2431C64.1828 19.5931 62.7328 17.9631 61.9528 16.1131C60.5628 13.1531 59.7128 9.81311 60.9128 6.40311C63.5428 -0.656888 72.4128 0.023104 78.0028 2.4731C79.7428 3.2031 81.5328 4.10311 83.2528 4.87311C84.7928 5.76311 86.7528 6.7431 88.2528 7.6731L91.4728 9.71311C99.9428 15.3331 107.043 22.7031 113.523 30.4631C114.753 31.8831 116.003 33.5031 117.183 34.9731L117.793 35.7531L118.103 36.1531L118.183 36.2531C118.833 37.2231 118.913 38.7831 118.453 39.8331L118.443 39.8531Z" fill="black" fill-opacity="0.2"/>
<path d="M112.183 36.6431C111.633 37.4431 111.633 38.9131 112.133 39.6431V39.6131L112.083 39.5131C110.453 35.2331 107.853 31.3731 104.953 27.8431C98.3828 20.1631 90.0728 13.9531 80.9128 9.76311C77.5528 8.41311 73.4628 6.48311 69.9528 6.80311C65.9128 7.01311 66.6128 10.3131 68.0928 13.0031C69.7928 16.0531 74.0028 19.4731 71.3428 23.3031C69.0328 26.4431 64.4528 24.8431 61.4428 25.0431C60.5428 25.0531 59.8728 25.3031 59.9228 25.3531C59.9228 25.3731 60.0328 25.2731 60.0428 25.2631C59.7328 28.0631 61.3328 31.4331 62.4228 34.1531C62.7628 34.9531 63.4528 36.5631 63.8228 37.3531C64.7928 39.5031 65.7928 41.6731 66.7328 43.9031L63.1728 42.1431C79.6128 39.7231 95.5528 38.1831 112.203 36.6331L112.183 36.6431ZM118.443 39.8531C100.663 43.2431 82.1528 46.6131 64.1228 49.1131C62.6528 49.3231 61.2628 48.5731 60.5828 47.3531C56.8428 41.9931 53.7628 36.1231 52.3828 29.5931C50.5528 19.8831 56.3828 16.1631 65.4128 17.7531C65.9828 17.8231 66.5428 17.8831 66.8628 17.8931C67.0028 17.9031 67.1028 17.8731 66.8628 17.9431C65.7828 18.2631 64.9028 19.4331 64.9028 20.5731C64.8828 20.7931 64.9228 21.0531 64.9928 21.2431C64.1828 19.5931 62.7328 17.9631 61.9528 16.1131C60.5628 13.1531 59.7128 9.81311 60.9128 6.40311C63.5428 -0.656888 72.4128 0.023104 78.0028 2.4731C79.7428 3.2031 81.5328 4.10311 83.2528 4.87311C84.7928 5.76311 86.7528 6.7431 88.2528 7.6731L91.4728 9.71311C99.9428 15.3331 107.043 22.7031 113.523 30.4631C114.753 31.8831 116.003 33.5031 117.183 34.9731L117.793 35.7531L118.103 36.1531L118.183 36.2531C118.833 37.2231 118.913 38.7831 118.453 39.8331L118.443 39.8531Z" fill="black"/>
<path d="M112.183 36.6431C111.633 37.4431 111.633 38.9131 112.133 39.6431V39.6131L112.083 39.5131C110.453 35.2331 107.853 31.3731 104.953 27.8431C98.3828 20.1631 90.0728 13.9531 80.9128 9.76311C77.5528 8.41311 73.4628 6.48311 69.9528 6.80311C65.9128 7.01311 66.6128 10.3131 68.0928 13.0031C69.7928 16.0531 74.0028 19.4731 71.3428 23.3031C69.0328 26.4431 64.4528 24.8431 61.4428 25.0431C60.5428 25.0531 59.8728 25.3031 59.9228 25.3531C59.9228 25.3731 60.0328 25.2731 60.0428 25.2631C59.7328 28.0631 61.3328 31.4331 62.4228 34.1531C62.7628 34.9531 63.4528 36.5631 63.8228 37.3531C64.7928 39.5031 65.7928 41.6731 66.7328 43.9031L63.1728 42.1431C79.6128 39.7231 95.5528 38.1831 112.203 36.6331L112.183 36.6431ZM118.443 39.8531C100.663 43.2431 82.1528 46.6131 64.1228 49.1131C62.6528 49.3231 61.2628 48.5731 60.5828 47.3531C56.8428 41.9931 53.7628 36.1231 52.3828 29.5931C50.5528 19.8831 56.3828 16.1631 65.4128 17.7531C65.9828 17.8231 66.5428 17.8831 66.8628 17.8931C67.0028 17.9031 67.1028 17.8731 66.8628 17.9431C65.7828 18.2631 64.9028 19.4331 64.9028 20.5731C64.8828 20.7931 64.9228 21.0531 64.9928 21.2431C64.1828 19.5931 62.7328 17.9631 61.9528 16.1131C60.5628 13.1531 59.7128 9.81311 60.9128 6.40311C63.5428 -0.656888 72.4128 0.023104 78.0028 2.4731C79.7428 3.2031 81.5328 4.10311 83.2528 4.87311C84.7928 5.76311 86.7528 6.7431 88.2528 7.6731L91.4728 9.71311C99.9428 15.3331 107.043 22.7031 113.523 30.4631C114.753 31.8831 116.003 33.5031 117.183 34.9731L117.793 35.7531L118.103 36.1531L118.183 36.2531C118.833 37.2231 118.913 38.7831 118.453 39.8331L118.443 39.8531Z" fill="black" fill-opacity="0.2"/>
<path d="M38.2028 94.5336L38.3628 91.5136C49.0828 105.374 70.1228 118.364 91.2228 118.364C121.343 118.364 145.763 97.9436 145.763 72.7736C145.763 47.6036 121.343 27.1836 91.2228 27.1836C70.6928 27.1836 48.0428 42.8636 37.3428 58.2036" fill="#FECB8B"/>
<path d="M30.1927 64.3232C22.0427 46.5532 9.94269 40.2831 6.99269 48.0031C5.17269 20.3131 28.8327 46.0532 33.4927 56.7332L30.1927 64.3232Z" fill="#FECB8B"/>
<path d="M13.2729 108.373C25.2929 107.983 30.6129 89.3127 30.5629 83.2227L37.3129 93.9427C29.8729 103.963 21.9229 109.423 13.2729 108.373Z" fill="black"/>
<path d="M13.2729 108.373C25.2929 107.983 30.6129 89.3127 30.5629 83.2227L37.3129 93.9427C29.8729 103.963 21.9229 109.423 13.2729 108.373Z" fill="black" fill-opacity="0.2"/>
<path d="M13.2729 108.373C25.2929 107.983 30.6129 89.3127 30.5629 83.2227L37.3129 93.9427C29.8729 103.963 21.9229 109.423 13.2729 108.373Z" fill="black"/>
<path d="M13.2729 108.373C25.2929 107.983 30.6129 89.3127 30.5629 83.2227L37.3129 93.9427C29.8729 103.963 21.9229 109.423 13.2729 108.373Z" fill="black" fill-opacity="0.2"/>
<path d="M76.3729 118.352C70.2029 119.122 33.0029 90.2924 35.0329 81.6624C37.3829 83.9824 30.2129 71.4724 34.2129 63.2924C54.6829 21.3824 99.7029 27.5924 95.4729 29.1724C60.4929 42.2724 47.9929 94.0124 89.1929 108.512C94.6829 111.472 106.403 112.682 115.153 110.802C123.133 109.082 87.6729 119.632 70.6729 119.142" fill="#FF6700"/>
<path d="M41.2229 96.3439C35.0129 105.944 24.7629 116.864 12.2129 115.324C7.71292 114.764 3.95292 112.114 2.61292 107.384C-0.167078 97.4439 6.09292 82.7839 10.3729 73.8139C10.3729 73.8139 10.3729 77.0339 10.3729 77.0239C5.76292 67.3039 -1.42708 50.9939 0.582921 40.2539C2.29292 31.8239 10.4329 30.8839 17.2629 33.2639C24.6229 35.9039 29.9029 41.6039 34.2529 47.6639C36.3329 50.6239 38.1729 53.7039 39.8229 56.8839C41.4129 60.2139 36.7029 62.6639 34.8729 59.4939C30.3429 51.3939 24.2829 42.3239 15.3129 39.0839C12.6829 38.2039 9.16292 38.0939 8.14292 39.0739C4.93292 42.0639 7.68292 51.2739 8.86292 55.2539C10.8729 61.5739 13.6329 67.9239 16.6329 73.8139C17.1729 74.8539 17.1329 76.0439 16.6329 77.0239C14.0629 82.2739 11.7629 87.9439 10.2529 93.5839C9.30292 97.5039 7.48292 104.934 10.8229 107.624C12.5629 108.594 14.7329 108.604 16.7029 108.294C23.2929 107.034 28.6829 101.464 32.7529 96.2239C33.5929 95.1239 34.4729 93.8639 35.1929 92.7039C37.7329 88.8139 43.4929 92.2939 41.2029 96.3539L41.2229 96.3439Z" fill="black"/>
<path d="M41.2229 96.3439C35.0129 105.944 24.7629 116.864 12.2129 115.324C7.71292 114.764 3.95292 112.114 2.61292 107.384C-0.167078 97.4439 6.09292 82.7839 10.3729 73.8139C10.3729 73.8139 10.3729 77.0339 10.3729 77.0239C5.76292 67.3039 -1.42708 50.9939 0.582921 40.2539C2.29292 31.8239 10.4329 30.8839 17.2629 33.2639C24.6229 35.9039 29.9029 41.6039 34.2529 47.6639C36.3329 50.6239 38.1729 53.7039 39.8229 56.8839C41.4129 60.2139 36.7029 62.6639 34.8729 59.4939C30.3429 51.3939 24.2829 42.3239 15.3129 39.0839C12.6829 38.2039 9.16292 38.0939 8.14292 39.0739C4.93292 42.0639 7.68292 51.2739 8.86292 55.2539C10.8729 61.5739 13.6329 67.9239 16.6329 73.8139C17.1729 74.8539 17.1329 76.0439 16.6329 77.0239C14.0629 82.2739 11.7629 87.9439 10.2529 93.5839C9.30292 97.5039 7.48292 104.934 10.8229 107.624C12.5629 108.594 14.7329 108.604 16.7029 108.294C23.2929 107.034 28.6829 101.464 32.7529 96.2239C33.5929 95.1239 34.4729 93.8639 35.1929 92.7039C37.7329 88.8139 43.4929 92.2939 41.2029 96.3539L41.2229 96.3439Z" fill="black" fill-opacity="0.2"/>
<path d="M41.2229 96.3439C35.0129 105.944 24.7629 116.864 12.2129 115.324C7.71292 114.764 3.95292 112.114 2.61292 107.384C-0.167078 97.4439 6.09292 82.7839 10.3729 73.8139C10.3729 73.8139 10.3729 77.0339 10.3729 77.0239C5.76292 67.3039 -1.42708 50.9939 0.582921 40.2539C2.29292 31.8239 10.4329 30.8839 17.2629 33.2639C24.6229 35.9039 29.9029 41.6039 34.2529 47.6639C36.3329 50.6239 38.1729 53.7039 39.8229 56.8839C41.4129 60.2139 36.7029 62.6639 34.8729 59.4939C30.3429 51.3939 24.2829 42.3239 15.3129 39.0839C12.6829 38.2039 9.16292 38.0939 8.14292 39.0739C4.93292 42.0639 7.68292 51.2739 8.86292 55.2539C10.8729 61.5739 13.6329 67.9239 16.6329 73.8139C17.1729 74.8539 17.1329 76.0439 16.6329 77.0239C14.0629 82.2739 11.7629 87.9439 10.2529 93.5839C9.30292 97.5039 7.48292 104.934 10.8229 107.624C12.5629 108.594 14.7329 108.604 16.7029 108.294C23.2929 107.034 28.6829 101.464 32.7529 96.2239C33.5929 95.1239 34.4729 93.8639 35.1929 92.7039C37.7329 88.8139 43.4929 92.2939 41.2029 96.3539L41.2229 96.3439Z" fill="black"/>
<path d="M41.2229 96.3439C35.0129 105.944 24.7629 116.864 12.2129 115.324C7.71292 114.764 3.95292 112.114 2.61292 107.384C-0.167078 97.4439 6.09292 82.7839 10.3729 73.8139C10.3729 73.8139 10.3729 77.0339 10.3729 77.0239C5.76292 67.3039 -1.42708 50.9939 0.582921 40.2539C2.29292 31.8239 10.4329 30.8839 17.2629 33.2639C24.6229 35.9039 29.9029 41.6039 34.2529 47.6639C36.3329 50.6239 38.1729 53.7039 39.8229 56.8839C41.4129 60.2139 36.7029 62.6639 34.8729 59.4939C30.3429 51.3939 24.2829 42.3239 15.3129 39.0839C12.6829 38.2039 9.16292 38.0939 8.14292 39.0739C4.93292 42.0639 7.68292 51.2739 8.86292 55.2539C10.8729 61.5739 13.6329 67.9239 16.6329 73.8139C17.1729 74.8539 17.1329 76.0439 16.6329 77.0239C14.0629 82.2739 11.7629 87.9439 10.2529 93.5839C9.30292 97.5039 7.48292 104.934 10.8229 107.624C12.5629 108.594 14.7329 108.604 16.7029 108.294C23.2929 107.034 28.6829 101.464 32.7529 96.2239C33.5929 95.1239 34.4729 93.8639 35.1929 92.7039C37.7329 88.8139 43.4929 92.2939 41.2029 96.3539L41.2229 96.3439Z" fill="black" fill-opacity="0.2"/>
<path d="M31.4231 61.8237C41.8531 43.0637 64.8031 27.0437 86.1531 24.5237C108.743 22.4937 133.393 33.3937 143.843 54.2137C156.773 80.6237 140.073 108.454 114.083 118.004C105.163 121.364 95.5331 122.644 86.0531 121.854C68.4831 119.984 51.9731 111.134 40.1031 98.1637C39.1231 97.1637 37.8531 95.4737 36.9531 94.3937C34.4131 91.1237 32.3131 87.5537 30.7131 83.6637C30.1731 82.3837 30.7731 80.9037 32.0531 80.3637C33.2731 79.8437 34.6731 80.3637 35.2631 81.5237C37.9031 86.7137 41.7331 91.4037 46.1631 95.4537C59.0231 107.224 76.7431 115.414 94.3731 114.484C117.243 113.734 142.553 98.1737 143.233 73.3237C143.833 48.1337 118.853 31.2237 95.6131 30.1837C83.7931 29.1237 72.1431 33.3337 61.9331 39.6337C51.9731 45.9137 42.5531 54.4037 36.9931 64.7637C34.9331 68.4037 29.5631 65.5637 31.4231 61.8037H31.4131L31.4231 61.8237Z" fill="black"/>
<path d="M31.4231 61.8237C41.8531 43.0637 64.8031 27.0437 86.1531 24.5237C108.743 22.4937 133.393 33.3937 143.843 54.2137C156.773 80.6237 140.073 108.454 114.083 118.004C105.163 121.364 95.5331 122.644 86.0531 121.854C68.4831 119.984 51.9731 111.134 40.1031 98.1637C39.1231 97.1637 37.8531 95.4737 36.9531 94.3937C34.4131 91.1237 32.3131 87.5537 30.7131 83.6637C30.1731 82.3837 30.7731 80.9037 32.0531 80.3637C33.2731 79.8437 34.6731 80.3637 35.2631 81.5237C37.9031 86.7137 41.7331 91.4037 46.1631 95.4537C59.0231 107.224 76.7431 115.414 94.3731 114.484C117.243 113.734 142.553 98.1737 143.233 73.3237C143.833 48.1337 118.853 31.2237 95.6131 30.1837C83.7931 29.1237 72.1431 33.3337 61.9331 39.6337C51.9731 45.9137 42.5531 54.4037 36.9931 64.7637C34.9331 68.4037 29.5631 65.5637 31.4231 61.8037H31.4131L31.4231 61.8237Z" fill="black" fill-opacity="0.2"/>
<path d="M80.2927 84.722C70.9427 89.652 65.8727 98.412 68.9727 104.292C72.0727 110.172 82.1627 110.942 91.5127 106.012C100.863 101.082 105.933 92.322 102.833 86.442C99.7327 80.562 89.6427 79.792 80.2927 84.722Z" fill="#FECB8B"/>
<path d="M68.7326 101.133C69.2426 102.563 70.0426 105.563 71.2926 106.533C70.4826 100.783 76.4626 93.1026 85.2826 89.9126C92.6026 87.2726 98.9026 90.8026 100.443 97.2726C100.373 96.7626 103.633 89.0826 103.463 88.5926C101.283 82.5626 91.7526 80.4926 82.1626 83.9526C72.5726 87.4126 66.5626 95.1126 68.7426 101.133H68.7326Z" fill="#FF6700"/>
<path d="M82.5329 108.113C88.2029 105.043 93.9629 101.403 97.4729 96.1627C100.173 92.0127 101.353 87.0727 95.3529 85.6527C91.1029 84.6727 86.3829 85.7127 82.3729 87.4527C78.1429 89.2627 74.6229 92.4827 72.4929 96.6027C71.1829 99.2727 70.4129 102.463 71.3829 105.343C71.6729 106.073 71.2929 106.903 70.5529 107.153C68.2529 107.953 67.1929 102.313 67.1929 100.783C66.9929 94.7027 70.0429 88.9627 74.4529 84.9027C82.3729 77.6627 99.0629 73.4227 106.053 84.0527C111.293 93.5927 102.473 104.003 94.2729 107.973C90.8629 109.723 87.2429 110.843 83.6029 111.393C82.6529 111.533 81.7629 110.883 81.6129 109.923C81.5029 109.163 81.8929 108.443 82.5329 108.113Z" fill="black"/>
<path d="M82.5329 108.113C88.2029 105.043 93.9629 101.403 97.4729 96.1627C100.173 92.0127 101.353 87.0727 95.3529 85.6527C91.1029 84.6727 86.3829 85.7127 82.3729 87.4527C78.1429 89.2627 74.6229 92.4827 72.4929 96.6027C71.1829 99.2727 70.4129 102.463 71.3829 105.343C71.6729 106.073 71.2929 106.903 70.5529 107.153C68.2529 107.953 67.1929 102.313 67.1929 100.783C66.9929 94.7027 70.0429 88.9627 74.4529 84.9027C82.3729 77.6627 99.0629 73.4227 106.053 84.0527C111.293 93.5927 102.473 104.003 94.2729 107.973C90.8629 109.723 87.2429 110.843 83.6029 111.393C82.6529 111.533 81.7629 110.883 81.6129 109.923C81.5029 109.163 81.8929 108.443 82.5329 108.113Z" fill="black" fill-opacity="0.2"/>
<path d="M103.383 72.2032C106.793 71.2432 108.253 65.8432 106.633 60.1432C105.023 54.4432 100.953 50.6132 97.5431 51.5732C94.1331 52.5332 92.6731 57.9332 94.2931 63.6332C95.9031 69.3332 99.9731 73.1632 103.383 72.2032Z" fill="black"/>
<path d="M103.383 72.2032C106.793 71.2432 108.253 65.8432 106.633 60.1432C105.023 54.4432 100.953 50.6132 97.5431 51.5732C94.1331 52.5332 92.6731 57.9332 94.2931 63.6332C95.9031 69.3332 99.9731 73.1632 103.383 72.2032Z" fill="black" fill-opacity="0.2"/>
<path d="M103.383 72.2032C106.793 71.2432 108.253 65.8432 106.633 60.1432C105.023 54.4432 100.953 50.6132 97.5431 51.5732C94.1331 52.5332 92.6731 57.9332 94.2931 63.6332C95.9031 69.3332 99.9731 73.1632 103.383 72.2032Z" fill="black"/>
<path d="M103.383 72.2032C106.793 71.2432 108.253 65.8432 106.633 60.1432C105.023 54.4432 100.953 50.6132 97.5431 51.5732C94.1331 52.5332 92.6731 57.9332 94.2931 63.6332C95.9031 69.3332 99.9731 73.1632 103.383 72.2032Z" fill="black" fill-opacity="0.2"/>
<path d="M95.9031 59.3321C97.2331 58.9521 97.8631 57.0421 97.3031 55.0521C96.7431 53.0621 95.2031 51.7621 93.8731 52.1421C92.5431 52.5221 91.9131 54.4321 92.4731 56.4221C93.0331 58.4121 94.5731 59.7121 95.9031 59.3321Z" fill="white"/>
<path d="M121.493 68.1222C124.693 67.2122 126.063 62.1422 124.553 56.7822C123.033 51.4322 119.213 47.8222 116.013 48.7322C112.803 49.6422 111.443 54.7122 112.953 60.0722C114.463 65.4222 118.293 69.0322 121.493 68.1222Z" fill="black"/>
<path d="M121.493 68.1222C124.693 67.2122 126.063 62.1422 124.553 56.7822C123.033 51.4322 119.213 47.8222 116.013 48.7322C112.803 49.6422 111.443 54.7122 112.953 60.0722C114.463 65.4222 118.293 69.0322 121.493 68.1222Z" fill="black" fill-opacity="0.2"/>
<path d="M121.493 68.1222C124.693 67.2122 126.063 62.1422 124.553 56.7822C123.033 51.4322 119.213 47.8222 116.013 48.7322C112.803 49.6422 111.443 54.7122 112.953 60.0722C114.463 65.4222 118.293 69.0322 121.493 68.1222Z" fill="black"/>
<path d="M121.493 68.1222C124.693 67.2122 126.063 62.1422 124.553 56.7822C123.033 51.4322 119.213 47.8222 116.013 48.7322C112.803 49.6422 111.443 54.7122 112.953 60.0722C114.463 65.4222 118.293 69.0322 121.493 68.1222Z" fill="black" fill-opacity="0.2"/>
<path d="M113.713 55.9332C114.963 55.5832 115.553 53.7731 115.023 51.9131C114.493 50.0431 113.053 48.8231 111.793 49.1731C110.543 49.5231 109.953 51.3331 110.483 53.1931C111.013 55.0631 112.453 56.2832 113.713 55.9332Z" fill="white"/>
<path d="M108.733 75.9033C110.533 74.2033 114.283 72.8733 116.923 73.8833C119.213 74.5633 121.953 76.6633 120.113 79.0933C119.353 80.0333 118.163 80.1933 117.103 79.8733C116.053 79.6233 115.293 79.3833 114.353 79.5733C112.863 79.8433 111.933 80.6533 109.873 80.9333C107.863 81.2433 106.473 78.7633 107.743 77.2033L108.743 75.9133L108.733 75.9033Z" fill="black"/>
<path d="M108.733 75.9033C110.533 74.2033 114.283 72.8733 116.923 73.8833C119.213 74.5633 121.953 76.6633 120.113 79.0933C119.353 80.0333 118.163 80.1933 117.103 79.8733C116.053 79.6233 115.293 79.3833 114.353 79.5733C112.863 79.8433 111.933 80.6533 109.873 80.9333C107.863 81.2433 106.473 78.7633 107.743 77.2033L108.743 75.9133L108.733 75.9033Z" fill="black" fill-opacity="0.2"/>
<path d="M108.393 44.274C109.823 39.924 115.613 37.854 119.453 40.314C121.213 41.304 123.953 44.214 121.463 45.824C120.923 46.144 120.323 46.074 119.753 45.974C118.393 45.704 117.223 45.204 115.873 45.254C113.953 45.144 112.263 46.454 110.373 46.644C109.053 46.914 107.903 45.514 108.393 44.274Z" fill="black"/>
<path d="M108.393 44.274C109.823 39.924 115.613 37.854 119.453 40.314C121.213 41.304 123.953 44.214 121.463 45.824C120.923 46.144 120.323 46.074 119.753 45.974C118.393 45.704 117.223 45.204 115.873 45.254C113.953 45.144 112.263 46.454 110.373 46.644C109.053 46.914 107.903 45.514 108.393 44.274Z" fill="black" fill-opacity="0.2"/>
<path d="M84.043 46.5039C84.473 37.3639 94.323 32.2939 102.013 37.2839C103.593 38.1939 102.973 40.7039 101.183 40.7939C99.933 40.9139 98.693 40.7239 97.483 40.8439C92.983 40.7939 89.993 43.7439 87.683 47.3539C86.653 49.1439 84.053 48.6139 84.043 46.5139V46.5039Z" fill="black"/>
<path d="M84.043 46.5039C84.473 37.3639 94.323 32.2939 102.013 37.2839C103.593 38.1939 102.973 40.7039 101.183 40.7939C99.933 40.9139 98.693 40.7239 97.483 40.8439C92.983 40.7939 89.993 43.7439 87.683 47.3539C86.653 49.1439 84.053 48.6139 84.043 46.5139V46.5039Z" fill="black" fill-opacity="0.2"/>
</svg>
