<svg width="149" height="138" viewBox="0 0 149 138" fill="none" xmlns="http://www.w3.org/2000/svg">
<path d="M37.7376 57.7946C33.3976 49.5546 23.7877 34.7046 10.9977 34.8546C-6.68235 35.0646 13.8976 75.0247 13.8976 75.0247C13.8976 75.0247 -2.7924 107.745 11.7576 111.205C26.3176 114.665 38.5976 94.1547 38.5976 94.1547" fill="#FF6700"/>
<path d="M108.378 126.794C115.468 119.824 117.668 110.574 113.298 106.134C108.928 101.694 99.6378 103.744 92.5578 110.714C85.4678 117.684 83.2677 126.934 87.6377 131.374C92.0077 135.814 101.298 133.764 108.378 126.794Z" fill="black"/>
<path d="M108.378 126.794C115.468 119.824 117.668 110.574 113.298 106.134C108.928 101.694 99.6378 103.744 92.5578 110.714C85.4678 117.684 83.2677 126.934 87.6377 131.374C92.0077 135.814 101.298 133.764 108.378 126.794Z" fill="black" fill-opacity="0.2"/>
<path d="M108.378 126.794C115.468 119.824 117.668 110.574 113.298 106.134C108.928 101.694 99.6378 103.744 92.5578 110.714C85.4678 117.684 83.2677 126.934 87.6377 131.374C92.0077 135.814 101.298 133.764 108.378 126.794Z" fill="black"/>
<path d="M108.378 126.794C115.468 119.824 117.668 110.574 113.298 106.134C108.928 101.694 99.6378 103.744 92.5578 110.714C85.4678 117.684 83.2677 126.934 87.6377 131.374C92.0077 135.814 101.298 133.764 108.378 126.794Z" fill="black" fill-opacity="0.2"/>
<path d="M115.707 37.8636C115.707 37.8636 103.847 15.0937 77.7575 4.89366C65.2075 -0.00634491 60.1075 7.63364 67.3475 17.2536C76.5675 29.5036 41.6275 5.38363 64.0575 45.2436L115.717 37.8536L115.707 37.8636Z" fill="#FF6700"/>
<path d="M95.8777 28.7848L107.078 25.4648L87.9278 9.85474L70.2478 3.38477L64.2178 7.57477C64.2178 7.57477 89.7978 16.0947 95.8678 28.7947L95.8777 28.7848Z" fill="#FECB8B"/>
<path d="M112.578 36.2542C112.028 37.0542 112.028 38.5242 112.528 39.2542V39.2241L112.478 39.1242C110.848 34.8442 108.248 30.9842 105.348 27.4542C98.7778 19.7742 90.4678 13.5642 81.3078 9.37417C77.9478 8.02417 73.8578 6.09415 70.3478 6.41415C66.3078 6.62415 67.0078 9.92416 68.4878 12.6142C70.1878 15.6642 74.3978 19.0842 71.7378 22.9142C69.4278 26.0542 64.8478 24.4542 61.8378 24.6542C60.9378 24.6642 60.2678 24.9142 60.3178 24.9642C60.3178 24.9842 60.4279 24.8842 60.4379 24.8742C60.1279 27.6742 61.7278 31.0442 62.8178 33.7642C63.1578 34.5642 63.8478 36.1742 64.2178 36.9642C65.1878 39.1142 66.1878 41.2842 67.1278 43.5142L63.5678 41.7542C80.0078 39.3342 95.9478 37.7942 112.598 36.2442L112.578 36.2542ZM118.838 39.4741C101.058 42.8641 82.5478 46.2342 64.5178 48.7342C63.0478 48.9442 61.6578 48.1941 60.9778 46.9741C57.2378 41.6141 54.1578 35.7442 52.7778 29.2142C50.9478 19.5042 56.7778 15.7842 65.8078 17.3742C66.3778 17.4442 66.9378 17.5042 67.2578 17.5142C67.3978 17.5242 67.4978 17.4942 67.2578 17.5642C66.1778 17.8842 65.2978 19.0542 65.2978 20.1942C65.2778 20.4142 65.3178 20.6742 65.3878 20.8642C64.5778 19.2142 63.1278 17.5842 62.3478 15.7342C60.9578 12.7742 60.1078 9.4342 61.3078 6.0242C63.9378 -1.0358 72.8078 -0.355797 78.3978 2.0942C80.1378 2.8242 81.9278 3.72417 83.6478 4.49417C85.1878 5.38417 87.1478 6.36415 88.6478 7.29415L91.8678 9.33419C100.338 14.9542 107.438 22.3242 113.918 30.0842C115.148 31.5042 116.398 33.1242 117.578 34.5942L118.188 35.3742L118.498 35.7742L118.578 35.8742C119.228 36.8442 119.308 38.4042 118.848 39.4542L118.838 39.4741Z" fill="black"/>
<path d="M112.578 36.2542C112.028 37.0542 112.028 38.5242 112.528 39.2542V39.2241L112.478 39.1242C110.848 34.8442 108.248 30.9842 105.348 27.4542C98.7778 19.7742 90.4678 13.5642 81.3078 9.37417C77.9478 8.02417 73.8578 6.09415 70.3478 6.41415C66.3078 6.62415 67.0078 9.92416 68.4878 12.6142C70.1878 15.6642 74.3978 19.0842 71.7378 22.9142C69.4278 26.0542 64.8478 24.4542 61.8378 24.6542C60.9378 24.6642 60.2678 24.9142 60.3178 24.9642C60.3178 24.9842 60.4279 24.8842 60.4379 24.8742C60.1279 27.6742 61.7278 31.0442 62.8178 33.7642C63.1578 34.5642 63.8478 36.1742 64.2178 36.9642C65.1878 39.1142 66.1878 41.2842 67.1278 43.5142L63.5678 41.7542C80.0078 39.3342 95.9478 37.7942 112.598 36.2442L112.578 36.2542ZM118.838 39.4741C101.058 42.8641 82.5478 46.2342 64.5178 48.7342C63.0478 48.9442 61.6578 48.1941 60.9778 46.9741C57.2378 41.6141 54.1578 35.7442 52.7778 29.2142C50.9478 19.5042 56.7778 15.7842 65.8078 17.3742C66.3778 17.4442 66.9378 17.5042 67.2578 17.5142C67.3978 17.5242 67.4978 17.4942 67.2578 17.5642C66.1778 17.8842 65.2978 19.0542 65.2978 20.1942C65.2778 20.4142 65.3178 20.6742 65.3878 20.8642C64.5778 19.2142 63.1278 17.5842 62.3478 15.7342C60.9578 12.7742 60.1078 9.4342 61.3078 6.0242C63.9378 -1.0358 72.8078 -0.355797 78.3978 2.0942C80.1378 2.8242 81.9278 3.72417 83.6478 4.49417C85.1878 5.38417 87.1478 6.36415 88.6478 7.29415L91.8678 9.33419C100.338 14.9542 107.438 22.3242 113.918 30.0842C115.148 31.5042 116.398 33.1242 117.578 34.5942L118.188 35.3742L118.498 35.7742L118.578 35.8742C119.228 36.8442 119.308 38.4042 118.848 39.4542L118.838 39.4741Z" fill="black" fill-opacity="0.2"/>
<path d="M112.578 36.2542C112.028 37.0542 112.028 38.5242 112.528 39.2542V39.2241L112.478 39.1242C110.848 34.8442 108.248 30.9842 105.348 27.4542C98.7778 19.7742 90.4678 13.5642 81.3078 9.37417C77.9478 8.02417 73.8578 6.09415 70.3478 6.41415C66.3078 6.62415 67.0078 9.92416 68.4878 12.6142C70.1878 15.6642 74.3978 19.0842 71.7378 22.9142C69.4278 26.0542 64.8478 24.4542 61.8378 24.6542C60.9378 24.6642 60.2678 24.9142 60.3178 24.9642C60.3178 24.9842 60.4279 24.8842 60.4379 24.8742C60.1279 27.6742 61.7278 31.0442 62.8178 33.7642C63.1578 34.5642 63.8478 36.1742 64.2178 36.9642C65.1878 39.1142 66.1878 41.2842 67.1278 43.5142L63.5678 41.7542C80.0078 39.3342 95.9478 37.7942 112.598 36.2442L112.578 36.2542ZM118.838 39.4741C101.058 42.8641 82.5478 46.2342 64.5178 48.7342C63.0478 48.9442 61.6578 48.1941 60.9778 46.9741C57.2378 41.6141 54.1578 35.7442 52.7778 29.2142C50.9478 19.5042 56.7778 15.7842 65.8078 17.3742C66.3778 17.4442 66.9378 17.5042 67.2578 17.5142C67.3978 17.5242 67.4978 17.4942 67.2578 17.5642C66.1778 17.8842 65.2978 19.0542 65.2978 20.1942C65.2778 20.4142 65.3178 20.6742 65.3878 20.8642C64.5778 19.2142 63.1278 17.5842 62.3478 15.7342C60.9578 12.7742 60.1078 9.4342 61.3078 6.0242C63.9378 -1.0358 72.8078 -0.355797 78.3978 2.0942C80.1378 2.8242 81.9278 3.72417 83.6478 4.49417C85.1878 5.38417 87.1478 6.36415 88.6478 7.29415L91.8678 9.33419C100.338 14.9542 107.438 22.3242 113.918 30.0842C115.148 31.5042 116.398 33.1242 117.578 34.5942L118.188 35.3742L118.498 35.7742L118.578 35.8742C119.228 36.8442 119.308 38.4042 118.848 39.4542L118.838 39.4741Z" fill="black"/>
<path d="M112.578 36.2542C112.028 37.0542 112.028 38.5242 112.528 39.2542V39.2241L112.478 39.1242C110.848 34.8442 108.248 30.9842 105.348 27.4542C98.7778 19.7742 90.4678 13.5642 81.3078 9.37417C77.9478 8.02417 73.8578 6.09415 70.3478 6.41415C66.3078 6.62415 67.0078 9.92416 68.4878 12.6142C70.1878 15.6642 74.3978 19.0842 71.7378 22.9142C69.4278 26.0542 64.8478 24.4542 61.8378 24.6542C60.9378 24.6642 60.2678 24.9142 60.3178 24.9642C60.3178 24.9842 60.4279 24.8842 60.4379 24.8742C60.1279 27.6742 61.7278 31.0442 62.8178 33.7642C63.1578 34.5642 63.8478 36.1742 64.2178 36.9642C65.1878 39.1142 66.1878 41.2842 67.1278 43.5142L63.5678 41.7542C80.0078 39.3342 95.9478 37.7942 112.598 36.2442L112.578 36.2542ZM118.838 39.4741C101.058 42.8641 82.5478 46.2342 64.5178 48.7342C63.0478 48.9442 61.6578 48.1941 60.9778 46.9741C57.2378 41.6141 54.1578 35.7442 52.7778 29.2142C50.9478 19.5042 56.7778 15.7842 65.8078 17.3742C66.3778 17.4442 66.9378 17.5042 67.2578 17.5142C67.3978 17.5242 67.4978 17.4942 67.2578 17.5642C66.1778 17.8842 65.2978 19.0542 65.2978 20.1942C65.2778 20.4142 65.3178 20.6742 65.3878 20.8642C64.5778 19.2142 63.1278 17.5842 62.3478 15.7342C60.9578 12.7742 60.1078 9.4342 61.3078 6.0242C63.9378 -1.0358 72.8078 -0.355797 78.3978 2.0942C80.1378 2.8242 81.9278 3.72417 83.6478 4.49417C85.1878 5.38417 87.1478 6.36415 88.6478 7.29415L91.8678 9.33419C100.338 14.9542 107.438 22.3242 113.918 30.0842C115.148 31.5042 116.398 33.1242 117.578 34.5942L118.188 35.3742L118.498 35.7742L118.578 35.8742C119.228 36.8442 119.308 38.4042 118.848 39.4542L118.838 39.4741Z" fill="black" fill-opacity="0.2"/>
<path d="M38.5978 94.145L38.7578 91.1249C49.4778 104.985 70.5178 117.975 91.6178 117.975C121.738 117.975 146.158 97.5549 146.158 72.3849C146.158 47.2149 121.738 26.7949 91.6178 26.7949C71.0878 26.7949 48.4378 42.4749 37.7378 57.8149" fill="#FECB8B"/>
<path d="M89.5879 108.125C95.0779 111.085 106.798 112.295 115.548 110.415C123.528 108.695 107.348 119.905 90.3579 119.405L89.5979 108.125H89.5879Z" fill="#FF6700"/>
<path d="M30.5877 63.9345C22.4377 46.1645 10.3377 39.8945 7.38771 47.6145C5.56771 19.9245 29.2277 45.6645 33.8877 56.3445L30.5877 63.9345Z" fill="#FECB8B"/>
<path d="M13.668 107.994C25.688 107.604 31.0079 88.9338 30.9579 82.8438L37.7079 93.5637C30.2679 103.584 22.318 109.044 13.668 107.994Z" fill="black"/>
<path d="M13.668 107.994C25.688 107.604 31.0079 88.9338 30.9579 82.8438L37.7079 93.5637C30.2679 103.584 22.318 109.044 13.668 107.994Z" fill="black" fill-opacity="0.2"/>
<path d="M13.668 107.994C25.688 107.604 31.0079 88.9338 30.9579 82.8438L37.7079 93.5637C30.2679 103.584 22.318 109.044 13.668 107.994Z" fill="black"/>
<path d="M13.668 107.994C25.688 107.604 31.0079 88.9338 30.9579 82.8438L37.7079 93.5637C30.2679 103.584 22.318 109.044 13.668 107.994Z" fill="black" fill-opacity="0.2"/>
<path d="M35.4279 81.2735C37.7779 83.6035 30.6079 71.0835 34.6079 62.9135C55.0779 21.0035 100.098 27.2135 95.8679 28.7935C60.8879 41.8935 57.5879 79.5335 74.9879 103.394L62.6779 108.813C56.5079 109.583 33.3979 89.9235 35.4279 81.2935V81.2735Z" fill="#FF6700"/>
<path d="M41.6077 95.9533C35.3977 105.553 25.1477 116.473 12.5977 114.933C8.09769 114.373 4.33772 111.723 2.99772 106.993C0.217717 97.0533 6.47767 82.3933 10.7577 73.4233C10.7577 73.4233 10.7577 76.6433 10.7577 76.6333C6.14767 66.9133 -1.04231 50.6033 0.967688 39.8633C2.67769 31.4333 10.8177 30.4933 17.6477 32.8733C25.0077 35.5133 30.2877 41.2133 34.6377 47.2733C36.7177 50.2333 38.5577 53.3133 40.2077 56.4933C41.7977 59.8233 37.0877 62.2733 35.2577 59.1033C30.7277 51.0033 24.6677 41.9333 15.6977 38.6933C13.0677 37.8133 9.54769 37.7033 8.52769 38.6833C5.31769 41.6733 8.06772 50.8833 9.24772 54.8633C11.2577 61.1833 14.0177 67.5333 17.0177 73.4233C17.5577 74.4633 17.5177 75.6533 17.0177 76.6333C14.4477 81.8833 12.1477 87.5533 10.6377 93.1933C9.68767 97.1133 7.86768 104.543 11.2077 107.233C12.9477 108.203 15.1177 108.213 17.0877 107.903C23.6777 106.643 29.0677 101.073 33.1377 95.8333C33.9777 94.7333 34.8577 93.4733 35.5777 92.3133C38.1177 88.4233 43.8777 91.9033 41.5877 95.9633L41.6077 95.9533Z" fill="black"/>
<path d="M41.6077 95.9533C35.3977 105.553 25.1477 116.473 12.5977 114.933C8.09769 114.373 4.33772 111.723 2.99772 106.993C0.217717 97.0533 6.47767 82.3933 10.7577 73.4233C10.7577 73.4233 10.7577 76.6433 10.7577 76.6333C6.14767 66.9133 -1.04231 50.6033 0.967688 39.8633C2.67769 31.4333 10.8177 30.4933 17.6477 32.8733C25.0077 35.5133 30.2877 41.2133 34.6377 47.2733C36.7177 50.2333 38.5577 53.3133 40.2077 56.4933C41.7977 59.8233 37.0877 62.2733 35.2577 59.1033C30.7277 51.0033 24.6677 41.9333 15.6977 38.6933C13.0677 37.8133 9.54769 37.7033 8.52769 38.6833C5.31769 41.6733 8.06772 50.8833 9.24772 54.8633C11.2577 61.1833 14.0177 67.5333 17.0177 73.4233C17.5577 74.4633 17.5177 75.6533 17.0177 76.6333C14.4477 81.8833 12.1477 87.5533 10.6377 93.1933C9.68767 97.1133 7.86768 104.543 11.2077 107.233C12.9477 108.203 15.1177 108.213 17.0877 107.903C23.6777 106.643 29.0677 101.073 33.1377 95.8333C33.9777 94.7333 34.8577 93.4733 35.5777 92.3133C38.1177 88.4233 43.8777 91.9033 41.5877 95.9633L41.6077 95.9533Z" fill="black" fill-opacity="0.2"/>
<path d="M41.6077 95.9533C35.3977 105.553 25.1477 116.473 12.5977 114.933C8.09769 114.373 4.33772 111.723 2.99772 106.993C0.217717 97.0533 6.47767 82.3933 10.7577 73.4233C10.7577 73.4233 10.7577 76.6433 10.7577 76.6333C6.14767 66.9133 -1.04231 50.6033 0.967688 39.8633C2.67769 31.4333 10.8177 30.4933 17.6477 32.8733C25.0077 35.5133 30.2877 41.2133 34.6377 47.2733C36.7177 50.2333 38.5577 53.3133 40.2077 56.4933C41.7977 59.8233 37.0877 62.2733 35.2577 59.1033C30.7277 51.0033 24.6677 41.9333 15.6977 38.6933C13.0677 37.8133 9.54769 37.7033 8.52769 38.6833C5.31769 41.6733 8.06772 50.8833 9.24772 54.8633C11.2577 61.1833 14.0177 67.5333 17.0177 73.4233C17.5577 74.4633 17.5177 75.6533 17.0177 76.6333C14.4477 81.8833 12.1477 87.5533 10.6377 93.1933C9.68767 97.1133 7.86768 104.543 11.2077 107.233C12.9477 108.203 15.1177 108.213 17.0877 107.903C23.6777 106.643 29.0677 101.073 33.1377 95.8333C33.9777 94.7333 34.8577 93.4733 35.5777 92.3133C38.1177 88.4233 43.8777 91.9033 41.5877 95.9633L41.6077 95.9533Z" fill="black"/>
<path d="M41.6077 95.9533C35.3977 105.553 25.1477 116.473 12.5977 114.933C8.09769 114.373 4.33772 111.723 2.99772 106.993C0.217717 97.0533 6.47767 82.3933 10.7577 73.4233C10.7577 73.4233 10.7577 76.6433 10.7577 76.6333C6.14767 66.9133 -1.04231 50.6033 0.967688 39.8633C2.67769 31.4333 10.8177 30.4933 17.6477 32.8733C25.0077 35.5133 30.2877 41.2133 34.6377 47.2733C36.7177 50.2333 38.5577 53.3133 40.2077 56.4933C41.7977 59.8233 37.0877 62.2733 35.2577 59.1033C30.7277 51.0033 24.6677 41.9333 15.6977 38.6933C13.0677 37.8133 9.54769 37.7033 8.52769 38.6833C5.31769 41.6733 8.06772 50.8833 9.24772 54.8633C11.2577 61.1833 14.0177 67.5333 17.0177 73.4233C17.5577 74.4633 17.5177 75.6533 17.0177 76.6333C14.4477 81.8833 12.1477 87.5533 10.6377 93.1933C9.68767 97.1133 7.86768 104.543 11.2077 107.233C12.9477 108.203 15.1177 108.213 17.0877 107.903C23.6777 106.643 29.0677 101.073 33.1377 95.8333C33.9777 94.7333 34.8577 93.4733 35.5777 92.3133C38.1177 88.4233 43.8777 91.9033 41.5877 95.9633L41.6077 95.9533Z" fill="black" fill-opacity="0.2"/>
<path d="M31.8079 61.4448C42.2379 42.6848 65.1878 26.6648 86.5378 24.1448C109.128 22.1148 133.778 33.0148 144.228 53.8348C157.158 80.2448 140.458 108.075 114.468 117.625C105.548 120.985 95.9179 122.265 86.4379 121.475C68.8679 119.605 52.3579 110.755 40.4879 97.7848C39.5079 96.7848 38.2378 95.0948 37.3378 94.0148C34.7978 90.7448 32.6978 87.1748 31.0978 83.2848C30.5578 82.0048 31.1579 80.5248 32.4379 79.9848C33.6579 79.4648 35.0578 79.9848 35.6478 81.1448C38.2878 86.3348 42.1179 91.0248 46.5479 95.0748C59.4079 106.845 77.1278 115.035 94.7578 114.105C117.628 113.355 142.938 97.7948 143.618 72.9448C144.218 47.7548 119.238 30.8448 95.9979 29.8048C84.1779 28.7448 72.5278 32.9548 62.3178 39.2548C52.3578 45.5348 42.9378 54.0248 37.3778 64.3848C35.3178 68.0248 29.9479 65.1848 31.8079 61.4248H31.7979L31.8079 61.4448Z" fill="black"/>
<path d="M31.8079 61.4448C42.2379 42.6848 65.1878 26.6648 86.5378 24.1448C109.128 22.1148 133.778 33.0148 144.228 53.8348C157.158 80.2448 140.458 108.075 114.468 117.625C105.548 120.985 95.9179 122.265 86.4379 121.475C68.8679 119.605 52.3579 110.755 40.4879 97.7848C39.5079 96.7848 38.2378 95.0948 37.3378 94.0148C34.7978 90.7448 32.6978 87.1748 31.0978 83.2848C30.5578 82.0048 31.1579 80.5248 32.4379 79.9848C33.6579 79.4648 35.0578 79.9848 35.6478 81.1448C38.2878 86.3348 42.1179 91.0248 46.5479 95.0748C59.4079 106.845 77.1278 115.035 94.7578 114.105C117.628 113.355 142.938 97.7948 143.618 72.9448C144.218 47.7548 119.238 30.8448 95.9979 29.8048C84.1779 28.7448 72.5278 32.9548 62.3178 39.2548C52.3578 45.5348 42.9378 54.0248 37.3778 64.3848C35.3178 68.0248 29.9479 65.1848 31.8079 61.4248H31.7979L31.8079 61.4448Z" fill="black" fill-opacity="0.2"/>
<path d="M31.8079 61.4448C42.2379 42.6848 65.1878 26.6648 86.5378 24.1448C109.128 22.1148 133.778 33.0148 144.228 53.8348C157.158 80.2448 140.458 108.075 114.468 117.625C105.548 120.985 95.9179 122.265 86.4379 121.475C68.8679 119.605 52.3579 110.755 40.4879 97.7848C39.5079 96.7848 38.2378 95.0948 37.3378 94.0148C34.7978 90.7448 32.6978 87.1748 31.0978 83.2848C30.5578 82.0048 31.1579 80.5248 32.4379 79.9848C33.6579 79.4648 35.0578 79.9848 35.6478 81.1448C38.2878 86.3348 42.1179 91.0248 46.5479 95.0748C59.4079 106.845 77.1278 115.035 94.7578 114.105C117.628 113.355 142.938 97.7948 143.618 72.9448C144.218 47.7548 119.238 30.8448 95.9979 29.8048C84.1779 28.7448 72.5278 32.9548 62.3178 39.2548C52.3578 45.5348 42.9378 54.0248 37.3778 64.3848C35.3178 68.0248 29.9479 65.1848 31.8079 61.4248H31.7979L31.8079 61.4448Z" fill="black"/>
<path d="M31.8079 61.4448C42.2379 42.6848 65.1878 26.6648 86.5378 24.1448C109.128 22.1148 133.778 33.0148 144.228 53.8348C157.158 80.2448 140.458 108.075 114.468 117.625C105.548 120.985 95.9179 122.265 86.4379 121.475C68.8679 119.605 52.3579 110.755 40.4879 97.7848C39.5079 96.7848 38.2378 95.0948 37.3378 94.0148C34.7978 90.7448 32.6978 87.1748 31.0978 83.2848C30.5578 82.0048 31.1579 80.5248 32.4379 79.9848C33.6579 79.4648 35.0578 79.9848 35.6478 81.1448C38.2878 86.3348 42.1179 91.0248 46.5479 95.0748C59.4079 106.845 77.1278 115.035 94.7578 114.105C117.628 113.355 142.938 97.7948 143.618 72.9448C144.218 47.7548 119.238 30.8448 95.9979 29.8048C84.1779 28.7448 72.5278 32.9548 62.3178 39.2548C52.3578 45.5348 42.9378 54.0248 37.3778 64.3848C35.3178 68.0248 29.9479 65.1848 31.8079 61.4248H31.7979L31.8079 61.4448Z" fill="black" fill-opacity="0.2"/>
<path d="M80.3476 128.764C89.1376 122.894 93.2775 113.654 89.5875 108.124C85.8975 102.594 75.7776 102.874 66.9876 108.744C58.1976 114.614 54.0576 123.854 57.7476 129.384C61.4376 134.914 71.5576 134.634 80.3476 128.764Z" fill="#FECB8B"/>
<path d="M90.1476 111.235C89.4876 109.865 88.3876 106.965 87.0476 106.135C88.4576 111.775 83.2976 120.035 74.8576 124.115C67.8576 127.495 61.2176 124.645 59.0176 118.365C59.1376 118.865 56.6876 126.845 56.9176 127.305C59.7076 133.075 69.4076 134.155 78.5776 129.715C87.7576 125.275 92.9376 117.005 90.1476 111.235Z" fill="#FF6700"/>
<path d="M75.6979 105.735C70.3779 109.375 65.0279 113.595 62.0779 119.165C59.8179 123.565 59.1579 128.615 65.2679 129.405C69.5979 129.945 74.1779 128.415 77.9879 126.265C82.0079 124.025 85.1779 120.465 86.8679 116.145C87.8979 113.345 88.3279 110.105 87.0679 107.335C86.6979 106.645 86.9979 105.775 87.7079 105.445C89.9179 104.415 91.5479 109.915 91.7179 111.425C92.5479 117.455 90.1079 123.475 86.1479 127.975C79.0179 135.995 62.8579 141.945 54.7979 132.095C48.5979 123.155 56.2979 111.885 64.0379 107.085C67.2479 104.995 70.7279 103.505 74.2979 102.575C75.2279 102.335 76.1879 102.895 76.4279 103.825C76.6179 104.575 76.3079 105.325 75.6979 105.715V105.735Z" fill="black"/>
<path d="M75.6979 105.735C70.3779 109.375 65.0279 113.595 62.0779 119.165C59.8179 123.565 59.1579 128.615 65.2679 129.405C69.5979 129.945 74.1779 128.415 77.9879 126.265C82.0079 124.025 85.1779 120.465 86.8679 116.145C87.8979 113.345 88.3279 110.105 87.0679 107.335C86.6979 106.645 86.9979 105.775 87.7079 105.445C89.9179 104.415 91.5479 109.915 91.7179 111.425C92.5479 117.455 90.1079 123.475 86.1479 127.975C79.0179 135.995 62.8579 141.945 54.7979 132.095C48.5979 123.155 56.2979 111.885 64.0379 107.085C67.2479 104.995 70.7279 103.505 74.2979 102.575C75.2279 102.335 76.1879 102.895 76.4279 103.825C76.6179 104.575 76.3079 105.325 75.6979 105.715V105.735Z" fill="black" fill-opacity="0.2"/>
<path d="M75.6979 105.735C70.3779 109.375 65.0279 113.595 62.0779 119.165C59.8179 123.565 59.1579 128.615 65.2679 129.405C69.5979 129.945 74.1779 128.415 77.9879 126.265C82.0079 124.025 85.1779 120.465 86.8679 116.145C87.8979 113.345 88.3279 110.105 87.0679 107.335C86.6979 106.645 86.9979 105.775 87.7079 105.445C89.9179 104.415 91.5479 109.915 91.7179 111.425C92.5479 117.455 90.1079 123.475 86.1479 127.975C79.0179 135.995 62.8579 141.945 54.7979 132.095C48.5979 123.155 56.2979 111.885 64.0379 107.085C67.2479 104.995 70.7279 103.505 74.2979 102.575C75.2279 102.335 76.1879 102.895 76.4279 103.825C76.6179 104.575 76.3079 105.325 75.6979 105.715V105.735Z" fill="black"/>
<path d="M75.6979 105.735C70.3779 109.375 65.0279 113.595 62.0779 119.165C59.8179 123.565 59.1579 128.615 65.2679 129.405C69.5979 129.945 74.1779 128.415 77.9879 126.265C82.0079 124.025 85.1779 120.465 86.8679 116.145C87.8979 113.345 88.3279 110.105 87.0679 107.335C86.6979 106.645 86.9979 105.775 87.7079 105.445C89.9179 104.415 91.5479 109.915 91.7179 111.425C92.5479 117.455 90.1079 123.475 86.1479 127.975C79.0179 135.995 62.8579 141.945 54.7979 132.095C48.5979 123.155 56.2979 111.885 64.0379 107.085C67.2479 104.995 70.7279 103.505 74.2979 102.575C75.2279 102.335 76.1879 102.895 76.4279 103.825C76.6179 104.575 76.3079 105.325 75.6979 105.715V105.735Z" fill="black" fill-opacity="0.2"/>
<path d="M136.628 58.3035L136.548 57.9935C134.548 50.7735 130.218 45.1335 124.668 42.5235C119.728 40.2235 115.458 40.4735 110.518 41.5735C106.708 42.5035 103.738 42.9835 99.8876 43.2835C95.6076 43.6835 86.5177 45.2435 82.3077 49.5735C77.4477 54.3435 75.1576 63.5035 76.5776 72.3835C77.7776 79.8935 81.5376 84.7935 91.5276 87.2035C101.518 89.6135 122.998 77.9735 131.178 77.3635C139.738 76.7235 138.048 63.8635 136.638 58.3035H136.628Z" fill="#FF6700"/>
<path d="M137.148 52.6939C135.568 46.9739 132.078 41.3839 126.618 38.8239C122.208 36.7639 118.488 37.064 114.118 38.034C110.238 38.984 107.108 39.4939 103.118 39.8039C98.5179 40.2239 91.7679 41.6039 88.3279 45.1439C80.1779 53.1439 81.3879 74.1539 91.9379 79.3739C102.488 84.5939 118.948 76.4539 125.988 74.2939C132.828 71.8539 128.908 75.1139 134.278 69.3639C138.588 64.2839 138.808 59.2839 137.208 52.9739L137.138 52.6939H137.148Z" fill="black"/>
<path d="M137.148 52.6939C135.568 46.9739 132.078 41.3839 126.618 38.8239C122.208 36.7639 118.488 37.064 114.118 38.034C110.238 38.984 107.108 39.4939 103.118 39.8039C98.5179 40.2239 91.7679 41.6039 88.3279 45.1439C80.1779 53.1439 81.3879 74.1539 91.9379 79.3739C102.488 84.5939 118.948 76.4539 125.988 74.2939C132.828 71.8539 128.908 75.1139 134.278 69.3639C138.588 64.2839 138.808 59.2839 137.208 52.9739L137.138 52.6939H137.148Z" fill="black" fill-opacity="0.2"/>
<path d="M137.148 52.6939C135.568 46.9739 132.078 41.3839 126.618 38.8239C122.208 36.7639 118.488 37.064 114.118 38.034C110.238 38.984 107.108 39.4939 103.118 39.8039C98.5179 40.2239 91.7679 41.6039 88.3279 45.1439C80.1779 53.1439 81.3879 74.1539 91.9379 79.3739C102.488 84.5939 118.948 76.4539 125.988 74.2939C132.828 71.8539 128.908 75.1139 134.278 69.3639C138.588 64.2839 138.808 59.2839 137.208 52.9739L137.138 52.6939H137.148Z" stroke="black" stroke-width="5" stroke-miterlimit="10"/>
<path d="M137.148 52.6939C135.568 46.9739 132.078 41.3839 126.618 38.8239C122.208 36.7639 118.488 37.064 114.118 38.034C110.238 38.984 107.108 39.4939 103.118 39.8039C98.5179 40.2239 91.7679 41.6039 88.3279 45.1439C80.1779 53.1439 81.3879 74.1539 91.9379 79.3739C102.488 84.5939 118.948 76.4539 125.988 74.2939C132.828 71.8539 128.908 75.1139 134.278 69.3639C138.588 64.2839 138.808 59.2839 137.208 52.9739L137.138 52.6939H137.148Z" stroke="black" stroke-opacity="0.2" stroke-width="5" stroke-miterlimit="10"/>
<path d="M145.168 50.6949C143.588 44.9749 140.098 39.385 134.638 36.825C130.228 34.765 125.708 36.1949 121.348 37.1649C117.468 38.1149 113.548 38.7449 109.558 39.0549C104.958 39.4749 99.788 39.615 96.358 43.145C88.208 51.145 90.928 68.965 100.158 76.195C106.538 82.045 114.328 78.4549 121.368 76.3049C128.208 73.8649 136.698 75.515 142.068 69.765C146.378 64.685 146.848 57.2949 145.248 50.9849L145.178 50.705L145.168 50.6949Z" fill="white"/>
<path d="M110.348 69.4147C113.658 68.4747 115.068 63.2448 113.508 57.7148C111.948 52.1948 107.998 48.4648 104.688 49.4048C101.378 50.3448 99.9675 55.5747 101.528 61.1047C103.088 66.6347 107.038 70.3547 110.348 69.4147Z" fill="black"/>
<path d="M110.348 69.4147C113.658 68.4747 115.068 63.2448 113.508 57.7148C111.948 52.1948 107.998 48.4648 104.688 49.4048C101.378 50.3448 99.9675 55.5747 101.528 61.1047C103.088 66.6347 107.038 70.3547 110.348 69.4147Z" fill="black" fill-opacity="0.2"/>
<path d="M133.978 64.7845C137.248 63.8545 138.648 58.6845 137.098 53.2145C135.548 47.7545 131.648 44.0745 128.378 44.9945C125.108 45.9245 123.708 51.0945 125.258 56.5645C126.808 62.0245 130.708 65.7045 133.978 64.7845Z" fill="black"/>
<path d="M133.978 64.7845C137.248 63.8545 138.648 58.6845 137.098 53.2145C135.548 47.7545 131.648 44.0745 128.378 44.9945C125.108 45.9245 123.708 51.0945 125.258 56.5645C126.808 62.0245 130.708 65.7045 133.978 64.7845Z" fill="black" fill-opacity="0.2"/>
<path d="M114.538 61.9133C115.828 61.5433 116.438 59.6934 115.888 57.7634C115.338 55.8334 113.858 54.5734 112.558 54.9434C111.268 55.3134 110.658 57.1634 111.208 59.0934C111.758 61.0234 113.238 62.2833 114.538 61.9133Z" fill="white"/>
<path d="M137.218 57.3351C138.498 56.9751 139.098 55.135 138.558 53.225C138.018 51.315 136.548 50.0651 135.268 50.4251C133.988 50.7851 133.388 52.6251 133.928 54.5351C134.468 56.4451 135.938 57.6951 137.218 57.3351Z" fill="white"/>
<path d="M128.887 84.205C129.007 84.305 129.127 84.395 129.197 84.425C129.227 84.445 129.247 84.445 129.197 84.385C127.637 83.055 125.047 83.915 124.277 85.465C124.537 84.815 125.087 84.135 125.727 83.675C130.587 80.385 134.548 88.025 129.118 90.075C129.588 89.945 130.287 89.4149 130.537 88.9749C130.677 88.7549 130.737 88.595 130.637 88.765C130.557 88.875 130.507 89.085 129.977 89.675C129.397 90.405 127.747 91.065 126.667 90.775C125.507 90.595 124.547 89.765 123.917 88.905C121.377 85.585 125.757 81.495 128.897 84.195L128.887 84.205Z" fill="black"/>
<path d="M128.887 84.205C129.007 84.305 129.127 84.395 129.197 84.425C129.227 84.445 129.247 84.445 129.197 84.385C127.637 83.055 125.047 83.915 124.277 85.465C124.537 84.815 125.087 84.135 125.727 83.675C130.587 80.385 134.548 88.025 129.118 90.075C129.588 89.945 130.287 89.4149 130.537 88.9749C130.677 88.7549 130.737 88.595 130.637 88.765C130.557 88.875 130.507 89.085 129.977 89.675C129.397 90.405 127.747 91.065 126.667 90.775C125.507 90.595 124.547 89.765 123.917 88.905C121.377 85.585 125.757 81.495 128.897 84.195L128.887 84.205Z" fill="black" fill-opacity="0.2"/>
<path d="M142.688 51.364C140.888 45.134 136.368 38.204 129.228 38.434C126.848 38.504 123.578 39.4541 121.068 40.0241C116.488 41.1941 110.908 41.7841 106.168 42.2141C102.348 42.6141 99.0279 43.634 97.0079 46.984L96.368 47.984C96.188 48.374 95.788 49.2641 95.618 49.6541C95.498 50.0341 95.188 51.0541 95.058 51.4441C94.978 51.8641 94.778 52.9141 94.688 53.3141C94.648 53.7241 94.5479 54.824 94.5079 55.244C94.2379 61.944 96.768 69.574 101.968 73.854C103.598 75.334 105.428 76.2641 107.618 76.3941C110.938 76.6741 114.928 75.3541 118.338 74.2741C119.548 73.8841 121.118 73.4041 122.358 73.0641C127.658 71.6741 132.718 72.204 137.508 69.914C143.808 66.374 144.318 57.944 142.678 51.364H142.688ZM147.648 50.0241C150.028 58.5841 148.568 69.9841 140.018 74.6241C134.458 77.6541 127.668 77.0041 122.028 79.0341L120.098 79.664C112.578 82.434 104.358 84.1141 98.338 78.5141C90.108 71.7141 86.988 60.144 89.338 49.984C90.668 44.894 93.968 39.904 99.038 37.994C102.308 36.734 105.318 36.5841 108.548 36.3141C112.378 36.0541 116.098 35.564 119.828 34.724C122.858 34.094 125.748 33.2341 129.048 33.1341C138.488 32.6741 145.518 41.7041 147.638 50.0241H147.648Z" fill="black"/>
<path d="M142.688 51.364C140.888 45.134 136.368 38.204 129.228 38.434C126.848 38.504 123.578 39.4541 121.068 40.0241C116.488 41.1941 110.908 41.7841 106.168 42.2141C102.348 42.6141 99.0279 43.634 97.0079 46.984L96.368 47.984C96.188 48.374 95.788 49.2641 95.618 49.6541C95.498 50.0341 95.188 51.0541 95.058 51.4441C94.978 51.8641 94.778 52.9141 94.688 53.3141C94.648 53.7241 94.5479 54.824 94.5079 55.244C94.2379 61.944 96.768 69.574 101.968 73.854C103.598 75.334 105.428 76.2641 107.618 76.3941C110.938 76.6741 114.928 75.3541 118.338 74.2741C119.548 73.8841 121.118 73.4041 122.358 73.0641C127.658 71.6741 132.718 72.204 137.508 69.914C143.808 66.374 144.318 57.944 142.678 51.364H142.688ZM147.648 50.0241C150.028 58.5841 148.568 69.9841 140.018 74.6241C134.458 77.6541 127.668 77.0041 122.028 79.0341L120.098 79.664C112.578 82.434 104.358 84.1141 98.338 78.5141C90.108 71.7141 86.988 60.144 89.338 49.984C90.668 44.894 93.968 39.904 99.038 37.994C102.308 36.734 105.318 36.5841 108.548 36.3141C112.378 36.0541 116.098 35.564 119.828 34.724C122.858 34.094 125.748 33.2341 129.048 33.1341C138.488 32.6741 145.518 41.7041 147.638 50.0241H147.648Z" fill="black" fill-opacity="0.2"/>
</svg>
