<svg width="149" height="137" viewBox="0 0 149 137" fill="none" xmlns="http://www.w3.org/2000/svg">
<path d="M37.7064 57.406C33.3664 49.166 23.7564 34.316 10.9664 34.466C-6.71361 34.676 13.8664 74.636 13.8664 74.636C13.8664 74.636 -2.82361 107.356 11.7264 110.816C26.2864 114.276 38.5664 93.766 38.5664 93.766" fill="#FF6700"/>
<path d="M108.356 126.406C115.446 119.436 117.646 110.186 113.276 105.746C108.906 101.306 99.6162 103.356 92.5362 110.326C85.4462 117.296 83.2462 126.546 87.6162 130.986C91.9862 135.426 101.276 133.376 108.356 126.406Z" fill="black"/>
<path d="M108.356 126.406C115.446 119.436 117.646 110.186 113.276 105.746C108.906 101.306 99.6162 103.356 92.5362 110.326C85.4462 117.296 83.2462 126.546 87.6162 130.986C91.9862 135.426 101.276 133.376 108.356 126.406Z" fill="black" fill-opacity="0.2"/>
<path d="M108.356 126.406C115.446 119.436 117.646 110.186 113.276 105.746C108.906 101.306 99.6162 103.356 92.5362 110.326C85.4462 117.296 83.2462 126.546 87.6162 130.986C91.9862 135.426 101.276 133.376 108.356 126.406Z" fill="black"/>
<path d="M108.356 126.406C115.446 119.436 117.646 110.186 113.276 105.746C108.906 101.306 99.6162 103.356 92.5362 110.326C85.4462 117.296 83.2462 126.546 87.6162 130.986C91.9862 135.426 101.276 133.376 108.356 126.406Z" fill="black" fill-opacity="0.2"/>
<path d="M115.676 37.475C115.676 37.475 103.816 14.705 77.7263 4.50498C65.1763 -0.395017 60.0762 7.24497 67.3162 16.865C76.5362 29.115 41.5962 4.99496 64.0262 44.855L115.686 37.4649L115.676 37.475Z" fill="#FF6700"/>
<path d="M95.846 28.3961L107.046 25.0761L87.896 9.46606L70.216 2.99609L64.186 7.1861C64.186 7.1861 89.766 15.7061 95.836 28.4061L95.846 28.3961Z" fill="#FECB8B"/>
<path d="M112.546 35.8655C111.996 36.6655 111.996 38.1355 112.496 38.8655V38.8355L112.446 38.7355C110.816 34.4555 108.216 30.5955 105.316 27.0655C98.7461 19.3855 90.4361 13.1755 81.2761 8.9855C77.9161 7.6355 73.8261 5.70548 70.3161 6.02548C66.2761 6.23548 66.9761 9.53549 68.4561 12.2255C70.1561 15.2755 74.3661 18.6955 71.7061 22.5255C69.3961 25.6655 64.8161 24.0655 61.8061 24.2655C60.9061 24.2755 60.2361 24.5255 60.2861 24.5755C60.2861 24.5955 60.3961 24.4955 60.4061 24.4855C60.0961 27.2855 61.6961 30.6555 62.7861 33.3755C63.1261 34.1755 63.8161 35.7855 64.1861 36.5755C65.1561 38.7255 66.1561 40.8955 67.0961 43.1255L63.5361 41.3655C79.9761 38.9455 95.9161 37.4055 112.566 35.8555L112.546 35.8655ZM118.806 39.0855C101.026 42.4755 82.5161 45.8455 64.4861 48.3455C63.0161 48.5555 61.6261 47.8055 60.9461 46.5855C57.2061 41.2255 54.1261 35.3555 52.7461 28.8255C50.9161 19.1155 56.7461 15.3955 65.7761 16.9855C66.3461 17.0555 66.9061 17.1155 67.2261 17.1255C67.3661 17.1355 67.4661 17.1055 67.2261 17.1755C66.1461 17.4955 65.2661 18.6655 65.2661 19.8055C65.2461 20.0255 65.2861 20.2855 65.3561 20.4755C64.5461 18.8255 63.0961 17.1955 62.3161 15.3455C60.9261 12.3855 60.0761 9.04552 61.2761 5.63552C63.9061 -1.42448 72.7761 -0.744469 78.3661 1.70553C80.1061 2.43553 81.8961 3.33549 83.6161 4.10549C85.1561 4.99549 87.1161 5.97548 88.6161 6.90548L91.8361 8.94552C100.306 14.5655 107.406 21.9355 113.886 29.6955C115.116 31.1155 116.366 32.7355 117.546 34.2055L118.156 34.9855L118.466 35.3855L118.546 35.4855C119.196 36.4555 119.276 38.0155 118.816 39.0655L118.806 39.0855Z" fill="black"/>
<path d="M112.546 35.8655C111.996 36.6655 111.996 38.1355 112.496 38.8655V38.8355L112.446 38.7355C110.816 34.4555 108.216 30.5955 105.316 27.0655C98.7461 19.3855 90.4361 13.1755 81.2761 8.9855C77.9161 7.6355 73.8261 5.70548 70.3161 6.02548C66.2761 6.23548 66.9761 9.53549 68.4561 12.2255C70.1561 15.2755 74.3661 18.6955 71.7061 22.5255C69.3961 25.6655 64.8161 24.0655 61.8061 24.2655C60.9061 24.2755 60.2361 24.5255 60.2861 24.5755C60.2861 24.5955 60.3961 24.4955 60.4061 24.4855C60.0961 27.2855 61.6961 30.6555 62.7861 33.3755C63.1261 34.1755 63.8161 35.7855 64.1861 36.5755C65.1561 38.7255 66.1561 40.8955 67.0961 43.1255L63.5361 41.3655C79.9761 38.9455 95.9161 37.4055 112.566 35.8555L112.546 35.8655ZM118.806 39.0855C101.026 42.4755 82.5161 45.8455 64.4861 48.3455C63.0161 48.5555 61.6261 47.8055 60.9461 46.5855C57.2061 41.2255 54.1261 35.3555 52.7461 28.8255C50.9161 19.1155 56.7461 15.3955 65.7761 16.9855C66.3461 17.0555 66.9061 17.1155 67.2261 17.1255C67.3661 17.1355 67.4661 17.1055 67.2261 17.1755C66.1461 17.4955 65.2661 18.6655 65.2661 19.8055C65.2461 20.0255 65.2861 20.2855 65.3561 20.4755C64.5461 18.8255 63.0961 17.1955 62.3161 15.3455C60.9261 12.3855 60.0761 9.04552 61.2761 5.63552C63.9061 -1.42448 72.7761 -0.744469 78.3661 1.70553C80.1061 2.43553 81.8961 3.33549 83.6161 4.10549C85.1561 4.99549 87.1161 5.97548 88.6161 6.90548L91.8361 8.94552C100.306 14.5655 107.406 21.9355 113.886 29.6955C115.116 31.1155 116.366 32.7355 117.546 34.2055L118.156 34.9855L118.466 35.3855L118.546 35.4855C119.196 36.4555 119.276 38.0155 118.816 39.0655L118.806 39.0855Z" fill="black" fill-opacity="0.2"/>
<path d="M112.546 35.8655C111.996 36.6655 111.996 38.1355 112.496 38.8655V38.8355L112.446 38.7355C110.816 34.4555 108.216 30.5955 105.316 27.0655C98.7461 19.3855 90.4361 13.1755 81.2761 8.9855C77.9161 7.6355 73.8261 5.70548 70.3161 6.02548C66.2761 6.23548 66.9761 9.53549 68.4561 12.2255C70.1561 15.2755 74.3661 18.6955 71.7061 22.5255C69.3961 25.6655 64.8161 24.0655 61.8061 24.2655C60.9061 24.2755 60.2361 24.5255 60.2861 24.5755C60.2861 24.5955 60.3961 24.4955 60.4061 24.4855C60.0961 27.2855 61.6961 30.6555 62.7861 33.3755C63.1261 34.1755 63.8161 35.7855 64.1861 36.5755C65.1561 38.7255 66.1561 40.8955 67.0961 43.1255L63.5361 41.3655C79.9761 38.9455 95.9161 37.4055 112.566 35.8555L112.546 35.8655ZM118.806 39.0855C101.026 42.4755 82.5161 45.8455 64.4861 48.3455C63.0161 48.5555 61.6261 47.8055 60.9461 46.5855C57.2061 41.2255 54.1261 35.3555 52.7461 28.8255C50.9161 19.1155 56.7461 15.3955 65.7761 16.9855C66.3461 17.0555 66.9061 17.1155 67.2261 17.1255C67.3661 17.1355 67.4661 17.1055 67.2261 17.1755C66.1461 17.4955 65.2661 18.6655 65.2661 19.8055C65.2461 20.0255 65.2861 20.2855 65.3561 20.4755C64.5461 18.8255 63.0961 17.1955 62.3161 15.3455C60.9261 12.3855 60.0761 9.04552 61.2761 5.63552C63.9061 -1.42448 72.7761 -0.744469 78.3661 1.70553C80.1061 2.43553 81.8961 3.33549 83.6161 4.10549C85.1561 4.99549 87.1161 5.97548 88.6161 6.90548L91.8361 8.94552C100.306 14.5655 107.406 21.9355 113.886 29.6955C115.116 31.1155 116.366 32.7355 117.546 34.2055L118.156 34.9855L118.466 35.3855L118.546 35.4855C119.196 36.4555 119.276 38.0155 118.816 39.0655L118.806 39.0855Z" fill="black"/>
<path d="M112.546 35.8655C111.996 36.6655 111.996 38.1355 112.496 38.8655V38.8355L112.446 38.7355C110.816 34.4555 108.216 30.5955 105.316 27.0655C98.7461 19.3855 90.4361 13.1755 81.2761 8.9855C77.9161 7.6355 73.8261 5.70548 70.3161 6.02548C66.2761 6.23548 66.9761 9.53549 68.4561 12.2255C70.1561 15.2755 74.3661 18.6955 71.7061 22.5255C69.3961 25.6655 64.8161 24.0655 61.8061 24.2655C60.9061 24.2755 60.2361 24.5255 60.2861 24.5755C60.2861 24.5955 60.3961 24.4955 60.4061 24.4855C60.0961 27.2855 61.6961 30.6555 62.7861 33.3755C63.1261 34.1755 63.8161 35.7855 64.1861 36.5755C65.1561 38.7255 66.1561 40.8955 67.0961 43.1255L63.5361 41.3655C79.9761 38.9455 95.9161 37.4055 112.566 35.8555L112.546 35.8655ZM118.806 39.0855C101.026 42.4755 82.5161 45.8455 64.4861 48.3455C63.0161 48.5555 61.6261 47.8055 60.9461 46.5855C57.2061 41.2255 54.1261 35.3555 52.7461 28.8255C50.9161 19.1155 56.7461 15.3955 65.7761 16.9855C66.3461 17.0555 66.9061 17.1155 67.2261 17.1255C67.3661 17.1355 67.4661 17.1055 67.2261 17.1755C66.1461 17.4955 65.2661 18.6655 65.2661 19.8055C65.2461 20.0255 65.2861 20.2855 65.3561 20.4755C64.5461 18.8255 63.0961 17.1955 62.3161 15.3455C60.9261 12.3855 60.0761 9.04552 61.2761 5.63552C63.9061 -1.42448 72.7761 -0.744469 78.3661 1.70553C80.1061 2.43553 81.8961 3.33549 83.6161 4.10549C85.1561 4.99549 87.1161 5.97548 88.6161 6.90548L91.8361 8.94552C100.306 14.5655 107.406 21.9355 113.886 29.6955C115.116 31.1155 116.366 32.7355 117.546 34.2055L118.156 34.9855L118.466 35.3855L118.546 35.4855C119.196 36.4555 119.276 38.0155 118.816 39.0655L118.806 39.0855Z" fill="black" fill-opacity="0.2"/>
<path d="M38.5661 93.7563L38.7261 90.7363C49.4461 104.596 70.4861 117.586 91.5861 117.586C121.706 117.586 146.126 97.1663 146.126 71.9963C146.126 46.8263 121.706 26.4062 91.5861 26.4062C71.0561 26.4062 48.4061 42.0863 37.7061 57.4263" fill="#FECB8B"/>
<path d="M89.5562 107.736C95.0462 110.696 106.766 111.906 115.516 110.026C123.496 108.306 107.316 119.516 90.3261 119.016L89.5661 107.736H89.5562Z" fill="#FF6700"/>
<path d="M30.556 63.5458C22.406 45.7758 10.306 39.5058 7.35598 47.2258C5.53597 19.5358 29.196 45.2758 33.856 55.9558L30.556 63.5458Z" fill="#FECB8B"/>
<path d="M13.6362 107.605C25.6562 107.215 30.9762 88.5451 30.9262 82.4551L37.6762 93.175C30.2362 103.195 22.2862 108.655 13.6362 107.605Z" fill="black"/>
<path d="M13.6362 107.605C25.6562 107.215 30.9762 88.5451 30.9262 82.4551L37.6762 93.175C30.2362 103.195 22.2862 108.655 13.6362 107.605Z" fill="black" fill-opacity="0.2"/>
<path d="M13.6362 107.605C25.6562 107.215 30.9762 88.5451 30.9262 82.4551L37.6762 93.175C30.2362 103.195 22.2862 108.655 13.6362 107.605Z" fill="black"/>
<path d="M13.6362 107.605C25.6562 107.215 30.9762 88.5451 30.9262 82.4551L37.6762 93.175C30.2362 103.195 22.2862 108.655 13.6362 107.605Z" fill="black" fill-opacity="0.2"/>
<path d="M35.406 80.8848C37.756 83.2148 30.586 70.6948 34.586 62.5248C55.056 20.6148 100.076 26.8248 95.846 28.4048C60.866 41.5048 57.566 79.1448 74.966 103.005L62.656 108.425C56.486 109.195 33.376 89.5348 35.406 80.9048V80.8848Z" fill="#FF6700"/>
<path d="M41.5862 95.5646C35.3762 105.165 25.1262 116.085 12.5762 114.545C8.0762 113.985 4.3162 111.335 2.9762 106.605C0.196203 96.6646 6.4562 82.0046 10.7362 73.0346C10.7362 73.0346 10.7362 76.2546 10.7362 76.2446C6.1262 66.5246 -1.0638 50.2146 0.946203 39.4746C2.6562 31.0446 10.7962 30.1046 17.6262 32.4846C24.9862 35.1246 30.2662 40.8246 34.6162 46.8846C36.6962 49.8446 38.5362 52.9246 40.1862 56.1046C41.7762 59.4346 37.0662 61.8846 35.2362 58.7146C30.7062 50.6146 24.6462 41.5446 15.6762 38.3046C13.0462 37.4246 9.5262 37.3146 8.5062 38.2946C5.2962 41.2846 8.0462 50.4946 9.2262 54.4746C11.2362 60.7946 13.9962 67.1446 16.9962 73.0346C17.5362 74.0746 17.4962 75.2646 16.9962 76.2446C14.4262 81.4946 12.1262 87.1646 10.6162 92.8046C9.6662 96.7246 7.8462 104.155 11.1862 106.845C12.9262 107.815 15.0962 107.825 17.0662 107.515C23.6562 106.255 29.0462 100.685 33.1162 95.4446C33.9562 94.3446 34.8362 93.0846 35.5562 91.9246C38.0962 88.0346 43.8562 91.5146 41.5662 95.5746L41.5862 95.5646Z" fill="black"/>
<path d="M41.5862 95.5646C35.3762 105.165 25.1262 116.085 12.5762 114.545C8.0762 113.985 4.3162 111.335 2.9762 106.605C0.196203 96.6646 6.4562 82.0046 10.7362 73.0346C10.7362 73.0346 10.7362 76.2546 10.7362 76.2446C6.1262 66.5246 -1.0638 50.2146 0.946203 39.4746C2.6562 31.0446 10.7962 30.1046 17.6262 32.4846C24.9862 35.1246 30.2662 40.8246 34.6162 46.8846C36.6962 49.8446 38.5362 52.9246 40.1862 56.1046C41.7762 59.4346 37.0662 61.8846 35.2362 58.7146C30.7062 50.6146 24.6462 41.5446 15.6762 38.3046C13.0462 37.4246 9.5262 37.3146 8.5062 38.2946C5.2962 41.2846 8.0462 50.4946 9.2262 54.4746C11.2362 60.7946 13.9962 67.1446 16.9962 73.0346C17.5362 74.0746 17.4962 75.2646 16.9962 76.2446C14.4262 81.4946 12.1262 87.1646 10.6162 92.8046C9.6662 96.7246 7.8462 104.155 11.1862 106.845C12.9262 107.815 15.0962 107.825 17.0662 107.515C23.6562 106.255 29.0462 100.685 33.1162 95.4446C33.9562 94.3446 34.8362 93.0846 35.5562 91.9246C38.0962 88.0346 43.8562 91.5146 41.5662 95.5746L41.5862 95.5646Z" fill="black" fill-opacity="0.2"/>
<path d="M41.5862 95.5646C35.3762 105.165 25.1262 116.085 12.5762 114.545C8.0762 113.985 4.3162 111.335 2.9762 106.605C0.196203 96.6646 6.4562 82.0046 10.7362 73.0346C10.7362 73.0346 10.7362 76.2546 10.7362 76.2446C6.1262 66.5246 -1.0638 50.2146 0.946203 39.4746C2.6562 31.0446 10.7962 30.1046 17.6262 32.4846C24.9862 35.1246 30.2662 40.8246 34.6162 46.8846C36.6962 49.8446 38.5362 52.9246 40.1862 56.1046C41.7762 59.4346 37.0662 61.8846 35.2362 58.7146C30.7062 50.6146 24.6462 41.5446 15.6762 38.3046C13.0462 37.4246 9.5262 37.3146 8.5062 38.2946C5.2962 41.2846 8.0462 50.4946 9.2262 54.4746C11.2362 60.7946 13.9962 67.1446 16.9962 73.0346C17.5362 74.0746 17.4962 75.2646 16.9962 76.2446C14.4262 81.4946 12.1262 87.1646 10.6162 92.8046C9.6662 96.7246 7.8462 104.155 11.1862 106.845C12.9262 107.815 15.0962 107.825 17.0662 107.515C23.6562 106.255 29.0462 100.685 33.1162 95.4446C33.9562 94.3446 34.8362 93.0846 35.5562 91.9246C38.0962 88.0346 43.8562 91.5146 41.5662 95.5746L41.5862 95.5646Z" fill="black"/>
<path d="M41.5862 95.5646C35.3762 105.165 25.1262 116.085 12.5762 114.545C8.0762 113.985 4.3162 111.335 2.9762 106.605C0.196203 96.6646 6.4562 82.0046 10.7362 73.0346C10.7362 73.0346 10.7362 76.2546 10.7362 76.2446C6.1262 66.5246 -1.0638 50.2146 0.946203 39.4746C2.6562 31.0446 10.7962 30.1046 17.6262 32.4846C24.9862 35.1246 30.2662 40.8246 34.6162 46.8846C36.6962 49.8446 38.5362 52.9246 40.1862 56.1046C41.7762 59.4346 37.0662 61.8846 35.2362 58.7146C30.7062 50.6146 24.6462 41.5446 15.6762 38.3046C13.0462 37.4246 9.5262 37.3146 8.5062 38.2946C5.2962 41.2846 8.0462 50.4946 9.2262 54.4746C11.2362 60.7946 13.9962 67.1446 16.9962 73.0346C17.5362 74.0746 17.4962 75.2646 16.9962 76.2446C14.4262 81.4946 12.1262 87.1646 10.6162 92.8046C9.6662 96.7246 7.8462 104.155 11.1862 106.845C12.9262 107.815 15.0962 107.825 17.0662 107.515C23.6562 106.255 29.0462 100.685 33.1162 95.4446C33.9562 94.3446 34.8362 93.0846 35.5562 91.9246C38.0962 88.0346 43.8562 91.5146 41.5662 95.5746L41.5862 95.5646Z" fill="black" fill-opacity="0.2"/>
<path d="M31.7864 61.0561C42.2164 42.2961 65.1664 26.2761 86.5164 23.7561C109.106 21.7261 133.756 32.6261 144.206 53.4461C157.136 79.8561 140.436 107.686 114.446 117.236C105.526 120.596 95.8964 121.876 86.4164 121.086C68.8464 119.216 52.3364 110.366 40.4664 97.3961C39.4864 96.3961 38.2164 94.7061 37.3164 93.6261C34.7764 90.3561 32.6764 86.7861 31.0764 82.8961C30.5364 81.6161 31.1364 80.1361 32.4164 79.5961C33.6364 79.0761 35.0364 79.5961 35.6264 80.7561C38.2664 85.9461 42.0964 90.6361 46.5264 94.6861C59.3864 106.456 77.1064 114.646 94.7364 113.716C117.606 112.966 142.916 97.4061 143.596 72.5561C144.196 47.3661 119.216 30.4561 95.9764 29.4161C84.1564 28.3561 72.5064 32.5661 62.2964 38.8661C52.3364 45.1461 42.9164 53.6361 37.3564 63.9961C35.2964 67.6361 29.9264 64.7961 31.7864 61.0361H31.7764L31.7864 61.0561Z" fill="black"/>
<path d="M31.7864 61.0561C42.2164 42.2961 65.1664 26.2761 86.5164 23.7561C109.106 21.7261 133.756 32.6261 144.206 53.4461C157.136 79.8561 140.436 107.686 114.446 117.236C105.526 120.596 95.8964 121.876 86.4164 121.086C68.8464 119.216 52.3364 110.366 40.4664 97.3961C39.4864 96.3961 38.2164 94.7061 37.3164 93.6261C34.7764 90.3561 32.6764 86.7861 31.0764 82.8961C30.5364 81.6161 31.1364 80.1361 32.4164 79.5961C33.6364 79.0761 35.0364 79.5961 35.6264 80.7561C38.2664 85.9461 42.0964 90.6361 46.5264 94.6861C59.3864 106.456 77.1064 114.646 94.7364 113.716C117.606 112.966 142.916 97.4061 143.596 72.5561C144.196 47.3661 119.216 30.4561 95.9764 29.4161C84.1564 28.3561 72.5064 32.5661 62.2964 38.8661C52.3364 45.1461 42.9164 53.6361 37.3564 63.9961C35.2964 67.6361 29.9264 64.7961 31.7864 61.0361H31.7764L31.7864 61.0561Z" fill="black" fill-opacity="0.2"/>
<path d="M31.7864 61.0561C42.2164 42.2961 65.1664 26.2761 86.5164 23.7561C109.106 21.7261 133.756 32.6261 144.206 53.4461C157.136 79.8561 140.436 107.686 114.446 117.236C105.526 120.596 95.8964 121.876 86.4164 121.086C68.8464 119.216 52.3364 110.366 40.4664 97.3961C39.4864 96.3961 38.2164 94.7061 37.3164 93.6261C34.7764 90.3561 32.6764 86.7861 31.0764 82.8961C30.5364 81.6161 31.1364 80.1361 32.4164 79.5961C33.6364 79.0761 35.0364 79.5961 35.6264 80.7561C38.2664 85.9461 42.0964 90.6361 46.5264 94.6861C59.3864 106.456 77.1064 114.646 94.7364 113.716C117.606 112.966 142.916 97.4061 143.596 72.5561C144.196 47.3661 119.216 30.4561 95.9764 29.4161C84.1564 28.3561 72.5064 32.5661 62.2964 38.8661C52.3364 45.1461 42.9164 53.6361 37.3564 63.9961C35.2964 67.6361 29.9264 64.7961 31.7864 61.0361H31.7764L31.7864 61.0561Z" fill="black"/>
<path d="M31.7864 61.0561C42.2164 42.2961 65.1664 26.2761 86.5164 23.7561C109.106 21.7261 133.756 32.6261 144.206 53.4461C157.136 79.8561 140.436 107.686 114.446 117.236C105.526 120.596 95.8964 121.876 86.4164 121.086C68.8464 119.216 52.3364 110.366 40.4664 97.3961C39.4864 96.3961 38.2164 94.7061 37.3164 93.6261C34.7764 90.3561 32.6764 86.7861 31.0764 82.8961C30.5364 81.6161 31.1364 80.1361 32.4164 79.5961C33.6364 79.0761 35.0364 79.5961 35.6264 80.7561C38.2664 85.9461 42.0964 90.6361 46.5264 94.6861C59.3864 106.456 77.1064 114.646 94.7364 113.716C117.606 112.966 142.916 97.4061 143.596 72.5561C144.196 47.3661 119.216 30.4561 95.9764 29.4161C84.1564 28.3561 72.5064 32.5661 62.2964 38.8661C52.3364 45.1461 42.9164 53.6361 37.3564 63.9961C35.2964 67.6361 29.9264 64.7961 31.7864 61.0361H31.7764L31.7864 61.0561Z" fill="black" fill-opacity="0.2"/>
<path d="M80.3163 128.375C89.1063 122.505 93.2463 113.265 89.5563 107.735C85.8663 102.205 75.7463 102.485 66.9563 108.355C58.1663 114.225 54.0263 123.465 57.7163 128.995C61.4063 134.525 71.5263 134.245 80.3163 128.375Z" fill="#FECB8B"/>
<path d="M90.1163 110.846C89.4563 109.476 88.3563 106.576 87.0163 105.746C88.4263 111.386 83.2663 119.646 74.8263 123.726C67.8263 127.106 61.1863 124.256 58.9863 117.976C59.1063 118.476 56.6563 126.456 56.8863 126.916C59.6763 132.686 69.3763 133.766 78.5463 129.326C87.7263 124.886 92.9063 116.616 90.1163 110.846Z" fill="#FF6700"/>
<path d="M75.6662 105.346C70.3462 108.986 64.9962 113.206 62.0462 118.776C59.7862 123.176 59.1262 128.226 65.2362 129.016C69.5662 129.556 74.1462 128.026 77.9562 125.876C81.9762 123.636 85.1462 120.076 86.8362 115.756C87.8662 112.956 88.2962 109.716 87.0362 106.946C86.6662 106.256 86.9662 105.386 87.6762 105.056C89.8862 104.026 91.5162 109.526 91.6862 111.036C92.5162 117.066 90.0762 123.086 86.1162 127.586C78.9862 135.606 62.8262 141.556 54.7662 131.706C48.5662 122.766 56.2662 111.496 64.0062 106.696C67.2162 104.606 70.6962 103.116 74.2662 102.186C75.1962 101.946 76.1562 102.506 76.3962 103.436C76.5862 104.186 76.2762 104.936 75.6662 105.326V105.346Z" fill="black"/>
<path d="M75.6662 105.346C70.3462 108.986 64.9962 113.206 62.0462 118.776C59.7862 123.176 59.1262 128.226 65.2362 129.016C69.5662 129.556 74.1462 128.026 77.9562 125.876C81.9762 123.636 85.1462 120.076 86.8362 115.756C87.8662 112.956 88.2962 109.716 87.0362 106.946C86.6662 106.256 86.9662 105.386 87.6762 105.056C89.8862 104.026 91.5162 109.526 91.6862 111.036C92.5162 117.066 90.0762 123.086 86.1162 127.586C78.9862 135.606 62.8262 141.556 54.7662 131.706C48.5662 122.766 56.2662 111.496 64.0062 106.696C67.2162 104.606 70.6962 103.116 74.2662 102.186C75.1962 101.946 76.1562 102.506 76.3962 103.436C76.5862 104.186 76.2762 104.936 75.6662 105.326V105.346Z" fill="black" fill-opacity="0.2"/>
<path d="M75.6662 105.346C70.3462 108.986 64.9962 113.206 62.0462 118.776C59.7862 123.176 59.1262 128.226 65.2362 129.016C69.5662 129.556 74.1462 128.026 77.9562 125.876C81.9762 123.636 85.1462 120.076 86.8362 115.756C87.8662 112.956 88.2962 109.716 87.0362 106.946C86.6662 106.256 86.9662 105.386 87.6762 105.056C89.8862 104.026 91.5162 109.526 91.6862 111.036C92.5162 117.066 90.0762 123.086 86.1162 127.586C78.9862 135.606 62.8262 141.556 54.7662 131.706C48.5662 122.766 56.2662 111.496 64.0062 106.696C67.2162 104.606 70.6962 103.116 74.2662 102.186C75.1962 101.946 76.1562 102.506 76.3962 103.436C76.5862 104.186 76.2762 104.936 75.6662 105.326V105.346Z" fill="black"/>
<path d="M75.6662 105.346C70.3462 108.986 64.9962 113.206 62.0462 118.776C59.7862 123.176 59.1262 128.226 65.2362 129.016C69.5662 129.556 74.1462 128.026 77.9562 125.876C81.9762 123.636 85.1462 120.076 86.8362 115.756C87.8662 112.956 88.2962 109.716 87.0362 106.946C86.6662 106.256 86.9662 105.386 87.6762 105.056C89.8862 104.026 91.5162 109.526 91.6862 111.036C92.5162 117.066 90.0762 123.086 86.1162 127.586C78.9862 135.606 62.8262 141.556 54.7662 131.706C48.5662 122.766 56.2662 111.496 64.0062 106.696C67.2162 104.606 70.6962 103.116 74.2662 102.186C75.1962 101.946 76.1562 102.506 76.3962 103.436C76.5862 104.186 76.2762 104.936 75.6662 105.326V105.346Z" fill="black" fill-opacity="0.2"/>
<path d="M121.856 67.3546C125.056 66.4446 126.426 61.3746 124.916 56.0146C123.396 50.6646 119.576 47.0546 116.376 47.9646C113.166 48.8746 111.806 53.9446 113.316 59.3046C114.826 64.6546 118.656 68.2646 121.856 67.3546Z" fill="black"/>
<path d="M121.856 67.3546C125.056 66.4446 126.426 61.3746 124.916 56.0146C123.396 50.6646 119.576 47.0546 116.376 47.9646C113.166 48.8746 111.806 53.9446 113.316 59.3046C114.826 64.6546 118.656 68.2646 121.856 67.3546Z" fill="black" fill-opacity="0.2"/>
<path d="M121.856 67.3546C125.056 66.4446 126.426 61.3746 124.916 56.0146C123.396 50.6646 119.576 47.0546 116.376 47.9646C113.166 48.8746 111.806 53.9446 113.316 59.3046C114.826 64.6546 118.656 68.2646 121.856 67.3546Z" fill="black"/>
<path d="M121.856 67.3546C125.056 66.4446 126.426 61.3746 124.916 56.0146C123.396 50.6646 119.576 47.0546 116.376 47.9646C113.166 48.8746 111.806 53.9446 113.316 59.3046C114.826 64.6546 118.656 68.2646 121.856 67.3546Z" fill="black" fill-opacity="0.2"/>
<path d="M125.036 60.0464C126.286 59.6964 126.876 57.8864 126.346 56.0264C125.816 54.1564 124.376 52.9364 123.116 53.2864C121.866 53.6364 121.276 55.4464 121.806 57.3064C122.336 59.1764 123.776 60.3964 125.036 60.0464Z" fill="white"/>
<path d="M89.826 53.9751C94.496 54.7651 99.126 55.6851 103.786 56.5451C105.356 56.8351 106.396 58.335 106.106 59.905C105.796 61.775 103.876 62.3151 102.366 62.8851C101.196 63.2451 98.296 63.9851 97.076 64.3251C94.726 64.9651 92.376 65.6051 89.996 66.1851C88.986 66.4351 87.966 65.8151 87.716 64.8151C87.496 63.9451 87.936 63.0651 88.706 62.6751C90.896 61.5851 93.096 60.5451 95.306 59.5151C97.276 58.6551 99.936 57.1351 102.006 56.6251L102.266 62.275C97.806 60.715 93.316 59.215 88.876 57.585C86.756 56.795 87.616 53.6051 89.836 53.9751H89.826Z" fill="black"/>
<path d="M89.826 53.9751C94.496 54.7651 99.126 55.6851 103.786 56.5451C105.356 56.8351 106.396 58.335 106.106 59.905C105.796 61.775 103.876 62.3151 102.366 62.8851C101.196 63.2451 98.296 63.9851 97.076 64.3251C94.726 64.9651 92.376 65.6051 89.996 66.1851C88.986 66.4351 87.966 65.8151 87.716 64.8151C87.496 63.9451 87.936 63.0651 88.706 62.6751C90.896 61.5851 93.096 60.5451 95.306 59.5151C97.276 58.6551 99.936 57.1351 102.006 56.6251L102.266 62.275C97.806 60.715 93.316 59.215 88.876 57.585C86.756 56.795 87.616 53.6051 89.836 53.9751H89.826Z" fill="black" fill-opacity="0.2"/>
<path d="M112.606 71.1751C109.076 71.6251 106.306 75.8651 109.096 79.5151C110.036 80.8051 111.486 82.0651 113.226 82.3251C114.866 82.7451 117.336 81.765 118.206 80.665C118.236 80.635 118.246 80.615 118.266 80.595C124.086 76.955 119.076 67.7651 112.606 71.1751ZM117.046 72.775C116.946 72.725 116.766 72.5851 116.586 72.4351C116.526 72.3851 116.466 72.3551 116.406 72.3051C116.626 72.4251 116.846 72.5451 117.046 72.7051C117.126 72.7851 117.106 72.7951 117.046 72.7651V72.775ZM119.046 79.6151C118.996 79.6951 118.916 79.775 118.856 79.855C119.056 79.565 119.126 79.3951 119.196 79.3051C119.346 79.0451 119.256 79.2851 119.046 79.6151Z" fill="black"/>
<path d="M112.606 71.1751C109.076 71.6251 106.306 75.8651 109.096 79.5151C110.036 80.8051 111.486 82.0651 113.226 82.3251C114.866 82.7451 117.336 81.765 118.206 80.665C118.236 80.635 118.246 80.615 118.266 80.595C124.086 76.955 119.076 67.7651 112.606 71.1751ZM117.046 72.775C116.946 72.725 116.766 72.5851 116.586 72.4351C116.526 72.3851 116.466 72.3551 116.406 72.3051C116.626 72.4251 116.846 72.5451 117.046 72.7051C117.126 72.7851 117.106 72.7951 117.046 72.7651V72.775ZM119.046 79.6151C118.996 79.6951 118.916 79.775 118.856 79.855C119.056 79.565 119.126 79.3951 119.196 79.3051C119.346 79.0451 119.256 79.2851 119.046 79.6151Z" fill="black" fill-opacity="0.2"/>
</svg>
