<svg width="159" height="138" viewBox="0 0 159 138" fill="none" xmlns="http://www.w3.org/2000/svg">
<path d="M37.3704 57.8591C33.0304 49.6191 23.4204 34.7691 10.6304 34.9191C-7.04955 35.1291 13.5305 75.0891 13.5305 75.0891C13.5305 75.0891 -3.15954 107.809 11.3905 111.269C25.9505 114.729 38.2305 94.2191 38.2305 94.2191" fill="#FF6700"/>
<path d="M108.02 126.859C115.11 119.889 117.31 110.639 112.94 106.199C108.57 101.759 99.2803 103.809 92.2003 110.779C85.1103 117.749 82.9103 126.999 87.2803 131.439C91.6503 135.879 100.94 133.829 108.02 126.859Z" fill="black"/>
<path d="M108.02 126.859C115.11 119.889 117.31 110.639 112.94 106.199C108.57 101.759 99.2803 103.809 92.2003 110.779C85.1103 117.749 82.9103 126.999 87.2803 131.439C91.6503 135.879 100.94 133.829 108.02 126.859Z" fill="black" fill-opacity="0.2"/>
<path d="M108.02 126.859C115.11 119.889 117.31 110.639 112.94 106.199C108.57 101.759 99.2803 103.809 92.2003 110.779C85.1103 117.749 82.9103 126.999 87.2803 131.439C91.6503 135.879 100.94 133.829 108.02 126.859Z" fill="black"/>
<path d="M108.02 126.859C115.11 119.889 117.31 110.639 112.94 106.199C108.57 101.759 99.2803 103.809 92.2003 110.779C85.1103 117.749 82.9103 126.999 87.2803 131.439C91.6503 135.879 100.94 133.829 108.02 126.859Z" fill="black" fill-opacity="0.2"/>
<path d="M115.34 37.9281C115.34 37.9281 103.48 15.1581 77.3903 4.95811C64.8403 0.0581082 59.7403 7.69809 66.9803 17.3181C76.2003 29.5681 41.2603 5.44808 63.6903 45.3081L115.35 37.9181L115.34 37.9281Z" fill="#FF6700"/>
<path d="M95.5106 28.8483L106.711 25.5283L87.5605 9.91827L69.8806 3.44824L63.8506 7.63824C63.8506 7.63824 89.4305 16.1583 95.5005 28.8583L95.5106 28.8483Z" fill="#FECB8B"/>
<path d="M112.21 36.3286C111.66 37.1286 111.66 38.5986 112.16 39.3286V39.2987L112.11 39.1986C110.48 34.9186 107.88 31.0587 104.98 27.5287C98.4102 19.8487 90.1001 13.6386 80.9401 9.44863C77.5801 8.09863 73.4902 6.16867 69.9802 6.48867C65.9402 6.69867 66.6401 9.99862 68.1201 12.6886C69.8201 15.7386 74.0301 19.1587 71.3701 22.9887C69.0601 26.1287 64.4801 24.5287 61.4701 24.7287C60.5701 24.7387 59.9001 24.9887 59.9501 25.0387C59.9501 25.0587 60.0601 24.9586 60.0701 24.9486C59.7601 27.7486 61.3601 31.1186 62.4501 33.8386C62.7901 34.6386 63.4801 36.2487 63.8501 37.0387C64.8201 39.1887 65.8201 41.3586 66.7601 43.5886L63.2001 41.8286C79.6401 39.4086 95.5802 37.8686 112.23 36.3186L112.21 36.3286ZM118.47 39.5387C100.69 42.9287 82.1801 46.2987 64.1501 48.7987C62.6801 49.0087 61.2901 48.2587 60.6101 47.0387C56.8701 41.6787 53.7901 35.8087 52.4101 29.2787C50.5801 19.5687 56.4101 15.8486 65.4401 17.4386C66.0101 17.5086 66.5701 17.5686 66.8901 17.5786C67.0301 17.5886 67.1301 17.5586 66.8901 17.6286C65.8101 17.9486 64.9301 19.1186 64.9301 20.2586C64.9101 20.4786 64.9501 20.7387 65.0201 20.9287C64.2101 19.2787 62.7602 17.6487 61.9802 15.7987C60.5902 12.8387 59.7401 9.49865 60.9401 6.08865C63.5701 -0.971351 72.4401 -0.291344 78.0301 2.15866C79.7701 2.88866 81.5601 3.78862 83.2801 4.55862C84.8201 5.44862 86.7801 6.42867 88.2801 7.35867L91.5001 9.39865C99.9701 15.0186 107.07 22.3886 113.55 30.1486C114.78 31.5686 116.03 33.1887 117.21 34.6587L117.82 35.4386L118.13 35.8386L118.21 35.9386C118.86 36.9086 118.94 38.4686 118.48 39.5186L118.47 39.5387Z" fill="black"/>
<path d="M112.21 36.3286C111.66 37.1286 111.66 38.5986 112.16 39.3286V39.2987L112.11 39.1986C110.48 34.9186 107.88 31.0587 104.98 27.5287C98.4102 19.8487 90.1001 13.6386 80.9401 9.44863C77.5801 8.09863 73.4902 6.16867 69.9802 6.48867C65.9402 6.69867 66.6401 9.99862 68.1201 12.6886C69.8201 15.7386 74.0301 19.1587 71.3701 22.9887C69.0601 26.1287 64.4801 24.5287 61.4701 24.7287C60.5701 24.7387 59.9001 24.9887 59.9501 25.0387C59.9501 25.0587 60.0601 24.9586 60.0701 24.9486C59.7601 27.7486 61.3601 31.1186 62.4501 33.8386C62.7901 34.6386 63.4801 36.2487 63.8501 37.0387C64.8201 39.1887 65.8201 41.3586 66.7601 43.5886L63.2001 41.8286C79.6401 39.4086 95.5802 37.8686 112.23 36.3186L112.21 36.3286ZM118.47 39.5387C100.69 42.9287 82.1801 46.2987 64.1501 48.7987C62.6801 49.0087 61.2901 48.2587 60.6101 47.0387C56.8701 41.6787 53.7901 35.8087 52.4101 29.2787C50.5801 19.5687 56.4101 15.8486 65.4401 17.4386C66.0101 17.5086 66.5701 17.5686 66.8901 17.5786C67.0301 17.5886 67.1301 17.5586 66.8901 17.6286C65.8101 17.9486 64.9301 19.1186 64.9301 20.2586C64.9101 20.4786 64.9501 20.7387 65.0201 20.9287C64.2101 19.2787 62.7602 17.6487 61.9802 15.7987C60.5902 12.8387 59.7401 9.49865 60.9401 6.08865C63.5701 -0.971351 72.4401 -0.291344 78.0301 2.15866C79.7701 2.88866 81.5601 3.78862 83.2801 4.55862C84.8201 5.44862 86.7801 6.42867 88.2801 7.35867L91.5001 9.39865C99.9701 15.0186 107.07 22.3886 113.55 30.1486C114.78 31.5686 116.03 33.1887 117.21 34.6587L117.82 35.4386L118.13 35.8386L118.21 35.9386C118.86 36.9086 118.94 38.4686 118.48 39.5186L118.47 39.5387Z" fill="black" fill-opacity="0.2"/>
<path d="M112.21 36.3286C111.66 37.1286 111.66 38.5986 112.16 39.3286V39.2987L112.11 39.1986C110.48 34.9186 107.88 31.0587 104.98 27.5287C98.4102 19.8487 90.1001 13.6386 80.9401 9.44863C77.5801 8.09863 73.4902 6.16867 69.9802 6.48867C65.9402 6.69867 66.6401 9.99862 68.1201 12.6886C69.8201 15.7386 74.0301 19.1587 71.3701 22.9887C69.0601 26.1287 64.4801 24.5287 61.4701 24.7287C60.5701 24.7387 59.9001 24.9887 59.9501 25.0387C59.9501 25.0587 60.0601 24.9586 60.0701 24.9486C59.7601 27.7486 61.3601 31.1186 62.4501 33.8386C62.7901 34.6386 63.4801 36.2487 63.8501 37.0387C64.8201 39.1887 65.8201 41.3586 66.7601 43.5886L63.2001 41.8286C79.6401 39.4086 95.5802 37.8686 112.23 36.3186L112.21 36.3286ZM118.47 39.5387C100.69 42.9287 82.1801 46.2987 64.1501 48.7987C62.6801 49.0087 61.2901 48.2587 60.6101 47.0387C56.8701 41.6787 53.7901 35.8087 52.4101 29.2787C50.5801 19.5687 56.4101 15.8486 65.4401 17.4386C66.0101 17.5086 66.5701 17.5686 66.8901 17.5786C67.0301 17.5886 67.1301 17.5586 66.8901 17.6286C65.8101 17.9486 64.9301 19.1186 64.9301 20.2586C64.9101 20.4786 64.9501 20.7387 65.0201 20.9287C64.2101 19.2787 62.7602 17.6487 61.9802 15.7987C60.5902 12.8387 59.7401 9.49865 60.9401 6.08865C63.5701 -0.971351 72.4401 -0.291344 78.0301 2.15866C79.7701 2.88866 81.5601 3.78862 83.2801 4.55862C84.8201 5.44862 86.7801 6.42867 88.2801 7.35867L91.5001 9.39865C99.9701 15.0186 107.07 22.3886 113.55 30.1486C114.78 31.5686 116.03 33.1887 117.21 34.6587L117.82 35.4386L118.13 35.8386L118.21 35.9386C118.86 36.9086 118.94 38.4686 118.48 39.5186L118.47 39.5387Z" fill="black"/>
<path d="M112.21 36.3286C111.66 37.1286 111.66 38.5986 112.16 39.3286V39.2987L112.11 39.1986C110.48 34.9186 107.88 31.0587 104.98 27.5287C98.4102 19.8487 90.1001 13.6386 80.9401 9.44863C77.5801 8.09863 73.4902 6.16867 69.9802 6.48867C65.9402 6.69867 66.6401 9.99862 68.1201 12.6886C69.8201 15.7386 74.0301 19.1587 71.3701 22.9887C69.0601 26.1287 64.4801 24.5287 61.4701 24.7287C60.5701 24.7387 59.9001 24.9887 59.9501 25.0387C59.9501 25.0587 60.0601 24.9586 60.0701 24.9486C59.7601 27.7486 61.3601 31.1186 62.4501 33.8386C62.7901 34.6386 63.4801 36.2487 63.8501 37.0387C64.8201 39.1887 65.8201 41.3586 66.7601 43.5886L63.2001 41.8286C79.6401 39.4086 95.5802 37.8686 112.23 36.3186L112.21 36.3286ZM118.47 39.5387C100.69 42.9287 82.1801 46.2987 64.1501 48.7987C62.6801 49.0087 61.2901 48.2587 60.6101 47.0387C56.8701 41.6787 53.7901 35.8087 52.4101 29.2787C50.5801 19.5687 56.4101 15.8486 65.4401 17.4386C66.0101 17.5086 66.5701 17.5686 66.8901 17.5786C67.0301 17.5886 67.1301 17.5586 66.8901 17.6286C65.8101 17.9486 64.9301 19.1186 64.9301 20.2586C64.9101 20.4786 64.9501 20.7387 65.0201 20.9287C64.2101 19.2787 62.7602 17.6487 61.9802 15.7987C60.5902 12.8387 59.7401 9.49865 60.9401 6.08865C63.5701 -0.971351 72.4401 -0.291344 78.0301 2.15866C79.7701 2.88866 81.5601 3.78862 83.2801 4.55862C84.8201 5.44862 86.7801 6.42867 88.2801 7.35867L91.5001 9.39865C99.9701 15.0186 107.07 22.3886 113.55 30.1486C114.78 31.5686 116.03 33.1887 117.21 34.6587L117.82 35.4386L118.13 35.8386L118.21 35.9386C118.86 36.9086 118.94 38.4686 118.48 39.5186L118.47 39.5387Z" fill="black" fill-opacity="0.2"/>
<path d="M38.2302 94.2084L38.3901 91.1884C49.1101 105.048 70.1501 118.038 91.2501 118.038C121.37 118.038 145.79 97.6184 145.79 72.4484C145.79 47.2784 121.37 26.8584 91.2501 26.8584C70.7201 26.8584 48.0701 42.5384 37.3701 57.8784" fill="#FECB8B"/>
<path d="M89.2202 108.189C94.7102 111.149 106.43 112.359 115.18 110.479C123.16 108.759 106.98 119.969 89.9902 119.469L89.2302 108.189H89.2202Z" fill="#FF6700"/>
<path d="M30.2205 64.0087C22.0705 46.2387 9.97053 39.9687 7.02053 47.6887C5.20053 19.9987 28.8605 45.7387 33.5205 56.4187L30.2205 64.0087Z" fill="#FECB8B"/>
<path d="M13.3003 108.058C25.3203 107.668 30.6403 88.9982 30.5903 82.9082L37.3403 93.6282C29.9003 103.648 21.9503 109.108 13.3003 108.058Z" fill="black"/>
<path d="M13.3003 108.058C25.3203 107.668 30.6403 88.9982 30.5903 82.9082L37.3403 93.6282C29.9003 103.648 21.9503 109.108 13.3003 108.058Z" fill="black" fill-opacity="0.2"/>
<path d="M13.3003 108.058C25.3203 107.668 30.6403 88.9982 30.5903 82.9082L37.3403 93.6282C29.9003 103.648 21.9503 109.108 13.3003 108.058Z" fill="black"/>
<path d="M13.3003 108.058C25.3203 107.668 30.6403 88.9982 30.5903 82.9082L37.3403 93.6282C29.9003 103.648 21.9503 109.108 13.3003 108.058Z" fill="black" fill-opacity="0.2"/>
<path d="M35.0705 81.3389C37.4205 83.6689 30.2505 71.1489 34.2505 62.9789C54.7205 21.0689 99.7405 27.2789 95.5105 28.8589C60.5305 41.9589 57.2305 79.5989 74.6305 103.459L62.3205 108.879C56.1505 109.649 33.0405 89.9889 35.0705 81.3589V81.3389Z" fill="#FF6700"/>
<path d="M41.2503 96.0187C35.0403 105.619 24.7903 116.539 12.2403 114.999C7.74027 114.439 3.98029 111.789 2.64029 107.059C-0.139707 97.1187 6.1203 82.4587 10.4003 73.4887C10.4003 73.4887 10.4003 76.7087 10.4003 76.6987C5.7903 66.9787 -1.39974 50.6687 0.610264 39.9287C2.32026 31.4987 10.4603 30.5587 17.2903 32.9387C24.6503 35.5787 29.9303 41.2787 34.2803 47.3387C36.3603 50.2987 38.2003 53.3787 39.8503 56.5587C41.4403 59.8887 36.7303 62.3387 34.9003 59.1687C30.3703 51.0687 24.3103 41.9987 15.3403 38.7587C12.7103 37.8787 9.19032 37.7687 8.17032 38.7487C4.96032 41.7387 7.71029 50.9487 8.89029 54.9287C10.9003 61.2487 13.6603 67.5987 16.6603 73.4887C17.2003 74.5287 17.1603 75.7187 16.6603 76.6987C14.0903 81.9487 11.7903 87.6187 10.2803 93.2587C9.33031 97.1787 7.51032 104.609 10.8503 107.299C12.5903 108.269 14.7603 108.279 16.7303 107.969C23.3203 106.709 28.7103 101.139 32.7803 95.8987C33.6203 94.7987 34.5003 93.5387 35.2203 92.3787C37.7603 88.4887 43.5203 91.9687 41.2303 96.0287L41.2503 96.0187Z" fill="black"/>
<path d="M41.2503 96.0187C35.0403 105.619 24.7903 116.539 12.2403 114.999C7.74027 114.439 3.98029 111.789 2.64029 107.059C-0.139707 97.1187 6.1203 82.4587 10.4003 73.4887C10.4003 73.4887 10.4003 76.7087 10.4003 76.6987C5.7903 66.9787 -1.39974 50.6687 0.610264 39.9287C2.32026 31.4987 10.4603 30.5587 17.2903 32.9387C24.6503 35.5787 29.9303 41.2787 34.2803 47.3387C36.3603 50.2987 38.2003 53.3787 39.8503 56.5587C41.4403 59.8887 36.7303 62.3387 34.9003 59.1687C30.3703 51.0687 24.3103 41.9987 15.3403 38.7587C12.7103 37.8787 9.19032 37.7687 8.17032 38.7487C4.96032 41.7387 7.71029 50.9487 8.89029 54.9287C10.9003 61.2487 13.6603 67.5987 16.6603 73.4887C17.2003 74.5287 17.1603 75.7187 16.6603 76.6987C14.0903 81.9487 11.7903 87.6187 10.2803 93.2587C9.33031 97.1787 7.51032 104.609 10.8503 107.299C12.5903 108.269 14.7603 108.279 16.7303 107.969C23.3203 106.709 28.7103 101.139 32.7803 95.8987C33.6203 94.7987 34.5003 93.5387 35.2203 92.3787C37.7603 88.4887 43.5203 91.9687 41.2303 96.0287L41.2503 96.0187Z" fill="black" fill-opacity="0.2"/>
<path d="M41.2503 96.0187C35.0403 105.619 24.7903 116.539 12.2403 114.999C7.74027 114.439 3.98029 111.789 2.64029 107.059C-0.139707 97.1187 6.1203 82.4587 10.4003 73.4887C10.4003 73.4887 10.4003 76.7087 10.4003 76.6987C5.7903 66.9787 -1.39974 50.6687 0.610264 39.9287C2.32026 31.4987 10.4603 30.5587 17.2903 32.9387C24.6503 35.5787 29.9303 41.2787 34.2803 47.3387C36.3603 50.2987 38.2003 53.3787 39.8503 56.5587C41.4403 59.8887 36.7303 62.3387 34.9003 59.1687C30.3703 51.0687 24.3103 41.9987 15.3403 38.7587C12.7103 37.8787 9.19032 37.7687 8.17032 38.7487C4.96032 41.7387 7.71029 50.9487 8.89029 54.9287C10.9003 61.2487 13.6603 67.5987 16.6603 73.4887C17.2003 74.5287 17.1603 75.7187 16.6603 76.6987C14.0903 81.9487 11.7903 87.6187 10.2803 93.2587C9.33031 97.1787 7.51032 104.609 10.8503 107.299C12.5903 108.269 14.7603 108.279 16.7303 107.969C23.3203 106.709 28.7103 101.139 32.7803 95.8987C33.6203 94.7987 34.5003 93.5387 35.2203 92.3787C37.7603 88.4887 43.5203 91.9687 41.2303 96.0287L41.2503 96.0187Z" fill="black"/>
<path d="M41.2503 96.0187C35.0403 105.619 24.7903 116.539 12.2403 114.999C7.74027 114.439 3.98029 111.789 2.64029 107.059C-0.139707 97.1187 6.1203 82.4587 10.4003 73.4887C10.4003 73.4887 10.4003 76.7087 10.4003 76.6987C5.7903 66.9787 -1.39974 50.6687 0.610264 39.9287C2.32026 31.4987 10.4603 30.5587 17.2903 32.9387C24.6503 35.5787 29.9303 41.2787 34.2803 47.3387C36.3603 50.2987 38.2003 53.3787 39.8503 56.5587C41.4403 59.8887 36.7303 62.3387 34.9003 59.1687C30.3703 51.0687 24.3103 41.9987 15.3403 38.7587C12.7103 37.8787 9.19032 37.7687 8.17032 38.7487C4.96032 41.7387 7.71029 50.9487 8.89029 54.9287C10.9003 61.2487 13.6603 67.5987 16.6603 73.4887C17.2003 74.5287 17.1603 75.7187 16.6603 76.6987C14.0903 81.9487 11.7903 87.6187 10.2803 93.2587C9.33031 97.1787 7.51032 104.609 10.8503 107.299C12.5903 108.269 14.7603 108.279 16.7303 107.969C23.3203 106.709 28.7103 101.139 32.7803 95.8987C33.6203 94.7987 34.5003 93.5387 35.2203 92.3787C37.7603 88.4887 43.5203 91.9687 41.2303 96.0287L41.2503 96.0187Z" fill="black" fill-opacity="0.2"/>
<path d="M31.4504 61.5083C41.8804 42.7483 64.8304 26.7283 86.1804 24.2083C108.77 22.1783 133.42 33.0783 143.87 53.8983C156.8 80.3083 140.1 108.138 114.11 117.688C105.19 121.048 95.5605 122.328 86.0805 121.538C68.5105 119.668 52.0004 110.818 40.1304 97.8483C39.1504 96.8483 37.8805 95.1583 36.9805 94.0783C34.4405 90.8083 32.3404 87.2383 30.7404 83.3483C30.2004 82.0683 30.8005 80.5883 32.0805 80.0483C33.3005 79.5283 34.7005 80.0483 35.2905 81.2083C37.9305 86.3983 41.7604 91.0883 46.1904 95.1383C59.0504 106.908 76.7705 115.098 94.4005 114.168C117.27 113.418 142.58 97.8583 143.26 73.0083C143.86 47.8183 118.88 30.9083 95.6404 29.8683C83.8204 28.8083 72.1705 33.0183 61.9605 39.3183C52.0005 45.5983 42.5805 54.0883 37.0205 64.4483C34.9605 68.0883 29.5904 65.2483 31.4504 61.4883H31.4404L31.4504 61.5083Z" fill="black"/>
<path d="M31.4504 61.5083C41.8804 42.7483 64.8304 26.7283 86.1804 24.2083C108.77 22.1783 133.42 33.0783 143.87 53.8983C156.8 80.3083 140.1 108.138 114.11 117.688C105.19 121.048 95.5605 122.328 86.0805 121.538C68.5105 119.668 52.0004 110.818 40.1304 97.8483C39.1504 96.8483 37.8805 95.1583 36.9805 94.0783C34.4405 90.8083 32.3404 87.2383 30.7404 83.3483C30.2004 82.0683 30.8005 80.5883 32.0805 80.0483C33.3005 79.5283 34.7005 80.0483 35.2905 81.2083C37.9305 86.3983 41.7604 91.0883 46.1904 95.1383C59.0504 106.908 76.7705 115.098 94.4005 114.168C117.27 113.418 142.58 97.8583 143.26 73.0083C143.86 47.8183 118.88 30.9083 95.6404 29.8683C83.8204 28.8083 72.1705 33.0183 61.9605 39.3183C52.0005 45.5983 42.5805 54.0883 37.0205 64.4483C34.9605 68.0883 29.5904 65.2483 31.4504 61.4883H31.4404L31.4504 61.5083Z" fill="black" fill-opacity="0.2"/>
<path d="M31.4504 61.5083C41.8804 42.7483 64.8304 26.7283 86.1804 24.2083C108.77 22.1783 133.42 33.0783 143.87 53.8983C156.8 80.3083 140.1 108.138 114.11 117.688C105.19 121.048 95.5605 122.328 86.0805 121.538C68.5105 119.668 52.0004 110.818 40.1304 97.8483C39.1504 96.8483 37.8805 95.1583 36.9805 94.0783C34.4405 90.8083 32.3404 87.2383 30.7404 83.3483C30.2004 82.0683 30.8005 80.5883 32.0805 80.0483C33.3005 79.5283 34.7005 80.0483 35.2905 81.2083C37.9305 86.3983 41.7604 91.0883 46.1904 95.1383C59.0504 106.908 76.7705 115.098 94.4005 114.168C117.27 113.418 142.58 97.8583 143.26 73.0083C143.86 47.8183 118.88 30.9083 95.6404 29.8683C83.8204 28.8083 72.1705 33.0183 61.9605 39.3183C52.0005 45.5983 42.5805 54.0883 37.0205 64.4483C34.9605 68.0883 29.5904 65.2483 31.4504 61.4883H31.4404L31.4504 61.5083Z" fill="black"/>
<path d="M31.4504 61.5083C41.8804 42.7483 64.8304 26.7283 86.1804 24.2083C108.77 22.1783 133.42 33.0783 143.87 53.8983C156.8 80.3083 140.1 108.138 114.11 117.688C105.19 121.048 95.5605 122.328 86.0805 121.538C68.5105 119.668 52.0004 110.818 40.1304 97.8483C39.1504 96.8483 37.8805 95.1583 36.9805 94.0783C34.4405 90.8083 32.3404 87.2383 30.7404 83.3483C30.2004 82.0683 30.8005 80.5883 32.0805 80.0483C33.3005 79.5283 34.7005 80.0483 35.2905 81.2083C37.9305 86.3983 41.7604 91.0883 46.1904 95.1383C59.0504 106.908 76.7705 115.098 94.4005 114.168C117.27 113.418 142.58 97.8583 143.26 73.0083C143.86 47.8183 118.88 30.9083 95.6404 29.8683C83.8204 28.8083 72.1705 33.0183 61.9605 39.3183C52.0005 45.5983 42.5805 54.0883 37.0205 64.4483C34.9605 68.0883 29.5904 65.2483 31.4504 61.4883H31.4404L31.4504 61.5083Z" fill="black" fill-opacity="0.2"/>
<path d="M79.9804 128.828C88.7704 122.958 92.9104 113.718 89.2204 108.188C85.5304 102.658 75.4104 102.938 66.6204 108.808C57.8304 114.678 53.6904 123.918 57.3804 129.448C61.0704 134.978 71.1904 134.698 79.9804 128.828Z" fill="#FECB8B"/>
<path d="M89.7804 111.309C89.1204 109.939 88.0204 107.039 86.6804 106.209C88.0904 111.849 82.9304 120.109 74.4904 124.189C67.4904 127.569 60.8504 124.719 58.6504 118.439C58.7704 118.939 56.3204 126.919 56.5504 127.379C59.3404 133.149 69.0404 134.229 78.2104 129.789C87.3904 125.349 92.5704 117.079 89.7804 111.309Z" fill="#FF6700"/>
<path d="M75.3302 105.799C70.0102 109.439 64.6603 113.659 61.7103 119.229C59.4503 123.629 58.7903 128.679 64.9003 129.469C69.2303 130.009 73.8102 128.479 77.6202 126.329C81.6402 124.089 84.8102 120.529 86.5002 116.209C87.5302 113.409 87.9602 110.169 86.7002 107.399C86.3302 106.709 86.6303 105.839 87.3403 105.509C89.5503 104.479 91.1803 109.979 91.3503 111.489C92.1803 117.519 89.7403 123.539 85.7803 128.039C78.6503 136.059 62.4902 142.009 54.4302 132.159C48.2302 123.219 55.9303 111.949 63.6703 107.149C66.8803 105.059 70.3602 103.569 73.9302 102.639C74.8602 102.399 75.8202 102.959 76.0602 103.889C76.2502 104.639 75.9402 105.389 75.3302 105.779V105.799Z" fill="black"/>
<path d="M75.3302 105.799C70.0102 109.439 64.6603 113.659 61.7103 119.229C59.4503 123.629 58.7903 128.679 64.9003 129.469C69.2303 130.009 73.8102 128.479 77.6202 126.329C81.6402 124.089 84.8102 120.529 86.5002 116.209C87.5302 113.409 87.9602 110.169 86.7002 107.399C86.3302 106.709 86.6303 105.839 87.3403 105.509C89.5503 104.479 91.1803 109.979 91.3503 111.489C92.1803 117.519 89.7403 123.539 85.7803 128.039C78.6503 136.059 62.4902 142.009 54.4302 132.159C48.2302 123.219 55.9303 111.949 63.6703 107.149C66.8803 105.059 70.3602 103.569 73.9302 102.639C74.8602 102.399 75.8202 102.959 76.0602 103.889C76.2502 104.639 75.9402 105.389 75.3302 105.779V105.799Z" fill="black" fill-opacity="0.2"/>
<path d="M75.3302 105.799C70.0102 109.439 64.6603 113.659 61.7103 119.229C59.4503 123.629 58.7903 128.679 64.9003 129.469C69.2303 130.009 73.8102 128.479 77.6202 126.329C81.6402 124.089 84.8102 120.529 86.5002 116.209C87.5302 113.409 87.9602 110.169 86.7002 107.399C86.3302 106.709 86.6303 105.839 87.3403 105.509C89.5503 104.479 91.1803 109.979 91.3503 111.489C92.1803 117.519 89.7403 123.539 85.7803 128.039C78.6503 136.059 62.4902 142.009 54.4302 132.159C48.2302 123.219 55.9303 111.949 63.6703 107.149C66.8803 105.059 70.3602 103.569 73.9302 102.639C74.8602 102.399 75.8202 102.959 76.0602 103.889C76.2502 104.639 75.9402 105.389 75.3302 105.779V105.799Z" fill="black"/>
<path d="M75.3302 105.799C70.0102 109.439 64.6603 113.659 61.7103 119.229C59.4503 123.629 58.7903 128.679 64.9003 129.469C69.2303 130.009 73.8102 128.479 77.6202 126.329C81.6402 124.089 84.8102 120.529 86.5002 116.209C87.5302 113.409 87.9602 110.169 86.7002 107.399C86.3302 106.709 86.6303 105.839 87.3403 105.509C89.5503 104.479 91.1803 109.979 91.3503 111.489C92.1803 117.519 89.7403 123.539 85.7803 128.039C78.6503 136.059 62.4902 142.009 54.4302 132.159C48.2302 123.219 55.9303 111.949 63.6703 107.149C66.8803 105.059 70.3602 103.569 73.9302 102.639C74.8602 102.399 75.8202 102.959 76.0602 103.889C76.2502 104.639 75.9402 105.389 75.3302 105.779V105.799Z" fill="black" fill-opacity="0.2"/>
<path d="M121.53 67.8087C124.73 66.8987 126.1 61.8287 124.59 56.4687C123.07 51.1187 119.25 47.5087 116.05 48.4187C112.84 49.3287 111.48 54.3987 112.99 59.7587C114.5 65.1087 118.33 68.7187 121.53 67.8087Z" fill="black"/>
<path d="M121.53 67.8087C124.73 66.8987 126.1 61.8287 124.59 56.4687C123.07 51.1187 119.25 47.5087 116.05 48.4187C112.84 49.3287 111.48 54.3987 112.99 59.7587C114.5 65.1087 118.33 68.7187 121.53 67.8087Z" fill="black" fill-opacity="0.2"/>
<path d="M121.53 67.8087C124.73 66.8987 126.1 61.8287 124.59 56.4687C123.07 51.1187 119.25 47.5087 116.05 48.4187C112.84 49.3287 111.48 54.3987 112.99 59.7587C114.5 65.1087 118.33 68.7187 121.53 67.8087Z" fill="black"/>
<path d="M121.53 67.8087C124.73 66.8987 126.1 61.8287 124.59 56.4687C123.07 51.1187 119.25 47.5087 116.05 48.4187C112.84 49.3287 111.48 54.3987 112.99 59.7587C114.5 65.1087 118.33 68.7187 121.53 67.8087Z" fill="black" fill-opacity="0.2"/>
<path d="M124.7 60.5083C125.95 60.1583 126.54 58.3484 126.01 56.4884C125.48 54.6184 124.04 53.3983 122.78 53.7483C121.53 54.0983 120.94 55.9084 121.47 57.7684C122 59.6384 123.44 60.8583 124.7 60.5083Z" fill="white"/>
<path d="M89.5003 54.4389C94.1703 55.2289 98.8003 56.1489 103.46 57.0089C105.03 57.2989 106.07 58.7989 105.78 60.3689C105.47 62.2389 103.55 62.779 102.04 63.349C100.87 63.709 97.9703 64.449 96.7503 64.789C94.4003 65.429 92.0503 66.0689 89.6703 66.6489C88.6603 66.8989 87.6403 66.2789 87.3903 65.2789C87.1703 64.4089 87.6103 63.5289 88.3803 63.1389C90.5703 62.0489 92.7703 61.009 94.9803 59.979C96.9503 59.119 99.6103 57.5989 101.68 57.0889L101.94 62.739C97.4803 61.179 92.9903 59.679 88.5503 58.049C86.4303 57.259 87.2903 54.0689 89.5103 54.4389H89.5003Z" fill="black"/>
<path d="M89.5003 54.4389C94.1703 55.2289 98.8003 56.1489 103.46 57.0089C105.03 57.2989 106.07 58.7989 105.78 60.3689C105.47 62.2389 103.55 62.779 102.04 63.349C100.87 63.709 97.9703 64.449 96.7503 64.789C94.4003 65.429 92.0503 66.0689 89.6703 66.6489C88.6603 66.8989 87.6403 66.2789 87.3903 65.2789C87.1703 64.4089 87.6103 63.5289 88.3803 63.1389C90.5703 62.0489 92.7703 61.009 94.9803 59.979C96.9503 59.119 99.6103 57.5989 101.68 57.0889L101.94 62.739C97.4803 61.179 92.9903 59.679 88.5503 58.049C86.4303 57.259 87.2903 54.0689 89.5103 54.4389H89.5003Z" fill="black" fill-opacity="0.2"/>
<path d="M130.911 86.8585C144.232 86.8585 155.031 73.333 155.031 56.6485C155.031 39.964 144.232 26.4385 130.911 26.4385C117.589 26.4385 106.791 39.964 106.791 56.6485C106.791 73.333 117.589 86.8585 130.911 86.8585Z" fill="black"/>
<path d="M130.911 86.8585C144.232 86.8585 155.031 73.333 155.031 56.6485C155.031 39.964 144.232 26.4385 130.911 26.4385C117.589 26.4385 106.791 39.964 106.791 56.6485C106.791 73.333 117.589 86.8585 130.911 86.8585Z" fill="black" fill-opacity="0.2"/>
<path d="M135.231 80.1982C146.166 80.1982 155.031 69.0993 155.031 55.4082C155.031 41.7171 146.166 30.6182 135.231 30.6182C124.295 30.6182 115.431 41.7171 115.431 55.4082C115.431 69.0993 124.295 80.1982 135.231 80.1982Z" fill="white"/>
<path d="M153.07 55.9688C153.07 43.1488 144.31 32.7588 133.51 32.7588C128.88 32.7588 124.63 34.6688 121.28 37.8588C124.1 35.9888 127.34 34.9088 130.8 34.9088C141.56 34.9088 150.29 45.2588 150.29 58.0288C150.29 65.7188 147.13 72.5188 142.26 76.7188C148.67 72.9088 153.07 65.0488 153.07 55.9688Z" fill="#FECB8B"/>
<path d="M135.231 80.1982C146.166 80.1982 155.031 69.0993 155.031 55.4082C155.031 41.7171 146.166 30.6182 135.231 30.6182C124.295 30.6182 115.431 41.7171 115.431 55.4082C115.431 69.0993 124.295 80.1982 135.231 80.1982Z" stroke="black" stroke-width="6" stroke-linecap="round" stroke-linejoin="round"/>
<path d="M135.231 80.1982C146.166 80.1982 155.031 69.0993 155.031 55.4082C155.031 41.7171 146.166 30.6182 135.231 30.6182C124.295 30.6182 115.431 41.7171 115.431 55.4082C115.431 69.0993 124.295 80.1982 135.231 80.1982Z" stroke="black" stroke-opacity="0.2" stroke-width="6" stroke-linecap="round" stroke-linejoin="round"/>
<path d="M142.09 59.9188C143.34 59.2688 143.93 55.9388 143.4 52.4888C142.87 49.0388 141.43 46.7788 140.17 47.4288C138.92 48.0788 138.33 51.4088 138.86 54.8588C139.39 58.3088 140.83 60.5688 142.09 59.9188Z" stroke="black" stroke-width="6" stroke-linecap="round" stroke-linejoin="round"/>
<path d="M142.09 59.9188C143.34 59.2688 143.93 55.9388 143.4 52.4888C142.87 49.0388 141.43 46.7788 140.17 47.4288C138.92 48.0788 138.33 51.4088 138.86 54.8588C139.39 58.3088 140.83 60.5688 142.09 59.9188Z" stroke="black" stroke-opacity="0.2" stroke-width="6" stroke-linecap="round" stroke-linejoin="round"/>
<path d="M111.02 81.029C111.11 81.099 111.45 81.369 111.33 81.219C109.77 79.889 107.18 80.749 106.41 82.299C106.67 81.649 107.22 80.9689 107.86 80.5089C112.72 77.2189 116.68 84.859 111.25 86.909C111.72 86.779 112.42 86.2489 112.67 85.8089C112.81 85.5889 112.87 85.429 112.77 85.599C112.69 85.709 112.64 85.9189 112.11 86.5089C111.53 87.2389 109.88 87.899 108.8 87.609C107.64 87.429 106.68 86.599 106.05 85.739C103.51 82.409 107.89 78.329 111.03 81.029H111.02Z" fill="black"/>
<path d="M111.02 81.029C111.11 81.099 111.45 81.369 111.33 81.219C109.77 79.889 107.18 80.749 106.41 82.299C106.67 81.649 107.22 80.9689 107.86 80.5089C112.72 77.2189 116.68 84.859 111.25 86.909C111.72 86.779 112.42 86.2489 112.67 85.8089C112.81 85.5889 112.87 85.429 112.77 85.599C112.69 85.709 112.64 85.9189 112.11 86.5089C111.53 87.2389 109.88 87.899 108.8 87.609C107.64 87.429 106.68 86.599 106.05 85.739C103.51 82.409 107.89 78.329 111.03 81.029H111.02Z" fill="black" fill-opacity="0.2"/>
</svg>
