<svg width="552" height="358" viewBox="0 0 552 358" fill="none" xmlns="http://www.w3.org/2000/svg">
<path d="M250.232 297.369L266.763 253.267H290.11L267.703 310.012C262.833 322.241 258.725 331.428 255.39 337.602C252.054 343.765 247.658 348.639 242.194 352.224C236.74 355.808 229.564 357.601 220.665 357.601C217.587 357.601 215.26 357.383 213.676 356.97V336.735C215.586 336.942 217.23 337.051 218.605 337.051C223.584 337.051 227.613 336.124 230.682 334.283C233.75 332.442 236.404 329.567 238.631 325.668L208.598 253.267H232.751L250.232 297.369ZM424.76 251.208C431.006 251.208 436.44 252.468 441.053 254.998C445.665 257.529 449.08 261.005 451.308 265.436L435.252 274.13C432.817 270.861 429.471 269.227 425.245 269.227C422.592 269.227 420.533 269.838 419.048 271.049C417.563 272.26 416.821 273.707 416.821 275.4C416.821 277.399 417.85 278.857 419.919 279.753C421.988 280.649 425.294 281.574 429.848 282.52C436.945 283.888 442.696 286.528 447.091 290.427C451.486 294.326 453.684 299.594 453.684 306.24C453.684 314.039 450.823 320.262 445.102 324.899C439.38 329.537 432.075 331.851 423.166 331.851C417.87 331.851 412.703 330.925 407.675 329.084L407.685 329.064C402.656 327.223 398.172 324.19 394.252 319.976L406.804 306.378C408.922 308.8 411.417 310.701 414.277 312.069C417.138 313.438 420.157 314.127 423.334 314.127C426.511 314.127 428.838 313.467 430.649 312.147C432.451 310.828 433.352 309.066 433.352 306.851C433.352 304.635 432.401 303.188 430.491 302.184C428.581 301.179 425.512 300.204 421.275 299.259C414.495 297.683 408.585 295.251 403.557 291.992C398.528 288.723 396.004 283.347 396.004 275.863C396.004 271.226 397.172 267.041 399.498 263.299C401.824 259.557 405.16 256.604 409.506 254.447C413.851 252.291 418.939 251.208 424.76 251.208ZM116.104 329.774H94.4844V253.256H116.104V329.774ZM388.876 329.774H367.257V253.256H388.876V329.774ZM88.7236 239.973H60.9082V329.773H38.0225V239.973H10.2168V219.107H88.7236V239.973ZM362.205 239.973H321.799V267.169C328.372 263.476 336.202 261.635 345.318 261.635H352.792V282.814H346.278C329.965 282.814 321.799 289.718 321.799 303.522V329.764H298.913V219.107H362.205V239.973ZM484.499 260.532C490.22 254.526 497.793 251.523 507.227 251.522C513.898 251.522 519.808 252.97 524.945 255.875L524.965 255.865C530.102 258.76 534.073 262.796 536.884 267.956C539.685 273.125 541.091 279.024 541.091 285.66V329.764H519.472V289.609C519.472 284.026 517.878 279.545 514.7 276.168C511.523 272.801 507.286 271.107 501.98 271.107C496.675 271.107 492.448 272.791 489.271 276.168C486.093 279.545 484.499 284.026 484.499 289.609V329.764H462.881V219.107H484.499V260.532ZM172.893 251.509C179.782 251.509 185.741 253.015 190.77 256.019H190.789C195.818 259.022 199.688 263.108 202.391 268.268C205.093 273.437 206.439 279.227 206.439 285.656V329.76H184.82V289.605C184.82 283.806 183.207 279.276 179.97 276.007C176.733 272.738 172.526 271.104 167.339 271.104C162.152 271.104 157.935 272.738 154.708 276.007C151.471 279.276 149.858 283.806 149.858 289.605V329.76H128.239V253.242H149.215V261.464C155.045 254.827 162.934 251.509 172.893 251.509ZM290.124 253.267H290.11L290.114 253.256L290.124 253.267ZM105.354 218.84C108.264 218.84 110.659 219.874 112.777 221.941C114.896 224.009 115.965 226.491 115.965 229.396C115.965 232.3 114.925 234.801 112.847 236.908C110.768 239.015 108.274 240.079 105.354 240.079C102.433 240.079 99.9191 239.025 97.8008 236.908C95.6825 234.801 94.6133 232.29 94.6133 229.396C94.6133 226.501 95.6726 224.019 97.8008 221.941C99.919 219.874 102.443 218.84 105.354 218.84ZM378.124 218.84C381.034 218.84 383.431 219.874 385.549 221.941C387.667 224.009 388.736 226.491 388.736 229.396C388.736 232.3 387.697 234.801 385.618 236.908C383.539 239.015 381.044 240.079 378.124 240.079C375.204 240.079 372.69 239.025 370.571 236.908C368.453 234.801 367.385 232.29 367.385 229.396C367.385 226.501 368.443 224.019 370.571 221.941C372.69 219.874 375.214 218.84 378.124 218.84Z" fill="black"/>
<path d="M250.232 297.369L266.763 253.267H290.11L267.703 310.012C262.833 322.241 258.725 331.428 255.39 337.602C252.054 343.765 247.658 348.639 242.194 352.224C236.74 355.808 229.564 357.601 220.665 357.601C217.587 357.601 215.26 357.383 213.676 356.97V336.735C215.586 336.942 217.23 337.051 218.605 337.051C223.584 337.051 227.613 336.124 230.682 334.283C233.75 332.442 236.404 329.567 238.631 325.668L208.598 253.267H232.751L250.232 297.369ZM424.76 251.208C431.006 251.208 436.44 252.468 441.053 254.998C445.665 257.529 449.08 261.005 451.308 265.436L435.252 274.13C432.817 270.861 429.471 269.227 425.245 269.227C422.592 269.227 420.533 269.838 419.048 271.049C417.563 272.26 416.821 273.707 416.821 275.4C416.821 277.399 417.85 278.857 419.919 279.753C421.988 280.649 425.294 281.574 429.848 282.52C436.945 283.888 442.696 286.528 447.091 290.427C451.486 294.326 453.684 299.594 453.684 306.24C453.684 314.039 450.823 320.262 445.102 324.899C439.38 329.537 432.075 331.851 423.166 331.851C417.87 331.851 412.703 330.925 407.675 329.084L407.685 329.064C402.656 327.223 398.172 324.19 394.252 319.976L406.804 306.378C408.922 308.8 411.417 310.701 414.277 312.069C417.138 313.438 420.157 314.127 423.334 314.127C426.511 314.127 428.838 313.467 430.649 312.147C432.451 310.828 433.352 309.066 433.352 306.851C433.352 304.635 432.401 303.188 430.491 302.184C428.581 301.179 425.512 300.204 421.275 299.259C414.495 297.683 408.585 295.251 403.557 291.992C398.528 288.723 396.004 283.347 396.004 275.863C396.004 271.226 397.172 267.041 399.498 263.299C401.824 259.557 405.16 256.604 409.506 254.447C413.851 252.291 418.939 251.208 424.76 251.208ZM116.104 329.774H94.4844V253.256H116.104V329.774ZM388.876 329.774H367.257V253.256H388.876V329.774ZM88.7236 239.973H60.9082V329.773H38.0225V239.973H10.2168V219.107H88.7236V239.973ZM362.205 239.973H321.799V267.169C328.372 263.476 336.202 261.635 345.318 261.635H352.792V282.814H346.278C329.965 282.814 321.799 289.718 321.799 303.522V329.764H298.913V219.107H362.205V239.973ZM484.499 260.532C490.22 254.526 497.793 251.523 507.227 251.522C513.898 251.522 519.808 252.97 524.945 255.875L524.965 255.865C530.102 258.76 534.073 262.796 536.884 267.956C539.685 273.125 541.091 279.024 541.091 285.66V329.764H519.472V289.609C519.472 284.026 517.878 279.545 514.7 276.168C511.523 272.801 507.286 271.107 501.98 271.107C496.675 271.107 492.448 272.791 489.271 276.168C486.093 279.545 484.499 284.026 484.499 289.609V329.764H462.881V219.107H484.499V260.532ZM172.893 251.509C179.782 251.509 185.741 253.015 190.77 256.019H190.789C195.818 259.022 199.688 263.108 202.391 268.268C205.093 273.437 206.439 279.227 206.439 285.656V329.76H184.82V289.605C184.82 283.806 183.207 279.276 179.97 276.007C176.733 272.738 172.526 271.104 167.339 271.104C162.152 271.104 157.935 272.738 154.708 276.007C151.471 279.276 149.858 283.806 149.858 289.605V329.76H128.239V253.242H149.215V261.464C155.045 254.827 162.934 251.509 172.893 251.509ZM290.124 253.267H290.11L290.114 253.256L290.124 253.267ZM105.354 218.84C108.264 218.84 110.659 219.874 112.777 221.941C114.896 224.009 115.965 226.491 115.965 229.396C115.965 232.3 114.925 234.801 112.847 236.908C110.768 239.015 108.274 240.079 105.354 240.079C102.433 240.079 99.9191 239.025 97.8008 236.908C95.6825 234.801 94.6133 232.29 94.6133 229.396C94.6133 226.501 95.6726 224.019 97.8008 221.941C99.919 219.874 102.443 218.84 105.354 218.84ZM378.124 218.84C381.034 218.84 383.431 219.874 385.549 221.941C387.667 224.009 388.736 226.491 388.736 229.396C388.736 232.3 387.697 234.801 385.618 236.908C383.539 239.015 381.044 240.079 378.124 240.079C375.204 240.079 372.69 239.025 370.571 236.908C368.453 234.801 367.385 232.29 367.385 229.396C367.385 226.501 368.443 224.019 370.571 221.941C372.69 219.874 375.214 218.84 378.124 218.84Z" fill="black" fill-opacity="0.2"/>
<path d="M231.059 69.8121C225.749 59.795 214.009 41.7308 198.373 41.9214C176.755 42.1756 201.919 90.76 201.919 90.76C201.919 90.76 181.515 130.551 199.307 134.753C217.1 138.955 232.113 114.019 232.113 114.019" fill="#FF6700"/>
<path d="M317.414 153.709C326.077 145.234 328.771 133.984 323.431 128.582C318.09 123.18 306.737 125.67 298.074 134.145C289.41 142.62 286.716 153.87 292.057 159.272C297.397 164.674 308.75 162.183 317.414 153.709Z" fill="black"/>
<path d="M317.414 153.709C326.077 145.234 328.771 133.984 323.431 128.582C318.09 123.18 306.737 125.67 298.074 134.145C289.41 142.62 286.716 153.87 292.057 159.272C297.397 164.674 308.75 162.183 317.414 153.709Z" fill="black" fill-opacity="0.2"/>
<path d="M326.364 45.5747C326.364 45.5747 311.87 17.8826 279.974 5.49024C264.633 -0.46762 258.404 8.82664 267.245 20.5199C278.513 35.4146 235.804 6.08602 263.22 54.5592L326.372 45.5747H326.364Z" fill="#FF6700"/>
<path d="M302.125 34.5322L315.821 30.4888L292.414 11.511L270.805 3.63867L263.434 8.73066C263.434 8.73066 294.698 19.0894 302.125 34.5322Z" fill="#FECB8B"/>
<path d="M322.538 43.6202C321.86 44.5893 321.868 46.3846 322.475 47.2664L322.467 47.2346L322.419 47.1155C320.43 41.9123 317.252 37.2175 313.698 32.9278C305.672 23.5859 295.514 16.0393 284.31 10.9473C280.197 9.31085 275.198 6.95948 270.918 7.34873C265.982 7.60293 266.829 11.6146 268.642 14.8874C270.718 18.5972 275.861 22.7518 272.611 27.4069C269.784 31.2199 264.186 29.2816 260.504 29.5199C259.402 29.5358 258.587 29.8377 258.651 29.8933C258.659 29.9171 258.787 29.7979 258.795 29.79C258.42 33.1979 260.376 37.2969 261.702 40.6015C262.117 41.5707 262.964 43.5328 263.411 44.494C264.593 47.1075 265.823 49.7449 266.965 52.4616L262.612 50.3248C282.713 47.3776 302.19 45.5108 322.546 43.6202H322.538ZM330.189 47.5285C308.459 51.6514 285.827 55.7504 263.794 58.7929C261.997 59.0471 260.296 58.1335 259.466 56.648C254.898 50.1262 251.129 42.9926 249.444 35.0567C247.208 23.2522 254.331 18.7243 265.368 20.6626C266.07 20.7499 266.749 20.8214 267.14 20.8294C267.316 20.8453 267.428 20.8056 267.132 20.885C265.807 21.2742 264.737 22.6962 264.737 24.0863C264.713 24.3564 264.761 24.6662 264.848 24.9046C263.858 22.8948 262.085 20.9168 261.135 18.6687C259.442 15.0701 258.396 11.0108 259.865 6.85622C263.084 -1.7231 273.928 -0.904889 280.756 2.08198C282.889 2.97169 285.077 4.06794 287.169 5.00531C289.054 6.08567 291.449 7.27724 293.286 8.40526L297.223 10.8837C307.573 17.7233 316.254 26.676 324.176 36.1133C325.677 37.8371 327.21 39.8071 328.648 41.5945L329.398 42.5478L329.774 43.0403L329.869 43.1674C330.66 44.3431 330.764 46.2416 330.197 47.5206L330.189 47.5285Z" fill="black"/>
<path d="M322.538 43.6202C321.86 44.5893 321.868 46.3846 322.475 47.2664L322.467 47.2346L322.419 47.1155C320.43 41.9123 317.252 37.2175 313.698 32.9278C305.672 23.5859 295.514 16.0393 284.31 10.9473C280.197 9.31085 275.198 6.95948 270.918 7.34873C265.982 7.60293 266.829 11.6146 268.642 14.8874C270.718 18.5972 275.861 22.7518 272.611 27.4069C269.784 31.2199 264.186 29.2816 260.504 29.5199C259.402 29.5358 258.587 29.8377 258.651 29.8933C258.659 29.9171 258.787 29.7979 258.795 29.79C258.42 33.1979 260.376 37.2969 261.702 40.6015C262.117 41.5707 262.964 43.5328 263.411 44.494C264.593 47.1075 265.823 49.7449 266.965 52.4616L262.612 50.3248C282.713 47.3776 302.19 45.5108 322.546 43.6202H322.538ZM330.189 47.5285C308.459 51.6514 285.827 55.7504 263.794 58.7929C261.997 59.0471 260.296 58.1335 259.466 56.648C254.898 50.1262 251.129 42.9926 249.444 35.0567C247.208 23.2522 254.331 18.7243 265.368 20.6626C266.07 20.7499 266.749 20.8214 267.14 20.8294C267.316 20.8453 267.428 20.8056 267.132 20.885C265.807 21.2742 264.737 22.6962 264.737 24.0863C264.713 24.3564 264.761 24.6662 264.848 24.9046C263.858 22.8948 262.085 20.9168 261.135 18.6687C259.442 15.0701 258.396 11.0108 259.865 6.85622C263.084 -1.7231 273.928 -0.904889 280.756 2.08198C282.889 2.97169 285.077 4.06794 287.169 5.00531C289.054 6.08567 291.449 7.27724 293.286 8.40526L297.223 10.8837C307.573 17.7233 316.254 26.676 324.176 36.1133C325.677 37.8371 327.21 39.8071 328.648 41.5945L329.398 42.5478L329.774 43.0403L329.869 43.1674C330.66 44.3431 330.764 46.2416 330.197 47.5206L330.189 47.5285Z" fill="black" fill-opacity="0.2"/>
<path d="M232.105 114.01L232.305 110.332C245.409 127.181 271.132 142.981 296.918 142.981C333.741 142.981 363.592 118.157 363.592 87.5414C363.592 56.926 333.741 32.1016 296.918 32.1016C271.819 32.1016 244.14 51.1667 231.051 69.8188" fill="#FECB8B"/>
<path d="M294.438 131.012C301.146 134.61 315.472 136.08 326.173 133.792C335.924 131.703 316.151 145.326 295.38 144.723L294.445 131.012H294.438Z" fill="#FF6700"/>
<path d="M222.315 77.2776C212.349 55.6704 197.567 48.0443 193.957 57.4339C191.737 23.7601 220.654 55.0667 226.348 68.0548L222.315 77.2776Z" fill="#FECB8B"/>
<path d="M201.631 130.841C216.325 130.365 222.825 107.669 222.769 100.258L231.019 113.294C221.923 125.471 212.212 132.12 201.631 130.841Z" fill="black"/>
<path d="M201.631 130.841C216.325 130.365 222.825 107.669 222.769 100.258L231.019 113.294C221.923 125.471 212.212 132.12 201.631 130.841Z" fill="black" fill-opacity="0.2"/>
<path d="M228.242 98.3544C231.109 101.182 222.356 85.97 227.236 76.0244C252.263 25.0648 307.286 32.6115 302.119 34.5339C259.355 50.4612 255.322 96.2255 276.596 125.244L261.543 131.83C254.004 132.767 225.75 108.864 228.234 98.3624L228.242 98.3544Z" fill="#FF6700"/>
<path d="M235.796 116.212C228.209 127.881 215.679 141.163 200.338 139.289C194.844 138.606 190.244 135.388 188.599 129.637C185.205 117.554 192.856 99.7206 198.086 88.8137C198.086 88.8137 198.094 92.73 198.086 92.7141C192.456 80.8937 183.664 61.058 186.124 48.0063C188.216 37.7588 198.166 36.607 206.512 39.5065C215.504 42.7158 221.964 49.6507 227.283 57.0146C229.83 60.6132 232.074 64.3626 234.087 68.2233C236.027 72.2747 230.27 75.2536 228.034 71.4009C222.491 61.5505 215.088 50.5166 204.124 46.5844C200.913 45.512 196.609 45.3849 195.355 46.5685C191.434 50.1988 194.788 61.3996 196.234 66.2374C198.693 73.9191 202.063 81.6404 205.737 88.8058C206.392 90.0768 206.352 91.5225 205.745 92.7062C202.598 99.085 199.795 105.988 197.943 112.844C196.777 117.61 194.557 126.642 198.645 129.915C200.77 131.091 203.421 131.107 205.833 130.725C213.883 129.192 220.479 122.416 225.454 116.053C226.476 114.718 227.562 113.185 228.441 111.771C231.547 107.037 238.583 111.271 235.788 116.212H235.796Z" fill="black"/>
<path d="M235.796 116.212C228.209 127.881 215.679 141.163 200.338 139.289C194.844 138.606 190.244 135.388 188.599 129.637C185.205 117.554 192.856 99.7206 198.086 88.8137C198.086 88.8137 198.094 92.73 198.086 92.7141C192.456 80.8937 183.664 61.058 186.124 48.0063C188.216 37.7588 198.166 36.607 206.512 39.5065C215.504 42.7158 221.964 49.6507 227.283 57.0146C229.83 60.6132 232.074 64.3626 234.087 68.2233C236.027 72.2747 230.27 75.2536 228.034 71.4009C222.491 61.5505 215.088 50.5166 204.124 46.5844C200.913 45.512 196.609 45.3849 195.355 46.5685C191.434 50.1988 194.788 61.3996 196.234 66.2374C198.693 73.9191 202.063 81.6404 205.737 88.8058C206.392 90.0768 206.352 91.5225 205.745 92.7062C202.598 99.085 199.795 105.988 197.943 112.844C196.777 117.61 194.557 126.642 198.645 129.915C200.77 131.091 203.421 131.107 205.833 130.725C213.883 129.192 220.479 122.416 225.454 116.053C226.476 114.718 227.562 113.185 228.441 111.771C231.547 107.037 238.583 111.271 235.788 116.212H235.796Z" fill="black" fill-opacity="0.2"/>
<path d="M223.817 74.2441C236.563 51.4375 264.617 31.9513 290.723 28.8929C318.338 26.4304 348.469 39.6727 361.238 64.9976C377.042 97.1064 356.63 130.955 324.863 142.569C313.962 146.66 302.183 148.209 290.603 147.248C269.129 144.968 248.941 134.212 234.438 118.444C233.241 117.228 231.683 115.179 230.589 113.86C227.483 109.888 224.911 105.543 222.963 100.808C222.3 99.2513 223.035 97.456 224.6 96.7966C226.093 96.1691 227.802 96.7966 228.529 98.2106C231.755 104.518 236.435 110.23 241.849 115.155C257.566 129.462 279.223 139.423 300.785 138.295C328.736 137.389 359.681 118.467 360.512 88.2491C361.246 57.6178 330.708 37.0592 302.302 35.7961C287.848 34.5092 273.617 39.633 261.135 47.2908C248.957 54.9248 237.449 65.2518 230.645 77.8506C228.122 82.2753 221.557 78.8277 223.833 74.2521L223.817 74.2441Z" fill="black"/>
<path d="M223.817 74.2441C236.563 51.4375 264.617 31.9513 290.723 28.8929C318.338 26.4304 348.469 39.6727 361.238 64.9976C377.042 97.1064 356.63 130.955 324.863 142.569C313.962 146.66 302.183 148.209 290.603 147.248C269.129 144.968 248.941 134.212 234.438 118.444C233.241 117.228 231.683 115.179 230.589 113.86C227.483 109.888 224.911 105.543 222.963 100.808C222.3 99.2513 223.035 97.456 224.6 96.7966C226.093 96.1691 227.802 96.7966 228.529 98.2106C231.755 104.518 236.435 110.23 241.849 115.155C257.566 129.462 279.223 139.423 300.785 138.295C328.736 137.389 359.681 118.467 360.512 88.2491C361.246 57.6178 330.708 37.0592 302.302 35.7961C287.848 34.5092 273.617 39.633 261.135 47.2908C248.957 54.9248 237.449 65.2518 230.645 77.8506C228.122 82.2753 221.557 78.8277 223.833 74.2521L223.817 74.2441Z" fill="black" fill-opacity="0.2"/>
<path d="M283.146 156.104C293.893 148.966 298.949 137.731 294.437 131.01C289.926 124.289 277.557 124.627 266.809 131.765C256.062 138.903 251.007 150.138 255.518 156.859C260.029 163.58 272.398 163.242 283.146 156.104Z" fill="#FECB8B"/>
<path d="M295.122 134.794C294.316 133.126 292.966 129.599 291.329 128.59C293.046 135.445 286.745 145.486 276.427 150.451C267.866 154.566 259.753 151.095 257.062 143.461C257.213 144.064 254.219 153.772 254.49 154.336C257.9 161.35 269.759 162.661 280.971 157.267C292.191 151.873 298.524 141.808 295.114 134.794H295.122Z" fill="#FF6700"/>
<path d="M277.458 128.096C270.95 132.521 264.409 137.653 260.807 144.429C258.044 149.783 257.238 155.916 264.713 156.877C270.007 157.528 275.605 155.669 280.261 153.064C285.18 150.339 289.054 146.01 291.114 140.759C292.368 137.359 292.903 133.411 291.361 130.051C290.914 129.208 291.274 128.152 292.144 127.755C294.843 126.5 296.84 133.188 297.039 135.031C298.054 142.363 295.067 149.68 290.227 155.153C281.515 164.908 261.758 172.137 251.911 160.158C244.333 149.282 253.74 135.579 263.211 129.749C267.14 127.207 271.389 125.395 275.749 124.267C276.891 123.974 278.057 124.657 278.352 125.793C278.584 126.698 278.201 127.612 277.458 128.096Z" fill="black"/>
<path d="M277.458 128.096C270.95 132.521 264.409 137.653 260.807 144.429C258.044 149.783 257.238 155.916 264.713 156.877C270.007 157.528 275.605 155.669 280.261 153.064C285.18 150.339 289.054 146.01 291.114 140.759C292.368 137.359 292.903 133.411 291.361 130.051C290.914 129.208 291.274 128.152 292.144 127.755C294.843 126.5 296.84 133.188 297.039 135.031C298.054 142.363 295.067 149.68 290.227 155.153C281.515 164.908 261.758 172.137 251.911 160.158C244.333 149.282 253.74 135.579 263.211 129.749C267.14 127.207 271.389 125.395 275.749 124.267C276.891 123.974 278.057 124.657 278.352 125.793C278.584 126.698 278.201 127.612 277.458 128.096Z" fill="black" fill-opacity="0.2"/>
<path d="M311.788 86.8707C315.955 85.6977 317.736 79.1309 315.765 72.2035C313.795 65.276 308.819 60.6111 304.651 61.7842C300.484 62.9573 298.703 69.524 300.674 76.4515C302.644 83.3789 307.62 88.0438 311.788 86.8707Z" fill="black"/>
<path d="M311.788 86.8707C315.955 85.6977 317.736 79.1309 315.765 72.2035C313.795 65.276 308.819 60.6111 304.651 61.7842C300.484 62.9573 298.703 69.524 300.674 76.4515C302.644 83.3789 307.62 88.0438 311.788 86.8707Z" fill="black" fill-opacity="0.2"/>
<path d="M302.641 80.0798C304.271 79.6211 305.035 77.2917 304.348 74.8771C303.661 72.4624 301.783 70.8767 300.154 71.3354C298.524 71.7942 297.76 74.1235 298.447 76.5382C299.134 78.9529 301.012 80.5385 302.641 80.0798Z" fill="white"/>
<path d="M333.925 81.9048C337.842 80.8023 339.517 74.6314 337.665 68.1219C335.813 61.6123 331.137 57.2291 327.219 58.3317C323.302 59.4343 321.628 65.6051 323.48 72.1147C325.332 78.6242 330.008 83.0074 333.925 81.9048Z" fill="black"/>
<path d="M333.925 81.9048C337.842 80.8023 339.517 74.6314 337.665 68.1219C335.813 61.6123 331.137 57.2291 327.219 58.3317C323.302 59.4343 321.628 65.6051 323.48 72.1147C325.332 78.6242 330.008 83.0074 333.925 81.9048Z" fill="black" fill-opacity="0.2"/>
<path d="M325.327 75.5219C326.859 75.0907 327.577 72.8999 326.931 70.6288C326.285 68.3576 324.519 66.8661 322.987 67.2973C321.455 67.7285 320.737 69.9193 321.383 72.1904C322.029 74.4616 323.794 75.9531 325.327 75.5219Z" fill="white"/>
<path d="M305.656 101.087C305.656 101.087 305.752 115.123 316.916 114.035C333.735 112.391 350.13 80.8776 319.336 97.6231C311.174 102.064 305.664 101.087 305.664 101.087H305.656Z" fill="black"/>
<path d="M305.656 101.087C305.656 101.087 305.752 115.123 316.916 114.035C333.735 112.391 350.13 80.8776 319.336 97.6231C311.174 102.064 305.664 101.087 305.664 101.087H305.656Z" fill="black" fill-opacity="0.2"/>
</svg>
