<svg width="149" height="138" viewBox="0 0 149 138" fill="none" xmlns="http://www.w3.org/2000/svg">
<path d="M37.3802 57.6892C33.0402 49.4492 23.4302 34.5992 10.6402 34.7492C-7.03978 34.9592 13.5402 74.9192 13.5402 74.9192C13.5402 74.9192 -3.14978 107.639 11.4002 111.099C25.9602 114.559 38.2403 94.0492 38.2403 94.0492" fill="#FF6700"/>
<path d="M108.02 126.689C115.11 119.719 117.31 110.469 112.94 106.029C108.57 101.589 99.2803 103.639 92.2003 110.609C85.1103 117.579 82.9103 126.829 87.2803 131.269C91.6503 135.709 100.94 133.659 108.02 126.689Z" fill="black"/>
<path d="M108.02 126.689C115.11 119.719 117.31 110.469 112.94 106.029C108.57 101.589 99.2803 103.639 92.2003 110.609C85.1103 117.579 82.9103 126.829 87.2803 131.269C91.6503 135.709 100.94 133.659 108.02 126.689Z" fill="black" fill-opacity="0.2"/>
<path d="M115.35 37.7582C115.35 37.7582 103.49 14.9882 77.4001 4.78818C64.8501 -0.111815 59.7501 7.52819 66.9901 17.1482C76.2101 29.3982 41.2701 5.27818 63.7001 45.1382L115.36 37.7482L115.35 37.7582Z" fill="#FF6700"/>
<path d="M95.5203 28.6793L106.72 25.3593L87.5703 9.7493L69.8903 3.2793L63.8604 7.4693C63.8604 7.4693 89.4403 15.9893 95.5103 28.6893L95.5203 28.6793Z" fill="#FECB8B"/>
<path d="M112.22 36.1487C111.67 36.9487 111.67 38.4187 112.17 39.1487V39.1187L112.12 39.0187C110.49 34.7387 107.89 30.8787 104.99 27.3487C98.4202 19.6687 90.1101 13.4587 80.9501 9.26873C77.5901 7.91873 73.5002 5.98873 69.9902 6.30873C65.9502 6.51873 66.6501 9.81874 68.1301 12.5087C69.8301 15.5587 74.0401 18.9787 71.3801 22.8087C69.0701 25.9487 64.4902 24.3487 61.4802 24.5487C60.5802 24.5587 59.9101 24.8087 59.9601 24.8587C59.9601 24.8787 60.0701 24.7787 60.0801 24.7687C59.7701 27.5687 61.3701 30.9387 62.4601 33.6587C62.8001 34.4587 63.4902 36.0687 63.8602 36.8587C64.8302 39.0087 65.8301 41.1787 66.7701 43.4087L63.2101 41.6487C79.6501 39.2287 95.5902 37.6887 112.24 36.1387L112.22 36.1487ZM118.47 39.3687C100.69 42.7587 82.1801 46.1287 64.1501 48.6287C62.6801 48.8387 61.2902 48.0887 60.6102 46.8687C56.8702 41.5087 53.7901 35.6387 52.4101 29.1087C50.5801 19.3987 56.4101 15.6787 65.4401 17.2687C66.0101 17.3387 66.5701 17.3987 66.8901 17.4087C67.0301 17.4187 67.1301 17.3887 66.8901 17.4587C65.8101 17.7787 64.9301 18.9487 64.9301 20.0887C64.9101 20.3087 64.9501 20.5687 65.0201 20.7587C64.2101 19.1087 62.7602 17.4787 61.9802 15.6287C60.5902 12.6687 59.7401 9.32873 60.9401 5.91873C63.5701 -1.14127 72.4401 -0.461265 78.0301 1.98873C79.7701 2.71873 81.5601 3.61873 83.2801 4.38873C84.8201 5.27873 86.7801 6.25873 88.2801 7.18873L91.5001 9.22874C99.9701 14.8487 107.07 22.2187 113.55 29.9787C114.78 31.3987 116.03 33.0187 117.21 34.4887L117.82 35.2687L118.13 35.6687L118.21 35.7687C118.86 36.7387 118.94 38.2987 118.48 39.3487L118.47 39.3687Z" fill="black"/>
<path d="M112.22 36.1487C111.67 36.9487 111.67 38.4187 112.17 39.1487V39.1187L112.12 39.0187C110.49 34.7387 107.89 30.8787 104.99 27.3487C98.4202 19.6687 90.1101 13.4587 80.9501 9.26873C77.5901 7.91873 73.5002 5.98873 69.9902 6.30873C65.9502 6.51873 66.6501 9.81874 68.1301 12.5087C69.8301 15.5587 74.0401 18.9787 71.3801 22.8087C69.0701 25.9487 64.4902 24.3487 61.4802 24.5487C60.5802 24.5587 59.9101 24.8087 59.9601 24.8587C59.9601 24.8787 60.0701 24.7787 60.0801 24.7687C59.7701 27.5687 61.3701 30.9387 62.4601 33.6587C62.8001 34.4587 63.4902 36.0687 63.8602 36.8587C64.8302 39.0087 65.8301 41.1787 66.7701 43.4087L63.2101 41.6487C79.6501 39.2287 95.5902 37.6887 112.24 36.1387L112.22 36.1487ZM118.47 39.3687C100.69 42.7587 82.1801 46.1287 64.1501 48.6287C62.6801 48.8387 61.2902 48.0887 60.6102 46.8687C56.8702 41.5087 53.7901 35.6387 52.4101 29.1087C50.5801 19.3987 56.4101 15.6787 65.4401 17.2687C66.0101 17.3387 66.5701 17.3987 66.8901 17.4087C67.0301 17.4187 67.1301 17.3887 66.8901 17.4587C65.8101 17.7787 64.9301 18.9487 64.9301 20.0887C64.9101 20.3087 64.9501 20.5687 65.0201 20.7587C64.2101 19.1087 62.7602 17.4787 61.9802 15.6287C60.5902 12.6687 59.7401 9.32873 60.9401 5.91873C63.5701 -1.14127 72.4401 -0.461265 78.0301 1.98873C79.7701 2.71873 81.5601 3.61873 83.2801 4.38873C84.8201 5.27873 86.7801 6.25873 88.2801 7.18873L91.5001 9.22874C99.9701 14.8487 107.07 22.2187 113.55 29.9787C114.78 31.3987 116.03 33.0187 117.21 34.4887L117.82 35.2687L118.13 35.6687L118.21 35.7687C118.86 36.7387 118.94 38.2987 118.48 39.3487L118.47 39.3687Z" fill="black" fill-opacity="0.2"/>
<path d="M112.22 36.1487C111.67 36.9487 111.67 38.4187 112.17 39.1487V39.1187L112.12 39.0187C110.49 34.7387 107.89 30.8787 104.99 27.3487C98.4202 19.6687 90.1101 13.4587 80.9501 9.26873C77.5901 7.91873 73.5002 5.98873 69.9902 6.30873C65.9502 6.51873 66.6501 9.81874 68.1301 12.5087C69.8301 15.5587 74.0401 18.9787 71.3801 22.8087C69.0701 25.9487 64.4902 24.3487 61.4802 24.5487C60.5802 24.5587 59.9101 24.8087 59.9601 24.8587C59.9601 24.8787 60.0701 24.7787 60.0801 24.7687C59.7701 27.5687 61.3701 30.9387 62.4601 33.6587C62.8001 34.4587 63.4902 36.0687 63.8602 36.8587C64.8302 39.0087 65.8301 41.1787 66.7701 43.4087L63.2101 41.6487C79.6501 39.2287 95.5902 37.6887 112.24 36.1387L112.22 36.1487ZM118.47 39.3687C100.69 42.7587 82.1801 46.1287 64.1501 48.6287C62.6801 48.8387 61.2902 48.0887 60.6102 46.8687C56.8702 41.5087 53.7901 35.6387 52.4101 29.1087C50.5801 19.3987 56.4101 15.6787 65.4401 17.2687C66.0101 17.3387 66.5701 17.3987 66.8901 17.4087C67.0301 17.4187 67.1301 17.3887 66.8901 17.4587C65.8101 17.7787 64.9301 18.9487 64.9301 20.0887C64.9101 20.3087 64.9501 20.5687 65.0201 20.7587C64.2101 19.1087 62.7602 17.4787 61.9802 15.6287C60.5902 12.6687 59.7401 9.32873 60.9401 5.91873C63.5701 -1.14127 72.4401 -0.461265 78.0301 1.98873C79.7701 2.71873 81.5601 3.61873 83.2801 4.38873C84.8201 5.27873 86.7801 6.25873 88.2801 7.18873L91.5001 9.22874C99.9701 14.8487 107.07 22.2187 113.55 29.9787C114.78 31.3987 116.03 33.0187 117.21 34.4887L117.82 35.2687L118.13 35.6687L118.21 35.7687C118.86 36.7387 118.94 38.2987 118.48 39.3487L118.47 39.3687Z" fill="black"/>
<path d="M112.22 36.1487C111.67 36.9487 111.67 38.4187 112.17 39.1487V39.1187L112.12 39.0187C110.49 34.7387 107.89 30.8787 104.99 27.3487C98.4202 19.6687 90.1101 13.4587 80.9501 9.26873C77.5901 7.91873 73.5002 5.98873 69.9902 6.30873C65.9502 6.51873 66.6501 9.81874 68.1301 12.5087C69.8301 15.5587 74.0401 18.9787 71.3801 22.8087C69.0701 25.9487 64.4902 24.3487 61.4802 24.5487C60.5802 24.5587 59.9101 24.8087 59.9601 24.8587C59.9601 24.8787 60.0701 24.7787 60.0801 24.7687C59.7701 27.5687 61.3701 30.9387 62.4601 33.6587C62.8001 34.4587 63.4902 36.0687 63.8602 36.8587C64.8302 39.0087 65.8301 41.1787 66.7701 43.4087L63.2101 41.6487C79.6501 39.2287 95.5902 37.6887 112.24 36.1387L112.22 36.1487ZM118.47 39.3687C100.69 42.7587 82.1801 46.1287 64.1501 48.6287C62.6801 48.8387 61.2902 48.0887 60.6102 46.8687C56.8702 41.5087 53.7901 35.6387 52.4101 29.1087C50.5801 19.3987 56.4101 15.6787 65.4401 17.2687C66.0101 17.3387 66.5701 17.3987 66.8901 17.4087C67.0301 17.4187 67.1301 17.3887 66.8901 17.4587C65.8101 17.7787 64.9301 18.9487 64.9301 20.0887C64.9101 20.3087 64.9501 20.5687 65.0201 20.7587C64.2101 19.1087 62.7602 17.4787 61.9802 15.6287C60.5902 12.6687 59.7401 9.32873 60.9401 5.91873C63.5701 -1.14127 72.4401 -0.461265 78.0301 1.98873C79.7701 2.71873 81.5601 3.61873 83.2801 4.38873C84.8201 5.27873 86.7801 6.25873 88.2801 7.18873L91.5001 9.22874C99.9701 14.8487 107.07 22.2187 113.55 29.9787C114.78 31.3987 116.03 33.0187 117.21 34.4887L117.82 35.2687L118.13 35.6687L118.21 35.7687C118.86 36.7387 118.94 38.2987 118.48 39.3487L118.47 39.3687Z" fill="black" fill-opacity="0.2"/>
<path d="M38.2404 94.0395L38.4004 91.0195C49.1204 104.879 70.1604 117.869 91.2604 117.869C121.38 117.869 145.8 97.4494 145.8 72.2794C145.8 47.1094 121.38 26.6895 91.2604 26.6895C70.7304 26.6895 48.0804 42.3695 37.3804 57.7095" fill="#FECB8B"/>
<path d="M89.2305 108.02C94.7205 110.98 106.44 112.19 115.19 110.31C123.17 108.59 106.99 119.8 90.0004 119.3L89.2405 108.02H89.2305Z" fill="#FF6700"/>
<path d="M30.2303 63.829C22.0803 46.059 9.98029 39.789 7.03029 47.509C5.21029 19.819 28.8703 45.559 33.5303 56.239L30.2303 63.829Z" fill="#FECB8B"/>
<path d="M13.3101 107.879C25.3301 107.489 30.6501 88.8185 30.6001 82.7285L37.3501 93.4485C29.9101 103.469 21.9601 108.929 13.3101 107.879Z" fill="black"/>
<path d="M13.3101 107.879C25.3301 107.489 30.6501 88.8185 30.6001 82.7285L37.3501 93.4485C29.9101 103.469 21.9601 108.929 13.3101 107.879Z" fill="black" fill-opacity="0.2"/>
<path d="M13.3101 107.879C25.3301 107.489 30.6501 88.8185 30.6001 82.7285L37.3501 93.4485C29.9101 103.469 21.9601 108.929 13.3101 107.879Z" fill="black"/>
<path d="M13.3101 107.879C25.3301 107.489 30.6501 88.8185 30.6001 82.7285L37.3501 93.4485C29.9101 103.469 21.9601 108.929 13.3101 107.879Z" fill="black" fill-opacity="0.2"/>
<path d="M35.07 81.168C37.42 83.498 30.25 70.978 34.25 62.808C54.72 20.898 99.74 27.108 95.51 28.688C60.53 41.788 57.23 79.428 74.63 103.288L62.32 108.708C56.15 109.478 33.04 89.818 35.07 81.188V81.168Z" fill="#FF6700"/>
<path d="M41.2502 95.8478C35.0402 105.448 24.7903 116.368 12.2403 114.828C7.74027 114.268 3.98023 111.618 2.64023 106.888C-0.139766 96.9478 6.12024 82.2878 10.4002 73.3178C10.4002 73.3178 10.4002 76.5378 10.4002 76.5278C5.79024 66.8078 -1.39973 50.4978 0.610266 39.7578C2.32027 31.3278 10.4603 30.3878 17.2903 32.7678C24.6503 35.4078 29.9303 41.1078 34.2803 47.1678C36.3603 50.1278 38.2003 53.2078 39.8503 56.3878C41.4403 59.7178 36.7302 62.1678 34.9002 58.9978C30.3702 50.8978 24.3102 41.8278 15.3402 38.5878C12.7102 37.7078 9.19026 37.5978 8.17026 38.5778C4.96026 41.5678 7.71023 50.7778 8.89023 54.7578C10.9002 61.0778 13.6603 67.4278 16.6603 73.3178C17.2003 74.3578 17.1603 75.5478 16.6603 76.5278C14.0903 81.7778 11.7902 87.4478 10.2802 93.0878C9.33025 97.0078 7.51026 104.438 10.8503 107.128C12.5903 108.098 14.7603 108.108 16.7303 107.798C23.3203 106.538 28.7103 100.968 32.7803 95.7278C33.6203 94.6278 34.5003 93.3678 35.2203 92.2078C37.7603 88.3178 43.5203 91.7978 41.2303 95.8578L41.2502 95.8478Z" fill="black"/>
<path d="M41.2502 95.8478C35.0402 105.448 24.7903 116.368 12.2403 114.828C7.74027 114.268 3.98023 111.618 2.64023 106.888C-0.139766 96.9478 6.12024 82.2878 10.4002 73.3178C10.4002 73.3178 10.4002 76.5378 10.4002 76.5278C5.79024 66.8078 -1.39973 50.4978 0.610266 39.7578C2.32027 31.3278 10.4603 30.3878 17.2903 32.7678C24.6503 35.4078 29.9303 41.1078 34.2803 47.1678C36.3603 50.1278 38.2003 53.2078 39.8503 56.3878C41.4403 59.7178 36.7302 62.1678 34.9002 58.9978C30.3702 50.8978 24.3102 41.8278 15.3402 38.5878C12.7102 37.7078 9.19026 37.5978 8.17026 38.5778C4.96026 41.5678 7.71023 50.7778 8.89023 54.7578C10.9002 61.0778 13.6603 67.4278 16.6603 73.3178C17.2003 74.3578 17.1603 75.5478 16.6603 76.5278C14.0903 81.7778 11.7902 87.4478 10.2802 93.0878C9.33025 97.0078 7.51026 104.438 10.8503 107.128C12.5903 108.098 14.7603 108.108 16.7303 107.798C23.3203 106.538 28.7103 100.968 32.7803 95.7278C33.6203 94.6278 34.5003 93.3678 35.2203 92.2078C37.7603 88.3178 43.5203 91.7978 41.2303 95.8578L41.2502 95.8478Z" fill="black" fill-opacity="0.2"/>
<path d="M41.2502 95.8478C35.0402 105.448 24.7903 116.368 12.2403 114.828C7.74027 114.268 3.98023 111.618 2.64023 106.888C-0.139766 96.9478 6.12024 82.2878 10.4002 73.3178C10.4002 73.3178 10.4002 76.5378 10.4002 76.5278C5.79024 66.8078 -1.39973 50.4978 0.610266 39.7578C2.32027 31.3278 10.4603 30.3878 17.2903 32.7678C24.6503 35.4078 29.9303 41.1078 34.2803 47.1678C36.3603 50.1278 38.2003 53.2078 39.8503 56.3878C41.4403 59.7178 36.7302 62.1678 34.9002 58.9978C30.3702 50.8978 24.3102 41.8278 15.3402 38.5878C12.7102 37.7078 9.19026 37.5978 8.17026 38.5778C4.96026 41.5678 7.71023 50.7778 8.89023 54.7578C10.9002 61.0778 13.6603 67.4278 16.6603 73.3178C17.2003 74.3578 17.1603 75.5478 16.6603 76.5278C14.0903 81.7778 11.7902 87.4478 10.2802 93.0878C9.33025 97.0078 7.51026 104.438 10.8503 107.128C12.5903 108.098 14.7603 108.108 16.7303 107.798C23.3203 106.538 28.7103 100.968 32.7803 95.7278C33.6203 94.6278 34.5003 93.3678 35.2203 92.2078C37.7603 88.3178 43.5203 91.7978 41.2303 95.8578L41.2502 95.8478Z" fill="black"/>
<path d="M41.2502 95.8478C35.0402 105.448 24.7903 116.368 12.2403 114.828C7.74027 114.268 3.98023 111.618 2.64023 106.888C-0.139766 96.9478 6.12024 82.2878 10.4002 73.3178C10.4002 73.3178 10.4002 76.5378 10.4002 76.5278C5.79024 66.8078 -1.39973 50.4978 0.610266 39.7578C2.32027 31.3278 10.4603 30.3878 17.2903 32.7678C24.6503 35.4078 29.9303 41.1078 34.2803 47.1678C36.3603 50.1278 38.2003 53.2078 39.8503 56.3878C41.4403 59.7178 36.7302 62.1678 34.9002 58.9978C30.3702 50.8978 24.3102 41.8278 15.3402 38.5878C12.7102 37.7078 9.19026 37.5978 8.17026 38.5778C4.96026 41.5678 7.71023 50.7778 8.89023 54.7578C10.9002 61.0778 13.6603 67.4278 16.6603 73.3178C17.2003 74.3578 17.1603 75.5478 16.6603 76.5278C14.0903 81.7778 11.7902 87.4478 10.2802 93.0878C9.33025 97.0078 7.51026 104.438 10.8503 107.128C12.5903 108.098 14.7603 108.108 16.7303 107.798C23.3203 106.538 28.7103 100.968 32.7803 95.7278C33.6203 94.6278 34.5003 93.3678 35.2203 92.2078C37.7603 88.3178 43.5203 91.7978 41.2303 95.8578L41.2502 95.8478Z" fill="black" fill-opacity="0.2"/>
<path d="M31.4504 61.3393C41.8804 42.5793 64.8304 26.5593 86.1804 24.0393C108.77 22.0093 133.42 32.9093 143.87 53.7293C156.8 80.1393 140.1 107.969 114.11 117.519C105.19 120.879 95.5604 122.159 86.0804 121.369C68.5104 119.499 52.0004 110.649 40.1304 97.6793C39.1504 96.6793 37.8804 94.9893 36.9804 93.9093C34.4404 90.6393 32.3404 87.0693 30.7404 83.1793C30.2004 81.8993 30.8004 80.4193 32.0804 79.8793C33.3004 79.3593 34.7004 79.8793 35.2904 81.0393C37.9304 86.2293 41.7604 90.9193 46.1904 94.9693C59.0504 106.739 76.7704 114.929 94.4004 113.999C117.27 113.249 142.58 97.6893 143.26 72.8393C143.86 47.6493 118.88 30.7393 95.6404 29.6993C83.8204 28.6393 72.1704 32.8493 61.9604 39.1493C52.0004 45.4293 42.5804 53.9193 37.0204 64.2793C34.9604 67.9193 29.5904 65.0793 31.4504 61.3193H31.4404L31.4504 61.3393Z" fill="black"/>
<path d="M31.4504 61.3393C41.8804 42.5793 64.8304 26.5593 86.1804 24.0393C108.77 22.0093 133.42 32.9093 143.87 53.7293C156.8 80.1393 140.1 107.969 114.11 117.519C105.19 120.879 95.5604 122.159 86.0804 121.369C68.5104 119.499 52.0004 110.649 40.1304 97.6793C39.1504 96.6793 37.8804 94.9893 36.9804 93.9093C34.4404 90.6393 32.3404 87.0693 30.7404 83.1793C30.2004 81.8993 30.8004 80.4193 32.0804 79.8793C33.3004 79.3593 34.7004 79.8793 35.2904 81.0393C37.9304 86.2293 41.7604 90.9193 46.1904 94.9693C59.0504 106.739 76.7704 114.929 94.4004 113.999C117.27 113.249 142.58 97.6893 143.26 72.8393C143.86 47.6493 118.88 30.7393 95.6404 29.6993C83.8204 28.6393 72.1704 32.8493 61.9604 39.1493C52.0004 45.4293 42.5804 53.9193 37.0204 64.2793C34.9604 67.9193 29.5904 65.0793 31.4504 61.3193H31.4404L31.4504 61.3393Z" fill="black" fill-opacity="0.2"/>
<path d="M31.4504 61.3393C41.8804 42.5793 64.8304 26.5593 86.1804 24.0393C108.77 22.0093 133.42 32.9093 143.87 53.7293C156.8 80.1393 140.1 107.969 114.11 117.519C105.19 120.879 95.5604 122.159 86.0804 121.369C68.5104 119.499 52.0004 110.649 40.1304 97.6793C39.1504 96.6793 37.8804 94.9893 36.9804 93.9093C34.4404 90.6393 32.3404 87.0693 30.7404 83.1793C30.2004 81.8993 30.8004 80.4193 32.0804 79.8793C33.3004 79.3593 34.7004 79.8793 35.2904 81.0393C37.9304 86.2293 41.7604 90.9193 46.1904 94.9693C59.0504 106.739 76.7704 114.929 94.4004 113.999C117.27 113.249 142.58 97.6893 143.26 72.8393C143.86 47.6493 118.88 30.7393 95.6404 29.6993C83.8204 28.6393 72.1704 32.8493 61.9604 39.1493C52.0004 45.4293 42.5804 53.9193 37.0204 64.2793C34.9604 67.9193 29.5904 65.0793 31.4504 61.3193H31.4404L31.4504 61.3393Z" fill="black"/>
<path d="M31.4504 61.3393C41.8804 42.5793 64.8304 26.5593 86.1804 24.0393C108.77 22.0093 133.42 32.9093 143.87 53.7293C156.8 80.1393 140.1 107.969 114.11 117.519C105.19 120.879 95.5604 122.159 86.0804 121.369C68.5104 119.499 52.0004 110.649 40.1304 97.6793C39.1504 96.6793 37.8804 94.9893 36.9804 93.9093C34.4404 90.6393 32.3404 87.0693 30.7404 83.1793C30.2004 81.8993 30.8004 80.4193 32.0804 79.8793C33.3004 79.3593 34.7004 79.8793 35.2904 81.0393C37.9304 86.2293 41.7604 90.9193 46.1904 94.9693C59.0504 106.739 76.7704 114.929 94.4004 113.999C117.27 113.249 142.58 97.6893 143.26 72.8393C143.86 47.6493 118.88 30.7393 95.6404 29.6993C83.8204 28.6393 72.1704 32.8493 61.9604 39.1493C52.0004 45.4293 42.5804 53.9193 37.0204 64.2793C34.9604 67.9193 29.5904 65.0793 31.4504 61.3193H31.4404L31.4504 61.3393Z" fill="black" fill-opacity="0.2"/>
<path d="M79.9902 128.659C88.7802 122.789 92.9202 113.549 89.2302 108.019C85.5402 102.489 75.4201 102.769 66.6301 108.639C57.8401 114.509 53.7002 123.749 57.3902 129.279C61.0802 134.809 71.2002 134.529 79.9902 128.659Z" fill="#FECB8B"/>
<path d="M89.7902 111.129C89.1302 109.759 88.0302 106.859 86.6902 106.029C88.1002 111.669 82.9402 119.929 74.5002 124.009C67.5002 127.389 60.8602 124.539 58.6602 118.259C58.7802 118.759 56.3302 126.739 56.5602 127.199C59.3502 132.969 69.0502 134.049 78.2202 129.609C87.4002 125.169 92.5802 116.899 89.7902 111.129Z" fill="#FF6700"/>
<path d="M75.34 105.618C70.02 109.258 64.67 113.478 61.72 119.048C59.46 123.448 58.8 128.498 64.91 129.288C69.24 129.828 73.82 128.298 77.63 126.148C81.65 123.908 84.82 120.348 86.51 116.028C87.54 113.228 87.97 109.988 86.71 107.218C86.34 106.528 86.64 105.658 87.35 105.328C89.56 104.298 91.19 109.798 91.36 111.308C92.19 117.338 89.75 123.358 85.79 127.858C78.66 135.878 62.5 141.828 54.44 131.978C48.24 123.038 55.94 111.768 63.68 106.968C66.89 104.878 70.37 103.388 73.94 102.458C74.87 102.218 75.83 102.778 76.07 103.708C76.26 104.458 75.95 105.208 75.34 105.598V105.618Z" fill="black"/>
<path d="M75.34 105.618C70.02 109.258 64.67 113.478 61.72 119.048C59.46 123.448 58.8 128.498 64.91 129.288C69.24 129.828 73.82 128.298 77.63 126.148C81.65 123.908 84.82 120.348 86.51 116.028C87.54 113.228 87.97 109.988 86.71 107.218C86.34 106.528 86.64 105.658 87.35 105.328C89.56 104.298 91.19 109.798 91.36 111.308C92.19 117.338 89.75 123.358 85.79 127.858C78.66 135.878 62.5 141.828 54.44 131.978C48.24 123.038 55.94 111.768 63.68 106.968C66.89 104.878 70.37 103.388 73.94 102.458C74.87 102.218 75.83 102.778 76.07 103.708C76.26 104.458 75.95 105.208 75.34 105.598V105.618Z" fill="black" fill-opacity="0.2"/>
<path d="M75.34 105.618C70.02 109.258 64.67 113.478 61.72 119.048C59.46 123.448 58.8 128.498 64.91 129.288C69.24 129.828 73.82 128.298 77.63 126.148C81.65 123.908 84.82 120.348 86.51 116.028C87.54 113.228 87.97 109.988 86.71 107.218C86.34 106.528 86.64 105.658 87.35 105.328C89.56 104.298 91.19 109.798 91.36 111.308C92.19 117.338 89.75 123.358 85.79 127.858C78.66 135.878 62.5 141.828 54.44 131.978C48.24 123.038 55.94 111.768 63.68 106.968C66.89 104.878 70.37 103.388 73.94 102.458C74.87 102.218 75.83 102.778 76.07 103.708C76.26 104.458 75.95 105.208 75.34 105.598V105.618Z" fill="black"/>
<path d="M75.34 105.618C70.02 109.258 64.67 113.478 61.72 119.048C59.46 123.448 58.8 128.498 64.91 129.288C69.24 129.828 73.82 128.298 77.63 126.148C81.65 123.908 84.82 120.348 86.51 116.028C87.54 113.228 87.97 109.988 86.71 107.218C86.34 106.528 86.64 105.658 87.35 105.328C89.56 104.298 91.19 109.798 91.36 111.308C92.19 117.338 89.75 123.358 85.79 127.858C78.66 135.878 62.5 141.828 54.44 131.978C48.24 123.038 55.94 111.768 63.68 106.968C66.89 104.878 70.37 103.388 73.94 102.458C74.87 102.218 75.83 102.778 76.07 103.708C76.26 104.458 75.95 105.208 75.34 105.598V105.618Z" fill="black" fill-opacity="0.2"/>
<path d="M121.53 67.6378C124.73 66.7278 126.1 61.6578 124.59 56.2978C123.07 50.9478 119.25 47.3378 116.05 48.2478C112.84 49.1578 111.48 54.2278 112.99 59.5878C114.5 64.9378 118.33 68.5478 121.53 67.6378Z" fill="black"/>
<path d="M121.53 67.6378C124.73 66.7278 126.1 61.6578 124.59 56.2978C123.07 50.9478 119.25 47.3378 116.05 48.2478C112.84 49.1578 111.48 54.2278 112.99 59.5878C114.5 64.9378 118.33 68.5478 121.53 67.6378Z" fill="black" fill-opacity="0.2"/>
<path d="M121.53 67.6378C124.73 66.7278 126.1 61.6578 124.59 56.2978C123.07 50.9478 119.25 47.3378 116.05 48.2478C112.84 49.1578 111.48 54.2278 112.99 59.5878C114.5 64.9378 118.33 68.5478 121.53 67.6378Z" fill="black"/>
<path d="M121.53 67.6378C124.73 66.7278 126.1 61.6578 124.59 56.2978C123.07 50.9478 119.25 47.3378 116.05 48.2478C112.84 49.1578 111.48 54.2278 112.99 59.5878C114.5 64.9378 118.33 68.5478 121.53 67.6378Z" fill="black" fill-opacity="0.2"/>
<path d="M124.71 60.3296C125.96 59.9796 126.55 58.1696 126.02 56.3096C125.49 54.4396 124.05 53.2196 122.79 53.5696C121.54 53.9196 120.95 55.7296 121.48 57.5896C122.01 59.4596 123.45 60.6796 124.71 60.3296Z" fill="white"/>
<path d="M104.42 73.2195C104.37 73.1895 104.34 73.2195 104.15 73.3895C103.99 73.5495 103.77 73.8895 103.67 74.1695C103.06 75.5195 104.05 77.4395 105.55 77.6995C106.05 77.8395 106.7 77.7395 107.08 77.6295C107.23 77.5895 107.1 77.7095 107.34 77.5895C108.38 76.8595 108.77 75.5895 108.32 74.3395C107.82 73.0695 106.59 72.4195 105.38 72.5595C105.3 72.5795 105.11 72.5995 105.02 72.6195C104.92 72.6395 104.95 72.6195 104.96 72.5995C108.1 71.2195 111.52 70.6495 114.94 70.7695C116.37 70.8495 117.47 72.0795 117.39 73.5095C117.27 75.8095 114.82 76.0695 113.05 76.5195C111.87 76.7895 109.51 77.3395 108.33 77.6195C107.57 77.7995 106.61 78.1395 105.83 78.1795C103.43 78.2995 101.96 75.3895 103.56 73.5395C103.93 73.0795 104.51 72.7995 105 72.6695C105.25 72.6095 105.61 72.4695 106.04 72.4695C108.34 72.3695 109.65 75.1295 108.2 76.8195C105.52 79.6995 101.54 75.8995 104.43 73.2495L104.42 73.2195Z" fill="black"/>
<path d="M104.42 73.2195C104.37 73.1895 104.34 73.2195 104.15 73.3895C103.99 73.5495 103.77 73.8895 103.67 74.1695C103.06 75.5195 104.05 77.4395 105.55 77.6995C106.05 77.8395 106.7 77.7395 107.08 77.6295C107.23 77.5895 107.1 77.7095 107.34 77.5895C108.38 76.8595 108.77 75.5895 108.32 74.3395C107.82 73.0695 106.59 72.4195 105.38 72.5595C105.3 72.5795 105.11 72.5995 105.02 72.6195C104.92 72.6395 104.95 72.6195 104.96 72.5995C108.1 71.2195 111.52 70.6495 114.94 70.7695C116.37 70.8495 117.47 72.0795 117.39 73.5095C117.27 75.8095 114.82 76.0695 113.05 76.5195C111.87 76.7895 109.51 77.3395 108.33 77.6195C107.57 77.7995 106.61 78.1395 105.83 78.1795C103.43 78.2995 101.96 75.3895 103.56 73.5395C103.93 73.0795 104.51 72.7995 105 72.6695C105.25 72.6095 105.61 72.4695 106.04 72.4695C108.34 72.3695 109.65 75.1295 108.2 76.8195C105.52 79.6995 101.54 75.8995 104.43 73.2495L104.42 73.2195Z" fill="black" fill-opacity="0.2"/>
<path d="M89.5003 54.2583C94.1703 55.0483 98.8003 55.9682 103.46 56.8282C105.03 57.1182 106.07 58.6182 105.78 60.1882C105.47 62.0582 103.55 62.5982 102.04 63.1682C100.87 63.5282 97.9703 64.2682 96.7503 64.6082C94.4003 65.2482 92.0503 65.8882 89.6703 66.4682C88.6603 66.7182 87.6403 66.0982 87.3903 65.0982C87.1703 64.2282 87.6103 63.3483 88.3803 62.9583C90.5703 61.8683 92.7703 60.8282 94.9803 59.7982C96.9503 58.9382 99.6103 57.4182 101.68 56.9082L101.94 62.5582C97.4803 60.9982 92.9903 59.4983 88.5503 57.8683C86.4303 57.0783 87.2903 53.8883 89.5103 54.2583H89.5003Z" fill="black"/>
<path d="M89.5003 54.2583C94.1703 55.0483 98.8003 55.9682 103.46 56.8282C105.03 57.1182 106.07 58.6182 105.78 60.1882C105.47 62.0582 103.55 62.5982 102.04 63.1682C100.87 63.5282 97.9703 64.2682 96.7503 64.6082C94.4003 65.2482 92.0503 65.8882 89.6703 66.4682C88.6603 66.7182 87.6403 66.0982 87.3903 65.0982C87.1703 64.2282 87.6103 63.3483 88.3803 62.9583C90.5703 61.8683 92.7703 60.8282 94.9803 59.7982C96.9503 58.9382 99.6103 57.4182 101.68 56.9082L101.94 62.5582C97.4803 60.9982 92.9903 59.4983 88.5503 57.8683C86.4303 57.0783 87.2903 53.8883 89.5103 54.2583H89.5003Z" fill="black" fill-opacity="0.2"/>
</svg>
