<svg width="198" height="132" viewBox="0 0 198 132" fill="none" xmlns="http://www.w3.org/2000/svg">
<path d="M159.83 98.6673C149.89 98.8273 135.77 93.9073 135.66 87.6773C135.56 81.4473 149.52 76.2673 159.46 76.1073C169.4 75.9473 171.55 80.8673 171.65 87.0973C171.75 93.3273 169.76 98.5073 159.82 98.6673H159.83Z" fill="black"/>
<path d="M159.83 98.6673C149.89 98.8273 135.77 93.9073 135.66 87.6773C135.56 81.4473 149.52 76.2673 159.46 76.1073C169.4 75.9473 171.55 80.8673 171.65 87.0973C171.75 93.3273 169.76 98.5073 159.82 98.6673H159.83Z" fill="black" fill-opacity="0.2"/>
<path d="M37.3704 58.238C33.0304 49.998 23.4204 35.148 10.6304 35.298C-7.04955 35.508 13.5305 75.468 13.5305 75.468C13.5305 75.468 -3.15954 108.188 11.3905 111.648C25.9505 115.108 38.2304 94.598 38.2304 94.598" fill="#FF6700"/>
<path d="M115.34 38.307C115.34 38.307 103.48 15.537 77.3903 5.33701C64.8403 0.437011 59.7403 8.07703 66.9803 17.697C76.2003 29.947 41.2603 5.82701 63.6903 45.687L115.35 38.297L115.34 38.307Z" fill="#FF6700"/>
<path d="M95.5106 29.2281L106.711 25.9081L87.5605 10.2981L69.8806 3.82812L63.8506 8.01813C63.8506 8.01813 89.4305 16.5381 95.5005 29.2381L95.5106 29.2281Z" fill="#FECB8B"/>
<path d="M112.21 36.6976C111.66 37.4976 111.66 38.9676 112.16 39.6976V39.6676L112.11 39.5676C110.48 35.2876 107.88 31.4275 104.98 27.8975C98.4101 20.2175 90.1001 14.0076 80.9401 9.81756C77.5801 8.46756 73.4901 6.53757 69.9801 6.85757C65.9401 7.06757 66.6401 10.3676 68.1201 13.0576C69.8201 16.1076 74.0301 19.5276 71.3701 23.3576C69.0601 26.4976 64.4801 24.8976 61.4701 25.0976C60.5701 25.1076 59.9001 25.3576 59.9501 25.4076C59.9501 25.4276 60.0601 25.3276 60.0701 25.3176C59.7601 28.1176 61.3601 31.4875 62.4501 34.2075C62.7901 35.0075 63.4801 36.6176 63.8501 37.4076C64.8201 39.5576 65.8201 41.7275 66.7601 43.9575L63.2001 42.1976C79.6401 39.7776 95.5801 38.2376 112.23 36.6876L112.21 36.6976ZM118.47 39.9176C100.69 43.3076 82.1801 46.6775 64.1501 49.1775C62.6801 49.3875 61.2901 48.6376 60.6101 47.4176C56.8701 42.0576 53.7901 36.1876 52.4101 29.6576C50.5801 19.9476 56.4101 16.2276 65.4401 17.8176C66.0101 17.8876 66.5701 17.9475 66.8901 17.9575C67.0301 17.9675 67.1301 17.9376 66.8901 18.0076C65.8101 18.3276 64.9301 19.4976 64.9301 20.6376C64.9101 20.8576 64.9501 21.1176 65.0201 21.3076C64.2101 19.6576 62.7601 18.0275 61.9801 16.1775C60.5901 13.2175 59.7401 9.87756 60.9401 6.46756C63.5701 -0.592444 72.4401 0.0875627 78.0301 2.53756C79.7701 3.26756 81.5601 4.16756 83.2801 4.93756C84.8201 5.82756 86.7801 6.80758 88.2801 7.73758L91.5001 9.77755C99.9701 15.3976 107.07 22.7676 113.55 30.5276C114.78 31.9476 116.03 33.5676 117.21 35.0376L117.82 35.8176L118.13 36.2176L118.21 36.3176C118.86 37.2876 118.94 38.8475 118.48 39.8975L118.47 39.9176Z" fill="black"/>
<path d="M112.21 36.6976C111.66 37.4976 111.66 38.9676 112.16 39.6976V39.6676L112.11 39.5676C110.48 35.2876 107.88 31.4275 104.98 27.8975C98.4101 20.2175 90.1001 14.0076 80.9401 9.81756C77.5801 8.46756 73.4901 6.53757 69.9801 6.85757C65.9401 7.06757 66.6401 10.3676 68.1201 13.0576C69.8201 16.1076 74.0301 19.5276 71.3701 23.3576C69.0601 26.4976 64.4801 24.8976 61.4701 25.0976C60.5701 25.1076 59.9001 25.3576 59.9501 25.4076C59.9501 25.4276 60.0601 25.3276 60.0701 25.3176C59.7601 28.1176 61.3601 31.4875 62.4501 34.2075C62.7901 35.0075 63.4801 36.6176 63.8501 37.4076C64.8201 39.5576 65.8201 41.7275 66.7601 43.9575L63.2001 42.1976C79.6401 39.7776 95.5801 38.2376 112.23 36.6876L112.21 36.6976ZM118.47 39.9176C100.69 43.3076 82.1801 46.6775 64.1501 49.1775C62.6801 49.3875 61.2901 48.6376 60.6101 47.4176C56.8701 42.0576 53.7901 36.1876 52.4101 29.6576C50.5801 19.9476 56.4101 16.2276 65.4401 17.8176C66.0101 17.8876 66.5701 17.9475 66.8901 17.9575C67.0301 17.9675 67.1301 17.9376 66.8901 18.0076C65.8101 18.3276 64.9301 19.4976 64.9301 20.6376C64.9101 20.8576 64.9501 21.1176 65.0201 21.3076C64.2101 19.6576 62.7601 18.0275 61.9801 16.1775C60.5901 13.2175 59.7401 9.87756 60.9401 6.46756C63.5701 -0.592444 72.4401 0.0875627 78.0301 2.53756C79.7701 3.26756 81.5601 4.16756 83.2801 4.93756C84.8201 5.82756 86.7801 6.80758 88.2801 7.73758L91.5001 9.77755C99.9701 15.3976 107.07 22.7676 113.55 30.5276C114.78 31.9476 116.03 33.5676 117.21 35.0376L117.82 35.8176L118.13 36.2176L118.21 36.3176C118.86 37.2876 118.94 38.8475 118.48 39.8975L118.47 39.9176Z" fill="black" fill-opacity="0.2"/>
<path d="M112.21 36.6976C111.66 37.4976 111.66 38.9676 112.16 39.6976V39.6676L112.11 39.5676C110.48 35.2876 107.88 31.4275 104.98 27.8975C98.4101 20.2175 90.1001 14.0076 80.9401 9.81756C77.5801 8.46756 73.4901 6.53757 69.9801 6.85757C65.9401 7.06757 66.6401 10.3676 68.1201 13.0576C69.8201 16.1076 74.0301 19.5276 71.3701 23.3576C69.0601 26.4976 64.4801 24.8976 61.4701 25.0976C60.5701 25.1076 59.9001 25.3576 59.9501 25.4076C59.9501 25.4276 60.0601 25.3276 60.0701 25.3176C59.7601 28.1176 61.3601 31.4875 62.4501 34.2075C62.7901 35.0075 63.4801 36.6176 63.8501 37.4076C64.8201 39.5576 65.8201 41.7275 66.7601 43.9575L63.2001 42.1976C79.6401 39.7776 95.5801 38.2376 112.23 36.6876L112.21 36.6976ZM118.47 39.9176C100.69 43.3076 82.1801 46.6775 64.1501 49.1775C62.6801 49.3875 61.2901 48.6376 60.6101 47.4176C56.8701 42.0576 53.7901 36.1876 52.4101 29.6576C50.5801 19.9476 56.4101 16.2276 65.4401 17.8176C66.0101 17.8876 66.5701 17.9475 66.8901 17.9575C67.0301 17.9675 67.1301 17.9376 66.8901 18.0076C65.8101 18.3276 64.9301 19.4976 64.9301 20.6376C64.9101 20.8576 64.9501 21.1176 65.0201 21.3076C64.2101 19.6576 62.7601 18.0275 61.9801 16.1775C60.5901 13.2175 59.7401 9.87756 60.9401 6.46756C63.5701 -0.592444 72.4401 0.0875627 78.0301 2.53756C79.7701 3.26756 81.5601 4.16756 83.2801 4.93756C84.8201 5.82756 86.7801 6.80758 88.2801 7.73758L91.5001 9.77755C99.9701 15.3976 107.07 22.7676 113.55 30.5276C114.78 31.9476 116.03 33.5676 117.21 35.0376L117.82 35.8176L118.13 36.2176L118.21 36.3176C118.86 37.2876 118.94 38.8475 118.48 39.8975L118.47 39.9176Z" fill="black"/>
<path d="M112.21 36.6976C111.66 37.4976 111.66 38.9676 112.16 39.6976V39.6676L112.11 39.5676C110.48 35.2876 107.88 31.4275 104.98 27.8975C98.4101 20.2175 90.1001 14.0076 80.9401 9.81756C77.5801 8.46756 73.4901 6.53757 69.9801 6.85757C65.9401 7.06757 66.6401 10.3676 68.1201 13.0576C69.8201 16.1076 74.0301 19.5276 71.3701 23.3576C69.0601 26.4976 64.4801 24.8976 61.4701 25.0976C60.5701 25.1076 59.9001 25.3576 59.9501 25.4076C59.9501 25.4276 60.0601 25.3276 60.0701 25.3176C59.7601 28.1176 61.3601 31.4875 62.4501 34.2075C62.7901 35.0075 63.4801 36.6176 63.8501 37.4076C64.8201 39.5576 65.8201 41.7275 66.7601 43.9575L63.2001 42.1976C79.6401 39.7776 95.5801 38.2376 112.23 36.6876L112.21 36.6976ZM118.47 39.9176C100.69 43.3076 82.1801 46.6775 64.1501 49.1775C62.6801 49.3875 61.2901 48.6376 60.6101 47.4176C56.8701 42.0576 53.7901 36.1876 52.4101 29.6576C50.5801 19.9476 56.4101 16.2276 65.4401 17.8176C66.0101 17.8876 66.5701 17.9475 66.8901 17.9575C67.0301 17.9675 67.1301 17.9376 66.8901 18.0076C65.8101 18.3276 64.9301 19.4976 64.9301 20.6376C64.9101 20.8576 64.9501 21.1176 65.0201 21.3076C64.2101 19.6576 62.7601 18.0275 61.9801 16.1775C60.5901 13.2175 59.7401 9.87756 60.9401 6.46756C63.5701 -0.592444 72.4401 0.0875627 78.0301 2.53756C79.7701 3.26756 81.5601 4.16756 83.2801 4.93756C84.8201 5.82756 86.7801 6.80758 88.2801 7.73758L91.5001 9.77755C99.9701 15.3976 107.07 22.7676 113.55 30.5276C114.78 31.9476 116.03 33.5676 117.21 35.0376L117.82 35.8176L118.13 36.2176L118.21 36.3176C118.86 37.2876 118.94 38.8475 118.48 39.8975L118.47 39.9176Z" fill="black" fill-opacity="0.2"/>
<path d="M38.2301 94.5883L38.3901 91.5683C49.1101 105.428 70.1501 118.418 91.2501 118.418C121.37 118.418 145.79 97.9983 145.79 72.8283C145.79 47.6583 121.37 27.2383 91.2501 27.2383C70.7201 27.2383 48.0701 42.9183 37.3701 58.2583" fill="#FECB8B"/>
<path d="M30.2205 64.3876C22.0705 46.6176 9.97053 40.3476 7.02053 48.0676C5.20053 20.3776 28.8605 46.1176 33.5205 56.7976L30.2205 64.3876Z" fill="#FECB8B"/>
<path d="M13.3003 108.437C25.3203 108.047 30.6403 89.3771 30.5903 83.2871L37.3403 94.0071C29.9003 104.027 21.9503 109.487 13.3003 108.437Z" fill="black"/>
<path d="M13.3003 108.437C25.3203 108.047 30.6403 89.3771 30.5903 83.2871L37.3403 94.0071C29.9003 104.027 21.9503 109.487 13.3003 108.437Z" fill="black" fill-opacity="0.2"/>
<path d="M13.3003 108.437C25.3203 108.047 30.6403 89.3771 30.5903 83.2871L37.3403 94.0071C29.9003 104.027 21.9503 109.487 13.3003 108.437Z" fill="black"/>
<path d="M13.3003 108.437C25.3203 108.047 30.6403 89.3771 30.5903 83.2871L37.3403 94.0071C29.9003 104.027 21.9503 109.487 13.3003 108.437Z" fill="black" fill-opacity="0.2"/>
<path d="M76.4003 118.417C70.2303 119.187 33.0303 90.3568 35.0603 81.7268C37.4103 84.0468 30.2403 71.5368 34.2403 63.3568C54.7103 21.4468 99.7303 27.6568 95.5003 29.2368C60.5203 42.3368 48.0203 94.0768 89.2203 108.577C94.7103 111.537 106.43 112.747 115.18 110.867C123.16 109.147 87.7003 119.697 70.7003 119.207" fill="#FF6700"/>
<path d="M41.2503 96.3966C35.0403 105.997 24.7903 116.917 12.2403 115.377C7.74027 114.817 3.98029 112.167 2.64029 107.437C-0.139707 97.4966 6.1203 82.8366 10.4003 73.8666C10.4003 73.8666 10.4003 77.0866 10.4003 77.0766C5.7903 67.3566 -1.39974 51.0466 0.610264 40.3066C2.32026 31.8766 10.4603 30.9366 17.2903 33.3166C24.6503 35.9566 29.9303 41.6566 34.2803 47.7166C36.3603 50.6766 38.2003 53.7566 39.8503 56.9366C41.4403 60.2666 36.7303 62.7166 34.9003 59.5466C30.3703 51.4466 24.3103 42.3766 15.3403 39.1366C12.7103 38.2566 9.19026 38.1466 8.17026 39.1266C4.96026 42.1166 7.71029 51.3266 8.89029 55.3066C10.9003 61.6266 13.6603 67.9766 16.6603 73.8666C17.2003 74.9066 17.1603 76.0966 16.6603 77.0766C14.0903 82.3266 11.7903 87.9966 10.2803 93.6366C9.33031 97.5566 7.51032 104.987 10.8503 107.677C12.5903 108.647 14.7603 108.657 16.7303 108.347C23.3203 107.087 28.7103 101.517 32.7803 96.2766C33.6203 95.1766 34.5003 93.9166 35.2203 92.7566C37.7603 88.8666 43.5203 92.3466 41.2303 96.4066L41.2503 96.3966Z" fill="black"/>
<path d="M41.2503 96.3966C35.0403 105.997 24.7903 116.917 12.2403 115.377C7.74027 114.817 3.98029 112.167 2.64029 107.437C-0.139707 97.4966 6.1203 82.8366 10.4003 73.8666C10.4003 73.8666 10.4003 77.0866 10.4003 77.0766C5.7903 67.3566 -1.39974 51.0466 0.610264 40.3066C2.32026 31.8766 10.4603 30.9366 17.2903 33.3166C24.6503 35.9566 29.9303 41.6566 34.2803 47.7166C36.3603 50.6766 38.2003 53.7566 39.8503 56.9366C41.4403 60.2666 36.7303 62.7166 34.9003 59.5466C30.3703 51.4466 24.3103 42.3766 15.3403 39.1366C12.7103 38.2566 9.19026 38.1466 8.17026 39.1266C4.96026 42.1166 7.71029 51.3266 8.89029 55.3066C10.9003 61.6266 13.6603 67.9766 16.6603 73.8666C17.2003 74.9066 17.1603 76.0966 16.6603 77.0766C14.0903 82.3266 11.7903 87.9966 10.2803 93.6366C9.33031 97.5566 7.51032 104.987 10.8503 107.677C12.5903 108.647 14.7603 108.657 16.7303 108.347C23.3203 107.087 28.7103 101.517 32.7803 96.2766C33.6203 95.1766 34.5003 93.9166 35.2203 92.7566C37.7603 88.8666 43.5203 92.3466 41.2303 96.4066L41.2503 96.3966Z" fill="black" fill-opacity="0.2"/>
<path d="M41.2503 96.3966C35.0403 105.997 24.7903 116.917 12.2403 115.377C7.74027 114.817 3.98029 112.167 2.64029 107.437C-0.139707 97.4966 6.1203 82.8366 10.4003 73.8666C10.4003 73.8666 10.4003 77.0866 10.4003 77.0766C5.7903 67.3566 -1.39974 51.0466 0.610264 40.3066C2.32026 31.8766 10.4603 30.9366 17.2903 33.3166C24.6503 35.9566 29.9303 41.6566 34.2803 47.7166C36.3603 50.6766 38.2003 53.7566 39.8503 56.9366C41.4403 60.2666 36.7303 62.7166 34.9003 59.5466C30.3703 51.4466 24.3103 42.3766 15.3403 39.1366C12.7103 38.2566 9.19026 38.1466 8.17026 39.1266C4.96026 42.1166 7.71029 51.3266 8.89029 55.3066C10.9003 61.6266 13.6603 67.9766 16.6603 73.8666C17.2003 74.9066 17.1603 76.0966 16.6603 77.0766C14.0903 82.3266 11.7903 87.9966 10.2803 93.6366C9.33031 97.5566 7.51032 104.987 10.8503 107.677C12.5903 108.647 14.7603 108.657 16.7303 108.347C23.3203 107.087 28.7103 101.517 32.7803 96.2766C33.6203 95.1766 34.5003 93.9166 35.2203 92.7566C37.7603 88.8666 43.5203 92.3466 41.2303 96.4066L41.2503 96.3966Z" fill="black"/>
<path d="M41.2503 96.3966C35.0403 105.997 24.7903 116.917 12.2403 115.377C7.74027 114.817 3.98029 112.167 2.64029 107.437C-0.139707 97.4966 6.1203 82.8366 10.4003 73.8666C10.4003 73.8666 10.4003 77.0866 10.4003 77.0766C5.7903 67.3566 -1.39974 51.0466 0.610264 40.3066C2.32026 31.8766 10.4603 30.9366 17.2903 33.3166C24.6503 35.9566 29.9303 41.6566 34.2803 47.7166C36.3603 50.6766 38.2003 53.7566 39.8503 56.9366C41.4403 60.2666 36.7303 62.7166 34.9003 59.5466C30.3703 51.4466 24.3103 42.3766 15.3403 39.1366C12.7103 38.2566 9.19026 38.1466 8.17026 39.1266C4.96026 42.1166 7.71029 51.3266 8.89029 55.3066C10.9003 61.6266 13.6603 67.9766 16.6603 73.8666C17.2003 74.9066 17.1603 76.0966 16.6603 77.0766C14.0903 82.3266 11.7903 87.9966 10.2803 93.6366C9.33031 97.5566 7.51032 104.987 10.8503 107.677C12.5903 108.647 14.7603 108.657 16.7303 108.347C23.3203 107.087 28.7103 101.517 32.7803 96.2766C33.6203 95.1766 34.5003 93.9166 35.2203 92.7566C37.7603 88.8666 43.5203 92.3466 41.2303 96.4066L41.2503 96.3966Z" fill="black" fill-opacity="0.2"/>
<path d="M31.4504 61.8882C41.8804 43.1282 64.8304 27.1082 86.1804 24.5882C108.77 22.5582 133.42 33.4582 143.87 54.2782C156.8 80.6882 140.1 108.518 114.11 118.068C105.19 121.428 95.5605 122.708 86.0805 121.918C68.5105 120.048 52.0004 111.198 40.1304 98.2282C39.1504 97.2282 37.8804 95.5382 36.9804 94.4582C34.4404 91.1882 32.3404 87.6182 30.7404 83.7282C30.2004 82.4482 30.8005 80.9682 32.0805 80.4282C33.3005 79.9082 34.7004 80.4282 35.2904 81.5882C37.9304 86.7782 41.7604 91.4682 46.1904 95.5182C59.0504 107.288 76.7705 115.478 94.4005 114.548C117.27 113.798 142.58 98.2382 143.26 73.3882C143.86 48.1982 118.88 31.2882 95.6404 30.2482C83.8204 29.1882 72.1705 33.3982 61.9605 39.6982C52.0005 45.9782 42.5805 54.4682 37.0205 64.8282C34.9605 68.4682 29.5904 65.6282 31.4504 61.8682H31.4404L31.4504 61.8882Z" fill="black"/>
<path d="M31.4504 61.8882C41.8804 43.1282 64.8304 27.1082 86.1804 24.5882C108.77 22.5582 133.42 33.4582 143.87 54.2782C156.8 80.6882 140.1 108.518 114.11 118.068C105.19 121.428 95.5605 122.708 86.0805 121.918C68.5105 120.048 52.0004 111.198 40.1304 98.2282C39.1504 97.2282 37.8804 95.5382 36.9804 94.4582C34.4404 91.1882 32.3404 87.6182 30.7404 83.7282C30.2004 82.4482 30.8005 80.9682 32.0805 80.4282C33.3005 79.9082 34.7004 80.4282 35.2904 81.5882C37.9304 86.7782 41.7604 91.4682 46.1904 95.5182C59.0504 107.288 76.7705 115.478 94.4005 114.548C117.27 113.798 142.58 98.2382 143.26 73.3882C143.86 48.1982 118.88 31.2882 95.6404 30.2482C83.8204 29.1882 72.1705 33.3982 61.9605 39.6982C52.0005 45.9782 42.5805 54.4682 37.0205 64.8282C34.9605 68.4682 29.5904 65.6282 31.4504 61.8682H31.4404L31.4504 61.8882Z" fill="black" fill-opacity="0.2"/>
<path d="M103.41 72.2676C106.82 71.3076 108.28 65.9076 106.66 60.2076C105.05 54.5076 100.98 50.6776 97.5704 51.6376C94.1604 52.5976 92.7004 57.9976 94.3204 63.6976C95.9304 69.3976 100 73.2276 103.41 72.2676Z" fill="black"/>
<path d="M103.41 72.2676C106.82 71.3076 108.28 65.9076 106.66 60.2076C105.05 54.5076 100.98 50.6776 97.5704 51.6376C94.1604 52.5976 92.7004 57.9976 94.3204 63.6976C95.9304 69.3976 100 73.2276 103.41 72.2676Z" fill="black" fill-opacity="0.2"/>
<path d="M103.41 72.2676C106.82 71.3076 108.28 65.9076 106.66 60.2076C105.05 54.5076 100.98 50.6776 97.5704 51.6376C94.1604 52.5976 92.7004 57.9976 94.3204 63.6976C95.9304 69.3976 100 73.2276 103.41 72.2676Z" fill="black"/>
<path d="M103.41 72.2676C106.82 71.3076 108.28 65.9076 106.66 60.2076C105.05 54.5076 100.98 50.6776 97.5704 51.6376C94.1604 52.5976 92.7004 57.9976 94.3204 63.6976C95.9304 69.3976 100 73.2276 103.41 72.2676Z" fill="black" fill-opacity="0.2"/>
<path d="M107.73 65.588C109.06 65.208 109.69 63.298 109.13 61.308C108.57 59.318 107.03 58.018 105.7 58.398C104.37 58.778 103.74 60.688 104.3 62.678C104.86 64.668 106.4 65.968 107.73 65.588Z" fill="white"/>
<path d="M121.52 68.1866C124.72 67.2766 126.09 62.2066 124.58 56.8466C123.06 51.4966 119.24 47.8866 116.04 48.7966C112.83 49.7066 111.47 54.7766 112.98 60.1366C114.49 65.4866 118.32 69.0966 121.52 68.1866Z" fill="black"/>
<path d="M121.52 68.1866C124.72 67.2766 126.09 62.2066 124.58 56.8466C123.06 51.4966 119.24 47.8866 116.04 48.7966C112.83 49.7066 111.47 54.7766 112.98 60.1366C114.49 65.4866 118.32 69.0966 121.52 68.1866Z" fill="black" fill-opacity="0.2"/>
<path d="M121.52 68.1866C124.72 67.2766 126.09 62.2066 124.58 56.8466C123.06 51.4966 119.24 47.8866 116.04 48.7966C112.83 49.7066 111.47 54.7766 112.98 60.1366C114.49 65.4866 118.32 69.0966 121.52 68.1866Z" fill="black"/>
<path d="M121.52 68.1866C124.72 67.2766 126.09 62.2066 124.58 56.8466C123.06 51.4966 119.24 47.8866 116.04 48.7966C112.83 49.7066 111.47 54.7766 112.98 60.1366C114.49 65.4866 118.32 69.0966 121.52 68.1866Z" fill="black" fill-opacity="0.2"/>
<path d="M126.16 62.8374C127.41 62.4874 128 60.6774 127.47 58.8174C126.94 56.9474 125.5 55.7274 124.24 56.0774C122.99 56.4274 122.4 58.2374 122.93 60.0974C123.46 61.9674 124.9 63.1874 126.16 62.8374Z" fill="white"/>
<path d="M115.74 83.3773C112.19 85.5473 107.23 87.6873 102.89 86.0873C100.27 85.1173 100.93 81.1973 103.67 81.0973C106.28 81.0773 108.67 80.2073 111.18 79.2873C113.05 78.6273 116.78 77.1173 117.46 80.4673C117.68 81.8073 116.79 82.7673 115.73 83.3673L115.74 83.3773Z" fill="black"/>
<path d="M115.74 83.3773C112.19 85.5473 107.23 87.6873 102.89 86.0873C100.27 85.1173 100.93 81.1973 103.67 81.0973C106.28 81.0773 108.67 80.2073 111.18 79.2873C113.05 78.6273 116.78 77.1173 117.46 80.4673C117.68 81.8073 116.79 82.7673 115.73 83.3673L115.74 83.3773Z" fill="black" fill-opacity="0.2"/>
<path d="M108.42 44.3267C109.85 39.9767 115.64 37.9067 119.48 40.3667C121.24 41.3567 123.98 44.2667 121.49 45.8767C120.95 46.1967 120.35 46.1267 119.78 46.0267C118.42 45.7567 117.25 45.2567 115.9 45.3067C113.98 45.1967 112.29 46.5067 110.4 46.6967C109.08 46.9667 107.93 45.5667 108.42 44.3267Z" fill="black"/>
<path d="M108.42 44.3267C109.85 39.9767 115.64 37.9067 119.48 40.3667C121.24 41.3567 123.98 44.2667 121.49 45.8767C120.95 46.1967 120.35 46.1267 119.78 46.0267C118.42 45.7567 117.25 45.2567 115.9 45.3067C113.98 45.1967 112.29 46.5067 110.4 46.6967C109.08 46.9667 107.93 45.5667 108.42 44.3267Z" fill="black" fill-opacity="0.2"/>
<path d="M84.0703 46.5684C84.5003 37.4284 94.3503 32.3584 102.04 37.3484C103.62 38.2584 103 40.7684 101.21 40.8584C99.9603 40.9784 98.7203 40.7884 97.5103 40.9084C93.0103 40.8584 90.0203 43.8084 87.7103 47.4184C86.6803 49.2084 84.0803 48.6784 84.0703 46.5784V46.5684Z" fill="black"/>
<path d="M84.0703 46.5684C84.5003 37.4284 94.3503 32.3584 102.04 37.3484C103.62 38.2584 103 40.7684 101.21 40.8584C99.9603 40.9784 98.7203 40.7884 97.5103 40.9084C93.0103 40.8584 90.0203 43.8084 87.7103 47.4184C86.6803 49.2084 84.0803 48.6784 84.0703 46.5784V46.5684Z" fill="black" fill-opacity="0.2"/>
<path d="M84.4602 124.867C75.1102 119.937 70.0402 111.177 73.1402 105.297C76.2402 99.4175 86.3302 98.6475 95.6802 103.577C105.03 108.507 110.1 117.267 107 123.147C103.9 129.027 93.8102 129.797 84.4602 124.867Z" fill="#FECB8B"/>
<path d="M72.9001 108.447C73.4101 107.017 74.2101 104.017 75.4601 103.047C74.6501 108.797 80.6301 116.477 89.4501 119.667C96.7701 122.307 103.07 118.777 104.61 112.307C104.54 112.817 107.8 120.497 107.63 120.987C105.45 127.017 95.9201 129.087 86.3301 125.627C76.7401 122.167 70.7301 114.467 72.9101 108.447H72.9001Z" fill="#FF6700"/>
<path d="M86.7102 101.477C92.3802 104.547 98.1402 108.187 101.65 113.427C104.35 117.577 105.53 122.517 99.5302 123.937C95.2802 124.917 90.5601 123.877 86.5501 122.137C82.3201 120.327 78.8001 117.107 76.6701 112.987C75.3601 110.317 74.5901 107.127 75.5601 104.247C75.8501 103.517 75.4701 102.687 74.7301 102.437C72.4301 101.637 71.3701 107.277 71.3701 108.807C71.1701 114.887 74.2201 120.627 78.6301 124.687C86.5501 131.927 103.24 136.167 110.23 125.537C115.47 115.997 106.65 105.587 98.4501 101.617C95.0401 99.8667 91.4202 98.7467 87.7802 98.1967C86.8302 98.0567 85.9401 98.7067 85.7901 99.6667C85.6801 100.427 86.0702 101.147 86.7102 101.477Z" fill="black"/>
<path d="M86.7102 101.477C92.3802 104.547 98.1402 108.187 101.65 113.427C104.35 117.577 105.53 122.517 99.5302 123.937C95.2802 124.917 90.5601 123.877 86.5501 122.137C82.3201 120.327 78.8001 117.107 76.6701 112.987C75.3601 110.317 74.5901 107.127 75.5601 104.247C75.8501 103.517 75.4701 102.687 74.7301 102.437C72.4301 101.637 71.3701 107.277 71.3701 108.807C71.1701 114.887 74.2201 120.627 78.6301 124.687C86.5501 131.927 103.24 136.167 110.23 125.537C115.47 115.997 106.65 105.587 98.4501 101.617C95.0401 99.8667 91.4202 98.7467 87.7802 98.1967C86.8302 98.0567 85.9401 98.7067 85.7901 99.6667C85.6801 100.427 86.0702 101.147 86.7102 101.477Z" fill="black" fill-opacity="0.2"/>
<path d="M175.3 67.7867C176.99 77.8267 176.78 88.1767 174.41 98.0767C172.72 103.987 164.15 103.337 163.29 97.3367C162.36 89.7467 163.14 82.1367 164.48 74.6567C164.98 72.1567 165.54 69.6667 166.4 67.1967C167.24 64.7867 169.89 63.5167 172.3 64.3567C173.89 64.9167 174.98 66.2567 175.3 67.7867Z" fill="black"/>
<path d="M175.3 67.7867C176.99 77.8267 176.78 88.1767 174.41 98.0767C172.72 103.987 164.15 103.337 163.29 97.3367C162.36 89.7467 163.14 82.1367 164.48 74.6567C164.98 72.1567 165.54 69.6667 166.4 67.1967C167.24 64.7867 169.89 63.5167 172.3 64.3567C173.89 64.9167 174.98 66.2567 175.3 67.7867Z" fill="black" fill-opacity="0.2"/>
<path d="M149.99 40.5482C150.43 33.7882 152.841 27.0482 157.391 21.6882C164.511 13.0382 177.181 10.2082 186.461 17.1582C202.621 29.2582 200.851 58.1582 183.341 68.1982C173.281 73.9582 161.041 69.6182 155.031 60.1682C151.171 54.2982 149.6 47.3082 149.99 40.5482ZM159.98 41.1582C158.98 52.5882 167.291 67.0682 180.101 61.7682C194.191 55.1082 195.641 31.4882 182.461 23.1482C170.401 16.3282 160.38 29.6882 159.98 41.1582Z" fill="black"/>
<path d="M149.99 40.5482C150.43 33.7882 152.841 27.0482 157.391 21.6882C164.511 13.0382 177.181 10.2082 186.461 17.1582C202.621 29.2582 200.851 58.1582 183.341 68.1982C173.281 73.9582 161.041 69.6182 155.031 60.1682C151.171 54.2982 149.6 47.3082 149.99 40.5482ZM159.98 41.1582C158.98 52.5882 167.291 67.0682 180.101 61.7682C194.191 55.1082 195.641 31.4882 182.461 23.1482C170.401 16.3282 160.38 29.6882 159.98 41.1582Z" fill="black" fill-opacity="0.2"/>
</svg>
