<svg width="150" height="137" viewBox="0 0 150 137" fill="none" xmlns="http://www.w3.org/2000/svg">
<path d="M38.0775 57.406C33.7375 49.166 24.1275 34.316 11.3375 34.466C-6.34252 34.676 14.2375 74.636 14.2375 74.636C14.2375 74.636 -2.45251 107.356 12.0975 110.816C26.6575 114.276 38.9375 93.766 38.9375 93.766" fill="#FF6700"/>
<path d="M108.718 126.406C115.808 119.436 118.008 110.186 113.638 105.746C109.268 101.306 99.9776 103.356 92.8976 110.326C85.8076 117.296 83.6076 126.546 87.9776 130.986C92.3476 135.426 101.638 133.376 108.718 126.406Z" fill="black"/>
<path d="M108.718 126.406C115.808 119.436 118.008 110.186 113.638 105.746C109.268 101.306 99.9776 103.356 92.8976 110.326C85.8076 117.296 83.6076 126.546 87.9776 130.986C92.3476 135.426 101.638 133.376 108.718 126.406Z" fill="black" fill-opacity="0.2"/>
<path d="M108.718 126.406C115.808 119.436 118.008 110.186 113.638 105.746C109.268 101.306 99.9776 103.356 92.8976 110.326C85.8076 117.296 83.6076 126.546 87.9776 130.986C92.3476 135.426 101.638 133.376 108.718 126.406Z" fill="black"/>
<path d="M108.718 126.406C115.808 119.436 118.008 110.186 113.638 105.746C109.268 101.306 99.9776 103.356 92.8976 110.326C85.8076 117.296 83.6076 126.546 87.9776 130.986C92.3476 135.426 101.638 133.376 108.718 126.406Z" fill="black" fill-opacity="0.2"/>
<path d="M116.038 37.475C116.038 37.475 104.178 14.705 78.0876 4.50498C65.5376 -0.395017 60.4376 7.24497 67.6776 16.865C76.8976 29.115 41.9576 4.99496 64.3876 44.855L116.048 37.465L116.038 37.475Z" fill="#FF6700"/>
<path d="M96.2176 28.3961L107.418 25.0761L88.2676 9.46613L70.5876 2.99609L64.5576 7.1861C64.5576 7.1861 90.1376 15.7061 96.2076 28.4061L96.2176 28.3961Z" fill="#FECB8B"/>
<path d="M112.917 35.8755C112.367 36.6755 112.367 38.1455 112.867 38.8755V38.8455L112.817 38.7455C111.187 34.4655 108.587 30.6055 105.687 27.0755C99.1174 19.3955 90.8074 13.1855 81.6474 8.99551C78.2874 7.64551 74.1974 5.71555 70.6874 6.03555C66.6474 6.24555 67.3474 9.5455 68.8274 12.2355C70.5274 15.2855 74.7374 18.7055 72.0774 22.5355C69.7674 25.6755 65.1874 24.0755 62.1774 24.2755C61.2774 24.2855 60.6074 24.5355 60.6574 24.5855C60.6574 24.6055 60.7674 24.5055 60.7774 24.4955C60.4674 27.2955 62.0674 30.6655 63.1574 33.3855C63.4974 34.1855 64.1874 35.7955 64.5574 36.5855C65.5274 38.7355 66.5274 40.9055 67.4674 43.1355L63.9074 41.3755C80.3474 38.9555 96.2874 37.4155 112.937 35.8655L112.917 35.8755ZM119.167 39.0855C101.387 42.4755 82.8774 45.8455 64.8474 48.3455C63.3774 48.5555 61.9874 47.8055 61.3074 46.5855C57.5674 41.2255 54.4874 35.3555 53.1074 28.8255C51.2774 19.1155 57.1074 15.3955 66.1374 16.9855C66.7074 17.0555 67.2674 17.1155 67.5874 17.1255C67.7274 17.1355 67.8274 17.1055 67.5874 17.1755C66.5074 17.4955 65.6274 18.6655 65.6274 19.8055C65.6074 20.0255 65.6474 20.2856 65.7174 20.4756C64.9074 18.8256 63.4574 17.1955 62.6774 15.3455C61.2874 12.3855 60.4374 9.04552 61.6374 5.63552C64.2674 -1.42448 73.1374 -0.744469 78.7274 1.70553C80.4674 2.43553 82.2574 3.33549 83.9774 4.10549C85.5174 4.99549 87.4774 5.97554 88.9774 6.90554L92.1974 8.94552C100.667 14.5655 107.767 21.9355 114.247 29.6955C115.477 31.1155 116.727 32.7355 117.907 34.2055L118.517 34.9855L118.827 35.3855L118.907 35.4855C119.557 36.4555 119.637 38.0155 119.177 39.0655L119.167 39.0855Z" fill="black"/>
<path d="M112.917 35.8755C112.367 36.6755 112.367 38.1455 112.867 38.8755V38.8455L112.817 38.7455C111.187 34.4655 108.587 30.6055 105.687 27.0755C99.1174 19.3955 90.8074 13.1855 81.6474 8.99551C78.2874 7.64551 74.1974 5.71555 70.6874 6.03555C66.6474 6.24555 67.3474 9.5455 68.8274 12.2355C70.5274 15.2855 74.7374 18.7055 72.0774 22.5355C69.7674 25.6755 65.1874 24.0755 62.1774 24.2755C61.2774 24.2855 60.6074 24.5355 60.6574 24.5855C60.6574 24.6055 60.7674 24.5055 60.7774 24.4955C60.4674 27.2955 62.0674 30.6655 63.1574 33.3855C63.4974 34.1855 64.1874 35.7955 64.5574 36.5855C65.5274 38.7355 66.5274 40.9055 67.4674 43.1355L63.9074 41.3755C80.3474 38.9555 96.2874 37.4155 112.937 35.8655L112.917 35.8755ZM119.167 39.0855C101.387 42.4755 82.8774 45.8455 64.8474 48.3455C63.3774 48.5555 61.9874 47.8055 61.3074 46.5855C57.5674 41.2255 54.4874 35.3555 53.1074 28.8255C51.2774 19.1155 57.1074 15.3955 66.1374 16.9855C66.7074 17.0555 67.2674 17.1155 67.5874 17.1255C67.7274 17.1355 67.8274 17.1055 67.5874 17.1755C66.5074 17.4955 65.6274 18.6655 65.6274 19.8055C65.6074 20.0255 65.6474 20.2856 65.7174 20.4756C64.9074 18.8256 63.4574 17.1955 62.6774 15.3455C61.2874 12.3855 60.4374 9.04552 61.6374 5.63552C64.2674 -1.42448 73.1374 -0.744469 78.7274 1.70553C80.4674 2.43553 82.2574 3.33549 83.9774 4.10549C85.5174 4.99549 87.4774 5.97554 88.9774 6.90554L92.1974 8.94552C100.667 14.5655 107.767 21.9355 114.247 29.6955C115.477 31.1155 116.727 32.7355 117.907 34.2055L118.517 34.9855L118.827 35.3855L118.907 35.4855C119.557 36.4555 119.637 38.0155 119.177 39.0655L119.167 39.0855Z" fill="black" fill-opacity="0.2"/>
<path d="M112.917 35.8755C112.367 36.6755 112.367 38.1455 112.867 38.8755V38.8455L112.817 38.7455C111.187 34.4655 108.587 30.6055 105.687 27.0755C99.1174 19.3955 90.8074 13.1855 81.6474 8.99551C78.2874 7.64551 74.1974 5.71555 70.6874 6.03555C66.6474 6.24555 67.3474 9.5455 68.8274 12.2355C70.5274 15.2855 74.7374 18.7055 72.0774 22.5355C69.7674 25.6755 65.1874 24.0755 62.1774 24.2755C61.2774 24.2855 60.6074 24.5355 60.6574 24.5855C60.6574 24.6055 60.7674 24.5055 60.7774 24.4955C60.4674 27.2955 62.0674 30.6655 63.1574 33.3855C63.4974 34.1855 64.1874 35.7955 64.5574 36.5855C65.5274 38.7355 66.5274 40.9055 67.4674 43.1355L63.9074 41.3755C80.3474 38.9555 96.2874 37.4155 112.937 35.8655L112.917 35.8755ZM119.167 39.0855C101.387 42.4755 82.8774 45.8455 64.8474 48.3455C63.3774 48.5555 61.9874 47.8055 61.3074 46.5855C57.5674 41.2255 54.4874 35.3555 53.1074 28.8255C51.2774 19.1155 57.1074 15.3955 66.1374 16.9855C66.7074 17.0555 67.2674 17.1155 67.5874 17.1255C67.7274 17.1355 67.8274 17.1055 67.5874 17.1755C66.5074 17.4955 65.6274 18.6655 65.6274 19.8055C65.6074 20.0255 65.6474 20.2856 65.7174 20.4756C64.9074 18.8256 63.4574 17.1955 62.6774 15.3455C61.2874 12.3855 60.4374 9.04552 61.6374 5.63552C64.2674 -1.42448 73.1374 -0.744469 78.7274 1.70553C80.4674 2.43553 82.2574 3.33549 83.9774 4.10549C85.5174 4.99549 87.4774 5.97554 88.9774 6.90554L92.1974 8.94552C100.667 14.5655 107.767 21.9355 114.247 29.6955C115.477 31.1155 116.727 32.7355 117.907 34.2055L118.517 34.9855L118.827 35.3855L118.907 35.4855C119.557 36.4555 119.637 38.0155 119.177 39.0655L119.167 39.0855Z" fill="black"/>
<path d="M112.917 35.8755C112.367 36.6755 112.367 38.1455 112.867 38.8755V38.8455L112.817 38.7455C111.187 34.4655 108.587 30.6055 105.687 27.0755C99.1174 19.3955 90.8074 13.1855 81.6474 8.99551C78.2874 7.64551 74.1974 5.71555 70.6874 6.03555C66.6474 6.24555 67.3474 9.5455 68.8274 12.2355C70.5274 15.2855 74.7374 18.7055 72.0774 22.5355C69.7674 25.6755 65.1874 24.0755 62.1774 24.2755C61.2774 24.2855 60.6074 24.5355 60.6574 24.5855C60.6574 24.6055 60.7674 24.5055 60.7774 24.4955C60.4674 27.2955 62.0674 30.6655 63.1574 33.3855C63.4974 34.1855 64.1874 35.7955 64.5574 36.5855C65.5274 38.7355 66.5274 40.9055 67.4674 43.1355L63.9074 41.3755C80.3474 38.9555 96.2874 37.4155 112.937 35.8655L112.917 35.8755ZM119.167 39.0855C101.387 42.4755 82.8774 45.8455 64.8474 48.3455C63.3774 48.5555 61.9874 47.8055 61.3074 46.5855C57.5674 41.2255 54.4874 35.3555 53.1074 28.8255C51.2774 19.1155 57.1074 15.3955 66.1374 16.9855C66.7074 17.0555 67.2674 17.1155 67.5874 17.1255C67.7274 17.1355 67.8274 17.1055 67.5874 17.1755C66.5074 17.4955 65.6274 18.6655 65.6274 19.8055C65.6074 20.0255 65.6474 20.2856 65.7174 20.4756C64.9074 18.8256 63.4574 17.1955 62.6774 15.3455C61.2874 12.3855 60.4374 9.04552 61.6374 5.63552C64.2674 -1.42448 73.1374 -0.744469 78.7274 1.70553C80.4674 2.43553 82.2574 3.33549 83.9774 4.10549C85.5174 4.99549 87.4774 5.97554 88.9774 6.90554L92.1974 8.94552C100.667 14.5655 107.767 21.9355 114.247 29.6955C115.477 31.1155 116.727 32.7355 117.907 34.2055L118.517 34.9855L118.827 35.3855L118.907 35.4855C119.557 36.4555 119.637 38.0155 119.177 39.0655L119.167 39.0855Z" fill="black" fill-opacity="0.2"/>
<path d="M38.9274 93.7562L39.0874 90.7362C49.8074 104.596 70.8474 117.586 91.9474 117.586C122.067 117.586 146.487 97.1662 146.487 71.9962C146.487 46.8262 122.067 26.4062 91.9474 26.4062C71.4174 26.4062 48.7674 42.0862 38.0674 57.4262" fill="#FECB8B"/>
<path d="M89.9277 107.736C95.4177 110.696 107.138 111.906 115.888 110.026C123.868 108.306 107.688 119.516 90.6978 119.016L89.9377 107.736H89.9277Z" fill="#FF6700"/>
<path d="M30.9276 63.5556C22.7776 45.7856 10.6776 39.5156 7.72756 47.2356C5.90756 19.5456 29.5676 45.2856 34.2276 55.9656L30.9276 63.5556Z" fill="#FECB8B"/>
<path d="M13.9976 107.605C26.0176 107.215 31.3376 88.5451 31.2876 82.4551L38.0376 93.175C30.5976 103.195 22.6476 108.655 13.9976 107.605Z" fill="black"/>
<path d="M13.9976 107.605C26.0176 107.215 31.3376 88.5451 31.2876 82.4551L38.0376 93.175C30.5976 103.195 22.6476 108.655 13.9976 107.605Z" fill="black" fill-opacity="0.2"/>
<path d="M13.9976 107.605C26.0176 107.215 31.3376 88.5451 31.2876 82.4551L38.0376 93.175C30.5976 103.195 22.6476 108.655 13.9976 107.605Z" fill="black"/>
<path d="M13.9976 107.605C26.0176 107.215 31.3376 88.5451 31.2876 82.4551L38.0376 93.175C30.5976 103.195 22.6476 108.655 13.9976 107.605Z" fill="black" fill-opacity="0.2"/>
<path d="M35.7673 80.8848C38.1173 83.2148 30.9473 70.6948 34.9473 62.5248C55.4173 20.6148 100.437 26.8248 96.2073 28.4048C61.2273 41.5048 57.9273 79.1448 75.3273 103.005L63.0173 108.425C56.8473 109.195 33.7373 89.5348 35.7673 80.9048V80.8848Z" fill="#FF6700"/>
<path d="M41.9475 95.5646C35.7375 105.165 25.4875 116.085 12.9375 114.545C8.43754 113.985 4.67753 111.335 3.33753 106.605C0.557529 96.6646 6.81754 82.0046 11.0975 73.0346C11.0975 73.0346 11.0975 76.2546 11.0975 76.2446C6.48754 66.5246 -0.70247 50.2146 1.30753 39.4746C3.01753 31.0446 11.1575 30.1046 17.9875 32.4846C25.3475 35.1246 30.6275 40.8246 34.9775 46.8846C37.0575 49.8446 38.8975 52.9246 40.5475 56.1046C42.1375 59.4346 37.4275 61.8846 35.5975 58.7146C31.0675 50.6146 25.0075 41.5446 16.0375 38.3046C13.4075 37.4246 9.88753 37.3146 8.86753 38.2946C5.65753 41.2846 8.40753 50.4946 9.58753 54.4746C11.5975 60.7946 14.3575 67.1446 17.3575 73.0346C17.8975 74.0746 17.8575 75.2646 17.3575 76.2446C14.7875 81.4946 12.4875 87.1646 10.9775 92.8046C10.0275 96.7246 8.20754 104.155 11.5475 106.845C13.2875 107.815 15.4575 107.825 17.4275 107.515C24.0175 106.255 29.4075 100.685 33.4775 95.4446C34.3175 94.3446 35.1975 93.0846 35.9175 91.9246C38.4575 88.0346 44.2175 91.5146 41.9275 95.5746L41.9475 95.5646Z" fill="black"/>
<path d="M41.9475 95.5646C35.7375 105.165 25.4875 116.085 12.9375 114.545C8.43754 113.985 4.67753 111.335 3.33753 106.605C0.557529 96.6646 6.81754 82.0046 11.0975 73.0346C11.0975 73.0346 11.0975 76.2546 11.0975 76.2446C6.48754 66.5246 -0.70247 50.2146 1.30753 39.4746C3.01753 31.0446 11.1575 30.1046 17.9875 32.4846C25.3475 35.1246 30.6275 40.8246 34.9775 46.8846C37.0575 49.8446 38.8975 52.9246 40.5475 56.1046C42.1375 59.4346 37.4275 61.8846 35.5975 58.7146C31.0675 50.6146 25.0075 41.5446 16.0375 38.3046C13.4075 37.4246 9.88753 37.3146 8.86753 38.2946C5.65753 41.2846 8.40753 50.4946 9.58753 54.4746C11.5975 60.7946 14.3575 67.1446 17.3575 73.0346C17.8975 74.0746 17.8575 75.2646 17.3575 76.2446C14.7875 81.4946 12.4875 87.1646 10.9775 92.8046C10.0275 96.7246 8.20754 104.155 11.5475 106.845C13.2875 107.815 15.4575 107.825 17.4275 107.515C24.0175 106.255 29.4075 100.685 33.4775 95.4446C34.3175 94.3446 35.1975 93.0846 35.9175 91.9246C38.4575 88.0346 44.2175 91.5146 41.9275 95.5746L41.9475 95.5646Z" fill="black" fill-opacity="0.2"/>
<path d="M41.9475 95.5646C35.7375 105.165 25.4875 116.085 12.9375 114.545C8.43754 113.985 4.67753 111.335 3.33753 106.605C0.557529 96.6646 6.81754 82.0046 11.0975 73.0346C11.0975 73.0346 11.0975 76.2546 11.0975 76.2446C6.48754 66.5246 -0.70247 50.2146 1.30753 39.4746C3.01753 31.0446 11.1575 30.1046 17.9875 32.4846C25.3475 35.1246 30.6275 40.8246 34.9775 46.8846C37.0575 49.8446 38.8975 52.9246 40.5475 56.1046C42.1375 59.4346 37.4275 61.8846 35.5975 58.7146C31.0675 50.6146 25.0075 41.5446 16.0375 38.3046C13.4075 37.4246 9.88753 37.3146 8.86753 38.2946C5.65753 41.2846 8.40753 50.4946 9.58753 54.4746C11.5975 60.7946 14.3575 67.1446 17.3575 73.0346C17.8975 74.0746 17.8575 75.2646 17.3575 76.2446C14.7875 81.4946 12.4875 87.1646 10.9775 92.8046C10.0275 96.7246 8.20754 104.155 11.5475 106.845C13.2875 107.815 15.4575 107.825 17.4275 107.515C24.0175 106.255 29.4075 100.685 33.4775 95.4446C34.3175 94.3446 35.1975 93.0846 35.9175 91.9246C38.4575 88.0346 44.2175 91.5146 41.9275 95.5746L41.9475 95.5646Z" fill="black"/>
<path d="M41.9475 95.5646C35.7375 105.165 25.4875 116.085 12.9375 114.545C8.43754 113.985 4.67753 111.335 3.33753 106.605C0.557529 96.6646 6.81754 82.0046 11.0975 73.0346C11.0975 73.0346 11.0975 76.2546 11.0975 76.2446C6.48754 66.5246 -0.70247 50.2146 1.30753 39.4746C3.01753 31.0446 11.1575 30.1046 17.9875 32.4846C25.3475 35.1246 30.6275 40.8246 34.9775 46.8846C37.0575 49.8446 38.8975 52.9246 40.5475 56.1046C42.1375 59.4346 37.4275 61.8846 35.5975 58.7146C31.0675 50.6146 25.0075 41.5446 16.0375 38.3046C13.4075 37.4246 9.88753 37.3146 8.86753 38.2946C5.65753 41.2846 8.40753 50.4946 9.58753 54.4746C11.5975 60.7946 14.3575 67.1446 17.3575 73.0346C17.8975 74.0746 17.8575 75.2646 17.3575 76.2446C14.7875 81.4946 12.4875 87.1646 10.9775 92.8046C10.0275 96.7246 8.20754 104.155 11.5475 106.845C13.2875 107.815 15.4575 107.825 17.4275 107.515C24.0175 106.255 29.4075 100.685 33.4775 95.4446C34.3175 94.3446 35.1975 93.0846 35.9175 91.9246C38.4575 88.0346 44.2175 91.5146 41.9275 95.5746L41.9475 95.5646Z" fill="black" fill-opacity="0.2"/>
<path d="M32.1477 61.0561C42.5777 42.2961 65.5277 26.2761 86.8777 23.7561C109.468 21.7261 134.118 32.6261 144.568 53.4461C157.498 79.8561 140.798 107.686 114.808 117.236C105.888 120.596 96.2577 121.876 86.7777 121.086C69.2077 119.216 52.6977 110.366 40.8277 97.3961C39.8477 96.3961 38.5777 94.7061 37.6777 93.6261C35.1377 90.3561 33.0377 86.7861 31.4377 82.8961C30.8977 81.6161 31.4977 80.1362 32.7777 79.5962C33.9977 79.0762 35.3977 79.5961 35.9877 80.7561C38.6277 85.9461 42.4577 90.6361 46.8877 94.6861C59.7477 106.456 77.4677 114.646 95.0977 113.716C117.968 112.966 143.278 97.4061 143.958 72.5561C144.558 47.3661 119.578 30.4561 96.3377 29.4161C84.5177 28.3561 72.8677 32.5661 62.6577 38.8661C52.6977 45.1461 43.2777 53.6361 37.7177 63.9961C35.6577 67.6361 30.2877 64.7962 32.1477 61.0362H32.1377L32.1477 61.0561Z" fill="black"/>
<path d="M32.1477 61.0561C42.5777 42.2961 65.5277 26.2761 86.8777 23.7561C109.468 21.7261 134.118 32.6261 144.568 53.4461C157.498 79.8561 140.798 107.686 114.808 117.236C105.888 120.596 96.2577 121.876 86.7777 121.086C69.2077 119.216 52.6977 110.366 40.8277 97.3961C39.8477 96.3961 38.5777 94.7061 37.6777 93.6261C35.1377 90.3561 33.0377 86.7861 31.4377 82.8961C30.8977 81.6161 31.4977 80.1362 32.7777 79.5962C33.9977 79.0762 35.3977 79.5961 35.9877 80.7561C38.6277 85.9461 42.4577 90.6361 46.8877 94.6861C59.7477 106.456 77.4677 114.646 95.0977 113.716C117.968 112.966 143.278 97.4061 143.958 72.5561C144.558 47.3661 119.578 30.4561 96.3377 29.4161C84.5177 28.3561 72.8677 32.5661 62.6577 38.8661C52.6977 45.1461 43.2777 53.6361 37.7177 63.9961C35.6577 67.6361 30.2877 64.7962 32.1477 61.0362H32.1377L32.1477 61.0561Z" fill="black" fill-opacity="0.2"/>
<path d="M32.1477 61.0561C42.5777 42.2961 65.5277 26.2761 86.8777 23.7561C109.468 21.7261 134.118 32.6261 144.568 53.4461C157.498 79.8561 140.798 107.686 114.808 117.236C105.888 120.596 96.2577 121.876 86.7777 121.086C69.2077 119.216 52.6977 110.366 40.8277 97.3961C39.8477 96.3961 38.5777 94.7061 37.6777 93.6261C35.1377 90.3561 33.0377 86.7861 31.4377 82.8961C30.8977 81.6161 31.4977 80.1362 32.7777 79.5962C33.9977 79.0762 35.3977 79.5961 35.9877 80.7561C38.6277 85.9461 42.4577 90.6361 46.8877 94.6861C59.7477 106.456 77.4677 114.646 95.0977 113.716C117.968 112.966 143.278 97.4061 143.958 72.5561C144.558 47.3661 119.578 30.4561 96.3377 29.4161C84.5177 28.3561 72.8677 32.5661 62.6577 38.8661C52.6977 45.1461 43.2777 53.6361 37.7177 63.9961C35.6577 67.6361 30.2877 64.7962 32.1477 61.0362H32.1377L32.1477 61.0561Z" fill="black"/>
<path d="M32.1477 61.0561C42.5777 42.2961 65.5277 26.2761 86.8777 23.7561C109.468 21.7261 134.118 32.6261 144.568 53.4461C157.498 79.8561 140.798 107.686 114.808 117.236C105.888 120.596 96.2577 121.876 86.7777 121.086C69.2077 119.216 52.6977 110.366 40.8277 97.3961C39.8477 96.3961 38.5777 94.7061 37.6777 93.6261C35.1377 90.3561 33.0377 86.7861 31.4377 82.8961C30.8977 81.6161 31.4977 80.1362 32.7777 79.5962C33.9977 79.0762 35.3977 79.5961 35.9877 80.7561C38.6277 85.9461 42.4577 90.6361 46.8877 94.6861C59.7477 106.456 77.4677 114.646 95.0977 113.716C117.968 112.966 143.278 97.4061 143.958 72.5561C144.558 47.3661 119.578 30.4561 96.3377 29.4161C84.5177 28.3561 72.8677 32.5661 62.6577 38.8661C52.6977 45.1461 43.2777 53.6361 37.7177 63.9961C35.6577 67.6361 30.2877 64.7962 32.1477 61.0362H32.1377L32.1477 61.0561Z" fill="black" fill-opacity="0.2"/>
<path d="M80.6874 128.375C89.4774 122.505 93.6174 113.265 89.9274 107.735C86.2374 102.205 76.1174 102.485 67.3274 108.355C58.5374 114.225 54.3974 123.465 58.0874 128.995C61.7774 134.525 71.8974 134.245 80.6874 128.375Z" fill="#FECB8B"/>
<path d="M90.4874 110.856C89.8274 109.486 88.7274 106.586 87.3874 105.756C88.7974 111.396 83.6374 119.656 75.1974 123.736C68.1974 127.116 61.5574 124.266 59.3574 117.986C59.4774 118.486 57.0274 126.466 57.2574 126.926C60.0474 132.696 69.7474 133.776 78.9174 129.336C88.0974 124.896 93.2774 116.626 90.4874 110.856Z" fill="#FF6700"/>
<path d="M76.0377 105.346C70.7177 108.986 65.3678 113.206 62.4178 118.776C60.1578 123.176 59.4978 128.226 65.6078 129.016C69.9378 129.556 74.5177 128.026 78.3277 125.876C82.3477 123.636 85.5177 120.076 87.2077 115.756C88.2377 112.956 88.6677 109.716 87.4077 106.946C87.0377 106.256 87.3377 105.386 88.0477 105.056C90.2577 104.026 91.8877 109.526 92.0577 111.036C92.8877 117.066 90.4477 123.086 86.4877 127.586C79.3577 135.606 63.1978 141.556 55.1378 131.706C48.9378 122.766 56.6377 111.496 64.3777 106.696C67.5877 104.606 71.0678 103.116 74.6378 102.186C75.5678 101.946 76.5277 102.506 76.7677 103.436C76.9577 104.186 76.6477 104.936 76.0377 105.326V105.346Z" fill="black"/>
<path d="M76.0377 105.346C70.7177 108.986 65.3678 113.206 62.4178 118.776C60.1578 123.176 59.4978 128.226 65.6078 129.016C69.9378 129.556 74.5177 128.026 78.3277 125.876C82.3477 123.636 85.5177 120.076 87.2077 115.756C88.2377 112.956 88.6677 109.716 87.4077 106.946C87.0377 106.256 87.3377 105.386 88.0477 105.056C90.2577 104.026 91.8877 109.526 92.0577 111.036C92.8877 117.066 90.4477 123.086 86.4877 127.586C79.3577 135.606 63.1978 141.556 55.1378 131.706C48.9378 122.766 56.6377 111.496 64.3777 106.696C67.5877 104.606 71.0678 103.116 74.6378 102.186C75.5678 101.946 76.5277 102.506 76.7677 103.436C76.9577 104.186 76.6477 104.936 76.0377 105.326V105.346Z" fill="black" fill-opacity="0.2"/>
<path d="M76.0377 105.346C70.7177 108.986 65.3678 113.206 62.4178 118.776C60.1578 123.176 59.4978 128.226 65.6078 129.016C69.9378 129.556 74.5177 128.026 78.3277 125.876C82.3477 123.636 85.5177 120.076 87.2077 115.756C88.2377 112.956 88.6677 109.716 87.4077 106.946C87.0377 106.256 87.3377 105.386 88.0477 105.056C90.2577 104.026 91.8877 109.526 92.0577 111.036C92.8877 117.066 90.4477 123.086 86.4877 127.586C79.3577 135.606 63.1978 141.556 55.1378 131.706C48.9378 122.766 56.6377 111.496 64.3777 106.696C67.5877 104.606 71.0678 103.116 74.6378 102.186C75.5678 101.946 76.5277 102.506 76.7677 103.436C76.9577 104.186 76.6477 104.936 76.0377 105.326V105.346Z" fill="black"/>
<path d="M76.0377 105.346C70.7177 108.986 65.3678 113.206 62.4178 118.776C60.1578 123.176 59.4978 128.226 65.6078 129.016C69.9378 129.556 74.5177 128.026 78.3277 125.876C82.3477 123.636 85.5177 120.076 87.2077 115.756C88.2377 112.956 88.6677 109.716 87.4077 106.946C87.0377 106.256 87.3377 105.386 88.0477 105.056C90.2577 104.026 91.8877 109.526 92.0577 111.036C92.8877 117.066 90.4477 123.086 86.4877 127.586C79.3577 135.606 63.1978 141.556 55.1378 131.706C48.9378 122.766 56.6377 111.496 64.3777 106.696C67.5877 104.606 71.0678 103.116 74.6378 102.186C75.5678 101.946 76.5277 102.506 76.7677 103.436C76.9577 104.186 76.6477 104.936 76.0377 105.326V105.346Z" fill="black" fill-opacity="0.2"/>
<path d="M122.228 67.3546C125.428 66.4446 126.798 61.3746 125.288 56.0146C123.768 50.6646 119.948 47.0546 116.748 47.9646C113.538 48.8746 112.178 53.9446 113.688 59.3046C115.198 64.6546 119.028 68.2646 122.228 67.3546Z" fill="black"/>
<path d="M122.228 67.3546C125.428 66.4446 126.798 61.3746 125.288 56.0146C123.768 50.6646 119.948 47.0546 116.748 47.9646C113.538 48.8746 112.178 53.9446 113.688 59.3046C115.198 64.6546 119.028 68.2646 122.228 67.3546Z" fill="black" fill-opacity="0.2"/>
<path d="M122.228 67.3546C125.428 66.4446 126.798 61.3746 125.288 56.0146C123.768 50.6646 119.948 47.0546 116.748 47.9646C113.538 48.8746 112.178 53.9446 113.688 59.3046C115.198 64.6546 119.028 68.2646 122.228 67.3546Z" fill="black"/>
<path d="M122.228 67.3546C125.428 66.4446 126.798 61.3746 125.288 56.0146C123.768 50.6646 119.948 47.0546 116.748 47.9646C113.538 48.8746 112.178 53.9446 113.688 59.3046C115.198 64.6546 119.028 68.2646 122.228 67.3546Z" fill="black" fill-opacity="0.2"/>
<path d="M125.408 60.0562C126.658 59.7062 127.248 57.8962 126.718 56.0362C126.188 54.1662 124.748 52.9462 123.488 53.2962C122.238 53.6462 121.648 55.4562 122.178 57.3162C122.708 59.1862 124.148 60.4062 125.408 60.0562Z" fill="white"/>
<path d="M105.118 72.9363C105.068 72.9063 105.038 72.9363 104.848 73.1063C104.688 73.2663 104.468 73.6063 104.368 73.8863C103.758 75.2363 104.748 77.1563 106.248 77.4163C106.748 77.5563 107.398 77.4563 107.778 77.3463C107.928 77.3063 107.798 77.4263 108.038 77.3063C109.078 76.5763 109.468 75.3063 109.018 74.0563C108.518 72.7963 107.288 72.1363 106.078 72.2763C105.998 72.2963 105.808 72.3163 105.718 72.3363C105.618 72.3563 105.648 72.3363 105.658 72.3163C108.798 70.9363 112.218 70.3663 115.638 70.4863C117.068 70.5663 118.168 71.7963 118.088 73.2263C117.968 75.5263 115.518 75.7863 113.748 76.2363C112.568 76.5063 110.208 77.0563 109.028 77.3363C108.268 77.5163 107.308 77.8563 106.528 77.8963C104.128 78.0263 102.658 75.1063 104.258 73.2563C104.618 72.7963 105.208 72.5163 105.698 72.3863C105.948 72.3263 106.308 72.1863 106.738 72.1863C109.038 72.0863 110.348 74.8463 108.898 76.5363C106.218 79.4163 102.238 75.6163 105.128 72.9663L105.118 72.9363Z" fill="black"/>
<path d="M105.118 72.9363C105.068 72.9063 105.038 72.9363 104.848 73.1063C104.688 73.2663 104.468 73.6063 104.368 73.8863C103.758 75.2363 104.748 77.1563 106.248 77.4163C106.748 77.5563 107.398 77.4563 107.778 77.3463C107.928 77.3063 107.798 77.4263 108.038 77.3063C109.078 76.5763 109.468 75.3063 109.018 74.0563C108.518 72.7963 107.288 72.1363 106.078 72.2763C105.998 72.2963 105.808 72.3163 105.718 72.3363C105.618 72.3563 105.648 72.3363 105.658 72.3163C108.798 70.9363 112.218 70.3663 115.638 70.4863C117.068 70.5663 118.168 71.7963 118.088 73.2263C117.968 75.5263 115.518 75.7863 113.748 76.2363C112.568 76.5063 110.208 77.0563 109.028 77.3363C108.268 77.5163 107.308 77.8563 106.528 77.8963C104.128 78.0263 102.658 75.1063 104.258 73.2563C104.618 72.7963 105.208 72.5163 105.698 72.3863C105.948 72.3263 106.308 72.1863 106.738 72.1863C109.038 72.0863 110.348 74.8463 108.898 76.5363C106.218 79.4163 102.238 75.6163 105.128 72.9663L105.118 72.9363Z" fill="black" fill-opacity="0.2"/>
<path d="M90.1976 53.9848C94.8676 54.7748 99.4976 55.6948 104.158 56.5548C105.728 56.8448 106.768 58.3448 106.478 59.9148C106.168 61.7848 104.248 62.3248 102.738 62.8948C101.568 63.2548 98.6676 63.9949 97.4476 64.3349C95.0976 64.9749 92.7476 65.6148 90.3676 66.1948C89.3576 66.4448 88.3376 65.8248 88.0876 64.8248C87.8676 63.9548 88.3076 63.0748 89.0776 62.6848C91.2676 61.5948 93.4676 60.5549 95.6776 59.5249C97.6476 58.6649 100.308 57.1448 102.378 56.6348L102.638 62.2849C98.1776 60.7249 93.6876 59.2249 89.2476 57.5949C87.1276 56.8049 87.9876 53.6148 90.2076 53.9848H90.1976Z" fill="black"/>
<path d="M90.1976 53.9848C94.8676 54.7748 99.4976 55.6948 104.158 56.5548C105.728 56.8448 106.768 58.3448 106.478 59.9148C106.168 61.7848 104.248 62.3248 102.738 62.8948C101.568 63.2548 98.6676 63.9949 97.4476 64.3349C95.0976 64.9749 92.7476 65.6148 90.3676 66.1948C89.3576 66.4448 88.3376 65.8248 88.0876 64.8248C87.8676 63.9548 88.3076 63.0748 89.0776 62.6848C91.2676 61.5948 93.4676 60.5549 95.6776 59.5249C97.6476 58.6649 100.308 57.1448 102.378 56.6348L102.638 62.2849C98.1776 60.7249 93.6876 59.2249 89.2476 57.5949C87.1276 56.8049 87.9876 53.6148 90.2076 53.9848H90.1976Z" fill="black" fill-opacity="0.2"/>
</svg>
