<svg width="178" height="140" viewBox="0 0 178 140" fill="none" xmlns="http://www.w3.org/2000/svg">
<path d="M161.47 91.3446C151.05 93.1746 135.39 90.3646 134.24 83.8346C133.09 77.3046 146.9 69.5245 157.31 67.6945C167.73 65.8645 175.94 70.1746 177.08 76.7046C178.23 83.2346 171.88 89.5146 161.46 91.3446H161.47Z" fill="black"/>
<path d="M161.47 91.3446C151.05 93.1746 135.39 90.3646 134.24 83.8346C133.09 77.3046 146.9 69.5245 157.31 67.6945C167.73 65.8645 175.94 70.1746 177.08 76.7046C178.23 83.2346 171.88 89.5146 161.46 91.3446H161.47Z" fill="black" fill-opacity="0.2"/>
<path d="M37.4896 58.3239C33.1496 50.0839 23.5396 35.2339 10.7496 35.3839C-6.9304 35.5939 13.6496 75.554 13.6496 75.554C13.6496 75.554 -3.0404 108.274 11.5096 111.734C26.0696 115.194 38.3496 94.684 38.3496 94.684" fill="#FF6700"/>
<path d="M115.45 38.3832C115.45 38.3832 103.59 15.6132 77.4997 5.41318C64.9497 0.513183 59.8497 8.1532 67.0897 17.7732C76.3097 30.0232 41.3697 5.90319 63.7997 45.7632L115.46 38.3732L115.45 38.3832Z" fill="#FF6700"/>
<path d="M95.6297 29.3043L106.83 25.9843L87.6797 10.3743L69.9997 3.9043L63.9697 8.0943C63.9697 8.0943 89.5497 16.6143 95.6197 29.3143L95.6297 29.3043Z" fill="#FECB8B"/>
<path d="M112.32 36.7837C111.77 37.5837 111.77 39.0537 112.27 39.7837V39.7537L112.22 39.6537C110.59 35.3737 107.99 31.5137 105.09 27.9837C98.5195 20.3037 90.2095 14.0937 81.0495 9.90374C77.6895 8.55374 73.5995 6.62372 70.0895 6.94372C66.0495 7.15372 66.7495 10.4537 68.2295 13.1437C69.9295 16.1937 74.1395 19.6137 71.4795 23.4437C69.1695 26.5837 64.5895 24.9837 61.5795 25.1837C60.6795 25.1937 60.0095 25.4437 60.0595 25.4937C60.0595 25.5137 60.1695 25.4137 60.1795 25.4037C59.8695 28.2037 61.4695 31.5737 62.5595 34.2937C62.8995 35.0937 63.5895 36.7037 63.9595 37.4937C64.9295 39.6437 65.9295 41.8137 66.8695 44.0437L63.3095 42.2837C79.7495 39.8637 95.6895 38.3237 112.34 36.7737L112.32 36.7837ZM118.58 39.9937C100.8 43.3837 82.2895 46.7537 64.2595 49.2537C62.7895 49.4637 61.3995 48.7137 60.7195 47.4937C56.9795 42.1337 53.8995 36.2637 52.5195 29.7337C50.6895 20.0237 56.5195 16.3037 65.5495 17.8937C66.1195 17.9637 66.6795 18.0237 66.9995 18.0337C67.1395 18.0437 67.2395 18.0137 66.9995 18.0837C65.9195 18.4037 65.0395 19.5737 65.0395 20.7137C65.0195 20.9337 65.0595 21.1937 65.1295 21.3837C64.3195 19.7337 62.8695 18.1037 62.0895 16.2537C60.6995 13.2937 59.8495 9.95373 61.0495 6.54373C63.6795 -0.516273 72.5495 0.163735 78.1395 2.61373C79.8795 3.34373 81.6695 4.24373 83.3895 5.01373C84.9295 5.90373 86.8895 6.88375 88.3895 7.81375L91.6095 9.85372C100.08 15.4737 107.18 22.8437 113.66 30.6037C114.89 32.0237 116.14 33.6437 117.32 35.1137L117.93 35.8937L118.24 36.2937L118.32 36.3937C118.97 37.3637 119.05 38.9238 118.59 39.9738L118.58 39.9937Z" fill="black"/>
<path d="M112.32 36.7837C111.77 37.5837 111.77 39.0537 112.27 39.7837V39.7537L112.22 39.6537C110.59 35.3737 107.99 31.5137 105.09 27.9837C98.5195 20.3037 90.2095 14.0937 81.0495 9.90374C77.6895 8.55374 73.5995 6.62372 70.0895 6.94372C66.0495 7.15372 66.7495 10.4537 68.2295 13.1437C69.9295 16.1937 74.1395 19.6137 71.4795 23.4437C69.1695 26.5837 64.5895 24.9837 61.5795 25.1837C60.6795 25.1937 60.0095 25.4437 60.0595 25.4937C60.0595 25.5137 60.1695 25.4137 60.1795 25.4037C59.8695 28.2037 61.4695 31.5737 62.5595 34.2937C62.8995 35.0937 63.5895 36.7037 63.9595 37.4937C64.9295 39.6437 65.9295 41.8137 66.8695 44.0437L63.3095 42.2837C79.7495 39.8637 95.6895 38.3237 112.34 36.7737L112.32 36.7837ZM118.58 39.9937C100.8 43.3837 82.2895 46.7537 64.2595 49.2537C62.7895 49.4637 61.3995 48.7137 60.7195 47.4937C56.9795 42.1337 53.8995 36.2637 52.5195 29.7337C50.6895 20.0237 56.5195 16.3037 65.5495 17.8937C66.1195 17.9637 66.6795 18.0237 66.9995 18.0337C67.1395 18.0437 67.2395 18.0137 66.9995 18.0837C65.9195 18.4037 65.0395 19.5737 65.0395 20.7137C65.0195 20.9337 65.0595 21.1937 65.1295 21.3837C64.3195 19.7337 62.8695 18.1037 62.0895 16.2537C60.6995 13.2937 59.8495 9.95373 61.0495 6.54373C63.6795 -0.516273 72.5495 0.163735 78.1395 2.61373C79.8795 3.34373 81.6695 4.24373 83.3895 5.01373C84.9295 5.90373 86.8895 6.88375 88.3895 7.81375L91.6095 9.85372C100.08 15.4737 107.18 22.8437 113.66 30.6037C114.89 32.0237 116.14 33.6437 117.32 35.1137L117.93 35.8937L118.24 36.2937L118.32 36.3937C118.97 37.3637 119.05 38.9238 118.59 39.9738L118.58 39.9937Z" fill="black" fill-opacity="0.2"/>
<path d="M112.32 36.7837C111.77 37.5837 111.77 39.0537 112.27 39.7837V39.7537L112.22 39.6537C110.59 35.3737 107.99 31.5137 105.09 27.9837C98.5195 20.3037 90.2095 14.0937 81.0495 9.90374C77.6895 8.55374 73.5995 6.62372 70.0895 6.94372C66.0495 7.15372 66.7495 10.4537 68.2295 13.1437C69.9295 16.1937 74.1395 19.6137 71.4795 23.4437C69.1695 26.5837 64.5895 24.9837 61.5795 25.1837C60.6795 25.1937 60.0095 25.4437 60.0595 25.4937C60.0595 25.5137 60.1695 25.4137 60.1795 25.4037C59.8695 28.2037 61.4695 31.5737 62.5595 34.2937C62.8995 35.0937 63.5895 36.7037 63.9595 37.4937C64.9295 39.6437 65.9295 41.8137 66.8695 44.0437L63.3095 42.2837C79.7495 39.8637 95.6895 38.3237 112.34 36.7737L112.32 36.7837ZM118.58 39.9937C100.8 43.3837 82.2895 46.7537 64.2595 49.2537C62.7895 49.4637 61.3995 48.7137 60.7195 47.4937C56.9795 42.1337 53.8995 36.2637 52.5195 29.7337C50.6895 20.0237 56.5195 16.3037 65.5495 17.8937C66.1195 17.9637 66.6795 18.0237 66.9995 18.0337C67.1395 18.0437 67.2395 18.0137 66.9995 18.0837C65.9195 18.4037 65.0395 19.5737 65.0395 20.7137C65.0195 20.9337 65.0595 21.1937 65.1295 21.3837C64.3195 19.7337 62.8695 18.1037 62.0895 16.2537C60.6995 13.2937 59.8495 9.95373 61.0495 6.54373C63.6795 -0.516273 72.5495 0.163735 78.1395 2.61373C79.8795 3.34373 81.6695 4.24373 83.3895 5.01373C84.9295 5.90373 86.8895 6.88375 88.3895 7.81375L91.6095 9.85372C100.08 15.4737 107.18 22.8437 113.66 30.6037C114.89 32.0237 116.14 33.6437 117.32 35.1137L117.93 35.8937L118.24 36.2937L118.32 36.3937C118.97 37.3637 119.05 38.9238 118.59 39.9738L118.58 39.9937Z" fill="black"/>
<path d="M112.32 36.7837C111.77 37.5837 111.77 39.0537 112.27 39.7837V39.7537L112.22 39.6537C110.59 35.3737 107.99 31.5137 105.09 27.9837C98.5195 20.3037 90.2095 14.0937 81.0495 9.90374C77.6895 8.55374 73.5995 6.62372 70.0895 6.94372C66.0495 7.15372 66.7495 10.4537 68.2295 13.1437C69.9295 16.1937 74.1395 19.6137 71.4795 23.4437C69.1695 26.5837 64.5895 24.9837 61.5795 25.1837C60.6795 25.1937 60.0095 25.4437 60.0595 25.4937C60.0595 25.5137 60.1695 25.4137 60.1795 25.4037C59.8695 28.2037 61.4695 31.5737 62.5595 34.2937C62.8995 35.0937 63.5895 36.7037 63.9595 37.4937C64.9295 39.6437 65.9295 41.8137 66.8695 44.0437L63.3095 42.2837C79.7495 39.8637 95.6895 38.3237 112.34 36.7737L112.32 36.7837ZM118.58 39.9937C100.8 43.3837 82.2895 46.7537 64.2595 49.2537C62.7895 49.4637 61.3995 48.7137 60.7195 47.4937C56.9795 42.1337 53.8995 36.2637 52.5195 29.7337C50.6895 20.0237 56.5195 16.3037 65.5495 17.8937C66.1195 17.9637 66.6795 18.0237 66.9995 18.0337C67.1395 18.0437 67.2395 18.0137 66.9995 18.0837C65.9195 18.4037 65.0395 19.5737 65.0395 20.7137C65.0195 20.9337 65.0595 21.1937 65.1295 21.3837C64.3195 19.7337 62.8695 18.1037 62.0895 16.2537C60.6995 13.2937 59.8495 9.95373 61.0495 6.54373C63.6795 -0.516273 72.5495 0.163735 78.1395 2.61373C79.8795 3.34373 81.6695 4.24373 83.3895 5.01373C84.9295 5.90373 86.8895 6.88375 88.3895 7.81375L91.6095 9.85372C100.08 15.4737 107.18 22.8437 113.66 30.6037C114.89 32.0237 116.14 33.6437 117.32 35.1137L117.93 35.8937L118.24 36.2937L118.32 36.3937C118.97 37.3637 119.05 38.9238 118.59 39.9738L118.58 39.9937Z" fill="black" fill-opacity="0.2"/>
<path d="M38.3395 94.6742L38.4995 91.6542C49.2195 105.514 70.2595 118.504 91.3595 118.504C121.479 118.504 145.899 98.0842 145.899 72.9142C145.899 47.7442 121.479 27.3242 91.3595 27.3242C70.8295 27.3242 48.1795 43.0042 37.4795 58.3442" fill="#FECB8B"/>
<path d="M30.3294 64.4638C22.1794 46.6938 10.0794 40.4238 7.12941 48.1438C5.30941 20.4538 28.9694 46.1938 33.6294 56.8738L30.3294 64.4638Z" fill="#FECB8B"/>
<path d="M13.4097 108.513C25.4297 108.123 30.7497 89.4533 30.6997 83.3633L37.4497 94.0833C30.0097 104.103 22.0597 109.563 13.4097 108.513Z" fill="black"/>
<path d="M13.4097 108.513C25.4297 108.123 30.7497 89.4533 30.6997 83.3633L37.4497 94.0833C30.0097 104.103 22.0597 109.563 13.4097 108.513Z" fill="black" fill-opacity="0.2"/>
<path d="M13.4097 108.513C25.4297 108.123 30.7497 89.4533 30.6997 83.3633L37.4497 94.0833C30.0097 104.103 22.0597 109.563 13.4097 108.513Z" fill="black"/>
<path d="M13.4097 108.513C25.4297 108.123 30.7497 89.4533 30.6997 83.3633L37.4497 94.0833C30.0097 104.103 22.0597 109.563 13.4097 108.513Z" fill="black" fill-opacity="0.2"/>
<path d="M76.5194 118.493C70.3494 119.263 33.1494 90.433 35.1794 81.803C37.5294 84.123 30.3594 71.613 34.3594 63.433C54.8294 21.523 99.8494 27.733 95.6194 29.313C60.6394 42.413 48.1394 94.153 89.3394 108.653C94.8294 111.613 106.549 112.823 115.299 110.943C123.279 109.223 87.8194 119.773 70.8194 119.283" fill="#FF6700"/>
<path d="M41.3596 96.4845C35.1496 106.085 24.8996 117.005 12.3496 115.465C7.84964 114.905 4.08964 112.255 2.74964 107.525C-0.03036 97.5845 6.22964 82.9245 10.5096 73.9545C10.5096 73.9545 10.5096 77.1745 10.5096 77.1645C5.89964 67.4445 -1.29036 51.1345 0.71964 40.3945C2.42964 31.9645 10.5696 31.0245 17.3996 33.4045C24.7596 36.0445 30.0396 41.7445 34.3896 47.8045C36.4696 50.7645 38.3096 53.8445 39.9596 57.0245C41.5496 60.3545 36.8396 62.8045 35.0096 59.6345C30.4796 51.5345 24.4196 42.4645 15.4496 39.2245C12.8196 38.3445 9.29964 38.2345 8.27964 39.2145C5.06964 42.2045 7.81964 51.4145 8.99964 55.3945C11.0096 61.7145 13.7696 68.0645 16.7696 73.9545C17.3096 74.9945 17.2696 76.1845 16.7696 77.1645C14.1996 82.4145 11.8996 88.0845 10.3896 93.7245C9.43964 97.6445 7.61964 105.075 10.9596 107.765C12.6996 108.735 14.8696 108.745 16.8396 108.435C23.4296 107.175 28.8196 101.605 32.8896 96.3645C33.7296 95.2645 34.6096 94.0045 35.3296 92.8445C37.8696 88.9545 43.6296 92.4345 41.3396 96.4945L41.3596 96.4845Z" fill="black"/>
<path d="M41.3596 96.4845C35.1496 106.085 24.8996 117.005 12.3496 115.465C7.84964 114.905 4.08964 112.255 2.74964 107.525C-0.03036 97.5845 6.22964 82.9245 10.5096 73.9545C10.5096 73.9545 10.5096 77.1745 10.5096 77.1645C5.89964 67.4445 -1.29036 51.1345 0.71964 40.3945C2.42964 31.9645 10.5696 31.0245 17.3996 33.4045C24.7596 36.0445 30.0396 41.7445 34.3896 47.8045C36.4696 50.7645 38.3096 53.8445 39.9596 57.0245C41.5496 60.3545 36.8396 62.8045 35.0096 59.6345C30.4796 51.5345 24.4196 42.4645 15.4496 39.2245C12.8196 38.3445 9.29964 38.2345 8.27964 39.2145C5.06964 42.2045 7.81964 51.4145 8.99964 55.3945C11.0096 61.7145 13.7696 68.0645 16.7696 73.9545C17.3096 74.9945 17.2696 76.1845 16.7696 77.1645C14.1996 82.4145 11.8996 88.0845 10.3896 93.7245C9.43964 97.6445 7.61964 105.075 10.9596 107.765C12.6996 108.735 14.8696 108.745 16.8396 108.435C23.4296 107.175 28.8196 101.605 32.8896 96.3645C33.7296 95.2645 34.6096 94.0045 35.3296 92.8445C37.8696 88.9545 43.6296 92.4345 41.3396 96.4945L41.3596 96.4845Z" fill="black" fill-opacity="0.2"/>
<path d="M41.3596 96.4845C35.1496 106.085 24.8996 117.005 12.3496 115.465C7.84964 114.905 4.08964 112.255 2.74964 107.525C-0.03036 97.5845 6.22964 82.9245 10.5096 73.9545C10.5096 73.9545 10.5096 77.1745 10.5096 77.1645C5.89964 67.4445 -1.29036 51.1345 0.71964 40.3945C2.42964 31.9645 10.5696 31.0245 17.3996 33.4045C24.7596 36.0445 30.0396 41.7445 34.3896 47.8045C36.4696 50.7645 38.3096 53.8445 39.9596 57.0245C41.5496 60.3545 36.8396 62.8045 35.0096 59.6345C30.4796 51.5345 24.4196 42.4645 15.4496 39.2245C12.8196 38.3445 9.29964 38.2345 8.27964 39.2145C5.06964 42.2045 7.81964 51.4145 8.99964 55.3945C11.0096 61.7145 13.7696 68.0645 16.7696 73.9545C17.3096 74.9945 17.2696 76.1845 16.7696 77.1645C14.1996 82.4145 11.8996 88.0845 10.3896 93.7245C9.43964 97.6445 7.61964 105.075 10.9596 107.765C12.6996 108.735 14.8696 108.745 16.8396 108.435C23.4296 107.175 28.8196 101.605 32.8896 96.3645C33.7296 95.2645 34.6096 94.0045 35.3296 92.8445C37.8696 88.9545 43.6296 92.4345 41.3396 96.4945L41.3596 96.4845Z" fill="black"/>
<path d="M41.3596 96.4845C35.1496 106.085 24.8996 117.005 12.3496 115.465C7.84964 114.905 4.08964 112.255 2.74964 107.525C-0.03036 97.5845 6.22964 82.9245 10.5096 73.9545C10.5096 73.9545 10.5096 77.1745 10.5096 77.1645C5.89964 67.4445 -1.29036 51.1345 0.71964 40.3945C2.42964 31.9645 10.5696 31.0245 17.3996 33.4045C24.7596 36.0445 30.0396 41.7445 34.3896 47.8045C36.4696 50.7645 38.3096 53.8445 39.9596 57.0245C41.5496 60.3545 36.8396 62.8045 35.0096 59.6345C30.4796 51.5345 24.4196 42.4645 15.4496 39.2245C12.8196 38.3445 9.29964 38.2345 8.27964 39.2145C5.06964 42.2045 7.81964 51.4145 8.99964 55.3945C11.0096 61.7145 13.7696 68.0645 16.7696 73.9545C17.3096 74.9945 17.2696 76.1845 16.7696 77.1645C14.1996 82.4145 11.8996 88.0845 10.3896 93.7245C9.43964 97.6445 7.61964 105.075 10.9596 107.765C12.6996 108.735 14.8696 108.745 16.8396 108.435C23.4296 107.175 28.8196 101.605 32.8896 96.3645C33.7296 95.2645 34.6096 94.0045 35.3296 92.8445C37.8696 88.9545 43.6296 92.4345 41.3396 96.4945L41.3596 96.4845Z" fill="black" fill-opacity="0.2"/>
<path d="M31.5598 61.9644C41.9898 43.2044 64.9398 27.1843 86.2898 24.6643C108.88 22.6343 133.53 33.5343 143.98 54.3543C156.91 80.7643 140.21 108.594 114.22 118.144C105.3 121.504 95.6698 122.784 86.1898 121.994C68.6198 120.124 52.1098 111.274 40.2398 98.3044C39.2598 97.3044 37.9898 95.6144 37.0898 94.5344C34.5498 91.2644 32.4498 87.6944 30.8498 83.8044C30.3098 82.5244 30.9098 81.0444 32.1898 80.5044C33.4098 79.9844 34.8098 80.5043 35.3998 81.6643C38.0398 86.8543 41.8698 91.5444 46.2998 95.5944C59.1598 107.364 76.8798 115.554 94.5098 114.624C117.38 113.874 142.69 98.3144 143.37 73.4644C143.97 48.2744 118.99 31.3643 95.7498 30.3243C83.9298 29.2643 72.2798 33.4744 62.0698 39.7744C52.1098 46.0544 42.6898 54.5444 37.1298 64.9044C35.0698 68.5444 29.6998 65.7043 31.5598 61.9443H31.5498L31.5598 61.9644Z" fill="black"/>
<path d="M31.5598 61.9644C41.9898 43.2044 64.9398 27.1843 86.2898 24.6643C108.88 22.6343 133.53 33.5343 143.98 54.3543C156.91 80.7643 140.21 108.594 114.22 118.144C105.3 121.504 95.6698 122.784 86.1898 121.994C68.6198 120.124 52.1098 111.274 40.2398 98.3044C39.2598 97.3044 37.9898 95.6144 37.0898 94.5344C34.5498 91.2644 32.4498 87.6944 30.8498 83.8044C30.3098 82.5244 30.9098 81.0444 32.1898 80.5044C33.4098 79.9844 34.8098 80.5043 35.3998 81.6643C38.0398 86.8543 41.8698 91.5444 46.2998 95.5944C59.1598 107.364 76.8798 115.554 94.5098 114.624C117.38 113.874 142.69 98.3144 143.37 73.4644C143.97 48.2744 118.99 31.3643 95.7498 30.3243C83.9298 29.2643 72.2798 33.4744 62.0698 39.7744C52.1098 46.0544 42.6898 54.5444 37.1298 64.9044C35.0698 68.5444 29.6998 65.7043 31.5598 61.9443H31.5498L31.5598 61.9644Z" fill="black" fill-opacity="0.2"/>
<path d="M103.53 72.3438C106.94 71.3838 108.4 65.9838 106.78 60.2838C105.17 54.5838 101.1 50.7538 97.6896 51.7138C94.2796 52.6738 92.8196 58.0738 94.4396 63.7738C96.0496 69.4738 100.12 73.3038 103.53 72.3438Z" fill="black"/>
<path d="M103.53 72.3438C106.94 71.3838 108.4 65.9838 106.78 60.2838C105.17 54.5838 101.1 50.7538 97.6896 51.7138C94.2796 52.6738 92.8196 58.0738 94.4396 63.7738C96.0496 69.4738 100.12 73.3038 103.53 72.3438Z" fill="black" fill-opacity="0.2"/>
<path d="M103.53 72.3438C106.94 71.3838 108.4 65.9838 106.78 60.2838C105.17 54.5838 101.1 50.7538 97.6896 51.7138C94.2796 52.6738 92.8196 58.0738 94.4396 63.7738C96.0496 69.4738 100.12 73.3038 103.53 72.3438Z" fill="black"/>
<path d="M103.53 72.3438C106.94 71.3838 108.4 65.9838 106.78 60.2838C105.17 54.5838 101.1 50.7538 97.6896 51.7138C94.2796 52.6738 92.8196 58.0738 94.4396 63.7738C96.0496 69.4738 100.12 73.3038 103.53 72.3438Z" fill="black" fill-opacity="0.2"/>
<path d="M107.85 69.3243C109.18 68.9443 109.81 67.0343 109.25 65.0443C108.69 63.0543 107.15 61.7543 105.82 62.1343C104.49 62.5143 103.86 64.4243 104.42 66.4143C104.98 68.4043 106.52 69.7043 107.85 69.3243Z" fill="white"/>
<path d="M121.64 68.2628C124.84 67.3528 126.21 62.2828 124.7 56.9228C123.18 51.5728 119.36 47.9628 116.16 48.8728C112.95 49.7828 111.59 54.8528 113.1 60.2128C114.61 65.5628 118.44 69.1728 121.64 68.2628Z" fill="black"/>
<path d="M121.64 68.2628C124.84 67.3528 126.21 62.2828 124.7 56.9228C123.18 51.5728 119.36 47.9628 116.16 48.8728C112.95 49.7828 111.59 54.8528 113.1 60.2128C114.61 65.5628 118.44 69.1728 121.64 68.2628Z" fill="black" fill-opacity="0.2"/>
<path d="M121.64 68.2628C124.84 67.3528 126.21 62.2828 124.7 56.9228C123.18 51.5728 119.36 47.9628 116.16 48.8728C112.95 49.7828 111.59 54.8528 113.1 60.2128C114.61 65.5628 118.44 69.1728 121.64 68.2628Z" fill="black"/>
<path d="M121.64 68.2628C124.84 67.3528 126.21 62.2828 124.7 56.9228C123.18 51.5728 119.36 47.9628 116.16 48.8728C112.95 49.7828 111.59 54.8528 113.1 60.2128C114.61 65.5628 118.44 69.1728 121.64 68.2628Z" fill="black" fill-opacity="0.2"/>
<path d="M126.269 65.4136C127.519 65.0636 128.109 63.2536 127.579 61.3936C127.049 59.5236 125.609 58.3036 124.349 58.6536C123.099 59.0036 122.509 60.8136 123.039 62.6736C123.569 64.5436 125.009 65.7636 126.269 65.4136Z" fill="white"/>
<path d="M108.54 44.4029C109.97 40.0529 115.76 37.9829 119.6 40.4429C121.36 41.4329 124.1 44.3429 121.61 45.9529C121.07 46.2729 120.47 46.2029 119.9 46.1029C118.54 45.8329 117.37 45.3329 116.02 45.3829C114.1 45.2729 112.41 46.5829 110.52 46.7729C109.2 47.0429 108.05 45.6429 108.54 44.4029Z" fill="black"/>
<path d="M108.54 44.4029C109.97 40.0529 115.76 37.9829 119.6 40.4429C121.36 41.4329 124.1 44.3429 121.61 45.9529C121.07 46.2729 120.47 46.2029 119.9 46.1029C118.54 45.8329 117.37 45.3329 116.02 45.3829C114.1 45.2729 112.41 46.5829 110.52 46.7729C109.2 47.0429 108.05 45.6429 108.54 44.4029Z" fill="black" fill-opacity="0.2"/>
<path d="M84.1797 46.6445C84.6097 37.5045 94.4597 32.4345 102.15 37.4245C103.73 38.3345 103.11 40.8445 101.32 40.9345C100.07 41.0545 98.8297 40.8645 97.6197 40.9845C93.1197 40.9345 90.1197 43.8845 87.8197 47.4945C86.7897 49.2845 84.1897 48.7545 84.1797 46.6545V46.6445Z" fill="black"/>
<path d="M84.1797 46.6445C84.6097 37.5045 94.4597 32.4345 102.15 37.4245C103.73 38.3345 103.11 40.8445 101.32 40.9345C100.07 41.0545 98.8297 40.8645 97.6197 40.9845C93.1197 40.9345 90.1197 43.8845 87.8197 47.4945C86.7897 49.2845 84.1897 48.7545 84.1797 46.6545V46.6445Z" fill="black" fill-opacity="0.2"/>
<path d="M99.6597 81.4435C99.6597 81.4435 99.7397 92.9836 108.87 92.0936C122.63 90.7436 136.04 64.8236 110.85 78.5936C104.17 82.2436 99.6697 81.4435 99.6697 81.4435H99.6597Z" fill="black"/>
<path d="M99.6597 81.4435C99.6597 81.4435 99.7397 92.9836 108.87 92.0936C122.63 90.7436 136.04 64.8236 110.85 78.5936C104.17 82.2436 99.6697 81.4435 99.6697 81.4435H99.6597Z" fill="black" fill-opacity="0.2"/>
<path d="M118.9 92.9842L112.01 136.674L131.05 130.644L150.36 108.644L167.81 101.944L174.96 57.3242L157.81 64.4642L138.16 87.0542L118.9 92.9842Z" fill="white"/>
<path d="M118.9 92.9842L112.01 136.674L131.05 130.644L150.36 108.644L167.81 101.944L174.96 57.3242L157.81 64.4642L138.16 87.0542L118.9 92.9842Z" stroke="black" stroke-width="5" stroke-linejoin="round"/>
<path d="M118.9 92.9842L112.01 136.674L131.05 130.644L150.36 108.644L167.81 101.944L174.96 57.3242L157.81 64.4642L138.16 87.0542L118.9 92.9842Z" stroke="black" stroke-opacity="0.2" stroke-width="5" stroke-linejoin="round"/>
<path d="M139.85 87.333C137.92 101.453 135.41 116.923 132.73 130.923L129.35 130.373C129.84 126.723 130.36 123.083 130.91 119.443C131.74 114.003 133.52 103.073 134.47 97.653C135.1 94.023 135.77 90.403 136.46 86.793L139.84 87.343L139.85 87.333Z" fill="black"/>
<path d="M139.85 87.333C137.92 101.453 135.41 116.923 132.73 130.923L129.35 130.373C129.84 126.723 130.36 123.083 130.91 119.443C131.74 114.003 133.52 103.073 134.47 97.653C135.1 94.023 135.77 90.403 136.46 86.793L139.84 87.343L139.85 87.333Z" fill="black" fill-opacity="0.2"/>
<path d="M159.5 64.7438C157.46 79.0538 154.83 94.7338 152.05 108.924L148.67 108.354C149.18 104.654 149.73 100.964 150.31 97.2738C151.18 91.7538 153.05 80.6838 154.04 75.1838C154.7 71.5038 155.39 67.8438 156.12 64.1738L159.5 64.7438Z" fill="black"/>
<path d="M159.5 64.7438C157.46 79.0538 154.83 94.7338 152.05 108.924L148.67 108.354C149.18 104.654 149.73 100.964 150.31 97.2738C151.18 91.7538 153.05 80.6838 154.04 75.1838C154.7 71.5038 155.39 67.8438 156.12 64.1738L159.5 64.7438Z" fill="black" fill-opacity="0.2"/>
<path d="M94.4598 126.275C84.3898 123.045 77.8798 115.295 79.9098 108.965C81.9398 102.635 91.7498 100.125 101.81 103.355C111.88 106.585 118.39 114.335 116.36 120.665C114.33 126.995 104.52 129.505 94.4598 126.275Z" fill="#FECB8B"/>
<path d="M80.2296 112.114C80.4896 110.614 80.7496 107.524 81.8096 106.354C82.0096 112.164 89.2296 118.684 98.4696 120.294C106.13 121.624 111.73 117.054 112.13 110.414C112.15 110.924 116.69 117.924 116.61 118.434C115.51 124.744 106.48 128.444 96.4396 126.704C86.3996 124.954 79.1396 118.424 80.2396 112.114H80.2296Z" fill="#FF6700"/>
<path d="M92.6097 102.844C98.7297 104.884 105.03 107.474 109.4 112.024C112.78 115.634 114.8 120.304 109.14 122.744C105.12 124.444 100.3 124.234 96.0497 123.224C91.5697 122.174 87.5397 119.624 84.7297 115.934C82.9797 113.524 81.6597 110.524 82.1197 107.524C82.2797 106.754 81.7597 106.004 80.9897 105.884C78.5797 105.494 78.5197 111.234 78.7797 112.734C79.6397 118.764 83.6397 123.874 88.6797 127.114C97.7397 132.874 114.91 134.154 119.95 122.464C123.46 112.164 112.96 103.434 104.19 100.954C100.52 99.8244 96.7697 99.3444 93.0897 99.4344C92.1297 99.4544 91.3597 100.264 91.3897 101.224C91.4097 101.994 91.9197 102.624 92.6097 102.844Z" fill="black"/>
<path d="M92.6097 102.844C98.7297 104.884 105.03 107.474 109.4 112.024C112.78 115.634 114.8 120.304 109.14 122.744C105.12 124.444 100.3 124.234 96.0497 123.224C91.5697 122.174 87.5397 119.624 84.7297 115.934C82.9797 113.524 81.6597 110.524 82.1197 107.524C82.2797 106.754 81.7597 106.004 80.9897 105.884C78.5797 105.494 78.5197 111.234 78.7797 112.734C79.6397 118.764 83.6397 123.874 88.6797 127.114C97.7397 132.874 114.91 134.154 119.95 122.464C123.46 112.164 112.96 103.434 104.19 100.954C100.52 99.8244 96.7697 99.3444 93.0897 99.4344C92.1297 99.4544 91.3597 100.264 91.3897 101.224C91.4097 101.994 91.9197 102.624 92.6097 102.844Z" fill="black" fill-opacity="0.2"/>
</svg>
