<svg width="176" height="137" viewBox="0 0 176 137" fill="none" xmlns="http://www.w3.org/2000/svg">
<path d="M37.5326 57.406C33.1926 49.166 23.5826 34.316 10.7926 34.466C-6.88743 34.676 13.6926 74.636 13.6926 74.636C13.6926 74.636 -2.99746 107.356 11.5525 110.816C26.1125 114.276 38.3925 93.766 38.3925 93.766" fill="#FF6700"/>
<path d="M108.173 126.406C115.263 119.436 117.463 110.186 113.093 105.746C108.723 101.306 99.4327 103.356 92.3527 110.326C85.2627 117.296 83.0626 126.546 87.4326 130.986C91.8026 135.426 101.093 133.376 108.173 126.406Z" fill="black"/>
<path d="M108.173 126.406C115.263 119.436 117.463 110.186 113.093 105.746C108.723 101.306 99.4327 103.356 92.3527 110.326C85.2627 117.296 83.0626 126.546 87.4326 130.986C91.8026 135.426 101.093 133.376 108.173 126.406Z" fill="black" fill-opacity="0.2"/>
<path d="M108.173 126.406C115.263 119.436 117.463 110.186 113.093 105.746C108.723 101.306 99.4327 103.356 92.3527 110.326C85.2627 117.296 83.0626 126.546 87.4326 130.986C91.8026 135.426 101.093 133.376 108.173 126.406Z" fill="black"/>
<path d="M108.173 126.406C115.263 119.436 117.463 110.186 113.093 105.746C108.723 101.306 99.4327 103.356 92.3527 110.326C85.2627 117.296 83.0626 126.546 87.4326 130.986C91.8026 135.426 101.093 133.376 108.173 126.406Z" fill="black" fill-opacity="0.2"/>
<path d="M115.493 37.475C115.493 37.475 103.633 14.705 77.5427 4.50498C64.9927 -0.395017 59.8927 7.24497 67.1327 16.865C76.3527 29.115 41.4127 4.99496 63.8427 44.855L115.503 37.465L115.493 37.475Z" fill="#FF6700"/>
<path d="M95.6727 28.3961L106.873 25.0761L87.7227 9.46613L70.0427 2.99609L64.0127 7.1861C64.0127 7.1861 89.5927 15.7061 95.6627 28.4061L95.6727 28.3961Z" fill="#FECB8B"/>
<path d="M112.363 35.8755C111.813 36.6755 111.812 38.1455 112.312 38.8755V38.8455L112.262 38.7455C110.632 34.4655 108.032 30.6055 105.132 27.0755C98.5625 19.3955 90.2525 13.1855 81.0925 8.99551C77.7325 7.64551 73.6425 5.71555 70.1325 6.03555C66.0925 6.24555 66.7925 9.5455 68.2725 12.2355C69.9725 15.2855 74.1825 18.7055 71.5225 22.5355C69.2125 25.6755 64.6325 24.0755 61.6225 24.2755C60.7225 24.2855 60.0525 24.5355 60.1025 24.5855C60.1025 24.6055 60.2125 24.5055 60.2225 24.4955C59.9125 27.2955 61.5125 30.6655 62.6025 33.3855C62.9425 34.1855 63.6325 35.7955 64.0025 36.5855C64.9725 38.7355 65.9725 40.9055 66.9125 43.1355L63.3525 41.3755C79.7925 38.9555 95.7325 37.4155 112.382 35.8655L112.363 35.8755ZM118.622 39.0855C100.842 42.4755 82.3325 45.8455 64.3025 48.3455C62.8325 48.5555 61.4425 47.8055 60.7625 46.5855C57.0225 41.2255 53.9425 35.3555 52.5625 28.8255C50.7325 19.1155 56.5625 15.3955 65.5925 16.9855C66.1625 17.0555 66.7225 17.1155 67.0425 17.1255C67.1825 17.1355 67.2825 17.1055 67.0425 17.1755C65.9625 17.4955 65.0825 18.6655 65.0825 19.8055C65.0625 20.0255 65.1025 20.2856 65.1725 20.4756C64.3625 18.8256 62.9125 17.1955 62.1325 15.3455C60.7425 12.3855 59.8925 9.04552 61.0925 5.63552C63.7225 -1.42448 72.5925 -0.744469 78.1825 1.70553C79.9225 2.43553 81.7125 3.33549 83.4325 4.10549C84.9725 4.99549 86.9325 5.97554 88.4325 6.90554L91.6525 8.94552C100.122 14.5655 107.222 21.9355 113.702 29.6955C114.932 31.1155 116.183 32.7355 117.363 34.2055L117.972 34.9855L118.282 35.3855L118.363 35.4855C119.013 36.4555 119.092 38.0155 118.632 39.0655L118.622 39.0855Z" fill="black"/>
<path d="M112.363 35.8755C111.813 36.6755 111.812 38.1455 112.312 38.8755V38.8455L112.262 38.7455C110.632 34.4655 108.032 30.6055 105.132 27.0755C98.5625 19.3955 90.2525 13.1855 81.0925 8.99551C77.7325 7.64551 73.6425 5.71555 70.1325 6.03555C66.0925 6.24555 66.7925 9.5455 68.2725 12.2355C69.9725 15.2855 74.1825 18.7055 71.5225 22.5355C69.2125 25.6755 64.6325 24.0755 61.6225 24.2755C60.7225 24.2855 60.0525 24.5355 60.1025 24.5855C60.1025 24.6055 60.2125 24.5055 60.2225 24.4955C59.9125 27.2955 61.5125 30.6655 62.6025 33.3855C62.9425 34.1855 63.6325 35.7955 64.0025 36.5855C64.9725 38.7355 65.9725 40.9055 66.9125 43.1355L63.3525 41.3755C79.7925 38.9555 95.7325 37.4155 112.382 35.8655L112.363 35.8755ZM118.622 39.0855C100.842 42.4755 82.3325 45.8455 64.3025 48.3455C62.8325 48.5555 61.4425 47.8055 60.7625 46.5855C57.0225 41.2255 53.9425 35.3555 52.5625 28.8255C50.7325 19.1155 56.5625 15.3955 65.5925 16.9855C66.1625 17.0555 66.7225 17.1155 67.0425 17.1255C67.1825 17.1355 67.2825 17.1055 67.0425 17.1755C65.9625 17.4955 65.0825 18.6655 65.0825 19.8055C65.0625 20.0255 65.1025 20.2856 65.1725 20.4756C64.3625 18.8256 62.9125 17.1955 62.1325 15.3455C60.7425 12.3855 59.8925 9.04552 61.0925 5.63552C63.7225 -1.42448 72.5925 -0.744469 78.1825 1.70553C79.9225 2.43553 81.7125 3.33549 83.4325 4.10549C84.9725 4.99549 86.9325 5.97554 88.4325 6.90554L91.6525 8.94552C100.122 14.5655 107.222 21.9355 113.702 29.6955C114.932 31.1155 116.183 32.7355 117.363 34.2055L117.972 34.9855L118.282 35.3855L118.363 35.4855C119.013 36.4555 119.092 38.0155 118.632 39.0655L118.622 39.0855Z" fill="black" fill-opacity="0.2"/>
<path d="M112.363 35.8755C111.813 36.6755 111.812 38.1455 112.312 38.8755V38.8455L112.262 38.7455C110.632 34.4655 108.032 30.6055 105.132 27.0755C98.5625 19.3955 90.2525 13.1855 81.0925 8.99551C77.7325 7.64551 73.6425 5.71555 70.1325 6.03555C66.0925 6.24555 66.7925 9.5455 68.2725 12.2355C69.9725 15.2855 74.1825 18.7055 71.5225 22.5355C69.2125 25.6755 64.6325 24.0755 61.6225 24.2755C60.7225 24.2855 60.0525 24.5355 60.1025 24.5855C60.1025 24.6055 60.2125 24.5055 60.2225 24.4955C59.9125 27.2955 61.5125 30.6655 62.6025 33.3855C62.9425 34.1855 63.6325 35.7955 64.0025 36.5855C64.9725 38.7355 65.9725 40.9055 66.9125 43.1355L63.3525 41.3755C79.7925 38.9555 95.7325 37.4155 112.382 35.8655L112.363 35.8755ZM118.622 39.0855C100.842 42.4755 82.3325 45.8455 64.3025 48.3455C62.8325 48.5555 61.4425 47.8055 60.7625 46.5855C57.0225 41.2255 53.9425 35.3555 52.5625 28.8255C50.7325 19.1155 56.5625 15.3955 65.5925 16.9855C66.1625 17.0555 66.7225 17.1155 67.0425 17.1255C67.1825 17.1355 67.2825 17.1055 67.0425 17.1755C65.9625 17.4955 65.0825 18.6655 65.0825 19.8055C65.0625 20.0255 65.1025 20.2856 65.1725 20.4756C64.3625 18.8256 62.9125 17.1955 62.1325 15.3455C60.7425 12.3855 59.8925 9.04552 61.0925 5.63552C63.7225 -1.42448 72.5925 -0.744469 78.1825 1.70553C79.9225 2.43553 81.7125 3.33549 83.4325 4.10549C84.9725 4.99549 86.9325 5.97554 88.4325 6.90554L91.6525 8.94552C100.122 14.5655 107.222 21.9355 113.702 29.6955C114.932 31.1155 116.183 32.7355 117.363 34.2055L117.972 34.9855L118.282 35.3855L118.363 35.4855C119.013 36.4555 119.092 38.0155 118.632 39.0655L118.622 39.0855Z" fill="black"/>
<path d="M112.363 35.8755C111.813 36.6755 111.812 38.1455 112.312 38.8755V38.8455L112.262 38.7455C110.632 34.4655 108.032 30.6055 105.132 27.0755C98.5625 19.3955 90.2525 13.1855 81.0925 8.99551C77.7325 7.64551 73.6425 5.71555 70.1325 6.03555C66.0925 6.24555 66.7925 9.5455 68.2725 12.2355C69.9725 15.2855 74.1825 18.7055 71.5225 22.5355C69.2125 25.6755 64.6325 24.0755 61.6225 24.2755C60.7225 24.2855 60.0525 24.5355 60.1025 24.5855C60.1025 24.6055 60.2125 24.5055 60.2225 24.4955C59.9125 27.2955 61.5125 30.6655 62.6025 33.3855C62.9425 34.1855 63.6325 35.7955 64.0025 36.5855C64.9725 38.7355 65.9725 40.9055 66.9125 43.1355L63.3525 41.3755C79.7925 38.9555 95.7325 37.4155 112.382 35.8655L112.363 35.8755ZM118.622 39.0855C100.842 42.4755 82.3325 45.8455 64.3025 48.3455C62.8325 48.5555 61.4425 47.8055 60.7625 46.5855C57.0225 41.2255 53.9425 35.3555 52.5625 28.8255C50.7325 19.1155 56.5625 15.3955 65.5925 16.9855C66.1625 17.0555 66.7225 17.1155 67.0425 17.1255C67.1825 17.1355 67.2825 17.1055 67.0425 17.1755C65.9625 17.4955 65.0825 18.6655 65.0825 19.8055C65.0625 20.0255 65.1025 20.2856 65.1725 20.4756C64.3625 18.8256 62.9125 17.1955 62.1325 15.3455C60.7425 12.3855 59.8925 9.04552 61.0925 5.63552C63.7225 -1.42448 72.5925 -0.744469 78.1825 1.70553C79.9225 2.43553 81.7125 3.33549 83.4325 4.10549C84.9725 4.99549 86.9325 5.97554 88.4325 6.90554L91.6525 8.94552C100.122 14.5655 107.222 21.9355 113.702 29.6955C114.932 31.1155 116.183 32.7355 117.363 34.2055L117.972 34.9855L118.282 35.3855L118.363 35.4855C119.013 36.4555 119.092 38.0155 118.632 39.0655L118.622 39.0855Z" fill="black" fill-opacity="0.2"/>
<path d="M38.3825 93.7562L38.5425 90.7362C49.2625 104.596 70.3025 117.586 91.4025 117.586C121.522 117.586 145.942 97.1662 145.942 71.9962C145.942 46.8262 121.522 26.4062 91.4025 26.4062C70.8725 26.4062 48.2225 42.0862 37.5225 57.4262" fill="#FECB8B"/>
<path d="M89.373 107.736C94.863 110.696 106.583 111.906 115.333 110.026C123.313 108.306 107.133 119.516 90.143 119.016L89.3831 107.736H89.373Z" fill="#FF6700"/>
<path d="M30.3729 63.5556C22.2229 45.7856 10.1229 39.5156 7.17287 47.2356C5.35287 19.5456 29.0129 45.2856 33.6729 55.9656L30.3729 63.5556Z" fill="#FECB8B"/>
<path d="M13.4521 107.605C25.4721 107.215 30.7922 88.5451 30.7422 82.4551L37.4922 93.175C30.0522 103.195 22.1021 108.655 13.4521 107.605Z" fill="black"/>
<path d="M13.4521 107.605C25.4721 107.215 30.7922 88.5451 30.7422 82.4551L37.4922 93.175C30.0522 103.195 22.1021 108.655 13.4521 107.605Z" fill="black" fill-opacity="0.2"/>
<path d="M13.4521 107.605C25.4721 107.215 30.7922 88.5451 30.7422 82.4551L37.4922 93.175C30.0522 103.195 22.1021 108.655 13.4521 107.605Z" fill="black"/>
<path d="M13.4521 107.605C25.4721 107.215 30.7922 88.5451 30.7422 82.4551L37.4922 93.175C30.0522 103.195 22.1021 108.655 13.4521 107.605Z" fill="black" fill-opacity="0.2"/>
<path d="M35.2224 80.8848C37.5724 83.2148 30.4024 70.6948 34.4024 62.5248C54.8724 20.6148 99.8924 26.8248 95.6624 28.4048C60.6824 41.5048 57.3824 79.1448 74.7824 103.005L62.4724 108.425C56.3024 109.195 33.1924 89.5348 35.2224 80.9048V80.8848Z" fill="#FF6700"/>
<path d="M41.4026 95.5646C35.1926 105.165 24.9426 116.085 12.3926 114.545C7.89261 113.985 4.13264 111.335 2.79264 106.605C0.0126379 96.6646 6.27262 82.0046 10.5526 73.0346C10.5526 73.0346 10.5526 76.2546 10.5526 76.2446C5.94262 66.5246 -1.24739 50.2146 0.762609 39.4746C2.47261 31.0446 10.6126 30.1046 17.4426 32.4846C24.8026 35.1246 30.0826 40.8246 34.4326 46.8846C36.5126 49.8446 38.3526 52.9246 40.0026 56.1046C41.5926 59.4346 36.8826 61.8846 35.0526 58.7146C30.5226 50.6146 24.4626 41.5446 15.4926 38.3046C12.8626 37.4246 9.34264 37.3146 8.32264 38.2946C5.11264 41.2846 7.86264 50.4946 9.04264 54.4746C11.0526 60.7946 13.8126 67.1446 16.8126 73.0346C17.3526 74.0746 17.3126 75.2646 16.8126 76.2446C14.2426 81.4946 11.9426 87.1646 10.4326 92.8046C9.48262 96.7246 7.66263 104.155 11.0026 106.845C12.7426 107.815 14.9126 107.825 16.8826 107.515C23.4726 106.255 28.8626 100.685 32.9326 95.4446C33.7726 94.3446 34.6526 93.0846 35.3726 91.9246C37.9126 88.0346 43.6726 91.5146 41.3826 95.5746L41.4026 95.5646Z" fill="black"/>
<path d="M41.4026 95.5646C35.1926 105.165 24.9426 116.085 12.3926 114.545C7.89261 113.985 4.13264 111.335 2.79264 106.605C0.0126379 96.6646 6.27262 82.0046 10.5526 73.0346C10.5526 73.0346 10.5526 76.2546 10.5526 76.2446C5.94262 66.5246 -1.24739 50.2146 0.762609 39.4746C2.47261 31.0446 10.6126 30.1046 17.4426 32.4846C24.8026 35.1246 30.0826 40.8246 34.4326 46.8846C36.5126 49.8446 38.3526 52.9246 40.0026 56.1046C41.5926 59.4346 36.8826 61.8846 35.0526 58.7146C30.5226 50.6146 24.4626 41.5446 15.4926 38.3046C12.8626 37.4246 9.34264 37.3146 8.32264 38.2946C5.11264 41.2846 7.86264 50.4946 9.04264 54.4746C11.0526 60.7946 13.8126 67.1446 16.8126 73.0346C17.3526 74.0746 17.3126 75.2646 16.8126 76.2446C14.2426 81.4946 11.9426 87.1646 10.4326 92.8046C9.48262 96.7246 7.66263 104.155 11.0026 106.845C12.7426 107.815 14.9126 107.825 16.8826 107.515C23.4726 106.255 28.8626 100.685 32.9326 95.4446C33.7726 94.3446 34.6526 93.0846 35.3726 91.9246C37.9126 88.0346 43.6726 91.5146 41.3826 95.5746L41.4026 95.5646Z" fill="black" fill-opacity="0.2"/>
<path d="M41.4026 95.5646C35.1926 105.165 24.9426 116.085 12.3926 114.545C7.89261 113.985 4.13264 111.335 2.79264 106.605C0.0126379 96.6646 6.27262 82.0046 10.5526 73.0346C10.5526 73.0346 10.5526 76.2546 10.5526 76.2446C5.94262 66.5246 -1.24739 50.2146 0.762609 39.4746C2.47261 31.0446 10.6126 30.1046 17.4426 32.4846C24.8026 35.1246 30.0826 40.8246 34.4326 46.8846C36.5126 49.8446 38.3526 52.9246 40.0026 56.1046C41.5926 59.4346 36.8826 61.8846 35.0526 58.7146C30.5226 50.6146 24.4626 41.5446 15.4926 38.3046C12.8626 37.4246 9.34264 37.3146 8.32264 38.2946C5.11264 41.2846 7.86264 50.4946 9.04264 54.4746C11.0526 60.7946 13.8126 67.1446 16.8126 73.0346C17.3526 74.0746 17.3126 75.2646 16.8126 76.2446C14.2426 81.4946 11.9426 87.1646 10.4326 92.8046C9.48262 96.7246 7.66263 104.155 11.0026 106.845C12.7426 107.815 14.9126 107.825 16.8826 107.515C23.4726 106.255 28.8626 100.685 32.9326 95.4446C33.7726 94.3446 34.6526 93.0846 35.3726 91.9246C37.9126 88.0346 43.6726 91.5146 41.3826 95.5746L41.4026 95.5646Z" fill="black"/>
<path d="M41.4026 95.5646C35.1926 105.165 24.9426 116.085 12.3926 114.545C7.89261 113.985 4.13264 111.335 2.79264 106.605C0.0126379 96.6646 6.27262 82.0046 10.5526 73.0346C10.5526 73.0346 10.5526 76.2546 10.5526 76.2446C5.94262 66.5246 -1.24739 50.2146 0.762609 39.4746C2.47261 31.0446 10.6126 30.1046 17.4426 32.4846C24.8026 35.1246 30.0826 40.8246 34.4326 46.8846C36.5126 49.8446 38.3526 52.9246 40.0026 56.1046C41.5926 59.4346 36.8826 61.8846 35.0526 58.7146C30.5226 50.6146 24.4626 41.5446 15.4926 38.3046C12.8626 37.4246 9.34264 37.3146 8.32264 38.2946C5.11264 41.2846 7.86264 50.4946 9.04264 54.4746C11.0526 60.7946 13.8126 67.1446 16.8126 73.0346C17.3526 74.0746 17.3126 75.2646 16.8126 76.2446C14.2426 81.4946 11.9426 87.1646 10.4326 92.8046C9.48262 96.7246 7.66263 104.155 11.0026 106.845C12.7426 107.815 14.9126 107.825 16.8826 107.515C23.4726 106.255 28.8626 100.685 32.9326 95.4446C33.7726 94.3446 34.6526 93.0846 35.3726 91.9246C37.9126 88.0346 43.6726 91.5146 41.3826 95.5746L41.4026 95.5646Z" fill="black" fill-opacity="0.2"/>
<path d="M31.6028 61.0561C42.0328 42.2961 64.9828 26.2761 86.3328 23.7561C108.923 21.7261 133.573 32.6261 144.023 53.4461C156.953 79.8561 140.253 107.686 114.263 117.236C105.343 120.596 95.7128 121.876 86.2328 121.086C68.6628 119.216 52.1528 110.366 40.2828 97.3961C39.3028 96.3961 38.0328 94.7061 37.1328 93.6261C34.5928 90.3561 32.4928 86.7861 30.8928 82.8961C30.3528 81.6161 30.9528 80.1362 32.2328 79.5962C33.4528 79.0762 34.8528 79.5961 35.4428 80.7561C38.0828 85.9461 41.9128 90.6361 46.3428 94.6861C59.2028 106.456 76.9228 114.646 94.5528 113.716C117.423 112.966 142.733 97.4061 143.413 72.5561C144.013 47.3661 119.033 30.4561 95.7928 29.4161C83.9728 28.3561 72.3228 32.5661 62.1128 38.8661C52.1528 45.1461 42.7328 53.6361 37.1728 63.9961C35.1128 67.6361 29.7428 64.7962 31.6028 61.0362H31.5928L31.6028 61.0561Z" fill="black"/>
<path d="M31.6028 61.0561C42.0328 42.2961 64.9828 26.2761 86.3328 23.7561C108.923 21.7261 133.573 32.6261 144.023 53.4461C156.953 79.8561 140.253 107.686 114.263 117.236C105.343 120.596 95.7128 121.876 86.2328 121.086C68.6628 119.216 52.1528 110.366 40.2828 97.3961C39.3028 96.3961 38.0328 94.7061 37.1328 93.6261C34.5928 90.3561 32.4928 86.7861 30.8928 82.8961C30.3528 81.6161 30.9528 80.1362 32.2328 79.5962C33.4528 79.0762 34.8528 79.5961 35.4428 80.7561C38.0828 85.9461 41.9128 90.6361 46.3428 94.6861C59.2028 106.456 76.9228 114.646 94.5528 113.716C117.423 112.966 142.733 97.4061 143.413 72.5561C144.013 47.3661 119.033 30.4561 95.7928 29.4161C83.9728 28.3561 72.3228 32.5661 62.1128 38.8661C52.1528 45.1461 42.7328 53.6361 37.1728 63.9961C35.1128 67.6361 29.7428 64.7962 31.6028 61.0362H31.5928L31.6028 61.0561Z" fill="black" fill-opacity="0.2"/>
<path d="M31.6028 61.0561C42.0328 42.2961 64.9828 26.2761 86.3328 23.7561C108.923 21.7261 133.573 32.6261 144.023 53.4461C156.953 79.8561 140.253 107.686 114.263 117.236C105.343 120.596 95.7128 121.876 86.2328 121.086C68.6628 119.216 52.1528 110.366 40.2828 97.3961C39.3028 96.3961 38.0328 94.7061 37.1328 93.6261C34.5928 90.3561 32.4928 86.7861 30.8928 82.8961C30.3528 81.6161 30.9528 80.1362 32.2328 79.5962C33.4528 79.0762 34.8528 79.5961 35.4428 80.7561C38.0828 85.9461 41.9128 90.6361 46.3428 94.6861C59.2028 106.456 76.9228 114.646 94.5528 113.716C117.423 112.966 142.733 97.4061 143.413 72.5561C144.013 47.3661 119.033 30.4561 95.7928 29.4161C83.9728 28.3561 72.3228 32.5661 62.1128 38.8661C52.1528 45.1461 42.7328 53.6361 37.1728 63.9961C35.1128 67.6361 29.7428 64.7962 31.6028 61.0362H31.5928L31.6028 61.0561Z" fill="black"/>
<path d="M31.6028 61.0561C42.0328 42.2961 64.9828 26.2761 86.3328 23.7561C108.923 21.7261 133.573 32.6261 144.023 53.4461C156.953 79.8561 140.253 107.686 114.263 117.236C105.343 120.596 95.7128 121.876 86.2328 121.086C68.6628 119.216 52.1528 110.366 40.2828 97.3961C39.3028 96.3961 38.0328 94.7061 37.1328 93.6261C34.5928 90.3561 32.4928 86.7861 30.8928 82.8961C30.3528 81.6161 30.9528 80.1362 32.2328 79.5962C33.4528 79.0762 34.8528 79.5961 35.4428 80.7561C38.0828 85.9461 41.9128 90.6361 46.3428 94.6861C59.2028 106.456 76.9228 114.646 94.5528 113.716C117.423 112.966 142.733 97.4061 143.413 72.5561C144.013 47.3661 119.033 30.4561 95.7928 29.4161C83.9728 28.3561 72.3228 32.5661 62.1128 38.8661C52.1528 45.1461 42.7328 53.6361 37.1728 63.9961C35.1128 67.6361 29.7428 64.7962 31.6028 61.0362H31.5928L31.6028 61.0561Z" fill="black" fill-opacity="0.2"/>
<path d="M80.1425 128.375C88.9325 122.505 93.0725 113.265 89.3825 107.735C85.6925 102.205 75.5725 102.485 66.7825 108.355C57.9925 114.225 53.8525 123.465 57.5425 128.995C61.2325 134.525 71.3525 134.245 80.1425 128.375Z" fill="#FECB8B"/>
<path d="M89.9425 110.856C89.2825 109.486 88.1825 106.586 86.8425 105.756C88.2525 111.396 83.0925 119.656 74.6525 123.736C67.6525 127.116 61.0125 124.266 58.8125 117.986C58.9325 118.486 56.4825 126.466 56.7125 126.926C59.5025 132.696 69.2025 133.776 78.3725 129.336C87.5525 124.896 92.7325 116.626 89.9425 110.856Z" fill="#FF6700"/>
<path d="M75.4923 105.346C70.1723 108.986 64.8223 113.206 61.8723 118.776C59.6123 123.176 58.9523 128.226 65.0623 129.016C69.3923 129.556 73.9723 128.026 77.7823 125.876C81.8023 123.636 84.9723 120.076 86.6623 115.756C87.6923 112.956 88.1223 109.716 86.8623 106.946C86.4923 106.256 86.7923 105.386 87.5023 105.056C89.7123 104.026 91.3423 109.526 91.5123 111.036C92.3423 117.066 89.9023 123.086 85.9423 127.586C78.8123 135.606 62.6523 141.556 54.5923 131.706C48.3923 122.766 56.0923 111.496 63.8323 106.696C67.0423 104.606 70.5223 103.116 74.0923 102.186C75.0223 101.946 75.9823 102.506 76.2223 103.436C76.4123 104.186 76.1023 104.936 75.4923 105.326V105.346Z" fill="black"/>
<path d="M75.4923 105.346C70.1723 108.986 64.8223 113.206 61.8723 118.776C59.6123 123.176 58.9523 128.226 65.0623 129.016C69.3923 129.556 73.9723 128.026 77.7823 125.876C81.8023 123.636 84.9723 120.076 86.6623 115.756C87.6923 112.956 88.1223 109.716 86.8623 106.946C86.4923 106.256 86.7923 105.386 87.5023 105.056C89.7123 104.026 91.3423 109.526 91.5123 111.036C92.3423 117.066 89.9023 123.086 85.9423 127.586C78.8123 135.606 62.6523 141.556 54.5923 131.706C48.3923 122.766 56.0923 111.496 63.8323 106.696C67.0423 104.606 70.5223 103.116 74.0923 102.186C75.0223 101.946 75.9823 102.506 76.2223 103.436C76.4123 104.186 76.1023 104.936 75.4923 105.326V105.346Z" fill="black" fill-opacity="0.2"/>
<path d="M75.4923 105.346C70.1723 108.986 64.8223 113.206 61.8723 118.776C59.6123 123.176 58.9523 128.226 65.0623 129.016C69.3923 129.556 73.9723 128.026 77.7823 125.876C81.8023 123.636 84.9723 120.076 86.6623 115.756C87.6923 112.956 88.1223 109.716 86.8623 106.946C86.4923 106.256 86.7923 105.386 87.5023 105.056C89.7123 104.026 91.3423 109.526 91.5123 111.036C92.3423 117.066 89.9023 123.086 85.9423 127.586C78.8123 135.606 62.6523 141.556 54.5923 131.706C48.3923 122.766 56.0923 111.496 63.8323 106.696C67.0423 104.606 70.5223 103.116 74.0923 102.186C75.0223 101.946 75.9823 102.506 76.2223 103.436C76.4123 104.186 76.1023 104.936 75.4923 105.326V105.346Z" fill="black"/>
<path d="M75.4923 105.346C70.1723 108.986 64.8223 113.206 61.8723 118.776C59.6123 123.176 58.9523 128.226 65.0623 129.016C69.3923 129.556 73.9723 128.026 77.7823 125.876C81.8023 123.636 84.9723 120.076 86.6623 115.756C87.6923 112.956 88.1223 109.716 86.8623 106.946C86.4923 106.256 86.7923 105.386 87.5023 105.056C89.7123 104.026 91.3423 109.526 91.5123 111.036C92.3423 117.066 89.9023 123.086 85.9423 127.586C78.8123 135.606 62.6523 141.556 54.5923 131.706C48.3923 122.766 56.0923 111.496 63.8323 106.696C67.0423 104.606 70.5223 103.116 74.0923 102.186C75.0223 101.946 75.9823 102.506 76.2223 103.436C76.4123 104.186 76.1023 104.936 75.4923 105.326V105.346Z" fill="black" fill-opacity="0.2"/>
<path d="M124.862 60.0562C126.112 59.7062 126.702 57.8962 126.172 56.0362C125.642 54.1662 124.202 52.9462 122.942 53.2962C121.692 53.6462 121.102 55.4562 121.632 57.3162C122.162 59.1862 123.602 60.4062 124.862 60.0562Z" fill="white"/>
<path d="M97.2122 76.9149C97.2122 76.8549 97.1822 76.8349 96.9322 76.7649C96.7122 76.7049 96.3122 76.6849 96.0222 76.7349C94.3622 76.9249 93.2623 78.9349 94.0323 80.4649C94.1723 80.8149 94.5623 81.2349 94.7223 81.4049C94.8323 81.5149 94.6622 81.4649 94.8922 81.6149C95.1222 81.7349 95.3922 81.8149 95.6522 81.8549C97.9722 82.2049 99.6622 79.5449 98.4022 77.5949C98.3122 77.4349 98.1622 77.2649 98.0522 77.1249C97.9922 77.0449 98.0223 77.0649 98.0423 77.0649C100.802 79.1049 103.002 81.7749 104.602 84.8149C105.242 86.0949 104.722 87.6649 103.442 88.3049C101.382 89.3449 99.9422 87.3449 98.6722 86.0349C97.8522 85.1449 96.2023 83.3749 95.3723 82.4949C94.8123 81.8849 94.0022 81.2149 93.5822 80.4949C92.2922 78.2849 94.5122 75.5549 96.9622 76.4349C97.4122 76.5949 97.7222 76.8649 98.0122 77.1349C98.2822 77.3649 98.7722 77.9049 98.9222 78.3749C99.7322 80.3449 97.8823 82.4549 95.8723 81.9549C92.1723 80.9349 93.5823 75.7449 97.2223 76.9349L97.2122 76.9149Z" fill="black"/>
<path d="M97.2122 76.9149C97.2122 76.8549 97.1822 76.8349 96.9322 76.7649C96.7122 76.7049 96.3122 76.6849 96.0222 76.7349C94.3622 76.9249 93.2623 78.9349 94.0323 80.4649C94.1723 80.8149 94.5623 81.2349 94.7223 81.4049C94.8323 81.5149 94.6622 81.4649 94.8922 81.6149C95.1222 81.7349 95.3922 81.8149 95.6522 81.8549C97.9722 82.2049 99.6622 79.5449 98.4022 77.5949C98.3122 77.4349 98.1622 77.2649 98.0522 77.1249C97.9922 77.0449 98.0223 77.0649 98.0423 77.0649C100.802 79.1049 103.002 81.7749 104.602 84.8149C105.242 86.0949 104.722 87.6649 103.442 88.3049C101.382 89.3449 99.9422 87.3449 98.6722 86.0349C97.8522 85.1449 96.2023 83.3749 95.3723 82.4949C94.8123 81.8849 94.0022 81.2149 93.5822 80.4949C92.2922 78.2849 94.5122 75.5549 96.9622 76.4349C97.4122 76.5949 97.7222 76.8649 98.0122 77.1349C98.2822 77.3649 98.7722 77.9049 98.9222 78.3749C99.7322 80.3449 97.8823 82.4549 95.8723 81.9549C92.1723 80.9349 93.5823 75.7449 97.2223 76.9349L97.2122 76.9149Z" fill="black" fill-opacity="0.2"/>
<path d="M102.492 86.2949C102.492 86.2949 101.992 84.3649 99.4421 81.7249C96.8921 79.0849 94.0021 77.8649 94.0021 77.8649C88.8021 77.7149 80.3722 79.8149 77.8821 84.9349C77.1521 86.4349 76.3521 89.4649 79.2121 92.9049C80.9021 94.9349 82.9121 95.7149 85.0321 95.7149C89.5721 95.7149 94.6121 92.1449 98.0621 89.7049C99.2321 88.8749 102.712 86.2749 102.492 86.2849V86.2949Z" fill="#FF6700"/>
<path d="M97.053 54.1254C101.723 54.9154 106.353 55.8354 111.013 56.6954C112.583 56.9854 113.623 58.4854 113.333 60.0554C113.023 61.9254 111.103 62.4655 109.593 63.0355C108.423 63.3955 105.523 64.1355 104.303 64.4755C101.953 65.1155 99.603 65.7555 97.223 66.3355C96.213 66.5855 95.193 65.9655 94.943 64.9655C94.723 64.0955 95.163 63.2155 95.933 62.8255C98.123 61.7355 100.323 60.6954 102.533 59.6654C104.503 58.8054 107.163 57.2855 109.233 56.7755L109.493 62.4254C105.033 60.8654 100.543 59.3654 96.103 57.7354C93.983 56.9454 94.843 53.7554 97.063 54.1254H97.053Z" fill="black"/>
<path d="M97.053 54.1254C101.723 54.9154 106.353 55.8354 111.013 56.6954C112.583 56.9854 113.623 58.4854 113.333 60.0554C113.023 61.9254 111.103 62.4655 109.593 63.0355C108.423 63.3955 105.523 64.1355 104.303 64.4755C101.953 65.1155 99.603 65.7555 97.223 66.3355C96.213 66.5855 95.193 65.9655 94.943 64.9655C94.723 64.0955 95.163 63.2155 95.933 62.8255C98.123 61.7355 100.323 60.6954 102.533 59.6654C104.503 58.8054 107.163 57.2855 109.233 56.7755L109.493 62.4254C105.033 60.8654 100.543 59.3654 96.103 57.7354C93.983 56.9454 94.843 53.7554 97.063 54.1254H97.053Z" fill="black" fill-opacity="0.2"/>
<path d="M137.082 80.1258C147.493 80.1258 155.932 69.5597 155.932 56.5258C155.932 43.4919 147.493 32.9258 137.082 32.9258C126.672 32.9258 118.232 43.4919 118.232 56.5258C118.232 69.5597 126.672 80.1258 137.082 80.1258Z" fill="black"/>
<path d="M137.082 80.1258C147.493 80.1258 155.932 69.5597 155.932 56.5258C155.932 43.4919 147.493 32.9258 137.082 32.9258C126.672 32.9258 118.232 43.4919 118.232 56.5258C118.232 69.5597 126.672 80.1258 137.082 80.1258Z" fill="black" fill-opacity="0.2"/>
<path d="M139.712 75.7962C148.78 75.7962 156.132 66.5868 156.132 55.2263C156.132 43.8658 148.78 34.6562 139.712 34.6562C130.643 34.6562 123.292 43.8658 123.292 55.2263C123.292 66.5868 130.643 75.7962 139.712 75.7962Z" fill="white"/>
<path d="M139.712 75.7962C148.78 75.7962 156.132 66.5868 156.132 55.2263C156.132 43.8658 148.78 34.6562 139.712 34.6562C130.643 34.6562 123.292 43.8658 123.292 55.2263C123.292 66.5868 130.643 75.7962 139.712 75.7962Z" stroke="black" stroke-width="6" stroke-linecap="round" stroke-linejoin="round"/>
<path d="M139.712 75.7962C148.78 75.7962 156.132 66.5868 156.132 55.2263C156.132 43.8658 148.78 34.6562 139.712 34.6562C130.643 34.6562 123.292 43.8658 123.292 55.2263C123.292 66.5868 130.643 75.7962 139.712 75.7962Z" stroke="black" stroke-opacity="0.2" stroke-width="6" stroke-linecap="round" stroke-linejoin="round"/>
<path d="M161.902 59.3061C163.302 60.8661 162.732 63.1161 163.012 64.9161C163.052 65.1661 163.042 65.2161 163.092 65.3261C163.622 66.5561 163.212 68.4561 163.782 69.3961C164.992 70.9561 167.042 72.1861 168.632 73.4561C172.112 76.0261 174.502 80.0761 175.092 84.3461C176.662 95.6261 168.552 109.476 156.832 111.286C151.242 112.316 147.122 107.736 143.842 103.996C141.732 101.556 139.802 98.9661 137.842 96.5761C137.372 96.0261 137.442 95.1961 138.002 94.7461C138.542 94.3061 139.342 94.3761 139.792 94.9061C141.902 97.3761 143.812 99.8461 145.912 102.176C148.102 104.506 150.442 107.286 153.422 108.366C158.932 109.306 163.942 105.646 167.192 101.436C172.962 94.2361 175.242 81.8561 166.922 75.6961C165.652 74.7461 164.342 73.7561 163.112 72.7061C162.322 71.9561 161.702 71.4961 161.212 70.3161L161.302 70.5061C160.722 69.3661 160.782 68.2761 160.752 67.5161C160.752 66.9061 160.722 66.5461 160.542 66.0561C160.142 64.3661 160.482 62.7861 160.112 61.2161C160.092 61.1161 160.022 61.0961 160.192 61.2561C158.952 60.1261 160.612 58.2261 161.902 59.3361V59.3061Z" fill="black"/>
<path d="M161.902 59.3061C163.302 60.8661 162.732 63.1161 163.012 64.9161C163.052 65.1661 163.042 65.2161 163.092 65.3261C163.622 66.5561 163.212 68.4561 163.782 69.3961C164.992 70.9561 167.042 72.1861 168.632 73.4561C172.112 76.0261 174.502 80.0761 175.092 84.3461C176.662 95.6261 168.552 109.476 156.832 111.286C151.242 112.316 147.122 107.736 143.842 103.996C141.732 101.556 139.802 98.9661 137.842 96.5761C137.372 96.0261 137.442 95.1961 138.002 94.7461C138.542 94.3061 139.342 94.3761 139.792 94.9061C141.902 97.3761 143.812 99.8461 145.912 102.176C148.102 104.506 150.442 107.286 153.422 108.366C158.932 109.306 163.942 105.646 167.192 101.436C172.962 94.2361 175.242 81.8561 166.922 75.6961C165.652 74.7461 164.342 73.7561 163.112 72.7061C162.322 71.9561 161.702 71.4961 161.212 70.3161L161.302 70.5061C160.722 69.3661 160.782 68.2761 160.752 67.5161C160.752 66.9061 160.722 66.5461 160.542 66.0561C160.142 64.3661 160.482 62.7861 160.112 61.2161C160.092 61.1161 160.022 61.0961 160.192 61.2561C158.952 60.1261 160.612 58.2261 161.902 59.3361V59.3061Z" fill="black" fill-opacity="0.2"/>
<path d="M140.973 65.1658C144.283 64.8158 146.493 60.0359 145.903 54.5059C145.313 48.9759 142.153 44.7758 138.833 45.1258C135.523 45.4758 133.313 50.2559 133.903 55.7859C134.493 61.3159 137.653 65.5158 140.973 65.1658Z" fill="black"/>
<path d="M140.973 65.1658C144.283 64.8158 146.493 60.0359 145.903 54.5059C145.313 48.9759 142.153 44.7758 138.833 45.1258C135.523 45.4758 133.313 50.2559 133.903 55.7859C134.493 61.3159 137.653 65.5158 140.973 65.1658Z" fill="black" fill-opacity="0.2"/>
<path d="M145.433 57.5061C146.683 57.3561 147.543 55.6761 147.353 53.7561C147.163 51.8261 146.003 50.3861 144.763 50.5361C143.513 50.6861 142.653 52.3661 142.843 54.2861C143.023 56.2161 144.193 57.6561 145.433 57.5061Z" fill="white"/>
<path d="M159.502 64.7349C161.971 64.7349 163.972 62.7337 163.972 60.265C163.972 57.7962 161.971 55.7949 159.502 55.7949C157.033 55.7949 155.032 57.7962 155.032 60.265C155.032 62.7337 157.033 64.7349 159.502 64.7349Z" fill="black"/>
<path d="M159.502 64.7349C161.971 64.7349 163.972 62.7337 163.972 60.265C163.972 57.7962 161.971 55.7949 159.502 55.7949C157.033 55.7949 155.032 57.7962 155.032 60.265C155.032 62.7337 157.033 64.7349 159.502 64.7349Z" fill="black" fill-opacity="0.2"/>
</svg>
