<svg width="149" height="138" viewBox="0 0 149 138" fill="none" xmlns="http://www.w3.org/2000/svg">
<path d="M37.9798 57.7946C33.6398 49.5546 24.0298 34.7046 11.2398 34.8546C-6.44018 35.0646 14.1398 75.0246 14.1398 75.0246C14.1398 75.0246 -2.55017 107.745 11.9998 111.205C26.5598 114.665 38.8399 94.1546 38.8399 94.1546" fill="#FF6700"/>
<path d="M108.62 126.794C115.71 119.824 117.91 110.574 113.54 106.134C109.17 101.694 99.8799 103.744 92.7999 110.714C85.7099 117.684 83.5099 126.934 87.8799 131.374C92.2499 135.814 101.54 133.764 108.62 126.794Z" fill="black"/>
<path d="M108.62 126.794C115.71 119.824 117.91 110.574 113.54 106.134C109.17 101.694 99.8799 103.744 92.7999 110.714C85.7099 117.684 83.5099 126.934 87.8799 131.374C92.2499 135.814 101.54 133.764 108.62 126.794Z" fill="black" fill-opacity="0.2"/>
<path d="M108.62 126.794C115.71 119.824 117.91 110.574 113.54 106.134C109.17 101.694 99.8799 103.744 92.7999 110.714C85.7099 117.684 83.5099 126.934 87.8799 131.374C92.2499 135.814 101.54 133.764 108.62 126.794Z" fill="black"/>
<path d="M108.62 126.794C115.71 119.824 117.91 110.574 113.54 106.134C109.17 101.694 99.8799 103.744 92.7999 110.714C85.7099 117.684 83.5099 126.934 87.8799 131.374C92.2499 135.814 101.54 133.764 108.62 126.794Z" fill="black" fill-opacity="0.2"/>
<path d="M115.95 37.8637C115.95 37.8637 104.09 15.0937 77.9997 4.89366C65.4497 -0.00634491 60.3497 7.63364 67.5897 17.2536C76.8097 29.5036 41.8697 5.38369 64.2997 45.2437L115.96 37.8537L115.95 37.8637Z" fill="#FF6700"/>
<path d="M96.1199 28.7848L107.32 25.4648L88.1699 9.8548L70.4899 3.38477L64.46 7.57477C64.46 7.57477 90.0399 16.0948 96.1099 28.7948L96.1199 28.7848Z" fill="#FECB8B"/>
<path d="M112.82 36.2542C112.27 37.0542 112.27 38.5242 112.77 39.2542V39.2242L112.72 39.1242C111.09 34.8442 108.49 30.9842 105.59 27.4542C99.0198 19.7742 90.7097 13.5642 81.5497 9.37423C78.1897 8.02423 74.0998 6.09421 70.5898 6.41421C66.5498 6.62421 67.2497 9.92422 68.7297 12.6142C70.4297 15.6642 74.6397 19.0842 71.9797 22.9142C69.6697 26.0542 65.0898 24.4542 62.0798 24.6542C61.1798 24.6642 60.5097 24.9142 60.5597 24.9642C60.5597 24.9842 60.6697 24.8842 60.6797 24.8742C60.3697 27.6742 61.9697 31.0442 63.0597 33.7642C63.3997 34.5642 64.0898 36.1742 64.4598 36.9642C65.4298 39.1142 66.4297 41.2842 67.3697 43.5142L63.8097 41.7542C80.2497 39.3342 96.1898 37.7942 112.84 36.2442L112.82 36.2542ZM119.07 39.4742C101.29 42.8642 82.7797 46.2342 64.7497 48.7342C63.2797 48.9442 61.8898 48.1942 61.2098 46.9742C57.4698 41.6142 54.3898 35.7442 53.0098 29.2142C51.1798 19.5042 57.0097 15.7842 66.0397 17.3742C66.6097 17.4442 67.1697 17.5042 67.4897 17.5142C67.6297 17.5242 67.7297 17.4942 67.4897 17.5642C66.4097 17.8842 65.5297 19.0542 65.5297 20.1942C65.5097 20.4142 65.5497 20.6742 65.6197 20.8642C64.8097 19.2142 63.3598 17.5842 62.5798 15.7342C61.1898 12.7742 60.3397 9.4342 61.5397 6.0242C64.1697 -1.0358 73.0397 -0.355797 78.6297 2.0942C80.3697 2.8242 82.1597 3.72423 83.8797 4.49423C85.4197 5.38423 87.3797 6.36422 88.8797 7.29422L92.0997 9.33419C100.57 14.9542 107.67 22.3242 114.15 30.0842C115.38 31.5042 116.63 33.1242 117.81 34.5942L118.42 35.3742L118.73 35.7742L118.81 35.8742C119.46 36.8442 119.54 38.4042 119.08 39.4542L119.07 39.4742Z" fill="black"/>
<path d="M112.82 36.2542C112.27 37.0542 112.27 38.5242 112.77 39.2542V39.2242L112.72 39.1242C111.09 34.8442 108.49 30.9842 105.59 27.4542C99.0198 19.7742 90.7097 13.5642 81.5497 9.37423C78.1897 8.02423 74.0998 6.09421 70.5898 6.41421C66.5498 6.62421 67.2497 9.92422 68.7297 12.6142C70.4297 15.6642 74.6397 19.0842 71.9797 22.9142C69.6697 26.0542 65.0898 24.4542 62.0798 24.6542C61.1798 24.6642 60.5097 24.9142 60.5597 24.9642C60.5597 24.9842 60.6697 24.8842 60.6797 24.8742C60.3697 27.6742 61.9697 31.0442 63.0597 33.7642C63.3997 34.5642 64.0898 36.1742 64.4598 36.9642C65.4298 39.1142 66.4297 41.2842 67.3697 43.5142L63.8097 41.7542C80.2497 39.3342 96.1898 37.7942 112.84 36.2442L112.82 36.2542ZM119.07 39.4742C101.29 42.8642 82.7797 46.2342 64.7497 48.7342C63.2797 48.9442 61.8898 48.1942 61.2098 46.9742C57.4698 41.6142 54.3898 35.7442 53.0098 29.2142C51.1798 19.5042 57.0097 15.7842 66.0397 17.3742C66.6097 17.4442 67.1697 17.5042 67.4897 17.5142C67.6297 17.5242 67.7297 17.4942 67.4897 17.5642C66.4097 17.8842 65.5297 19.0542 65.5297 20.1942C65.5097 20.4142 65.5497 20.6742 65.6197 20.8642C64.8097 19.2142 63.3598 17.5842 62.5798 15.7342C61.1898 12.7742 60.3397 9.4342 61.5397 6.0242C64.1697 -1.0358 73.0397 -0.355797 78.6297 2.0942C80.3697 2.8242 82.1597 3.72423 83.8797 4.49423C85.4197 5.38423 87.3797 6.36422 88.8797 7.29422L92.0997 9.33419C100.57 14.9542 107.67 22.3242 114.15 30.0842C115.38 31.5042 116.63 33.1242 117.81 34.5942L118.42 35.3742L118.73 35.7742L118.81 35.8742C119.46 36.8442 119.54 38.4042 119.08 39.4542L119.07 39.4742Z" fill="black" fill-opacity="0.2"/>
<path d="M112.82 36.2542C112.27 37.0542 112.27 38.5242 112.77 39.2542V39.2242L112.72 39.1242C111.09 34.8442 108.49 30.9842 105.59 27.4542C99.0198 19.7742 90.7097 13.5642 81.5497 9.37423C78.1897 8.02423 74.0998 6.09421 70.5898 6.41421C66.5498 6.62421 67.2497 9.92422 68.7297 12.6142C70.4297 15.6642 74.6397 19.0842 71.9797 22.9142C69.6697 26.0542 65.0898 24.4542 62.0798 24.6542C61.1798 24.6642 60.5097 24.9142 60.5597 24.9642C60.5597 24.9842 60.6697 24.8842 60.6797 24.8742C60.3697 27.6742 61.9697 31.0442 63.0597 33.7642C63.3997 34.5642 64.0898 36.1742 64.4598 36.9642C65.4298 39.1142 66.4297 41.2842 67.3697 43.5142L63.8097 41.7542C80.2497 39.3342 96.1898 37.7942 112.84 36.2442L112.82 36.2542ZM119.07 39.4742C101.29 42.8642 82.7797 46.2342 64.7497 48.7342C63.2797 48.9442 61.8898 48.1942 61.2098 46.9742C57.4698 41.6142 54.3898 35.7442 53.0098 29.2142C51.1798 19.5042 57.0097 15.7842 66.0397 17.3742C66.6097 17.4442 67.1697 17.5042 67.4897 17.5142C67.6297 17.5242 67.7297 17.4942 67.4897 17.5642C66.4097 17.8842 65.5297 19.0542 65.5297 20.1942C65.5097 20.4142 65.5497 20.6742 65.6197 20.8642C64.8097 19.2142 63.3598 17.5842 62.5798 15.7342C61.1898 12.7742 60.3397 9.4342 61.5397 6.0242C64.1697 -1.0358 73.0397 -0.355797 78.6297 2.0942C80.3697 2.8242 82.1597 3.72423 83.8797 4.49423C85.4197 5.38423 87.3797 6.36422 88.8797 7.29422L92.0997 9.33419C100.57 14.9542 107.67 22.3242 114.15 30.0842C115.38 31.5042 116.63 33.1242 117.81 34.5942L118.42 35.3742L118.73 35.7742L118.81 35.8742C119.46 36.8442 119.54 38.4042 119.08 39.4542L119.07 39.4742Z" fill="black"/>
<path d="M112.82 36.2542C112.27 37.0542 112.27 38.5242 112.77 39.2542V39.2242L112.72 39.1242C111.09 34.8442 108.49 30.9842 105.59 27.4542C99.0198 19.7742 90.7097 13.5642 81.5497 9.37423C78.1897 8.02423 74.0998 6.09421 70.5898 6.41421C66.5498 6.62421 67.2497 9.92422 68.7297 12.6142C70.4297 15.6642 74.6397 19.0842 71.9797 22.9142C69.6697 26.0542 65.0898 24.4542 62.0798 24.6542C61.1798 24.6642 60.5097 24.9142 60.5597 24.9642C60.5597 24.9842 60.6697 24.8842 60.6797 24.8742C60.3697 27.6742 61.9697 31.0442 63.0597 33.7642C63.3997 34.5642 64.0898 36.1742 64.4598 36.9642C65.4298 39.1142 66.4297 41.2842 67.3697 43.5142L63.8097 41.7542C80.2497 39.3342 96.1898 37.7942 112.84 36.2442L112.82 36.2542ZM119.07 39.4742C101.29 42.8642 82.7797 46.2342 64.7497 48.7342C63.2797 48.9442 61.8898 48.1942 61.2098 46.9742C57.4698 41.6142 54.3898 35.7442 53.0098 29.2142C51.1798 19.5042 57.0097 15.7842 66.0397 17.3742C66.6097 17.4442 67.1697 17.5042 67.4897 17.5142C67.6297 17.5242 67.7297 17.4942 67.4897 17.5642C66.4097 17.8842 65.5297 19.0542 65.5297 20.1942C65.5097 20.4142 65.5497 20.6742 65.6197 20.8642C64.8097 19.2142 63.3598 17.5842 62.5798 15.7342C61.1898 12.7742 60.3397 9.4342 61.5397 6.0242C64.1697 -1.0358 73.0397 -0.355797 78.6297 2.0942C80.3697 2.8242 82.1597 3.72423 83.8797 4.49423C85.4197 5.38423 87.3797 6.36422 88.8797 7.29422L92.0997 9.33419C100.57 14.9542 107.67 22.3242 114.15 30.0842C115.38 31.5042 116.63 33.1242 117.81 34.5942L118.42 35.3742L118.73 35.7742L118.81 35.8742C119.46 36.8442 119.54 38.4042 119.08 39.4542L119.07 39.4742Z" fill="black" fill-opacity="0.2"/>
<path d="M38.84 94.1449L39 91.1249C49.72 104.985 70.76 117.975 91.86 117.975C121.98 117.975 146.4 97.5549 146.4 72.3849C146.4 47.2149 121.98 26.7949 91.86 26.7949C71.33 26.7949 48.68 42.4749 37.98 57.8149" fill="#FECB8B"/>
<path d="M89.8301 108.125C95.3201 111.085 107.04 112.295 115.79 110.415C123.77 108.695 107.59 119.905 90.6 119.405L89.8401 108.125H89.8301Z" fill="#FF6700"/>
<path d="M30.8299 63.9442C22.6799 46.1742 10.5799 39.9043 7.6299 47.6243C5.8099 19.9342 29.4699 45.6742 34.1299 56.3542L30.8299 63.9442Z" fill="#FECB8B"/>
<path d="M13.9097 107.994C25.9297 107.604 31.2497 88.9338 31.1997 82.8438L37.9497 93.5638C30.5097 103.584 22.5597 109.044 13.9097 107.994Z" fill="black"/>
<path d="M13.9097 107.994C25.9297 107.604 31.2497 88.9338 31.1997 82.8438L37.9497 93.5638C30.5097 103.584 22.5597 109.044 13.9097 107.994Z" fill="black" fill-opacity="0.2"/>
<path d="M13.9097 107.994C25.9297 107.604 31.2497 88.9338 31.1997 82.8438L37.9497 93.5638C30.5097 103.584 22.5597 109.044 13.9097 107.994Z" fill="black"/>
<path d="M13.9097 107.994C25.9297 107.604 31.2497 88.9338 31.1997 82.8438L37.9497 93.5638C30.5097 103.584 22.5597 109.044 13.9097 107.994Z" fill="black" fill-opacity="0.2"/>
<path d="M35.6696 81.2734C38.0196 83.6034 30.8496 71.0835 34.8496 62.9135C55.3196 21.0035 100.34 27.2135 96.1096 28.7935C61.1296 41.8935 57.8296 79.5334 75.2296 103.393L62.9196 108.813C56.7496 109.583 33.6396 89.9235 35.6696 81.2935V81.2734Z" fill="#FF6700"/>
<path d="M41.8498 95.9532C35.6398 105.553 25.3899 116.473 12.8399 114.933C8.33988 114.373 4.57984 111.723 3.23984 106.993C0.459844 97.0533 6.71985 82.3933 10.9999 73.4233C10.9999 73.4233 10.9999 76.6432 10.9999 76.6332C6.38985 66.9132 -0.800125 50.6033 1.20988 39.8633C2.91988 31.4333 11.0599 30.4933 17.8899 32.8733C25.2499 35.5133 30.5299 41.2132 34.8799 47.2732C36.9599 50.2332 38.7999 53.3133 40.4499 56.4933C42.0399 59.8233 37.3299 62.2733 35.4999 59.1033C30.9699 51.0033 24.9099 41.9332 15.9399 38.6932C13.3099 37.8132 9.78987 37.7033 8.76987 38.6833C5.55987 41.6733 8.30984 50.8833 9.48984 54.8633C11.4998 61.1833 14.2599 67.5333 17.2599 73.4233C17.7999 74.4633 17.7599 75.6532 17.2599 76.6332C14.6899 81.8832 12.3899 87.5532 10.8799 93.1932C9.92986 97.1132 8.10987 104.543 11.4499 107.233C13.1899 108.203 15.3599 108.213 17.3299 107.903C23.9199 106.643 29.3099 101.073 33.3799 95.8332C34.2199 94.7332 35.0999 93.4733 35.8199 92.3133C38.3599 88.4233 44.1199 91.9032 41.8299 95.9632L41.8498 95.9532Z" fill="black"/>
<path d="M41.8498 95.9532C35.6398 105.553 25.3899 116.473 12.8399 114.933C8.33988 114.373 4.57984 111.723 3.23984 106.993C0.459844 97.0533 6.71985 82.3933 10.9999 73.4233C10.9999 73.4233 10.9999 76.6432 10.9999 76.6332C6.38985 66.9132 -0.800125 50.6033 1.20988 39.8633C2.91988 31.4333 11.0599 30.4933 17.8899 32.8733C25.2499 35.5133 30.5299 41.2132 34.8799 47.2732C36.9599 50.2332 38.7999 53.3133 40.4499 56.4933C42.0399 59.8233 37.3299 62.2733 35.4999 59.1033C30.9699 51.0033 24.9099 41.9332 15.9399 38.6932C13.3099 37.8132 9.78987 37.7033 8.76987 38.6833C5.55987 41.6733 8.30984 50.8833 9.48984 54.8633C11.4998 61.1833 14.2599 67.5333 17.2599 73.4233C17.7999 74.4633 17.7599 75.6532 17.2599 76.6332C14.6899 81.8832 12.3899 87.5532 10.8799 93.1932C9.92986 97.1132 8.10987 104.543 11.4499 107.233C13.1899 108.203 15.3599 108.213 17.3299 107.903C23.9199 106.643 29.3099 101.073 33.3799 95.8332C34.2199 94.7332 35.0999 93.4733 35.8199 92.3133C38.3599 88.4233 44.1199 91.9032 41.8299 95.9632L41.8498 95.9532Z" fill="black" fill-opacity="0.2"/>
<path d="M41.8498 95.9532C35.6398 105.553 25.3899 116.473 12.8399 114.933C8.33988 114.373 4.57984 111.723 3.23984 106.993C0.459844 97.0533 6.71985 82.3933 10.9999 73.4233C10.9999 73.4233 10.9999 76.6432 10.9999 76.6332C6.38985 66.9132 -0.800125 50.6033 1.20988 39.8633C2.91988 31.4333 11.0599 30.4933 17.8899 32.8733C25.2499 35.5133 30.5299 41.2132 34.8799 47.2732C36.9599 50.2332 38.7999 53.3133 40.4499 56.4933C42.0399 59.8233 37.3299 62.2733 35.4999 59.1033C30.9699 51.0033 24.9099 41.9332 15.9399 38.6932C13.3099 37.8132 9.78987 37.7033 8.76987 38.6833C5.55987 41.6733 8.30984 50.8833 9.48984 54.8633C11.4998 61.1833 14.2599 67.5333 17.2599 73.4233C17.7999 74.4633 17.7599 75.6532 17.2599 76.6332C14.6899 81.8832 12.3899 87.5532 10.8799 93.1932C9.92986 97.1132 8.10987 104.543 11.4499 107.233C13.1899 108.203 15.3599 108.213 17.3299 107.903C23.9199 106.643 29.3099 101.073 33.3799 95.8332C34.2199 94.7332 35.0999 93.4733 35.8199 92.3133C38.3599 88.4233 44.1199 91.9032 41.8299 95.9632L41.8498 95.9532Z" fill="black"/>
<path d="M41.8498 95.9532C35.6398 105.553 25.3899 116.473 12.8399 114.933C8.33988 114.373 4.57984 111.723 3.23984 106.993C0.459844 97.0533 6.71985 82.3933 10.9999 73.4233C10.9999 73.4233 10.9999 76.6432 10.9999 76.6332C6.38985 66.9132 -0.800125 50.6033 1.20988 39.8633C2.91988 31.4333 11.0599 30.4933 17.8899 32.8733C25.2499 35.5133 30.5299 41.2132 34.8799 47.2732C36.9599 50.2332 38.7999 53.3133 40.4499 56.4933C42.0399 59.8233 37.3299 62.2733 35.4999 59.1033C30.9699 51.0033 24.9099 41.9332 15.9399 38.6932C13.3099 37.8132 9.78987 37.7033 8.76987 38.6833C5.55987 41.6733 8.30984 50.8833 9.48984 54.8633C11.4998 61.1833 14.2599 67.5333 17.2599 73.4233C17.7999 74.4633 17.7599 75.6532 17.2599 76.6332C14.6899 81.8832 12.3899 87.5532 10.8799 93.1932C9.92986 97.1132 8.10987 104.543 11.4499 107.233C13.1899 108.203 15.3599 108.213 17.3299 107.903C23.9199 106.643 29.3099 101.073 33.3799 95.8332C34.2199 94.7332 35.0999 93.4733 35.8199 92.3133C38.3599 88.4233 44.1199 91.9032 41.8299 95.9632L41.8498 95.9532Z" fill="black" fill-opacity="0.2"/>
<path d="M32.05 61.4448C42.48 42.6848 65.43 26.6648 86.78 24.1448C109.37 22.1148 134.02 33.0148 144.47 53.8348C157.4 80.2448 140.7 108.075 114.71 117.625C105.79 120.985 96.16 122.265 86.68 121.475C69.11 119.605 52.6 110.755 40.73 97.7848C39.75 96.7848 38.48 95.0948 37.58 94.0148C35.04 90.7448 32.94 87.1748 31.34 83.2848C30.8 82.0048 31.4 80.5248 32.68 79.9848C33.9 79.4648 35.3 79.9848 35.89 81.1448C38.53 86.3348 42.36 91.0248 46.79 95.0748C59.65 106.845 77.37 115.035 95 114.105C117.87 113.355 143.18 97.7948 143.86 72.9448C144.46 47.7548 119.48 30.8448 96.24 29.8048C84.42 28.7448 72.77 32.9548 62.56 39.2548C52.6 45.5348 43.18 54.0248 37.62 64.3848C35.56 68.0248 30.19 65.1848 32.05 61.4248H32.04L32.05 61.4448Z" fill="black"/>
<path d="M32.05 61.4448C42.48 42.6848 65.43 26.6648 86.78 24.1448C109.37 22.1148 134.02 33.0148 144.47 53.8348C157.4 80.2448 140.7 108.075 114.71 117.625C105.79 120.985 96.16 122.265 86.68 121.475C69.11 119.605 52.6 110.755 40.73 97.7848C39.75 96.7848 38.48 95.0948 37.58 94.0148C35.04 90.7448 32.94 87.1748 31.34 83.2848C30.8 82.0048 31.4 80.5248 32.68 79.9848C33.9 79.4648 35.3 79.9848 35.89 81.1448C38.53 86.3348 42.36 91.0248 46.79 95.0748C59.65 106.845 77.37 115.035 95 114.105C117.87 113.355 143.18 97.7948 143.86 72.9448C144.46 47.7548 119.48 30.8448 96.24 29.8048C84.42 28.7448 72.77 32.9548 62.56 39.2548C52.6 45.5348 43.18 54.0248 37.62 64.3848C35.56 68.0248 30.19 65.1848 32.05 61.4248H32.04L32.05 61.4448Z" fill="black" fill-opacity="0.2"/>
<path d="M32.05 61.4448C42.48 42.6848 65.43 26.6648 86.78 24.1448C109.37 22.1148 134.02 33.0148 144.47 53.8348C157.4 80.2448 140.7 108.075 114.71 117.625C105.79 120.985 96.16 122.265 86.68 121.475C69.11 119.605 52.6 110.755 40.73 97.7848C39.75 96.7848 38.48 95.0948 37.58 94.0148C35.04 90.7448 32.94 87.1748 31.34 83.2848C30.8 82.0048 31.4 80.5248 32.68 79.9848C33.9 79.4648 35.3 79.9848 35.89 81.1448C38.53 86.3348 42.36 91.0248 46.79 95.0748C59.65 106.845 77.37 115.035 95 114.105C117.87 113.355 143.18 97.7948 143.86 72.9448C144.46 47.7548 119.48 30.8448 96.24 29.8048C84.42 28.7448 72.77 32.9548 62.56 39.2548C52.6 45.5348 43.18 54.0248 37.62 64.3848C35.56 68.0248 30.19 65.1848 32.05 61.4248H32.04L32.05 61.4448Z" fill="black"/>
<path d="M32.05 61.4448C42.48 42.6848 65.43 26.6648 86.78 24.1448C109.37 22.1148 134.02 33.0148 144.47 53.8348C157.4 80.2448 140.7 108.075 114.71 117.625C105.79 120.985 96.16 122.265 86.68 121.475C69.11 119.605 52.6 110.755 40.73 97.7848C39.75 96.7848 38.48 95.0948 37.58 94.0148C35.04 90.7448 32.94 87.1748 31.34 83.2848C30.8 82.0048 31.4 80.5248 32.68 79.9848C33.9 79.4648 35.3 79.9848 35.89 81.1448C38.53 86.3348 42.36 91.0248 46.79 95.0748C59.65 106.845 77.37 115.035 95 114.105C117.87 113.355 143.18 97.7948 143.86 72.9448C144.46 47.7548 119.48 30.8448 96.24 29.8048C84.42 28.7448 72.77 32.9548 62.56 39.2548C52.6 45.5348 43.18 54.0248 37.62 64.3848C35.56 68.0248 30.19 65.1848 32.05 61.4248H32.04L32.05 61.4448Z" fill="black" fill-opacity="0.2"/>
<path d="M80.5898 128.764C89.3798 122.894 93.5198 113.654 89.8298 108.124C86.1398 102.594 76.0198 102.874 67.2298 108.744C58.4398 114.614 54.2998 123.854 57.9898 129.384C61.6798 134.914 71.7998 134.634 80.5898 128.764Z" fill="#FECB8B"/>
<path d="M90.3898 111.235C89.7298 109.865 88.6298 106.965 87.2898 106.135C88.6998 111.775 83.5398 120.035 75.0998 124.115C68.0998 127.495 61.4598 124.645 59.2598 118.365C59.3798 118.865 56.9298 126.845 57.1598 127.305C59.9498 133.075 69.6498 134.155 78.8198 129.715C87.9998 125.275 93.1798 117.005 90.3898 111.235Z" fill="#FF6700"/>
<path d="M75.9396 105.735C70.6196 109.375 65.2696 113.595 62.3196 119.165C60.0596 123.565 59.3996 128.615 65.5096 129.405C69.8396 129.945 74.4196 128.415 78.2296 126.265C82.2496 124.025 85.4196 120.465 87.1096 116.145C88.1396 113.345 88.5696 110.105 87.3096 107.335C86.9396 106.645 87.2396 105.775 87.9496 105.445C90.1596 104.415 91.7897 109.915 91.9597 111.425C92.7897 117.455 90.3496 123.475 86.3896 127.975C79.2596 135.995 63.0996 141.945 55.0396 132.095C48.8396 123.155 56.5396 111.885 64.2796 107.085C67.4896 104.995 70.9696 103.505 74.5396 102.575C75.4696 102.335 76.4296 102.895 76.6696 103.825C76.8596 104.575 76.5496 105.325 75.9396 105.715V105.735Z" fill="black"/>
<path d="M75.9396 105.735C70.6196 109.375 65.2696 113.595 62.3196 119.165C60.0596 123.565 59.3996 128.615 65.5096 129.405C69.8396 129.945 74.4196 128.415 78.2296 126.265C82.2496 124.025 85.4196 120.465 87.1096 116.145C88.1396 113.345 88.5696 110.105 87.3096 107.335C86.9396 106.645 87.2396 105.775 87.9496 105.445C90.1596 104.415 91.7897 109.915 91.9597 111.425C92.7897 117.455 90.3496 123.475 86.3896 127.975C79.2596 135.995 63.0996 141.945 55.0396 132.095C48.8396 123.155 56.5396 111.885 64.2796 107.085C67.4896 104.995 70.9696 103.505 74.5396 102.575C75.4696 102.335 76.4296 102.895 76.6696 103.825C76.8596 104.575 76.5496 105.325 75.9396 105.715V105.735Z" fill="black" fill-opacity="0.2"/>
<path d="M75.9396 105.735C70.6196 109.375 65.2696 113.595 62.3196 119.165C60.0596 123.565 59.3996 128.615 65.5096 129.405C69.8396 129.945 74.4196 128.415 78.2296 126.265C82.2496 124.025 85.4196 120.465 87.1096 116.145C88.1396 113.345 88.5696 110.105 87.3096 107.335C86.9396 106.645 87.2396 105.775 87.9496 105.445C90.1596 104.415 91.7897 109.915 91.9597 111.425C92.7897 117.455 90.3496 123.475 86.3896 127.975C79.2596 135.995 63.0996 141.945 55.0396 132.095C48.8396 123.155 56.5396 111.885 64.2796 107.085C67.4896 104.995 70.9696 103.505 74.5396 102.575C75.4696 102.335 76.4296 102.895 76.6696 103.825C76.8596 104.575 76.5496 105.325 75.9396 105.715V105.735Z" fill="black"/>
<path d="M75.9396 105.735C70.6196 109.375 65.2696 113.595 62.3196 119.165C60.0596 123.565 59.3996 128.615 65.5096 129.405C69.8396 129.945 74.4196 128.415 78.2296 126.265C82.2496 124.025 85.4196 120.465 87.1096 116.145C88.1396 113.345 88.5696 110.105 87.3096 107.335C86.9396 106.645 87.2396 105.775 87.9496 105.445C90.1596 104.415 91.7897 109.915 91.9597 111.425C92.7897 117.455 90.3496 123.475 86.3896 127.975C79.2596 135.995 63.0996 141.945 55.0396 132.095C48.8396 123.155 56.5396 111.885 64.2796 107.085C67.4896 104.995 70.9696 103.505 74.5396 102.575C75.4696 102.335 76.4296 102.895 76.6696 103.825C76.8596 104.575 76.5496 105.325 75.9396 105.715V105.735Z" fill="black" fill-opacity="0.2"/>
<path d="M99.0098 83.5236C99.0098 83.5236 99.0897 95.0636 108.22 94.1736C121.98 92.8236 135.39 66.9036 110.2 80.6736C103.52 84.3236 99.0198 83.5236 99.0198 83.5236H99.0098Z" fill="black"/>
<path d="M99.0098 83.5236C99.0098 83.5236 99.0897 95.0636 108.22 94.1736C121.98 92.8236 135.39 66.9036 110.2 80.6736C103.52 84.3236 99.0198 83.5236 99.0198 83.5236H99.0098Z" fill="black" fill-opacity="0.2"/>
<path d="M99.1201 53.515C99.2601 52.885 99.6101 52.245 99.9501 51.735C101.57 49.555 103.07 47.975 105.66 46.765C108.52 45.795 113.86 46.115 115.61 48.825L111.25 51.545C111.55 52.015 111.69 52.075 111.75 52.155C111.93 52.295 111.46 52.195 111.31 52.205C110.36 52.135 108.61 52.155 107.79 52.355C106.87 52.805 105.51 53.905 104.65 54.625C104.57 54.685 104.1 55.125 104.02 55.155C103.99 55.055 104.11 54.885 104.11 54.745L99.1201 53.515Z" fill="black"/>
<path d="M99.1201 53.515C99.2601 52.885 99.6101 52.245 99.9501 51.735C101.57 49.555 103.07 47.975 105.66 46.765C108.52 45.795 113.86 46.115 115.61 48.825L111.25 51.545C111.55 52.015 111.69 52.075 111.75 52.155C111.93 52.295 111.46 52.195 111.31 52.205C110.36 52.135 108.61 52.155 107.79 52.355C106.87 52.805 105.51 53.905 104.65 54.625C104.57 54.685 104.1 55.125 104.02 55.155C103.99 55.055 104.11 54.885 104.11 54.745L99.1201 53.515Z" fill="black" fill-opacity="0.2"/>
<path d="M76.56 62.0449C76.56 62.0449 56.36 66.0349 56.45 69.7149C56.54 73.3949 57.59 79.8249 57.59 79.8249" stroke="black" stroke-width="6" stroke-miterlimit="10" stroke-linecap="round"/>
<path d="M76.56 62.0449C76.56 62.0449 56.36 66.0349 56.45 69.7149C56.54 73.3949 57.59 79.8249 57.59 79.8249" stroke="black" stroke-opacity="0.2" stroke-width="6" stroke-miterlimit="10" stroke-linecap="round"/>
<path d="M106 65.8327C104.78 75.2927 93.6599 80.7427 84.9899 77.6427C74.9299 74.5927 73.4999 60.6327 80.6099 53.2927C90.6199 41.8027 107.93 51.3027 106.03 65.5927L105.99 65.8427L106 65.8327Z" fill="#FECB8B"/>
<path d="M107.94 66.1036C106.56 77.9836 91.9299 84.5036 81.5699 79.1836C74.8799 75.9536 72.1599 67.7736 73.5399 60.8336C74.8599 54.0036 80.1099 47.7936 86.9399 45.9836C98.8799 42.8236 110.28 54.3236 107.94 66.1036ZM104.05 65.5636C105.68 53.4336 90.5499 45.3636 82.6099 55.4936C77.8699 60.6136 77.74 70.6036 84.15 74.3036C91.43 78.4836 102.7 74.2836 104.05 65.5636Z" fill="black"/>
<path d="M107.94 66.1036C106.56 77.9836 91.9299 84.5036 81.5699 79.1836C74.8799 75.9536 72.1599 67.7736 73.5399 60.8336C74.8599 54.0036 80.1099 47.7936 86.9399 45.9836C98.8799 42.8236 110.28 54.3236 107.94 66.1036ZM104.05 65.5636C105.68 53.4336 90.5499 45.3636 82.6099 55.4936C77.8699 60.6136 77.74 70.6036 84.15 74.3036C91.43 78.4836 102.7 74.2836 104.05 65.5636Z" fill="black" fill-opacity="0.2"/>
<path d="M97.1798 72.2335C100.38 71.3235 101.75 66.2535 100.24 60.8935C98.7198 55.5435 94.8998 51.9335 91.6998 52.8435C88.4898 53.7535 87.1298 58.8235 88.6398 64.1835C90.1498 69.5335 93.9798 73.1435 97.1798 72.2335Z" fill="black"/>
<path d="M97.1798 72.2335C100.38 71.3235 101.75 66.2535 100.24 60.8935C98.7198 55.5435 94.8998 51.9335 91.6998 52.8435C88.4898 53.7535 87.1298 58.8235 88.6398 64.1835C90.1498 69.5335 93.9798 73.1435 97.1798 72.2335Z" fill="black" fill-opacity="0.2"/>
<path d="M90.6297 68.4136C91.8797 68.0636 92.4697 66.2536 91.9397 64.3936C91.4097 62.5236 89.9698 61.3036 88.7098 61.6536C87.4598 62.0036 86.8698 63.8136 87.3998 65.6736C87.9298 67.5436 89.3697 68.7636 90.6297 68.4136Z" fill="white"/>
<path d="M141.38 56.0026C140.16 65.4626 129.04 70.9127 120.37 67.8127C110.31 64.7627 108.88 50.8027 115.99 43.4627C126 31.9727 143.31 41.4726 141.41 55.7626L141.37 56.0126L141.38 56.0026Z" fill="#FECB8B"/>
<path d="M143.33 56.2735C141.95 68.1535 127.32 74.6735 116.96 69.3535C110.27 66.1235 107.55 57.9435 108.93 51.0035C110.25 44.1735 115.5 37.9635 122.33 36.1535C134.27 32.9935 145.67 44.4935 143.33 56.2735ZM139.43 55.7235C141.06 43.5935 125.93 35.5235 117.99 45.6535C113.25 50.7735 113.12 60.7635 119.53 64.4635C126.81 68.6435 138.08 64.4435 139.43 55.7235Z" fill="black"/>
<path d="M143.33 56.2735C141.95 68.1535 127.32 74.6735 116.96 69.3535C110.27 66.1235 107.55 57.9435 108.93 51.0035C110.25 44.1735 115.5 37.9635 122.33 36.1535C134.27 32.9935 145.67 44.4935 143.33 56.2735ZM139.43 55.7235C141.06 43.5935 125.93 35.5235 117.99 45.6535C113.25 50.7735 113.12 60.7635 119.53 64.4635C126.81 68.6435 138.08 64.4435 139.43 55.7235Z" fill="black" fill-opacity="0.2"/>
<path d="M127.11 64.2238C130.31 63.3138 131.68 58.2437 130.17 52.8837C128.65 47.5337 124.83 43.9237 121.63 44.8337C118.42 45.7437 117.06 50.8138 118.57 56.1738C120.08 61.5238 123.91 65.1338 127.11 64.2238Z" fill="black"/>
<path d="M127.11 64.2238C130.31 63.3138 131.68 58.2437 130.17 52.8837C128.65 47.5337 124.83 43.9237 121.63 44.8337C118.42 45.7437 117.06 50.8138 118.57 56.1738C120.08 61.5238 123.91 65.1338 127.11 64.2238Z" fill="black" fill-opacity="0.2"/>
<path d="M120.56 60.4039C121.81 60.0539 122.4 58.2438 121.87 56.3838C121.34 54.5138 119.9 53.2938 118.64 53.6438C117.39 53.9938 116.8 55.8039 117.33 57.6639C117.86 59.5339 119.3 60.7539 120.56 60.4039Z" fill="white"/>
</svg>
