<svg width="149" height="138" viewBox="0 0 149 138" fill="none" xmlns="http://www.w3.org/2000/svg">
<path d="M37.4193 57.7946C33.0793 49.5546 23.4693 34.7046 10.6793 34.8546C-7.00072 35.0646 13.5793 75.0246 13.5793 75.0246C13.5793 75.0246 -3.11071 107.745 11.4393 111.205C25.9993 114.665 38.2793 94.1546 38.2793 94.1546" fill="#FF6700"/>
<path d="M108.059 126.794C115.149 119.824 117.349 110.574 112.979 106.134C108.609 101.694 99.3194 103.744 92.2394 110.714C85.1494 117.684 82.9494 126.934 87.3194 131.374C91.6894 135.814 100.979 133.764 108.059 126.794Z" fill="black"/>
<path d="M108.059 126.794C115.149 119.824 117.349 110.574 112.979 106.134C108.609 101.694 99.3194 103.744 92.2394 110.714C85.1494 117.684 82.9494 126.934 87.3194 131.374C91.6894 135.814 100.979 133.764 108.059 126.794Z" fill="black" fill-opacity="0.2"/>
<path d="M108.059 126.794C115.149 119.824 117.349 110.574 112.979 106.134C108.609 101.694 99.3194 103.744 92.2394 110.714C85.1494 117.684 82.9494 126.934 87.3194 131.374C91.6894 135.814 100.979 133.764 108.059 126.794Z" fill="black"/>
<path d="M108.059 126.794C115.149 119.824 117.349 110.574 112.979 106.134C108.609 101.694 99.3194 103.744 92.2394 110.714C85.1494 117.684 82.9494 126.934 87.3194 131.374C91.6894 135.814 100.979 133.764 108.059 126.794Z" fill="black" fill-opacity="0.2"/>
<path d="M115.379 37.8637C115.379 37.8637 103.519 15.0937 77.4294 4.89366C64.8794 -0.00634491 59.7794 7.63364 67.0194 17.2536C76.2394 29.5036 41.2994 5.38369 63.7294 45.2437L115.389 37.8537L115.379 37.8637Z" fill="#FF6700"/>
<path d="M95.5594 28.7848L106.759 25.4648L87.6094 9.8548L69.9294 3.38477L63.8994 7.57477C63.8994 7.57477 89.4794 16.0948 95.5494 28.7948L95.5594 28.7848Z" fill="#FECB8B"/>
<path d="M112.259 36.2542C111.709 37.0542 111.709 38.5242 112.209 39.2542V39.2242L112.159 39.1242C110.529 34.8442 107.929 30.9842 105.029 27.4542C98.4592 19.7742 90.1492 13.5642 80.9892 9.37423C77.6292 8.02423 73.5392 6.09421 70.0292 6.41421C65.9892 6.62421 66.6892 9.92422 68.1692 12.6142C69.8692 15.6642 74.0792 19.0842 71.4192 22.9142C69.1092 26.0542 64.5292 24.4542 61.5192 24.6542C60.6192 24.6642 59.9492 24.9142 59.9992 24.9642C59.9992 24.9842 60.1092 24.8842 60.1192 24.8742C59.8092 27.6742 61.4092 31.0442 62.4992 33.7642C62.8392 34.5642 63.5292 36.1742 63.8992 36.9642C64.8692 39.1142 65.8692 41.2842 66.8092 43.5142L63.2492 41.7542C79.6892 39.3342 95.6292 37.7942 112.279 36.2442L112.259 36.2542ZM118.509 39.4742C100.729 42.8642 82.2192 46.2342 64.1892 48.7342C62.7192 48.9442 61.3292 48.1942 60.6492 46.9742C56.9092 41.6142 53.8292 35.7442 52.4492 29.2142C50.6192 19.5042 56.4492 15.7842 65.4792 17.3742C66.0492 17.4442 66.6092 17.5042 66.9292 17.5142C67.0692 17.5242 67.1692 17.4942 66.9292 17.5642C65.8492 17.8842 64.9692 19.0542 64.9692 20.1942C64.9492 20.4142 64.9892 20.6742 65.0592 20.8642C64.2492 19.2142 62.7992 17.5842 62.0192 15.7342C60.6292 12.7742 59.7792 9.4342 60.9792 6.0242C63.6092 -1.0358 72.4792 -0.355797 78.0692 2.0942C79.8092 2.8242 81.5992 3.72423 83.3192 4.49423C84.8592 5.38423 86.8192 6.36422 88.3192 7.29422L91.5392 9.33419C100.009 14.9542 107.109 22.3242 113.589 30.0842C114.819 31.5042 116.069 33.1242 117.249 34.5942L117.859 35.3742L118.169 35.7742L118.249 35.8742C118.899 36.8442 118.979 38.4042 118.519 39.4542L118.509 39.4742Z" fill="black"/>
<path d="M112.259 36.2542C111.709 37.0542 111.709 38.5242 112.209 39.2542V39.2242L112.159 39.1242C110.529 34.8442 107.929 30.9842 105.029 27.4542C98.4592 19.7742 90.1492 13.5642 80.9892 9.37423C77.6292 8.02423 73.5392 6.09421 70.0292 6.41421C65.9892 6.62421 66.6892 9.92422 68.1692 12.6142C69.8692 15.6642 74.0792 19.0842 71.4192 22.9142C69.1092 26.0542 64.5292 24.4542 61.5192 24.6542C60.6192 24.6642 59.9492 24.9142 59.9992 24.9642C59.9992 24.9842 60.1092 24.8842 60.1192 24.8742C59.8092 27.6742 61.4092 31.0442 62.4992 33.7642C62.8392 34.5642 63.5292 36.1742 63.8992 36.9642C64.8692 39.1142 65.8692 41.2842 66.8092 43.5142L63.2492 41.7542C79.6892 39.3342 95.6292 37.7942 112.279 36.2442L112.259 36.2542ZM118.509 39.4742C100.729 42.8642 82.2192 46.2342 64.1892 48.7342C62.7192 48.9442 61.3292 48.1942 60.6492 46.9742C56.9092 41.6142 53.8292 35.7442 52.4492 29.2142C50.6192 19.5042 56.4492 15.7842 65.4792 17.3742C66.0492 17.4442 66.6092 17.5042 66.9292 17.5142C67.0692 17.5242 67.1692 17.4942 66.9292 17.5642C65.8492 17.8842 64.9692 19.0542 64.9692 20.1942C64.9492 20.4142 64.9892 20.6742 65.0592 20.8642C64.2492 19.2142 62.7992 17.5842 62.0192 15.7342C60.6292 12.7742 59.7792 9.4342 60.9792 6.0242C63.6092 -1.0358 72.4792 -0.355797 78.0692 2.0942C79.8092 2.8242 81.5992 3.72423 83.3192 4.49423C84.8592 5.38423 86.8192 6.36422 88.3192 7.29422L91.5392 9.33419C100.009 14.9542 107.109 22.3242 113.589 30.0842C114.819 31.5042 116.069 33.1242 117.249 34.5942L117.859 35.3742L118.169 35.7742L118.249 35.8742C118.899 36.8442 118.979 38.4042 118.519 39.4542L118.509 39.4742Z" fill="black" fill-opacity="0.2"/>
<path d="M112.259 36.2542C111.709 37.0542 111.709 38.5242 112.209 39.2542V39.2242L112.159 39.1242C110.529 34.8442 107.929 30.9842 105.029 27.4542C98.4592 19.7742 90.1492 13.5642 80.9892 9.37423C77.6292 8.02423 73.5392 6.09421 70.0292 6.41421C65.9892 6.62421 66.6892 9.92422 68.1692 12.6142C69.8692 15.6642 74.0792 19.0842 71.4192 22.9142C69.1092 26.0542 64.5292 24.4542 61.5192 24.6542C60.6192 24.6642 59.9492 24.9142 59.9992 24.9642C59.9992 24.9842 60.1092 24.8842 60.1192 24.8742C59.8092 27.6742 61.4092 31.0442 62.4992 33.7642C62.8392 34.5642 63.5292 36.1742 63.8992 36.9642C64.8692 39.1142 65.8692 41.2842 66.8092 43.5142L63.2492 41.7542C79.6892 39.3342 95.6292 37.7942 112.279 36.2442L112.259 36.2542ZM118.509 39.4742C100.729 42.8642 82.2192 46.2342 64.1892 48.7342C62.7192 48.9442 61.3292 48.1942 60.6492 46.9742C56.9092 41.6142 53.8292 35.7442 52.4492 29.2142C50.6192 19.5042 56.4492 15.7842 65.4792 17.3742C66.0492 17.4442 66.6092 17.5042 66.9292 17.5142C67.0692 17.5242 67.1692 17.4942 66.9292 17.5642C65.8492 17.8842 64.9692 19.0542 64.9692 20.1942C64.9492 20.4142 64.9892 20.6742 65.0592 20.8642C64.2492 19.2142 62.7992 17.5842 62.0192 15.7342C60.6292 12.7742 59.7792 9.4342 60.9792 6.0242C63.6092 -1.0358 72.4792 -0.355797 78.0692 2.0942C79.8092 2.8242 81.5992 3.72423 83.3192 4.49423C84.8592 5.38423 86.8192 6.36422 88.3192 7.29422L91.5392 9.33419C100.009 14.9542 107.109 22.3242 113.589 30.0842C114.819 31.5042 116.069 33.1242 117.249 34.5942L117.859 35.3742L118.169 35.7742L118.249 35.8742C118.899 36.8442 118.979 38.4042 118.519 39.4542L118.509 39.4742Z" fill="black"/>
<path d="M112.259 36.2542C111.709 37.0542 111.709 38.5242 112.209 39.2542V39.2242L112.159 39.1242C110.529 34.8442 107.929 30.9842 105.029 27.4542C98.4592 19.7742 90.1492 13.5642 80.9892 9.37423C77.6292 8.02423 73.5392 6.09421 70.0292 6.41421C65.9892 6.62421 66.6892 9.92422 68.1692 12.6142C69.8692 15.6642 74.0792 19.0842 71.4192 22.9142C69.1092 26.0542 64.5292 24.4542 61.5192 24.6542C60.6192 24.6642 59.9492 24.9142 59.9992 24.9642C59.9992 24.9842 60.1092 24.8842 60.1192 24.8742C59.8092 27.6742 61.4092 31.0442 62.4992 33.7642C62.8392 34.5642 63.5292 36.1742 63.8992 36.9642C64.8692 39.1142 65.8692 41.2842 66.8092 43.5142L63.2492 41.7542C79.6892 39.3342 95.6292 37.7942 112.279 36.2442L112.259 36.2542ZM118.509 39.4742C100.729 42.8642 82.2192 46.2342 64.1892 48.7342C62.7192 48.9442 61.3292 48.1942 60.6492 46.9742C56.9092 41.6142 53.8292 35.7442 52.4492 29.2142C50.6192 19.5042 56.4492 15.7842 65.4792 17.3742C66.0492 17.4442 66.6092 17.5042 66.9292 17.5142C67.0692 17.5242 67.1692 17.4942 66.9292 17.5642C65.8492 17.8842 64.9692 19.0542 64.9692 20.1942C64.9492 20.4142 64.9892 20.6742 65.0592 20.8642C64.2492 19.2142 62.7992 17.5842 62.0192 15.7342C60.6292 12.7742 59.7792 9.4342 60.9792 6.0242C63.6092 -1.0358 72.4792 -0.355797 78.0692 2.0942C79.8092 2.8242 81.5992 3.72423 83.3192 4.49423C84.8592 5.38423 86.8192 6.36422 88.3192 7.29422L91.5392 9.33419C100.009 14.9542 107.109 22.3242 113.589 30.0842C114.819 31.5042 116.069 33.1242 117.249 34.5942L117.859 35.3742L118.169 35.7742L118.249 35.8742C118.899 36.8442 118.979 38.4042 118.519 39.4542L118.509 39.4742Z" fill="black" fill-opacity="0.2"/>
<path d="M38.2692 94.1449L38.4292 91.1249C49.1492 104.985 70.1892 117.975 91.2892 117.975C121.409 117.975 145.829 97.5549 145.829 72.3849C145.829 47.2149 121.409 26.7949 91.2892 26.7949C70.7592 26.7949 48.1092 42.4749 37.4092 57.8149" fill="#FECB8B"/>
<path d="M89.2695 108.125C94.7595 111.085 106.48 112.295 115.23 110.415C123.21 108.695 107.03 119.905 90.0396 119.405L89.2795 108.125H89.2695Z" fill="#FF6700"/>
<path d="M30.2694 63.9442C22.1194 46.1742 10.0194 39.9043 7.06935 47.6243C5.24935 19.9342 28.9094 45.6742 33.5694 56.3542L30.2694 63.9442Z" fill="#FECB8B"/>
<path d="M13.3394 107.994C25.3594 107.604 30.6794 88.9338 30.6294 82.8438L37.3794 93.5638C29.9394 103.584 21.9894 109.044 13.3394 107.994Z" fill="black"/>
<path d="M13.3394 107.994C25.3594 107.604 30.6794 88.9338 30.6294 82.8438L37.3794 93.5638C29.9394 103.584 21.9894 109.044 13.3394 107.994Z" fill="black" fill-opacity="0.2"/>
<path d="M13.3394 107.994C25.3594 107.604 30.6794 88.9338 30.6294 82.8438L37.3794 93.5638C29.9394 103.584 21.9894 109.044 13.3394 107.994Z" fill="black"/>
<path d="M13.3394 107.994C25.3594 107.604 30.6794 88.9338 30.6294 82.8438L37.3794 93.5638C29.9394 103.584 21.9894 109.044 13.3394 107.994Z" fill="black" fill-opacity="0.2"/>
<path d="M35.1091 81.2734C37.4591 83.6034 30.2891 71.0835 34.2891 62.9135C54.7591 21.0035 99.7791 27.2135 95.5491 28.7935C60.5691 41.8935 57.2691 79.5334 74.6691 103.393L62.3591 108.813C56.1891 109.583 33.0791 89.9235 35.1091 81.2935V81.2734Z" fill="#FF6700"/>
<path d="M41.2893 95.9532C35.0793 105.553 24.8293 116.473 12.2793 114.933C7.77933 114.373 4.01933 111.723 2.67933 106.993C-0.100674 97.0533 6.15934 82.3933 10.4393 73.4233C10.4393 73.4233 10.4393 76.6432 10.4393 76.6332C5.82934 66.9132 -1.36067 50.6033 0.649327 39.8633C2.35933 31.4333 10.4993 30.4933 17.3293 32.8733C24.6893 35.5133 29.9693 41.2132 34.3193 47.2732C36.3993 50.2332 38.2393 53.3133 39.8893 56.4933C41.4793 59.8233 36.7693 62.2733 34.9393 59.1033C30.4093 51.0033 24.3493 41.9332 15.3793 38.6932C12.7493 37.8132 9.22932 37.7033 8.20932 38.6833C4.99932 41.6733 7.74933 50.8833 8.92933 54.8633C10.9393 61.1833 13.6993 67.5333 16.6993 73.4233C17.2393 74.4633 17.1993 75.6532 16.6993 76.6332C14.1293 81.8832 11.8293 87.5532 10.3193 93.1932C9.36933 97.1132 7.54933 104.543 10.8893 107.233C12.6293 108.203 14.7993 108.213 16.7693 107.903C23.3593 106.643 28.7493 101.073 32.8193 95.8332C33.6593 94.7332 34.5393 93.4733 35.2593 92.3133C37.7993 88.4233 43.5593 91.9032 41.2693 95.9632L41.2893 95.9532Z" fill="black"/>
<path d="M41.2893 95.9532C35.0793 105.553 24.8293 116.473 12.2793 114.933C7.77933 114.373 4.01933 111.723 2.67933 106.993C-0.100674 97.0533 6.15934 82.3933 10.4393 73.4233C10.4393 73.4233 10.4393 76.6432 10.4393 76.6332C5.82934 66.9132 -1.36067 50.6033 0.649327 39.8633C2.35933 31.4333 10.4993 30.4933 17.3293 32.8733C24.6893 35.5133 29.9693 41.2132 34.3193 47.2732C36.3993 50.2332 38.2393 53.3133 39.8893 56.4933C41.4793 59.8233 36.7693 62.2733 34.9393 59.1033C30.4093 51.0033 24.3493 41.9332 15.3793 38.6932C12.7493 37.8132 9.22932 37.7033 8.20932 38.6833C4.99932 41.6733 7.74933 50.8833 8.92933 54.8633C10.9393 61.1833 13.6993 67.5333 16.6993 73.4233C17.2393 74.4633 17.1993 75.6532 16.6993 76.6332C14.1293 81.8832 11.8293 87.5532 10.3193 93.1932C9.36933 97.1132 7.54933 104.543 10.8893 107.233C12.6293 108.203 14.7993 108.213 16.7693 107.903C23.3593 106.643 28.7493 101.073 32.8193 95.8332C33.6593 94.7332 34.5393 93.4733 35.2593 92.3133C37.7993 88.4233 43.5593 91.9032 41.2693 95.9632L41.2893 95.9532Z" fill="black" fill-opacity="0.2"/>
<path d="M41.2893 95.9532C35.0793 105.553 24.8293 116.473 12.2793 114.933C7.77933 114.373 4.01933 111.723 2.67933 106.993C-0.100674 97.0533 6.15934 82.3933 10.4393 73.4233C10.4393 73.4233 10.4393 76.6432 10.4393 76.6332C5.82934 66.9132 -1.36067 50.6033 0.649327 39.8633C2.35933 31.4333 10.4993 30.4933 17.3293 32.8733C24.6893 35.5133 29.9693 41.2132 34.3193 47.2732C36.3993 50.2332 38.2393 53.3133 39.8893 56.4933C41.4793 59.8233 36.7693 62.2733 34.9393 59.1033C30.4093 51.0033 24.3493 41.9332 15.3793 38.6932C12.7493 37.8132 9.22932 37.7033 8.20932 38.6833C4.99932 41.6733 7.74933 50.8833 8.92933 54.8633C10.9393 61.1833 13.6993 67.5333 16.6993 73.4233C17.2393 74.4633 17.1993 75.6532 16.6993 76.6332C14.1293 81.8832 11.8293 87.5532 10.3193 93.1932C9.36933 97.1132 7.54933 104.543 10.8893 107.233C12.6293 108.203 14.7993 108.213 16.7693 107.903C23.3593 106.643 28.7493 101.073 32.8193 95.8332C33.6593 94.7332 34.5393 93.4733 35.2593 92.3133C37.7993 88.4233 43.5593 91.9032 41.2693 95.9632L41.2893 95.9532Z" fill="black"/>
<path d="M41.2893 95.9532C35.0793 105.553 24.8293 116.473 12.2793 114.933C7.77933 114.373 4.01933 111.723 2.67933 106.993C-0.100674 97.0533 6.15934 82.3933 10.4393 73.4233C10.4393 73.4233 10.4393 76.6432 10.4393 76.6332C5.82934 66.9132 -1.36067 50.6033 0.649327 39.8633C2.35933 31.4333 10.4993 30.4933 17.3293 32.8733C24.6893 35.5133 29.9693 41.2132 34.3193 47.2732C36.3993 50.2332 38.2393 53.3133 39.8893 56.4933C41.4793 59.8233 36.7693 62.2733 34.9393 59.1033C30.4093 51.0033 24.3493 41.9332 15.3793 38.6932C12.7493 37.8132 9.22932 37.7033 8.20932 38.6833C4.99932 41.6733 7.74933 50.8833 8.92933 54.8633C10.9393 61.1833 13.6993 67.5333 16.6993 73.4233C17.2393 74.4633 17.1993 75.6532 16.6993 76.6332C14.1293 81.8832 11.8293 87.5532 10.3193 93.1932C9.36933 97.1132 7.54933 104.543 10.8893 107.233C12.6293 108.203 14.7993 108.213 16.7693 107.903C23.3593 106.643 28.7493 101.073 32.8193 95.8332C33.6593 94.7332 34.5393 93.4733 35.2593 92.3133C37.7993 88.4233 43.5593 91.9032 41.2693 95.9632L41.2893 95.9532Z" fill="black" fill-opacity="0.2"/>
<path d="M31.4895 61.4448C41.9195 42.6848 64.8695 26.6648 86.2195 24.1448C108.809 22.1148 133.46 33.0148 143.91 53.8348C156.84 80.2448 140.139 108.075 114.149 117.625C105.229 120.985 95.5995 122.265 86.1195 121.475C68.5495 119.605 52.0395 110.755 40.1695 97.7848C39.1895 96.7848 37.9195 95.0948 37.0195 94.0148C34.4795 90.7448 32.3795 87.1748 30.7795 83.2848C30.2395 82.0048 30.8395 80.5248 32.1195 79.9848C33.3395 79.4648 34.7395 79.9848 35.3295 81.1448C37.9695 86.3348 41.7995 91.0248 46.2295 95.0748C59.0895 106.845 76.8095 115.035 94.4395 114.105C117.309 113.355 142.619 97.7948 143.299 72.9448C143.899 47.7548 118.919 30.8448 95.6795 29.8048C83.8595 28.7448 72.2095 32.9548 61.9995 39.2548C52.0395 45.5348 42.6195 54.0248 37.0595 64.3848C34.9995 68.0248 29.6295 65.1848 31.4895 61.4248H31.4795L31.4895 61.4448Z" fill="black"/>
<path d="M31.4895 61.4448C41.9195 42.6848 64.8695 26.6648 86.2195 24.1448C108.809 22.1148 133.46 33.0148 143.91 53.8348C156.84 80.2448 140.139 108.075 114.149 117.625C105.229 120.985 95.5995 122.265 86.1195 121.475C68.5495 119.605 52.0395 110.755 40.1695 97.7848C39.1895 96.7848 37.9195 95.0948 37.0195 94.0148C34.4795 90.7448 32.3795 87.1748 30.7795 83.2848C30.2395 82.0048 30.8395 80.5248 32.1195 79.9848C33.3395 79.4648 34.7395 79.9848 35.3295 81.1448C37.9695 86.3348 41.7995 91.0248 46.2295 95.0748C59.0895 106.845 76.8095 115.035 94.4395 114.105C117.309 113.355 142.619 97.7948 143.299 72.9448C143.899 47.7548 118.919 30.8448 95.6795 29.8048C83.8595 28.7448 72.2095 32.9548 61.9995 39.2548C52.0395 45.5348 42.6195 54.0248 37.0595 64.3848C34.9995 68.0248 29.6295 65.1848 31.4895 61.4248H31.4795L31.4895 61.4448Z" fill="black" fill-opacity="0.2"/>
<path d="M31.4895 61.4448C41.9195 42.6848 64.8695 26.6648 86.2195 24.1448C108.809 22.1148 133.46 33.0148 143.91 53.8348C156.84 80.2448 140.139 108.075 114.149 117.625C105.229 120.985 95.5995 122.265 86.1195 121.475C68.5495 119.605 52.0395 110.755 40.1695 97.7848C39.1895 96.7848 37.9195 95.0948 37.0195 94.0148C34.4795 90.7448 32.3795 87.1748 30.7795 83.2848C30.2395 82.0048 30.8395 80.5248 32.1195 79.9848C33.3395 79.4648 34.7395 79.9848 35.3295 81.1448C37.9695 86.3348 41.7995 91.0248 46.2295 95.0748C59.0895 106.845 76.8095 115.035 94.4395 114.105C117.309 113.355 142.619 97.7948 143.299 72.9448C143.899 47.7548 118.919 30.8448 95.6795 29.8048C83.8595 28.7448 72.2095 32.9548 61.9995 39.2548C52.0395 45.5348 42.6195 54.0248 37.0595 64.3848C34.9995 68.0248 29.6295 65.1848 31.4895 61.4248H31.4795L31.4895 61.4448Z" fill="black"/>
<path d="M31.4895 61.4448C41.9195 42.6848 64.8695 26.6648 86.2195 24.1448C108.809 22.1148 133.46 33.0148 143.91 53.8348C156.84 80.2448 140.139 108.075 114.149 117.625C105.229 120.985 95.5995 122.265 86.1195 121.475C68.5495 119.605 52.0395 110.755 40.1695 97.7848C39.1895 96.7848 37.9195 95.0948 37.0195 94.0148C34.4795 90.7448 32.3795 87.1748 30.7795 83.2848C30.2395 82.0048 30.8395 80.5248 32.1195 79.9848C33.3395 79.4648 34.7395 79.9848 35.3295 81.1448C37.9695 86.3348 41.7995 91.0248 46.2295 95.0748C59.0895 106.845 76.8095 115.035 94.4395 114.105C117.309 113.355 142.619 97.7948 143.299 72.9448C143.899 47.7548 118.919 30.8448 95.6795 29.8048C83.8595 28.7448 72.2095 32.9548 61.9995 39.2548C52.0395 45.5348 42.6195 54.0248 37.0595 64.3848C34.9995 68.0248 29.6295 65.1848 31.4895 61.4248H31.4795L31.4895 61.4448Z" fill="black" fill-opacity="0.2"/>
<path d="M80.0292 128.764C88.8192 122.894 92.9592 113.654 89.2692 108.124C85.5792 102.594 75.4592 102.874 66.6692 108.744C57.8792 114.614 53.7392 123.854 57.4292 129.384C61.1192 134.914 71.2392 134.634 80.0292 128.764Z" fill="#FECB8B"/>
<path d="M89.8292 111.235C89.1692 109.865 88.0692 106.965 86.7292 106.135C88.1392 111.775 82.9792 120.035 74.5392 124.115C67.5392 127.495 60.8992 124.645 58.6992 118.365C58.8192 118.865 56.3692 126.845 56.5992 127.305C59.3892 133.075 69.0892 134.155 78.2592 129.715C87.4392 125.275 92.6192 117.005 89.8292 111.235Z" fill="#FF6700"/>
<path d="M75.3795 105.735C70.0595 109.375 64.7095 113.595 61.7595 119.165C59.4995 123.565 58.8396 128.615 64.9496 129.405C69.2796 129.945 73.8595 128.415 77.6695 126.265C81.6895 124.025 84.8595 120.465 86.5495 116.145C87.5795 113.345 88.0095 110.105 86.7495 107.335C86.3795 106.645 86.6795 105.775 87.3895 105.445C89.5995 104.415 91.2295 109.915 91.3995 111.425C92.2295 117.455 89.7895 123.475 85.8295 127.975C78.6995 135.995 62.5395 141.945 54.4795 132.095C48.2795 123.155 55.9795 111.885 63.7195 107.085C66.9295 104.995 70.4095 103.505 73.9795 102.575C74.9095 102.335 75.8695 102.895 76.1095 103.825C76.2995 104.575 75.9895 105.325 75.3795 105.715V105.735Z" fill="black"/>
<path d="M75.3795 105.735C70.0595 109.375 64.7095 113.595 61.7595 119.165C59.4995 123.565 58.8396 128.615 64.9496 129.405C69.2796 129.945 73.8595 128.415 77.6695 126.265C81.6895 124.025 84.8595 120.465 86.5495 116.145C87.5795 113.345 88.0095 110.105 86.7495 107.335C86.3795 106.645 86.6795 105.775 87.3895 105.445C89.5995 104.415 91.2295 109.915 91.3995 111.425C92.2295 117.455 89.7895 123.475 85.8295 127.975C78.6995 135.995 62.5395 141.945 54.4795 132.095C48.2795 123.155 55.9795 111.885 63.7195 107.085C66.9295 104.995 70.4095 103.505 73.9795 102.575C74.9095 102.335 75.8695 102.895 76.1095 103.825C76.2995 104.575 75.9895 105.325 75.3795 105.715V105.735Z" fill="black" fill-opacity="0.2"/>
<path d="M75.3795 105.735C70.0595 109.375 64.7095 113.595 61.7595 119.165C59.4995 123.565 58.8396 128.615 64.9496 129.405C69.2796 129.945 73.8595 128.415 77.6695 126.265C81.6895 124.025 84.8595 120.465 86.5495 116.145C87.5795 113.345 88.0095 110.105 86.7495 107.335C86.3795 106.645 86.6795 105.775 87.3895 105.445C89.5995 104.415 91.2295 109.915 91.3995 111.425C92.2295 117.455 89.7895 123.475 85.8295 127.975C78.6995 135.995 62.5395 141.945 54.4795 132.095C48.2795 123.155 55.9795 111.885 63.7195 107.085C66.9295 104.995 70.4095 103.505 73.9795 102.575C74.9095 102.335 75.8695 102.895 76.1095 103.825C76.2995 104.575 75.9895 105.325 75.3795 105.715V105.735Z" fill="black"/>
<path d="M75.3795 105.735C70.0595 109.375 64.7095 113.595 61.7595 119.165C59.4995 123.565 58.8396 128.615 64.9496 129.405C69.2796 129.945 73.8595 128.415 77.6695 126.265C81.6895 124.025 84.8595 120.465 86.5495 116.145C87.5795 113.345 88.0095 110.105 86.7495 107.335C86.3795 106.645 86.6795 105.775 87.3895 105.445C89.5995 104.415 91.2295 109.915 91.3995 111.425C92.2295 117.455 89.7895 123.475 85.8295 127.975C78.6995 135.995 62.5395 141.945 54.4795 132.095C48.2795 123.155 55.9795 111.885 63.7195 107.085C66.9295 104.995 70.4095 103.505 73.9795 102.575C74.9095 102.335 75.8695 102.895 76.1095 103.825C76.2995 104.575 75.9895 105.325 75.3795 105.715V105.735Z" fill="black" fill-opacity="0.2"/>
<path d="M98.4395 83.5236C98.4395 83.5236 98.5194 95.0636 107.649 94.1736C121.409 92.8236 134.819 66.9036 109.629 80.6736C102.949 84.3236 98.4495 83.5236 98.4495 83.5236H98.4395Z" fill="black"/>
<path d="M98.4395 83.5236C98.4395 83.5236 98.5194 95.0636 107.649 94.1736C121.409 92.8236 134.819 66.9036 109.629 80.6736C102.949 84.3236 98.4495 83.5236 98.4495 83.5236H98.4395Z" fill="black" fill-opacity="0.2"/>
<path d="M130.49 47.5734C128.26 45.4134 112.71 49.0335 107.12 50.1135C99.1696 51.6235 86.3796 54.3935 80.5596 56.0835C80.4196 56.1435 80.3396 56.2235 80.2796 56.3435L63.0196 60.5034C60.1496 61.2534 57.8196 63.2434 56.6096 65.9434L54.3396 71.0335C53.6696 72.5435 54.3396 74.3235 55.8596 74.9935C56.2596 75.1735 56.6696 75.2534 57.0796 75.2534C58.2296 75.2534 59.3196 74.5935 59.8196 73.4735L62.0896 68.3834C62.5496 67.3434 63.4496 66.5935 64.4796 66.3135L77.6496 63.1434C78.1096 69.2134 81.2396 74.5934 86.2596 77.6434C94.1796 82.2834 106.43 75.8535 109.44 67.9935C109.93 66.9135 110.33 65.9835 110.89 65.0235C112.07 63.0535 112.49 64.5034 114.23 66.3234C116.33 68.6934 117.79 69.8035 122.53 69.9935C127.27 70.1835 131.56 64.3835 132.34 59.6035C133.12 54.8335 132.44 51.3735 130.5 47.5635L130.49 47.5734Z" fill="#FF6700"/>
<path d="M134.289 45.1438C132.059 42.9838 116.509 46.6038 110.919 47.6838C102.969 49.1938 90.1794 51.9638 84.3594 53.6538C84.2194 53.7138 84.1394 53.7938 84.0794 53.9138L66.8194 58.0737C63.9494 58.8237 61.6194 60.8137 60.4094 63.5137L58.1394 68.6038C57.4694 70.1138 58.1394 71.8938 59.6594 72.5638C60.0594 72.7438 60.4694 72.8237 60.8794 72.8237C62.0294 72.8237 63.1194 72.1638 63.6194 71.0438L65.8894 65.9538C66.3494 64.9138 67.2494 64.1637 68.2794 63.8837L84.0794 60.0737C84.5394 66.1437 86.2694 72.9838 91.2894 76.0338C99.2094 80.6738 109.569 74.3138 112.579 66.4538C113.069 65.3738 113.469 64.4438 114.029 63.4838C115.209 61.5138 115.629 62.9638 117.369 64.7838C119.469 67.1538 122.639 69.4938 125.979 69.2938C131.139 69.3538 134.939 65.0038 135.719 60.2338C136.499 55.4638 136.229 48.9438 134.289 45.1238V45.1438Z" fill="black"/>
<path d="M134.289 45.1438C132.059 42.9838 116.509 46.6038 110.919 47.6838C102.969 49.1938 90.1794 51.9638 84.3594 53.6538C84.2194 53.7138 84.1394 53.7938 84.0794 53.9138L66.8194 58.0737C63.9494 58.8237 61.6194 60.8137 60.4094 63.5137L58.1394 68.6038C57.4694 70.1138 58.1394 71.8938 59.6594 72.5638C60.0594 72.7438 60.4694 72.8237 60.8794 72.8237C62.0294 72.8237 63.1194 72.1638 63.6194 71.0438L65.8894 65.9538C66.3494 64.9138 67.2494 64.1637 68.2794 63.8837L84.0794 60.0737C84.5394 66.1437 86.2694 72.9838 91.2894 76.0338C99.2094 80.6738 109.569 74.3138 112.579 66.4538C113.069 65.3738 113.469 64.4438 114.029 63.4838C115.209 61.5138 115.629 62.9638 117.369 64.7838C119.469 67.1538 122.639 69.4938 125.979 69.2938C131.139 69.3538 134.939 65.0038 135.719 60.2338C136.499 55.4638 136.229 48.9438 134.289 45.1238V45.1438Z" fill="black" fill-opacity="0.2"/>
<path d="M101.909 67.1532C103.829 66.6132 104.719 63.8631 103.919 61.0031C103.109 58.1531 100.909 56.2732 98.9895 56.8132C97.0695 57.3532 96.1795 60.1032 96.9795 62.9632C97.7895 65.8132 99.9895 67.6932 101.909 67.1432V67.1532Z" fill="white"/>
<path d="M126.299 61.9033C128.099 61.3933 128.939 58.8033 128.189 56.1233C127.429 53.4433 125.359 51.6733 123.549 52.1833C121.749 52.6933 120.909 55.2833 121.659 57.9633C122.419 60.6433 124.489 62.4133 126.299 61.9033Z" fill="white"/>
</svg>
