<svg width="149" height="138" viewBox="0 0 149 138" fill="none" xmlns="http://www.w3.org/2000/svg">
<path d="M37.2884 57.7946C32.9484 49.5546 23.3384 34.7046 10.5484 34.8546C-7.13156 35.0646 13.4483 75.0247 13.4483 75.0247C13.4483 75.0247 -3.24155 107.745 11.3085 111.205C25.8685 114.665 38.1484 94.1547 38.1484 94.1547" fill="#FF6700"/>
<path d="M107.938 126.794C115.028 119.824 117.228 110.574 112.858 106.134C108.488 101.694 99.1983 103.744 92.1183 110.714C85.0283 117.684 82.8283 126.934 87.1983 131.374C91.5683 135.814 100.858 133.764 107.938 126.794Z" fill="black"/>
<path d="M107.938 126.794C115.028 119.824 117.228 110.574 112.858 106.134C108.488 101.694 99.1983 103.744 92.1183 110.714C85.0283 117.684 82.8283 126.934 87.1983 131.374C91.5683 135.814 100.858 133.764 107.938 126.794Z" fill="black" fill-opacity="0.2"/>
<path d="M107.938 126.794C115.028 119.824 117.228 110.574 112.858 106.134C108.488 101.694 99.1983 103.744 92.1183 110.714C85.0283 117.684 82.8283 126.934 87.1983 131.374C91.5683 135.814 100.858 133.764 107.938 126.794Z" fill="black"/>
<path d="M107.938 126.794C115.028 119.824 117.228 110.574 112.858 106.134C108.488 101.694 99.1983 103.744 92.1183 110.714C85.0283 117.684 82.8283 126.934 87.1983 131.374C91.5683 135.814 100.858 133.764 107.938 126.794Z" fill="black" fill-opacity="0.2"/>
<path d="M115.258 37.8636C115.258 37.8636 103.398 15.0937 77.3083 4.89366C64.7583 -0.00634491 59.6583 7.63364 66.8983 17.2536C76.1183 29.5036 41.1783 5.38363 63.6083 45.2436L115.268 37.8536L115.258 37.8636Z" fill="#FF6700"/>
<path d="M95.4281 28.7848L106.628 25.4648L87.478 9.85474L69.7981 3.38477L63.7681 7.57477C63.7681 7.57477 89.3481 16.0947 95.4181 28.7947L95.4281 28.7848Z" fill="#FECB8B"/>
<path d="M112.128 36.2542C111.578 37.0542 111.578 38.5242 112.078 39.2542V39.2241L112.028 39.1242C110.398 34.8442 107.798 30.9842 104.898 27.4542C98.3282 19.7742 90.0181 13.5642 80.8581 9.37417C77.4981 8.02417 73.4082 6.09415 69.8982 6.41415C65.8582 6.62415 66.5582 9.92416 68.0382 12.6142C69.7382 15.6642 73.9482 19.0842 71.2882 22.9142C68.9782 26.0542 64.3982 24.4542 61.3882 24.6542C60.4882 24.6642 59.8181 24.9142 59.8681 24.9642C59.8681 24.9842 59.9781 24.8842 59.9881 24.8742C59.6781 27.6742 61.2781 31.0442 62.3681 33.7642C62.7081 34.5642 63.3982 36.1742 63.7682 36.9642C64.7382 39.1142 65.7382 41.2842 66.6782 43.5142L63.1181 41.7542C79.5581 39.3342 95.4982 37.7942 112.148 36.2442L112.128 36.2542ZM118.388 39.4741C100.608 42.8641 82.0981 46.2342 64.0681 48.7342C62.5981 48.9442 61.2082 48.1941 60.5282 46.9741C56.7882 41.6141 53.7081 35.7442 52.3281 29.2142C50.4981 19.5042 56.3281 15.7842 65.3581 17.3742C65.9281 17.4442 66.4882 17.5042 66.8082 17.5142C66.9482 17.5242 67.0482 17.4942 66.8082 17.5642C65.7282 17.8842 64.8481 19.0542 64.8481 20.1942C64.8281 20.4142 64.8681 20.6742 64.9381 20.8642C64.1281 19.2142 62.6782 17.5842 61.8982 15.7342C60.5082 12.7742 59.6581 9.4342 60.8581 6.0242C63.4881 -1.0358 72.3581 -0.355797 77.9481 2.0942C79.6881 2.8242 81.4781 3.72417 83.1981 4.49417C84.7381 5.38417 86.6981 6.36415 88.1981 7.29415L91.4182 9.33419C99.8882 14.9542 106.988 22.3242 113.468 30.0842C114.698 31.5042 115.948 33.1242 117.128 34.5942L117.738 35.3742L118.048 35.7742L118.128 35.8742C118.778 36.8442 118.858 38.4042 118.398 39.4542L118.388 39.4741Z" fill="black"/>
<path d="M112.128 36.2542C111.578 37.0542 111.578 38.5242 112.078 39.2542V39.2241L112.028 39.1242C110.398 34.8442 107.798 30.9842 104.898 27.4542C98.3282 19.7742 90.0181 13.5642 80.8581 9.37417C77.4981 8.02417 73.4082 6.09415 69.8982 6.41415C65.8582 6.62415 66.5582 9.92416 68.0382 12.6142C69.7382 15.6642 73.9482 19.0842 71.2882 22.9142C68.9782 26.0542 64.3982 24.4542 61.3882 24.6542C60.4882 24.6642 59.8181 24.9142 59.8681 24.9642C59.8681 24.9842 59.9781 24.8842 59.9881 24.8742C59.6781 27.6742 61.2781 31.0442 62.3681 33.7642C62.7081 34.5642 63.3982 36.1742 63.7682 36.9642C64.7382 39.1142 65.7382 41.2842 66.6782 43.5142L63.1181 41.7542C79.5581 39.3342 95.4982 37.7942 112.148 36.2442L112.128 36.2542ZM118.388 39.4741C100.608 42.8641 82.0981 46.2342 64.0681 48.7342C62.5981 48.9442 61.2082 48.1941 60.5282 46.9741C56.7882 41.6141 53.7081 35.7442 52.3281 29.2142C50.4981 19.5042 56.3281 15.7842 65.3581 17.3742C65.9281 17.4442 66.4882 17.5042 66.8082 17.5142C66.9482 17.5242 67.0482 17.4942 66.8082 17.5642C65.7282 17.8842 64.8481 19.0542 64.8481 20.1942C64.8281 20.4142 64.8681 20.6742 64.9381 20.8642C64.1281 19.2142 62.6782 17.5842 61.8982 15.7342C60.5082 12.7742 59.6581 9.4342 60.8581 6.0242C63.4881 -1.0358 72.3581 -0.355797 77.9481 2.0942C79.6881 2.8242 81.4781 3.72417 83.1981 4.49417C84.7381 5.38417 86.6981 6.36415 88.1981 7.29415L91.4182 9.33419C99.8882 14.9542 106.988 22.3242 113.468 30.0842C114.698 31.5042 115.948 33.1242 117.128 34.5942L117.738 35.3742L118.048 35.7742L118.128 35.8742C118.778 36.8442 118.858 38.4042 118.398 39.4542L118.388 39.4741Z" fill="black" fill-opacity="0.2"/>
<path d="M112.128 36.2542C111.578 37.0542 111.578 38.5242 112.078 39.2542V39.2241L112.028 39.1242C110.398 34.8442 107.798 30.9842 104.898 27.4542C98.3282 19.7742 90.0181 13.5642 80.8581 9.37417C77.4981 8.02417 73.4082 6.09415 69.8982 6.41415C65.8582 6.62415 66.5582 9.92416 68.0382 12.6142C69.7382 15.6642 73.9482 19.0842 71.2882 22.9142C68.9782 26.0542 64.3982 24.4542 61.3882 24.6542C60.4882 24.6642 59.8181 24.9142 59.8681 24.9642C59.8681 24.9842 59.9781 24.8842 59.9881 24.8742C59.6781 27.6742 61.2781 31.0442 62.3681 33.7642C62.7081 34.5642 63.3982 36.1742 63.7682 36.9642C64.7382 39.1142 65.7382 41.2842 66.6782 43.5142L63.1181 41.7542C79.5581 39.3342 95.4982 37.7942 112.148 36.2442L112.128 36.2542ZM118.388 39.4741C100.608 42.8641 82.0981 46.2342 64.0681 48.7342C62.5981 48.9442 61.2082 48.1941 60.5282 46.9741C56.7882 41.6141 53.7081 35.7442 52.3281 29.2142C50.4981 19.5042 56.3281 15.7842 65.3581 17.3742C65.9281 17.4442 66.4882 17.5042 66.8082 17.5142C66.9482 17.5242 67.0482 17.4942 66.8082 17.5642C65.7282 17.8842 64.8481 19.0542 64.8481 20.1942C64.8281 20.4142 64.8681 20.6742 64.9381 20.8642C64.1281 19.2142 62.6782 17.5842 61.8982 15.7342C60.5082 12.7742 59.6581 9.4342 60.8581 6.0242C63.4881 -1.0358 72.3581 -0.355797 77.9481 2.0942C79.6881 2.8242 81.4781 3.72417 83.1981 4.49417C84.7381 5.38417 86.6981 6.36415 88.1981 7.29415L91.4182 9.33419C99.8882 14.9542 106.988 22.3242 113.468 30.0842C114.698 31.5042 115.948 33.1242 117.128 34.5942L117.738 35.3742L118.048 35.7742L118.128 35.8742C118.778 36.8442 118.858 38.4042 118.398 39.4542L118.388 39.4741Z" fill="black"/>
<path d="M112.128 36.2542C111.578 37.0542 111.578 38.5242 112.078 39.2542V39.2241L112.028 39.1242C110.398 34.8442 107.798 30.9842 104.898 27.4542C98.3282 19.7742 90.0181 13.5642 80.8581 9.37417C77.4981 8.02417 73.4082 6.09415 69.8982 6.41415C65.8582 6.62415 66.5582 9.92416 68.0382 12.6142C69.7382 15.6642 73.9482 19.0842 71.2882 22.9142C68.9782 26.0542 64.3982 24.4542 61.3882 24.6542C60.4882 24.6642 59.8181 24.9142 59.8681 24.9642C59.8681 24.9842 59.9781 24.8842 59.9881 24.8742C59.6781 27.6742 61.2781 31.0442 62.3681 33.7642C62.7081 34.5642 63.3982 36.1742 63.7682 36.9642C64.7382 39.1142 65.7382 41.2842 66.6782 43.5142L63.1181 41.7542C79.5581 39.3342 95.4982 37.7942 112.148 36.2442L112.128 36.2542ZM118.388 39.4741C100.608 42.8641 82.0981 46.2342 64.0681 48.7342C62.5981 48.9442 61.2082 48.1941 60.5282 46.9741C56.7882 41.6141 53.7081 35.7442 52.3281 29.2142C50.4981 19.5042 56.3281 15.7842 65.3581 17.3742C65.9281 17.4442 66.4882 17.5042 66.8082 17.5142C66.9482 17.5242 67.0482 17.4942 66.8082 17.5642C65.7282 17.8842 64.8481 19.0542 64.8481 20.1942C64.8281 20.4142 64.8681 20.6742 64.9381 20.8642C64.1281 19.2142 62.6782 17.5842 61.8982 15.7342C60.5082 12.7742 59.6581 9.4342 60.8581 6.0242C63.4881 -1.0358 72.3581 -0.355797 77.9481 2.0942C79.6881 2.8242 81.4781 3.72417 83.1981 4.49417C84.7381 5.38417 86.6981 6.36415 88.1981 7.29415L91.4182 9.33419C99.8882 14.9542 106.988 22.3242 113.468 30.0842C114.698 31.5042 115.948 33.1242 117.128 34.5942L117.738 35.3742L118.048 35.7742L118.128 35.8742C118.778 36.8442 118.858 38.4042 118.398 39.4542L118.388 39.4741Z" fill="black" fill-opacity="0.2"/>
<path d="M38.1481 94.145L38.3081 91.1249C49.0281 104.985 70.0681 117.975 91.1681 117.975C121.288 117.975 145.708 97.5549 145.708 72.3849C145.708 47.2149 121.288 26.7949 91.1681 26.7949C70.6381 26.7949 47.9881 42.4749 37.2881 57.8149" fill="#FECB8B"/>
<path d="M89.1382 108.125C94.6282 111.085 106.348 112.295 115.098 110.415C123.078 108.695 106.898 119.905 89.9082 119.405L89.1482 108.125H89.1382Z" fill="#FF6700"/>
<path d="M30.1381 63.9345C21.9881 46.1645 9.88801 39.8945 6.93801 47.6145C5.11801 19.9245 28.778 45.6645 33.438 56.3445L30.1381 63.9345Z" fill="#FECB8B"/>
<path d="M13.2183 107.994C25.2383 107.604 30.5583 88.9338 30.5083 82.8438L37.2583 93.5637C29.8183 103.584 21.8683 109.044 13.2183 107.994Z" fill="black"/>
<path d="M13.2183 107.994C25.2383 107.604 30.5583 88.9338 30.5083 82.8438L37.2583 93.5637C29.8183 103.584 21.8683 109.044 13.2183 107.994Z" fill="black" fill-opacity="0.2"/>
<path d="M13.2183 107.994C25.2383 107.604 30.5583 88.9338 30.5083 82.8438L37.2583 93.5637C29.8183 103.584 21.8683 109.044 13.2183 107.994Z" fill="black"/>
<path d="M13.2183 107.994C25.2383 107.604 30.5583 88.9338 30.5083 82.8438L37.2583 93.5637C29.8183 103.584 21.8683 109.044 13.2183 107.994Z" fill="black" fill-opacity="0.2"/>
<path d="M34.9879 81.2735C37.3379 83.6035 30.168 71.0835 34.168 62.9135C54.638 21.0035 99.658 27.2135 95.428 28.7935C60.448 41.8935 57.148 79.5335 74.548 103.394L62.2379 108.813C56.0679 109.583 32.9579 89.9235 34.9879 81.2935V81.2735Z" fill="#FF6700"/>
<path d="M41.1683 95.9533C34.9583 105.553 24.7082 116.473 12.1582 114.933C7.65824 114.373 3.89827 111.723 2.55827 106.993C-0.221734 97.0533 6.03815 82.3933 10.3182 73.4233C10.3182 73.4233 10.3182 76.6433 10.3182 76.6333C5.70815 66.9133 -1.48176 50.6033 0.528237 39.8633C2.23824 31.4333 10.3782 30.4933 17.2082 32.8733C24.5682 35.5133 29.8482 41.2133 34.1982 47.2733C36.2782 50.2333 38.1182 53.3133 39.7682 56.4933C41.3582 59.8233 36.6482 62.2733 34.8182 59.1033C30.2882 51.0033 24.2282 41.9333 15.2582 38.6933C12.6282 37.8133 9.10817 37.7033 8.08817 38.6833C4.87817 41.6733 7.62827 50.8833 8.80827 54.8633C10.8183 61.1833 13.5782 67.5333 16.5782 73.4233C17.1182 74.4633 17.0782 75.6533 16.5782 76.6333C14.0082 81.8833 11.7082 87.5533 10.1982 93.1933C9.24816 97.1133 7.42823 104.543 10.7682 107.233C12.5082 108.203 14.6782 108.213 16.6482 107.903C23.2382 106.643 28.6282 101.073 32.6982 95.8333C33.5382 94.7333 34.4182 93.4733 35.1382 92.3133C37.6782 88.4233 43.4382 91.9033 41.1482 95.9633L41.1683 95.9533Z" fill="black"/>
<path d="M41.1683 95.9533C34.9583 105.553 24.7082 116.473 12.1582 114.933C7.65824 114.373 3.89827 111.723 2.55827 106.993C-0.221734 97.0533 6.03815 82.3933 10.3182 73.4233C10.3182 73.4233 10.3182 76.6433 10.3182 76.6333C5.70815 66.9133 -1.48176 50.6033 0.528237 39.8633C2.23824 31.4333 10.3782 30.4933 17.2082 32.8733C24.5682 35.5133 29.8482 41.2133 34.1982 47.2733C36.2782 50.2333 38.1182 53.3133 39.7682 56.4933C41.3582 59.8233 36.6482 62.2733 34.8182 59.1033C30.2882 51.0033 24.2282 41.9333 15.2582 38.6933C12.6282 37.8133 9.10817 37.7033 8.08817 38.6833C4.87817 41.6733 7.62827 50.8833 8.80827 54.8633C10.8183 61.1833 13.5782 67.5333 16.5782 73.4233C17.1182 74.4633 17.0782 75.6533 16.5782 76.6333C14.0082 81.8833 11.7082 87.5533 10.1982 93.1933C9.24816 97.1133 7.42823 104.543 10.7682 107.233C12.5082 108.203 14.6782 108.213 16.6482 107.903C23.2382 106.643 28.6282 101.073 32.6982 95.8333C33.5382 94.7333 34.4182 93.4733 35.1382 92.3133C37.6782 88.4233 43.4382 91.9033 41.1482 95.9633L41.1683 95.9533Z" fill="black" fill-opacity="0.2"/>
<path d="M41.1683 95.9533C34.9583 105.553 24.7082 116.473 12.1582 114.933C7.65824 114.373 3.89827 111.723 2.55827 106.993C-0.221734 97.0533 6.03815 82.3933 10.3182 73.4233C10.3182 73.4233 10.3182 76.6433 10.3182 76.6333C5.70815 66.9133 -1.48176 50.6033 0.528237 39.8633C2.23824 31.4333 10.3782 30.4933 17.2082 32.8733C24.5682 35.5133 29.8482 41.2133 34.1982 47.2733C36.2782 50.2333 38.1182 53.3133 39.7682 56.4933C41.3582 59.8233 36.6482 62.2733 34.8182 59.1033C30.2882 51.0033 24.2282 41.9333 15.2582 38.6933C12.6282 37.8133 9.10817 37.7033 8.08817 38.6833C4.87817 41.6733 7.62827 50.8833 8.80827 54.8633C10.8183 61.1833 13.5782 67.5333 16.5782 73.4233C17.1182 74.4633 17.0782 75.6533 16.5782 76.6333C14.0082 81.8833 11.7082 87.5533 10.1982 93.1933C9.24816 97.1133 7.42823 104.543 10.7682 107.233C12.5082 108.203 14.6782 108.213 16.6482 107.903C23.2382 106.643 28.6282 101.073 32.6982 95.8333C33.5382 94.7333 34.4182 93.4733 35.1382 92.3133C37.6782 88.4233 43.4382 91.9033 41.1482 95.9633L41.1683 95.9533Z" fill="black"/>
<path d="M41.1683 95.9533C34.9583 105.553 24.7082 116.473 12.1582 114.933C7.65824 114.373 3.89827 111.723 2.55827 106.993C-0.221734 97.0533 6.03815 82.3933 10.3182 73.4233C10.3182 73.4233 10.3182 76.6433 10.3182 76.6333C5.70815 66.9133 -1.48176 50.6033 0.528237 39.8633C2.23824 31.4333 10.3782 30.4933 17.2082 32.8733C24.5682 35.5133 29.8482 41.2133 34.1982 47.2733C36.2782 50.2333 38.1182 53.3133 39.7682 56.4933C41.3582 59.8233 36.6482 62.2733 34.8182 59.1033C30.2882 51.0033 24.2282 41.9333 15.2582 38.6933C12.6282 37.8133 9.10817 37.7033 8.08817 38.6833C4.87817 41.6733 7.62827 50.8833 8.80827 54.8633C10.8183 61.1833 13.5782 67.5333 16.5782 73.4233C17.1182 74.4633 17.0782 75.6533 16.5782 76.6333C14.0082 81.8833 11.7082 87.5533 10.1982 93.1933C9.24816 97.1133 7.42823 104.543 10.7682 107.233C12.5082 108.203 14.6782 108.213 16.6482 107.903C23.2382 106.643 28.6282 101.073 32.6982 95.8333C33.5382 94.7333 34.4182 93.4733 35.1382 92.3133C37.6782 88.4233 43.4382 91.9033 41.1482 95.9633L41.1683 95.9533Z" fill="black" fill-opacity="0.2"/>
<path d="M31.3684 61.4448C41.7984 42.6848 64.7483 26.6648 86.0983 24.1448C108.688 22.1148 133.338 33.0148 143.788 53.8348C156.718 80.2448 140.018 108.075 114.028 117.625C105.108 120.985 95.4784 122.265 85.9984 121.475C68.4284 119.605 51.9184 110.755 40.0484 97.7848C39.0684 96.7848 37.7984 95.0948 36.8984 94.0148C34.3584 90.7448 32.2584 87.1748 30.6584 83.2848C30.1184 82.0048 30.7184 80.5248 31.9984 79.9848C33.2184 79.4648 34.6183 79.9848 35.2083 81.1448C37.8483 86.3348 41.6784 91.0248 46.1084 95.0748C58.9684 106.845 76.6883 115.035 94.3183 114.105C117.188 113.355 142.498 97.7948 143.178 72.9448C143.778 47.7548 118.798 30.8448 95.5584 29.8048C83.7384 28.7448 72.0884 32.9548 61.8784 39.2548C51.9184 45.5348 42.4983 54.0248 36.9383 64.3848C34.8783 68.0248 29.5084 65.1848 31.3684 61.4248H31.3584L31.3684 61.4448Z" fill="black"/>
<path d="M31.3684 61.4448C41.7984 42.6848 64.7483 26.6648 86.0983 24.1448C108.688 22.1148 133.338 33.0148 143.788 53.8348C156.718 80.2448 140.018 108.075 114.028 117.625C105.108 120.985 95.4784 122.265 85.9984 121.475C68.4284 119.605 51.9184 110.755 40.0484 97.7848C39.0684 96.7848 37.7984 95.0948 36.8984 94.0148C34.3584 90.7448 32.2584 87.1748 30.6584 83.2848C30.1184 82.0048 30.7184 80.5248 31.9984 79.9848C33.2184 79.4648 34.6183 79.9848 35.2083 81.1448C37.8483 86.3348 41.6784 91.0248 46.1084 95.0748C58.9684 106.845 76.6883 115.035 94.3183 114.105C117.188 113.355 142.498 97.7948 143.178 72.9448C143.778 47.7548 118.798 30.8448 95.5584 29.8048C83.7384 28.7448 72.0884 32.9548 61.8784 39.2548C51.9184 45.5348 42.4983 54.0248 36.9383 64.3848C34.8783 68.0248 29.5084 65.1848 31.3684 61.4248H31.3584L31.3684 61.4448Z" fill="black" fill-opacity="0.2"/>
<path d="M31.3684 61.4448C41.7984 42.6848 64.7483 26.6648 86.0983 24.1448C108.688 22.1148 133.338 33.0148 143.788 53.8348C156.718 80.2448 140.018 108.075 114.028 117.625C105.108 120.985 95.4784 122.265 85.9984 121.475C68.4284 119.605 51.9184 110.755 40.0484 97.7848C39.0684 96.7848 37.7984 95.0948 36.8984 94.0148C34.3584 90.7448 32.2584 87.1748 30.6584 83.2848C30.1184 82.0048 30.7184 80.5248 31.9984 79.9848C33.2184 79.4648 34.6183 79.9848 35.2083 81.1448C37.8483 86.3348 41.6784 91.0248 46.1084 95.0748C58.9684 106.845 76.6883 115.035 94.3183 114.105C117.188 113.355 142.498 97.7948 143.178 72.9448C143.778 47.7548 118.798 30.8448 95.5584 29.8048C83.7384 28.7448 72.0884 32.9548 61.8784 39.2548C51.9184 45.5348 42.4983 54.0248 36.9383 64.3848C34.8783 68.0248 29.5084 65.1848 31.3684 61.4248H31.3584L31.3684 61.4448Z" fill="black"/>
<path d="M31.3684 61.4448C41.7984 42.6848 64.7483 26.6648 86.0983 24.1448C108.688 22.1148 133.338 33.0148 143.788 53.8348C156.718 80.2448 140.018 108.075 114.028 117.625C105.108 120.985 95.4784 122.265 85.9984 121.475C68.4284 119.605 51.9184 110.755 40.0484 97.7848C39.0684 96.7848 37.7984 95.0948 36.8984 94.0148C34.3584 90.7448 32.2584 87.1748 30.6584 83.2848C30.1184 82.0048 30.7184 80.5248 31.9984 79.9848C33.2184 79.4648 34.6183 79.9848 35.2083 81.1448C37.8483 86.3348 41.6784 91.0248 46.1084 95.0748C58.9684 106.845 76.6883 115.035 94.3183 114.105C117.188 113.355 142.498 97.7948 143.178 72.9448C143.778 47.7548 118.798 30.8448 95.5584 29.8048C83.7384 28.7448 72.0884 32.9548 61.8784 39.2548C51.9184 45.5348 42.4983 54.0248 36.9383 64.3848C34.8783 68.0248 29.5084 65.1848 31.3684 61.4248H31.3584L31.3684 61.4448Z" fill="black" fill-opacity="0.2"/>
<path d="M79.8983 128.764C88.6883 122.894 92.8283 113.654 89.1383 108.124C85.4483 102.594 75.3283 102.874 66.5383 108.744C57.7483 114.614 53.6084 123.854 57.2984 129.384C60.9884 134.914 71.1083 134.634 79.8983 128.764Z" fill="#FECB8B"/>
<path d="M89.6984 111.235C89.0384 109.865 87.9384 106.965 86.5984 106.135C88.0084 111.775 82.8484 120.035 74.4084 124.115C67.4084 127.495 60.7683 124.645 58.5683 118.365C58.6883 118.865 56.2384 126.845 56.4684 127.305C59.2584 133.075 68.9584 134.155 78.1284 129.715C87.3084 125.275 92.4884 117.005 89.6984 111.235Z" fill="#FF6700"/>
<path d="M75.2482 105.735C69.9282 109.375 64.5782 113.595 61.6282 119.165C59.3682 123.565 58.7082 128.615 64.8182 129.405C69.1482 129.945 73.7283 128.415 77.5383 126.265C81.5583 124.025 84.7283 120.465 86.4183 116.145C87.4483 113.345 87.8782 110.105 86.6182 107.335C86.2482 106.645 86.5482 105.775 87.2582 105.445C89.4682 104.415 91.0982 109.915 91.2682 111.425C92.0982 117.455 89.6582 123.475 85.6982 127.975C78.5682 135.995 62.4082 141.945 54.3482 132.095C48.1482 123.155 55.8482 111.885 63.5882 107.085C66.7982 104.995 70.2782 103.505 73.8482 102.575C74.7782 102.335 75.7382 102.895 75.9782 103.825C76.1682 104.575 75.8582 105.325 75.2482 105.715V105.735Z" fill="black"/>
<path d="M75.2482 105.735C69.9282 109.375 64.5782 113.595 61.6282 119.165C59.3682 123.565 58.7082 128.615 64.8182 129.405C69.1482 129.945 73.7283 128.415 77.5383 126.265C81.5583 124.025 84.7283 120.465 86.4183 116.145C87.4483 113.345 87.8782 110.105 86.6182 107.335C86.2482 106.645 86.5482 105.775 87.2582 105.445C89.4682 104.415 91.0982 109.915 91.2682 111.425C92.0982 117.455 89.6582 123.475 85.6982 127.975C78.5682 135.995 62.4082 141.945 54.3482 132.095C48.1482 123.155 55.8482 111.885 63.5882 107.085C66.7982 104.995 70.2782 103.505 73.8482 102.575C74.7782 102.335 75.7382 102.895 75.9782 103.825C76.1682 104.575 75.8582 105.325 75.2482 105.715V105.735Z" fill="black" fill-opacity="0.2"/>
<path d="M75.2482 105.735C69.9282 109.375 64.5782 113.595 61.6282 119.165C59.3682 123.565 58.7082 128.615 64.8182 129.405C69.1482 129.945 73.7283 128.415 77.5383 126.265C81.5583 124.025 84.7283 120.465 86.4183 116.145C87.4483 113.345 87.8782 110.105 86.6182 107.335C86.2482 106.645 86.5482 105.775 87.2582 105.445C89.4682 104.415 91.0982 109.915 91.2682 111.425C92.0982 117.455 89.6582 123.475 85.6982 127.975C78.5682 135.995 62.4082 141.945 54.3482 132.095C48.1482 123.155 55.8482 111.885 63.5882 107.085C66.7982 104.995 70.2782 103.505 73.8482 102.575C74.7782 102.335 75.7382 102.895 75.9782 103.825C76.1682 104.575 75.8582 105.325 75.2482 105.715V105.735Z" fill="black"/>
<path d="M75.2482 105.735C69.9282 109.375 64.5782 113.595 61.6282 119.165C59.3682 123.565 58.7082 128.615 64.8182 129.405C69.1482 129.945 73.7283 128.415 77.5383 126.265C81.5583 124.025 84.7283 120.465 86.4183 116.145C87.4483 113.345 87.8782 110.105 86.6182 107.335C86.2482 106.645 86.5482 105.775 87.2582 105.445C89.4682 104.415 91.0982 109.915 91.2682 111.425C92.0982 117.455 89.6582 123.475 85.6982 127.975C78.5682 135.995 62.4082 141.945 54.3482 132.095C48.1482 123.155 55.8482 111.885 63.5882 107.085C66.7982 104.995 70.2782 103.505 73.8482 102.575C74.7782 102.335 75.7382 102.895 75.9782 103.825C76.1682 104.575 75.8582 105.325 75.2482 105.715V105.735Z" fill="black" fill-opacity="0.2"/>
<path d="M103.058 88.7233C103.058 88.7233 103.118 97.9733 110.438 97.2633C121.468 96.1833 132.218 75.4033 112.028 86.4433C106.678 89.3733 103.058 88.7233 103.058 88.7233Z" fill="black"/>
<path d="M103.058 88.7233C103.058 88.7233 103.118 97.9733 110.438 97.2633C121.468 96.1833 132.218 75.4033 112.028 86.4433C106.678 89.3733 103.058 88.7233 103.058 88.7233Z" fill="black" fill-opacity="0.2"/>
<path d="M133.758 59.9344C132.708 58.3244 131.628 56.6644 131.188 54.9144L131.108 54.6345C129.248 47.8945 125.208 42.6345 120.008 40.1945C115.588 38.1345 111.248 39.1445 107.408 40.0345C106.978 40.1345 106.539 40.2345 106.059 40.3445C102.609 41.1845 99.0685 41.7545 95.5185 42.0345C91.0285 42.4445 87.5685 45.6045 83.3785 48.7745C78.5485 52.4345 71.5084 76.1945 80.9984 84.0845C90.4884 91.9745 103.488 84.1345 111.458 81.4445C112.778 80.9945 113.918 80.6145 114.828 80.3345L114.938 80.2944C116.618 79.6944 118.388 79.2345 120.258 78.7545C125.348 77.4345 130.609 76.0745 134.679 71.7145L134.758 71.6245C138.498 67.2145 135.758 63.0044 133.758 59.9244V59.9344Z" fill="#FF6700"/>
<path d="M132.698 52.2939C131.238 46.9939 128.008 41.834 122.958 39.454C118.878 37.554 114.698 38.874 110.658 39.764C107.068 40.644 103.438 41.224 99.7484 41.514C95.4884 41.904 89.2384 43.9339 85.6084 46.6839C75.4084 54.4039 78.0684 72.4739 86.6084 79.1639C92.5084 84.5739 111.578 76.934 118.098 74.944C124.428 72.684 131.878 72.334 136.848 67.014C140.838 62.314 134.248 58.3839 132.768 52.5539L132.698 52.2939Z" fill="black"/>
<path d="M132.698 52.2939C131.238 46.9939 128.008 41.834 122.958 39.454C118.878 37.554 114.698 38.874 110.658 39.764C107.068 40.644 103.438 41.224 99.7484 41.514C95.4884 41.904 89.2384 43.9339 85.6084 46.6839C75.4084 54.4039 78.0684 72.4739 86.6084 79.1639C92.5084 84.5739 111.578 76.934 118.098 74.944C124.428 72.684 131.878 72.334 136.848 67.014C140.838 62.314 134.248 58.3839 132.768 52.5539L132.698 52.2939Z" fill="black" fill-opacity="0.2"/>
<path d="M132.698 52.2939C131.238 46.9939 128.008 41.834 122.958 39.454C118.878 37.554 114.698 38.874 110.658 39.764C107.068 40.644 103.438 41.224 99.7484 41.514C95.4884 41.904 89.2384 43.9339 85.6084 46.6839C75.4084 54.4039 78.0684 72.4739 86.6084 79.1639C92.5084 84.5739 111.578 76.934 118.098 74.944C124.428 72.684 131.878 72.334 136.848 67.014C140.838 62.314 134.248 58.3839 132.768 52.5539L132.698 52.2939Z" stroke="black" stroke-width="5" stroke-miterlimit="10"/>
<path d="M132.698 52.2939C131.238 46.9939 128.008 41.834 122.958 39.454C118.878 37.554 114.698 38.874 110.658 39.764C107.068 40.644 103.438 41.224 99.7484 41.514C95.4884 41.904 89.2384 43.9339 85.6084 46.6839C75.4084 54.4039 78.0684 72.4739 86.6084 79.1639C92.5084 84.5739 111.578 76.934 118.098 74.944C124.428 72.684 131.878 72.334 136.848 67.014C140.838 62.314 134.248 58.3839 132.768 52.5539L132.698 52.2939Z" stroke="black" stroke-opacity="0.2" stroke-width="5" stroke-miterlimit="10"/>
<path d="M140.118 51.2549C138.658 45.9549 135.428 40.7949 130.378 38.4149C126.298 36.5149 122.118 37.8349 118.078 38.7249C114.488 39.6049 110.858 40.1849 107.168 40.4749C102.908 40.8649 98.1282 40.9949 94.9482 44.2549C87.4082 51.6549 89.9282 68.1449 98.4682 74.8349C104.368 80.2449 111.578 76.9249 118.098 74.9349C124.428 72.6749 132.278 74.2049 137.248 68.8849C141.238 64.1849 141.668 57.3449 140.188 51.5049L140.118 51.2449V51.2549Z" fill="white"/>
<path d="M140.118 51.2549C138.658 45.9549 135.428 40.7949 130.378 38.4149C126.298 36.5149 122.118 37.8349 118.078 38.7249C114.488 39.6049 110.858 40.1849 107.168 40.4749C102.908 40.8649 98.1282 40.9949 94.9482 44.2549C87.4082 51.6549 89.9282 68.1449 98.4682 74.8349C104.368 80.2449 111.578 76.9249 118.098 74.9349C124.428 72.6749 132.278 74.2049 137.248 68.8849C141.238 64.1849 141.668 57.3449 140.188 51.5049L140.118 51.2449V51.2549Z" stroke="black" stroke-width="4" stroke-miterlimit="10"/>
<path d="M140.118 51.2549C138.658 45.9549 135.428 40.7949 130.378 38.4149C126.298 36.5149 122.118 37.8349 118.078 38.7249C114.488 39.6049 110.858 40.1849 107.168 40.4749C102.908 40.8649 98.1282 40.9949 94.9482 44.2549C87.4082 51.6549 89.9282 68.1449 98.4682 74.8349C104.368 80.2449 111.578 76.9249 118.098 74.9349C124.428 72.6749 132.278 74.2049 137.248 68.8849C141.238 64.1849 141.668 57.3449 140.188 51.5049L140.118 51.2449V51.2549Z" stroke="black" stroke-opacity="0.2" stroke-width="4" stroke-miterlimit="10"/>
<path d="M107.888 68.535C110.938 67.675 112.238 62.8449 110.798 57.7549C109.358 52.6649 105.718 49.235 102.678 50.095C99.6282 50.955 98.3281 55.7849 99.7681 60.8749C101.208 65.9649 104.848 69.395 107.888 68.535Z" fill="black"/>
<path d="M107.888 68.535C110.938 67.675 112.238 62.8449 110.798 57.7549C109.358 52.6649 105.718 49.235 102.678 50.095C99.6282 50.955 98.3281 55.7849 99.7681 60.8749C101.208 65.9649 104.848 69.395 107.888 68.535Z" fill="black" fill-opacity="0.2"/>
<path d="M128.838 64.2449C131.848 63.3949 133.138 58.6249 131.708 53.6049C130.288 48.5749 126.698 45.1949 123.688 46.0449C120.678 46.8949 119.388 51.6649 120.818 56.6849C122.238 61.7149 125.828 65.0949 128.838 64.2449Z" fill="black"/>
<path d="M128.838 64.2449C131.848 63.3949 133.138 58.6249 131.708 53.6049C130.288 48.5749 126.698 45.1949 123.688 46.0449C120.678 46.8949 119.388 51.6649 120.818 56.6849C122.238 61.7149 125.828 65.0949 128.838 64.2449Z" fill="black" fill-opacity="0.2"/>
<path d="M111.748 61.635C112.938 61.295 113.498 59.585 112.998 57.815C112.498 56.045 111.128 54.875 109.928 55.215C108.738 55.555 108.178 57.265 108.678 59.035C109.178 60.805 110.548 61.975 111.748 61.635Z" fill="white"/>
<path d="M131.828 57.3936C133.008 57.0636 133.558 55.3736 133.058 53.6136C132.558 51.8636 131.208 50.7036 130.028 51.0436C128.848 51.3736 128.298 53.0636 128.798 54.8236C129.298 56.5736 130.648 57.7336 131.828 57.3936Z" fill="white"/>
</svg>
