<svg width="164" height="138" viewBox="0 0 164 138" fill="none" xmlns="http://www.w3.org/2000/svg">
<path d="M37.7884 57.7946C33.4484 49.5546 23.8384 34.7046 11.0484 34.8546C-6.63158 35.0646 13.9484 75.0247 13.9484 75.0247C13.9484 75.0247 -2.74157 107.745 11.8084 111.205C26.3684 114.665 38.6484 94.1547 38.6484 94.1547" fill="#FF6700"/>
<path d="M108.429 126.794C115.519 119.824 117.719 110.574 113.349 106.134C108.979 101.694 99.6885 103.744 92.6085 110.714C85.5185 117.684 83.3185 126.934 87.6885 131.374C92.0585 135.814 101.349 133.764 108.429 126.794Z" fill="black"/>
<path d="M108.429 126.794C115.519 119.824 117.719 110.574 113.349 106.134C108.979 101.694 99.6885 103.744 92.6085 110.714C85.5185 117.684 83.3185 126.934 87.6885 131.374C92.0585 135.814 101.349 133.764 108.429 126.794Z" fill="black" fill-opacity="0.2"/>
<path d="M108.429 126.794C115.519 119.824 117.719 110.574 113.349 106.134C108.979 101.694 99.6885 103.744 92.6085 110.714C85.5185 117.684 83.3185 126.934 87.6885 131.374C92.0585 135.814 101.349 133.764 108.429 126.794Z" fill="black"/>
<path d="M108.429 126.794C115.519 119.824 117.719 110.574 113.349 106.134C108.979 101.694 99.6885 103.744 92.6085 110.714C85.5185 117.684 83.3185 126.934 87.6885 131.374C92.0585 135.814 101.349 133.764 108.429 126.794Z" fill="black" fill-opacity="0.2"/>
<path d="M115.749 37.8636C115.749 37.8636 103.889 15.0937 77.7985 4.89366C65.2485 -0.00634491 60.1485 7.63364 67.3885 17.2536C76.6085 29.5036 41.6685 5.38363 64.0985 45.2436L115.759 37.8536L115.749 37.8636Z" fill="#FF6700"/>
<path d="M95.9286 28.7848L107.129 25.4648L87.9785 9.85474L70.2986 3.38477L64.2686 7.57477C64.2686 7.57477 89.8485 16.0947 95.9185 28.7947L95.9286 28.7848Z" fill="#FECB8B"/>
<path d="M112.618 36.2542C112.068 37.0542 112.068 38.5242 112.568 39.2542V39.2241L112.518 39.1242C110.888 34.8442 108.288 30.9842 105.388 27.4542C98.8183 19.7742 90.5083 13.5642 81.3483 9.37417C77.9883 8.02417 73.8984 6.09415 70.3884 6.41415C66.3484 6.62415 67.0483 9.92416 68.5283 12.6142C70.2283 15.6642 74.4383 19.0842 71.7783 22.9142C69.4683 26.0542 64.8883 24.4542 61.8783 24.6542C60.9783 24.6642 60.3084 24.9142 60.3584 24.9642C60.3584 24.9842 60.4683 24.8842 60.4783 24.8742C60.1683 27.6742 61.7684 31.0442 62.8584 33.7642C63.1984 34.5642 63.8883 36.1742 64.2583 36.9642C65.2283 39.1142 66.2284 41.2842 67.1684 43.5142L63.6084 41.7542C80.0484 39.3342 95.9883 37.7942 112.638 36.2442L112.618 36.2542ZM118.878 39.4741C101.098 42.8641 82.5884 46.2342 64.5584 48.7342C63.0884 48.9442 61.6984 48.1941 61.0184 46.9741C57.2784 41.6141 54.1983 35.7442 52.8183 29.2142C50.9883 19.5042 56.8183 15.7842 65.8483 17.3742C66.4183 17.4442 66.9784 17.5042 67.2984 17.5142C67.4384 17.5242 67.5384 17.4942 67.2984 17.5642C66.2184 17.8842 65.3384 19.0542 65.3384 20.1942C65.3184 20.4142 65.3584 20.6742 65.4284 20.8642C64.6184 19.2142 63.1684 17.5842 62.3884 15.7342C60.9984 12.7742 60.1483 9.4342 61.3483 6.0242C63.9783 -1.0358 72.8483 -0.355797 78.4383 2.0942C80.1783 2.8242 81.9683 3.72417 83.6883 4.49417C85.2283 5.38417 87.1883 6.36415 88.6883 7.29415L91.9083 9.33419C100.378 14.9542 107.478 22.3242 113.958 30.0842C115.188 31.5042 116.438 33.1242 117.618 34.5942L118.228 35.3742L118.538 35.7742L118.618 35.8742C119.268 36.8442 119.348 38.4042 118.888 39.4542L118.878 39.4741Z" fill="black"/>
<path d="M112.618 36.2542C112.068 37.0542 112.068 38.5242 112.568 39.2542V39.2241L112.518 39.1242C110.888 34.8442 108.288 30.9842 105.388 27.4542C98.8183 19.7742 90.5083 13.5642 81.3483 9.37417C77.9883 8.02417 73.8984 6.09415 70.3884 6.41415C66.3484 6.62415 67.0483 9.92416 68.5283 12.6142C70.2283 15.6642 74.4383 19.0842 71.7783 22.9142C69.4683 26.0542 64.8883 24.4542 61.8783 24.6542C60.9783 24.6642 60.3084 24.9142 60.3584 24.9642C60.3584 24.9842 60.4683 24.8842 60.4783 24.8742C60.1683 27.6742 61.7684 31.0442 62.8584 33.7642C63.1984 34.5642 63.8883 36.1742 64.2583 36.9642C65.2283 39.1142 66.2284 41.2842 67.1684 43.5142L63.6084 41.7542C80.0484 39.3342 95.9883 37.7942 112.638 36.2442L112.618 36.2542ZM118.878 39.4741C101.098 42.8641 82.5884 46.2342 64.5584 48.7342C63.0884 48.9442 61.6984 48.1941 61.0184 46.9741C57.2784 41.6141 54.1983 35.7442 52.8183 29.2142C50.9883 19.5042 56.8183 15.7842 65.8483 17.3742C66.4183 17.4442 66.9784 17.5042 67.2984 17.5142C67.4384 17.5242 67.5384 17.4942 67.2984 17.5642C66.2184 17.8842 65.3384 19.0542 65.3384 20.1942C65.3184 20.4142 65.3584 20.6742 65.4284 20.8642C64.6184 19.2142 63.1684 17.5842 62.3884 15.7342C60.9984 12.7742 60.1483 9.4342 61.3483 6.0242C63.9783 -1.0358 72.8483 -0.355797 78.4383 2.0942C80.1783 2.8242 81.9683 3.72417 83.6883 4.49417C85.2283 5.38417 87.1883 6.36415 88.6883 7.29415L91.9083 9.33419C100.378 14.9542 107.478 22.3242 113.958 30.0842C115.188 31.5042 116.438 33.1242 117.618 34.5942L118.228 35.3742L118.538 35.7742L118.618 35.8742C119.268 36.8442 119.348 38.4042 118.888 39.4542L118.878 39.4741Z" fill="black" fill-opacity="0.2"/>
<path d="M112.618 36.2542C112.068 37.0542 112.068 38.5242 112.568 39.2542V39.2241L112.518 39.1242C110.888 34.8442 108.288 30.9842 105.388 27.4542C98.8183 19.7742 90.5083 13.5642 81.3483 9.37417C77.9883 8.02417 73.8984 6.09415 70.3884 6.41415C66.3484 6.62415 67.0483 9.92416 68.5283 12.6142C70.2283 15.6642 74.4383 19.0842 71.7783 22.9142C69.4683 26.0542 64.8883 24.4542 61.8783 24.6542C60.9783 24.6642 60.3084 24.9142 60.3584 24.9642C60.3584 24.9842 60.4683 24.8842 60.4783 24.8742C60.1683 27.6742 61.7684 31.0442 62.8584 33.7642C63.1984 34.5642 63.8883 36.1742 64.2583 36.9642C65.2283 39.1142 66.2284 41.2842 67.1684 43.5142L63.6084 41.7542C80.0484 39.3342 95.9883 37.7942 112.638 36.2442L112.618 36.2542ZM118.878 39.4741C101.098 42.8641 82.5884 46.2342 64.5584 48.7342C63.0884 48.9442 61.6984 48.1941 61.0184 46.9741C57.2784 41.6141 54.1983 35.7442 52.8183 29.2142C50.9883 19.5042 56.8183 15.7842 65.8483 17.3742C66.4183 17.4442 66.9784 17.5042 67.2984 17.5142C67.4384 17.5242 67.5384 17.4942 67.2984 17.5642C66.2184 17.8842 65.3384 19.0542 65.3384 20.1942C65.3184 20.4142 65.3584 20.6742 65.4284 20.8642C64.6184 19.2142 63.1684 17.5842 62.3884 15.7342C60.9984 12.7742 60.1483 9.4342 61.3483 6.0242C63.9783 -1.0358 72.8483 -0.355797 78.4383 2.0942C80.1783 2.8242 81.9683 3.72417 83.6883 4.49417C85.2283 5.38417 87.1883 6.36415 88.6883 7.29415L91.9083 9.33419C100.378 14.9542 107.478 22.3242 113.958 30.0842C115.188 31.5042 116.438 33.1242 117.618 34.5942L118.228 35.3742L118.538 35.7742L118.618 35.8742C119.268 36.8442 119.348 38.4042 118.888 39.4542L118.878 39.4741Z" fill="black"/>
<path d="M112.618 36.2542C112.068 37.0542 112.068 38.5242 112.568 39.2542V39.2241L112.518 39.1242C110.888 34.8442 108.288 30.9842 105.388 27.4542C98.8183 19.7742 90.5083 13.5642 81.3483 9.37417C77.9883 8.02417 73.8984 6.09415 70.3884 6.41415C66.3484 6.62415 67.0483 9.92416 68.5283 12.6142C70.2283 15.6642 74.4383 19.0842 71.7783 22.9142C69.4683 26.0542 64.8883 24.4542 61.8783 24.6542C60.9783 24.6642 60.3084 24.9142 60.3584 24.9642C60.3584 24.9842 60.4683 24.8842 60.4783 24.8742C60.1683 27.6742 61.7684 31.0442 62.8584 33.7642C63.1984 34.5642 63.8883 36.1742 64.2583 36.9642C65.2283 39.1142 66.2284 41.2842 67.1684 43.5142L63.6084 41.7542C80.0484 39.3342 95.9883 37.7942 112.638 36.2442L112.618 36.2542ZM118.878 39.4741C101.098 42.8641 82.5884 46.2342 64.5584 48.7342C63.0884 48.9442 61.6984 48.1941 61.0184 46.9741C57.2784 41.6141 54.1983 35.7442 52.8183 29.2142C50.9883 19.5042 56.8183 15.7842 65.8483 17.3742C66.4183 17.4442 66.9784 17.5042 67.2984 17.5142C67.4384 17.5242 67.5384 17.4942 67.2984 17.5642C66.2184 17.8842 65.3384 19.0542 65.3384 20.1942C65.3184 20.4142 65.3584 20.6742 65.4284 20.8642C64.6184 19.2142 63.1684 17.5842 62.3884 15.7342C60.9984 12.7742 60.1483 9.4342 61.3483 6.0242C63.9783 -1.0358 72.8483 -0.355797 78.4383 2.0942C80.1783 2.8242 81.9683 3.72417 83.6883 4.49417C85.2283 5.38417 87.1883 6.36415 88.6883 7.29415L91.9083 9.33419C100.378 14.9542 107.478 22.3242 113.958 30.0842C115.188 31.5042 116.438 33.1242 117.618 34.5942L118.228 35.3742L118.538 35.7742L118.618 35.8742C119.268 36.8442 119.348 38.4042 118.888 39.4542L118.878 39.4741Z" fill="black" fill-opacity="0.2"/>
<path d="M38.6383 94.145L38.7983 91.1249C49.5183 104.985 70.5583 117.975 91.6583 117.975C121.778 117.975 146.198 97.5549 146.198 72.3849C146.198 47.2149 121.778 26.7949 91.6583 26.7949C71.1283 26.7949 48.4783 42.4749 37.7783 57.8149" fill="#FECB8B"/>
<path d="M89.6284 108.125C95.1184 111.085 106.838 112.295 115.588 110.415C123.568 108.695 107.388 119.905 90.3984 119.405L89.6384 108.125H89.6284Z" fill="#FF6700"/>
<path d="M30.6282 63.9345C22.4782 46.1645 10.3782 39.8945 7.42824 47.6145C5.60824 19.9245 29.2682 45.6645 33.9282 56.3445L30.6282 63.9345Z" fill="#FECB8B"/>
<path d="M13.7085 107.994C25.7285 107.604 31.0485 88.9338 30.9985 82.8438L37.7485 93.5637C30.3085 103.584 22.3585 109.044 13.7085 107.994Z" fill="black"/>
<path d="M13.7085 107.994C25.7285 107.604 31.0485 88.9338 30.9985 82.8438L37.7485 93.5637C30.3085 103.584 22.3585 109.044 13.7085 107.994Z" fill="black" fill-opacity="0.2"/>
<path d="M13.7085 107.994C25.7285 107.604 31.0485 88.9338 30.9985 82.8438L37.7485 93.5637C30.3085 103.584 22.3585 109.044 13.7085 107.994Z" fill="black"/>
<path d="M13.7085 107.994C25.7285 107.604 31.0485 88.9338 30.9985 82.8438L37.7485 93.5637C30.3085 103.584 22.3585 109.044 13.7085 107.994Z" fill="black" fill-opacity="0.2"/>
<path d="M35.4782 81.2735C37.8282 83.6035 30.6582 71.0835 34.6582 62.9135C55.1282 21.0035 100.148 27.2135 95.9182 28.7935C60.9382 41.8935 57.6382 79.5335 75.0382 103.394L62.7282 108.813C56.5582 109.583 33.4482 89.9235 35.4782 81.2935V81.2735Z" fill="#FF6700"/>
<path d="M41.6585 95.9533C35.4485 105.553 25.1985 116.473 12.6485 114.933C8.14847 114.373 4.38847 111.723 3.04847 106.993C0.268467 97.0533 6.52848 82.3933 10.8085 73.4233C10.8085 73.4233 10.8085 76.6433 10.8085 76.6333C6.19848 66.9133 -0.991532 50.6033 1.01847 39.8633C2.72847 31.4333 10.8685 30.4933 17.6985 32.8733C25.0585 35.5133 30.3384 41.2133 34.6884 47.2733C36.7684 50.2333 38.6085 53.3133 40.2585 56.4933C41.8485 59.8233 37.1385 62.2733 35.3085 59.1033C30.7785 51.0033 24.7184 41.9333 15.7484 38.6933C13.1184 37.8133 9.59847 37.7033 8.57847 38.6833C5.36847 41.6733 8.11847 50.8833 9.29847 54.8633C11.3085 61.1833 14.0685 67.5333 17.0685 73.4233C17.6085 74.4633 17.5685 75.6533 17.0685 76.6333C14.4985 81.8833 12.1985 87.5533 10.6885 93.1933C9.73845 97.1133 7.91846 104.543 11.2585 107.233C12.9985 108.203 15.1685 108.213 17.1385 107.903C23.7285 106.643 29.1184 101.073 33.1884 95.8333C34.0284 94.7333 34.9085 93.4733 35.6285 92.3133C38.1685 88.4233 43.9285 91.9033 41.6385 95.9633L41.6585 95.9533Z" fill="black"/>
<path d="M41.6585 95.9533C35.4485 105.553 25.1985 116.473 12.6485 114.933C8.14847 114.373 4.38847 111.723 3.04847 106.993C0.268467 97.0533 6.52848 82.3933 10.8085 73.4233C10.8085 73.4233 10.8085 76.6433 10.8085 76.6333C6.19848 66.9133 -0.991532 50.6033 1.01847 39.8633C2.72847 31.4333 10.8685 30.4933 17.6985 32.8733C25.0585 35.5133 30.3384 41.2133 34.6884 47.2733C36.7684 50.2333 38.6085 53.3133 40.2585 56.4933C41.8485 59.8233 37.1385 62.2733 35.3085 59.1033C30.7785 51.0033 24.7184 41.9333 15.7484 38.6933C13.1184 37.8133 9.59847 37.7033 8.57847 38.6833C5.36847 41.6733 8.11847 50.8833 9.29847 54.8633C11.3085 61.1833 14.0685 67.5333 17.0685 73.4233C17.6085 74.4633 17.5685 75.6533 17.0685 76.6333C14.4985 81.8833 12.1985 87.5533 10.6885 93.1933C9.73845 97.1133 7.91846 104.543 11.2585 107.233C12.9985 108.203 15.1685 108.213 17.1385 107.903C23.7285 106.643 29.1184 101.073 33.1884 95.8333C34.0284 94.7333 34.9085 93.4733 35.6285 92.3133C38.1685 88.4233 43.9285 91.9033 41.6385 95.9633L41.6585 95.9533Z" fill="black" fill-opacity="0.2"/>
<path d="M41.6585 95.9533C35.4485 105.553 25.1985 116.473 12.6485 114.933C8.14847 114.373 4.38847 111.723 3.04847 106.993C0.268467 97.0533 6.52848 82.3933 10.8085 73.4233C10.8085 73.4233 10.8085 76.6433 10.8085 76.6333C6.19848 66.9133 -0.991532 50.6033 1.01847 39.8633C2.72847 31.4333 10.8685 30.4933 17.6985 32.8733C25.0585 35.5133 30.3384 41.2133 34.6884 47.2733C36.7684 50.2333 38.6085 53.3133 40.2585 56.4933C41.8485 59.8233 37.1385 62.2733 35.3085 59.1033C30.7785 51.0033 24.7184 41.9333 15.7484 38.6933C13.1184 37.8133 9.59847 37.7033 8.57847 38.6833C5.36847 41.6733 8.11847 50.8833 9.29847 54.8633C11.3085 61.1833 14.0685 67.5333 17.0685 73.4233C17.6085 74.4633 17.5685 75.6533 17.0685 76.6333C14.4985 81.8833 12.1985 87.5533 10.6885 93.1933C9.73845 97.1133 7.91846 104.543 11.2585 107.233C9.29846 107.033 12.3485 107.323 17.1385 107.903C23.7285 106.643 29.1184 101.073 33.1884 95.8333C34.0284 94.7333 34.9085 93.4733 35.6285 92.3133C38.1685 88.4233 43.9285 91.9033 41.6385 95.9633L41.6585 95.9533Z" fill="black"/>
<path d="M41.6585 95.9533C35.4485 105.553 25.1985 116.473 12.6485 114.933C8.14847 114.373 4.38847 111.723 3.04847 106.993C0.268467 97.0533 6.52848 82.3933 10.8085 73.4233C10.8085 73.4233 10.8085 76.6433 10.8085 76.6333C6.19848 66.9133 -0.991532 50.6033 1.01847 39.8633C2.72847 31.4333 10.8685 30.4933 17.6985 32.8733C25.0585 35.5133 30.3384 41.2133 34.6884 47.2733C36.7684 50.2333 38.6085 53.3133 40.2585 56.4933C41.8485 59.8233 37.1385 62.2733 35.3085 59.1033C30.7785 51.0033 24.7184 41.9333 15.7484 38.6933C13.1184 37.8133 9.59847 37.7033 8.57847 38.6833C5.36847 41.6733 8.11847 50.8833 9.29847 54.8633C11.3085 61.1833 14.0685 67.5333 17.0685 73.4233C17.6085 74.4633 17.5685 75.6533 17.0685 76.6333C14.4985 81.8833 12.1985 87.5533 10.6885 93.1933C9.73845 97.1133 7.91846 104.543 11.2585 107.233C9.29846 107.033 12.3485 107.323 17.1385 107.903C23.7285 106.643 29.1184 101.073 33.1884 95.8333C34.0284 94.7333 34.9085 93.4733 35.6285 92.3133C38.1685 88.4233 43.9285 91.9033 41.6385 95.9633L41.6585 95.9533Z" fill="black" fill-opacity="0.2"/>
<path d="M121.939 67.7433C125.139 66.8333 126.509 61.7633 124.999 56.4033C123.479 51.0533 119.659 47.4433 116.459 48.3533C113.249 49.2633 111.889 54.3333 113.399 59.6933C114.909 65.0433 118.739 68.6533 121.939 67.7433Z" fill="black"/>
<path d="M121.939 67.7433C125.139 66.8333 126.509 61.7633 124.999 56.4033C123.479 51.0533 119.659 47.4433 116.459 48.3533C113.249 49.2633 111.889 54.3333 113.399 59.6933C114.909 65.0433 118.739 68.6533 121.939 67.7433Z" fill="black" fill-opacity="0.2"/>
<path d="M121.939 67.7433C125.139 66.8333 126.509 61.7633 124.999 56.4033C123.479 51.0533 119.659 47.4433 116.459 48.3533C113.249 49.2633 111.889 54.3333 113.399 59.6933C114.909 65.0433 118.739 68.6533 121.939 67.7433Z" fill="black"/>
<path d="M121.939 67.7433C125.139 66.8333 126.509 61.7633 124.999 56.4033C123.479 51.0533 119.659 47.4433 116.459 48.3533C113.249 49.2633 111.889 54.3333 113.399 59.6933C114.909 65.0433 118.739 68.6533 121.939 67.7433Z" fill="black" fill-opacity="0.2"/>
<path d="M125.119 60.4332C126.369 60.0832 126.959 58.2731 126.429 56.4131C125.899 54.5431 124.459 53.3231 123.199 53.6731C121.949 54.0231 121.359 55.8332 121.889 57.6932C122.419 59.5632 123.859 60.7832 125.119 60.4332Z" fill="white"/>
<mask id="mask0_12468_5988" style="mask-type:luminance" maskUnits="userSpaceOnUse" x="37" y="26" width="110" height="92">
<path d="M38.6383 94.145L38.7983 91.1249C49.5183 104.985 70.5583 117.975 91.6583 117.975C121.778 117.975 146.198 97.5549 146.198 72.3849C146.198 47.2149 121.778 26.7949 91.6583 26.7949C71.1283 26.7949 48.4783 42.4749 37.7783 57.8149" fill="white"/>
</mask>
<g mask="url(#mask0_12468_5988)">
<path d="M139.078 96.9547C153.189 96.9547 164.628 82.6322 164.628 64.9647C164.628 47.2971 153.189 32.9746 139.078 32.9746C124.967 32.9746 113.528 47.2971 113.528 64.9647C113.528 82.6322 124.967 96.9547 139.078 96.9547Z" fill="#FF6700"/>
</g>
<path d="M31.8586 61.4448C42.2886 42.6848 65.2386 26.6648 86.5886 24.1448C109.179 22.1148 133.829 33.0148 144.279 53.8348C157.209 80.2448 140.509 108.075 114.519 117.625C105.599 120.985 95.9686 122.265 86.4886 121.475C68.9186 119.605 52.4086 110.755 40.5386 97.7848C39.5586 96.7848 38.2886 95.0948 37.3886 94.0148C34.8486 90.7448 32.7486 87.1748 31.1486 83.2848C30.6086 82.0048 31.2086 80.5248 32.4886 79.9848C33.7086 79.4648 35.1086 79.9848 35.6986 81.1448C38.3386 86.3348 42.1686 91.0248 46.5986 95.0748C59.4586 106.845 77.1786 115.035 94.8086 114.105C117.679 113.355 142.989 97.7948 143.669 72.9448C144.269 47.7548 119.289 30.8448 96.0486 29.8048C84.2286 28.7448 72.5786 32.9548 62.3686 39.2548C52.4086 45.5348 42.9886 54.0248 37.4286 64.3848C35.3686 68.0248 29.9986 65.1848 31.8586 61.4248H31.8486L31.8586 61.4448Z" fill="black"/>
<path d="M31.8586 61.4448C42.2886 42.6848 65.2386 26.6648 86.5886 24.1448C109.179 22.1148 133.829 33.0148 144.279 53.8348C157.209 80.2448 140.509 108.075 114.519 117.625C105.599 120.985 95.9686 122.265 86.4886 121.475C68.9186 119.605 52.4086 110.755 40.5386 97.7848C39.5586 96.7848 38.2886 95.0948 37.3886 94.0148C34.8486 90.7448 32.7486 87.1748 31.1486 83.2848C30.6086 82.0048 31.2086 80.5248 32.4886 79.9848C33.7086 79.4648 35.1086 79.9848 35.6986 81.1448C38.3386 86.3348 42.1686 91.0248 46.5986 95.0748C59.4586 106.845 77.1786 115.035 94.8086 114.105C117.679 113.355 142.989 97.7948 143.669 72.9448C144.269 47.7548 119.289 30.8448 96.0486 29.8048C84.2286 28.7448 72.5786 32.9548 62.3686 39.2548C52.4086 45.5348 42.9886 54.0248 37.4286 64.3848C35.3686 68.0248 29.9986 65.1848 31.8586 61.4248H31.8486L31.8586 61.4448Z" fill="black" fill-opacity="0.2"/>
<path d="M80.3984 128.764C89.1884 122.894 93.3284 113.654 89.6384 108.124C85.9484 102.594 75.8283 102.874 67.0383 108.744C58.2483 114.614 54.1084 123.854 57.7984 129.384C61.4884 134.914 71.6084 134.634 80.3984 128.764Z" fill="#FECB8B"/>
<path d="M90.1984 111.235C89.5384 109.865 88.4384 106.965 87.0984 106.135C88.5084 111.775 83.3484 120.035 74.9084 124.115C67.9084 127.495 61.2684 124.645 59.0684 118.365C59.1884 118.865 56.7384 126.845 56.9684 127.305C59.7584 133.075 69.4584 134.155 78.6284 129.715C87.8084 125.275 92.9884 117.005 90.1984 111.235Z" fill="#FF6700"/>
<path d="M75.7384 105.735C70.4184 109.375 65.0684 113.595 62.1184 119.165C59.8584 123.565 59.1984 128.615 65.3084 129.405C69.6384 129.945 74.2184 128.415 78.0284 126.265C82.0484 124.025 85.2184 120.465 86.9084 116.145C87.9384 113.345 88.3684 110.105 87.1084 107.335C86.7384 106.645 87.0384 105.775 87.7484 105.445C89.9584 104.415 91.5884 109.915 91.7584 111.425C92.5884 117.455 90.1484 123.475 86.1884 127.975C79.0584 135.995 62.8984 141.945 54.8384 132.095C48.6384 123.155 56.3384 111.885 64.0784 107.085C67.2884 104.995 70.7684 103.505 74.3384 102.575C75.2684 102.335 76.2284 102.895 76.4684 103.825C76.6584 104.575 76.3484 105.325 75.7384 105.715V105.735Z" fill="black"/>
<path d="M75.7384 105.735C70.4184 109.375 65.0684 113.595 62.1184 119.165C59.8584 123.565 59.1984 128.615 65.3084 129.405C69.6384 129.945 74.2184 128.415 78.0284 126.265C82.0484 124.025 85.2184 120.465 86.9084 116.145C87.9384 113.345 88.3684 110.105 87.1084 107.335C86.7384 106.645 87.0384 105.775 87.7484 105.445C89.9584 104.415 91.5884 109.915 91.7584 111.425C92.5884 117.455 90.1484 123.475 86.1884 127.975C79.0584 135.995 62.8984 141.945 54.8384 132.095C48.6384 123.155 56.3384 111.885 64.0784 107.085C67.2884 104.995 70.7684 103.505 74.3384 102.575C75.2684 102.335 76.2284 102.895 76.4684 103.825C76.6584 104.575 76.3484 105.325 75.7384 105.715V105.735Z" fill="black" fill-opacity="0.2"/>
<path d="M75.7384 105.735C70.4184 109.375 65.0684 113.595 62.1184 119.165C59.8584 123.565 59.1984 128.615 65.3084 129.405C69.6384 129.945 74.2184 128.415 78.0284 126.265C82.0484 124.025 85.2184 120.465 86.9084 116.145C87.9384 113.345 88.3684 110.105 87.1084 107.335C86.7384 106.645 87.0384 105.775 87.7484 105.445C89.9584 104.415 91.5884 109.915 91.7584 111.425C92.5884 117.455 90.1484 123.475 86.1884 127.975C79.0584 135.995 62.8984 141.945 54.8384 132.095C48.6384 123.155 56.3384 111.885 64.0784 107.085C67.2884 104.995 70.7684 103.505 74.3384 102.575C75.2684 102.335 76.2284 102.895 76.4684 103.825C76.6584 104.575 76.3484 105.325 75.7384 105.715V105.735Z" fill="black"/>
<path d="M75.7384 105.735C70.4184 109.375 65.0684 113.595 62.1184 119.165C59.8584 123.565 59.1984 128.615 65.3084 129.405C69.6384 129.945 74.2184 128.415 78.0284 126.265C82.0484 124.025 85.2184 120.465 86.9084 116.145C87.9384 113.345 88.3684 110.105 87.1084 107.335C86.7384 106.645 87.0384 105.775 87.7484 105.445C89.9584 104.415 91.5884 109.915 91.7584 111.425C92.5884 117.455 90.1484 123.475 86.1884 127.975C79.0584 135.995 62.8984 141.945 54.8384 132.095C48.6384 123.155 56.3384 111.885 64.0784 107.085C67.2884 104.995 70.7684 103.505 74.3384 102.575C75.2684 102.335 76.2284 102.895 76.4684 103.825C76.6584 104.575 76.3484 105.325 75.7384 105.715V105.735Z" fill="black" fill-opacity="0.2"/>
<path d="M97.4686 77.3036C97.4686 77.2436 97.4386 77.2236 97.1886 77.1536C96.9686 77.0936 96.5686 77.0736 96.2786 77.1236C94.6186 77.3136 93.5186 79.3235 94.2886 80.8535C94.4286 81.2035 94.8186 81.6235 94.9786 81.7935C95.0886 81.9035 94.9186 81.8536 95.1486 82.0036C95.3786 82.1236 95.6486 82.2036 95.9086 82.2436C98.2286 82.5936 99.9186 79.9335 98.6586 77.9835C98.5686 77.8235 98.4186 77.6536 98.3086 77.5136C98.2486 77.4336 98.2786 77.4536 98.2986 77.4536C101.059 79.4936 103.259 82.1636 104.859 85.2036C105.499 86.4836 104.979 88.0536 103.699 88.6936C101.639 89.7336 100.199 87.7335 98.9286 86.4235C98.1086 85.5335 96.4586 83.7636 95.6286 82.8836C95.0686 82.2736 94.2586 81.6036 93.8386 80.8836C92.5486 78.6736 94.7686 75.9436 97.2186 76.8236C97.6686 76.9836 97.9786 77.2536 98.2686 77.5236C98.5386 77.7536 99.0286 78.2936 99.1786 78.7636C99.9886 80.7336 98.1386 82.8436 96.1286 82.3436C92.4286 81.3236 93.8386 76.1336 97.4786 77.3236L97.4686 77.3036Z" fill="black"/>
<path d="M97.4686 77.3036C97.4686 77.2436 97.4386 77.2236 97.1886 77.1536C96.9686 77.0936 96.5686 77.0736 96.2786 77.1236C94.6186 77.3136 93.5186 79.3235 94.2886 80.8535C94.4286 81.2035 94.8186 81.6235 94.9786 81.7935C95.0886 81.9035 94.9186 81.8536 95.1486 82.0036C95.3786 82.1236 95.6486 82.2036 95.9086 82.2436C98.2286 82.5936 99.9186 79.9335 98.6586 77.9835C98.5686 77.8235 98.4186 77.6536 98.3086 77.5136C98.2486 77.4336 98.2786 77.4536 98.2986 77.4536C101.059 79.4936 103.259 82.1636 104.859 85.2036C105.499 86.4836 104.979 88.0536 103.699 88.6936C101.639 89.7336 100.199 87.7335 98.9286 86.4235C98.1086 85.5335 96.4586 83.7636 95.6286 82.8836C95.0686 82.2736 94.2586 81.6036 93.8386 80.8836C92.5486 78.6736 94.7686 75.9436 97.2186 76.8236C97.6686 76.9836 97.9786 77.2536 98.2686 77.5236C98.5386 77.7536 99.0286 78.2936 99.1786 78.7636C99.9886 80.7336 98.1386 82.8436 96.1286 82.3436C92.4286 81.3236 93.8386 76.1336 97.4786 77.3236L97.4686 77.3036Z" fill="black" fill-opacity="0.2"/>
<path d="M102.749 86.6836C102.749 86.6836 102.249 84.7536 99.6985 82.1136C97.1485 79.4736 94.2585 78.2536 94.2585 78.2536C89.0585 78.1036 80.6285 80.2036 78.1385 85.3236C77.4085 86.8236 76.6085 89.8535 79.4685 93.2935C81.1585 95.3235 83.1685 96.1035 85.2885 96.1035C89.8285 96.1035 94.8685 92.5336 98.3185 90.0936C99.4885 89.2636 102.969 86.6635 102.749 86.6735V86.6836Z" fill="#FF6700"/>
<path d="M89.9085 54.3637C94.5785 55.1537 99.2085 56.0737 103.869 56.9337C105.439 57.2237 106.479 58.7237 106.189 60.2937C105.879 62.1637 103.959 62.7038 102.449 63.2738C101.279 63.6338 98.3785 64.3738 97.1585 64.7138C94.8085 65.3538 92.4585 65.9937 90.0785 66.5737C89.0685 66.8237 88.0485 66.2037 87.7985 65.2037C87.5785 64.3337 88.0185 63.4537 88.7885 63.0637C90.9785 61.9737 93.1785 60.9338 95.3885 59.9038C97.3585 59.0438 100.018 57.5237 102.088 57.0137L102.348 62.6637C97.8885 61.1037 93.3985 59.6037 88.9585 57.9737C86.8385 57.1837 87.6985 53.9937 89.9185 54.3637H89.9085Z" fill="black"/>
<path d="M89.9085 54.3637C94.5785 55.1537 99.2085 56.0737 103.869 56.9337C105.439 57.2237 106.479 58.7237 106.189 60.2937C105.879 62.1637 103.959 62.7038 102.449 63.2738C101.279 63.6338 98.3785 64.3738 97.1585 64.7138C94.8085 65.3538 92.4585 65.9937 90.0785 66.5737C89.0685 66.8237 88.0485 66.2037 87.7985 65.2037C87.5785 64.3337 88.0185 63.4537 88.7885 63.0637C90.9785 61.9737 93.1785 60.9338 95.3885 59.9038C97.3585 59.0438 100.018 57.5237 102.088 57.0137L102.348 62.6637C97.8885 61.1037 93.3985 59.6037 88.9585 57.9737C86.8385 57.1837 87.6985 53.9937 89.9185 54.3637H89.9085Z" fill="black" fill-opacity="0.2"/>
<path d="M148.878 87.1347C150.708 92.7047 151.598 98.4947 152.068 104.315C152.208 106.255 152.278 108.205 152.168 110.175C151.748 116.365 143.228 117.505 141.138 111.745C138.758 104.315 137.698 96.4947 137.848 88.6947C138.238 82.4647 146.808 81.3247 148.878 87.1147V87.1347Z" fill="black"/>
<path d="M148.878 87.1347C150.708 92.7047 151.598 98.4947 152.068 104.315C152.208 106.255 152.278 108.205 152.168 110.175C151.748 116.365 143.228 117.505 141.138 111.745C138.758 104.315 137.698 96.4947 137.848 88.6947C138.238 82.4647 146.808 81.3247 148.878 87.1147V87.1347Z" fill="black" fill-opacity="0.2"/>
<path d="M137.589 88.5737C151.699 88.5737 163.139 74.2513 163.139 56.5837C163.139 38.9162 151.699 24.5938 137.589 24.5938C123.478 24.5938 112.039 38.9162 112.039 56.5837C112.039 74.2513 123.478 88.5737 137.589 88.5737Z" fill="black"/>
<path d="M137.589 88.5737C151.699 88.5737 163.139 74.2513 163.139 56.5837C163.139 38.9162 151.699 24.5938 137.589 24.5938C123.478 24.5938 112.039 38.9162 112.039 56.5837C112.039 74.2513 123.478 88.5737 137.589 88.5737Z" fill="black" fill-opacity="0.2"/>
<path d="M140.479 80.1347C151.414 80.1347 160.279 69.0359 160.279 55.3447C160.279 41.6536 151.414 30.5547 140.479 30.5547C129.543 30.5547 120.679 41.6536 120.679 55.3447C120.679 69.0359 129.543 80.1347 140.479 80.1347Z" fill="white"/>
<path d="M140.479 80.1347C151.414 80.1347 160.279 69.0359 160.279 55.3447C160.279 41.6536 151.414 30.5547 140.479 30.5547C129.543 30.5547 120.679 41.6536 120.679 55.3447C120.679 69.0359 129.543 80.1347 140.479 80.1347Z" stroke="black" stroke-width="6" stroke-linecap="round" stroke-linejoin="round"/>
<path d="M140.479 80.1347C151.414 80.1347 160.279 69.0359 160.279 55.3447C160.279 41.6536 151.414 30.5547 140.479 30.5547C129.543 30.5547 120.679 41.6536 120.679 55.3447C120.679 69.0359 129.543 80.1347 140.479 80.1347Z" stroke="black" stroke-opacity="0.2" stroke-width="6" stroke-linecap="round" stroke-linejoin="round"/>
<path d="M143.059 64.9639C142.439 64.9639 141.809 64.8139 141.219 64.5139C138.579 63.1739 137.629 59.3839 137.309 57.2439C136.719 53.3839 137.119 48.3139 140.199 46.7039C141.349 46.1039 142.689 46.1039 143.869 46.7039C146.509 48.0439 147.459 51.8339 147.779 53.9739C148.369 57.8339 147.969 62.9039 144.889 64.5139C144.309 64.8139 143.689 64.9639 143.059 64.9639Z" fill="black"/>
<path d="M143.059 64.9639C142.439 64.9639 141.809 64.8139 141.219 64.5139C138.579 63.1739 137.629 59.3839 137.309 57.2439C136.719 53.3839 137.119 48.3139 140.199 46.7039C141.349 46.1039 142.689 46.1039 143.869 46.7039C146.509 48.0439 147.459 51.8339 147.779 53.9739C148.369 57.8339 147.969 62.9039 144.889 64.5139C144.309 64.8139 143.689 64.9639 143.059 64.9639Z" fill="black" fill-opacity="0.2"/>
</svg>
