<svg width="164" height="138" viewBox="0 0 164 138" fill="none" xmlns="http://www.w3.org/2000/svg">
<path d="M161.931 33.6351C158.031 24.2851 141.171 22.2351 132.601 23.7551C128.621 24.4151 124.771 25.5751 121.391 28.0951C117.081 31.0751 115.041 37.2451 118.471 41.9351C120.641 44.9151 123.911 46.9951 127.651 48.2951C127.651 48.7251 127.671 49.1551 127.711 49.5951C127.771 49.9151 127.801 50.3251 128.211 51.0351C128.761 52.0151 129.951 52.5451 131.061 52.4051C132.581 53.2651 133.781 54.8551 134.951 56.2551C136.401 58.1551 137.941 60.3751 138.761 62.5551L139.321 65.6451L141.611 63.2351C143.231 61.6251 144.771 59.4351 146.761 58.0451C152.461 54.0451 158.981 50.3351 161.771 43.5251C163.231 39.1951 163.571 36.0551 161.941 33.6251L161.931 33.6351Z" fill="#FECB8B"/>
<path d="M37.5404 57.7946C33.2004 49.5546 23.5904 34.7046 10.8004 34.8546C-6.87963 35.0646 13.7004 75.0246 13.7004 75.0246C13.7004 75.0246 -2.98962 107.745 11.5604 111.205C26.1204 114.665 38.4004 94.1546 38.4004 94.1546" fill="#FF6700"/>
<path d="M115.5 37.8637C115.5 37.8637 103.64 15.0937 77.5505 4.89365C65.0005 -0.0063467 59.9005 7.63365 67.1405 17.2537C76.3605 29.5037 41.4205 5.38364 63.8505 45.2436L115.51 37.8536L115.5 37.8637Z" fill="#FF6700"/>
<path d="M95.6707 28.7848L106.871 25.4648L87.7207 9.85477L70.0407 3.38477L64.0107 7.57477C64.0107 7.57477 89.5907 16.0948 95.6607 28.7948L95.6707 28.7848Z" fill="#FECB8B"/>
<path d="M112.37 36.2542C111.82 37.0542 111.82 38.5242 112.32 39.2542V39.2242L112.27 39.1242C110.64 34.8442 108.04 30.9842 105.14 27.4542C98.5703 19.7742 90.2603 13.5642 81.1003 9.3742C77.7403 8.0242 73.6503 6.0942 70.1403 6.4142C66.1003 6.6242 66.8003 9.92421 68.2803 12.6142C69.9803 15.6642 74.1903 19.0842 71.5303 22.9142C69.2203 26.0542 64.6403 24.4542 61.6303 24.6542C60.7303 24.6642 60.0603 24.9142 60.1103 24.9642C60.1103 24.9842 60.2203 24.8842 60.2303 24.8742C59.9203 27.6742 61.5203 31.0442 62.6103 33.7642C62.9503 34.5642 63.6403 36.1742 64.0103 36.9642C64.9803 39.1142 65.9803 41.2842 66.9203 43.5142L63.3603 41.7542C79.8003 39.3342 95.7403 37.7942 112.39 36.2442L112.37 36.2542ZM118.63 39.4742C100.85 42.8642 82.3403 46.2342 64.3103 48.7342C62.8403 48.9442 61.4503 48.1942 60.7703 46.9742C57.0303 41.6142 53.9503 35.7442 52.5703 29.2142C50.7403 19.5042 56.5703 15.7842 65.6003 17.3742C66.1703 17.4442 66.7303 17.5042 67.0503 17.5142C67.1903 17.5242 67.2903 17.4942 67.0503 17.5642C65.9703 17.8842 65.0903 19.0542 65.0903 20.1942C65.0703 20.4142 65.1103 20.6742 65.1803 20.8642C64.3703 19.2142 62.9203 17.5842 62.1403 15.7342C60.7503 12.7742 59.9003 9.4342 61.1003 6.0242C63.7303 -1.0358 72.6003 -0.355797 78.1903 2.0942C79.9303 2.8242 81.7203 3.7242 83.4403 4.4942C84.9803 5.3842 86.9403 6.3642 88.4403 7.2942L91.6603 9.33421C100.13 14.9542 107.23 22.3242 113.71 30.0842C114.94 31.5042 116.19 33.1242 117.37 34.5942L117.98 35.3742L118.29 35.7742L118.37 35.8742C119.02 36.8442 119.1 38.4042 118.64 39.4542L118.63 39.4742Z" fill="black"/>
<path d="M112.37 36.2542C111.82 37.0542 111.82 38.5242 112.32 39.2542V39.2242L112.27 39.1242C110.64 34.8442 108.04 30.9842 105.14 27.4542C98.5703 19.7742 90.2603 13.5642 81.1003 9.3742C77.7403 8.0242 73.6503 6.0942 70.1403 6.4142C66.1003 6.6242 66.8003 9.92421 68.2803 12.6142C69.9803 15.6642 74.1903 19.0842 71.5303 22.9142C69.2203 26.0542 64.6403 24.4542 61.6303 24.6542C60.7303 24.6642 60.0603 24.9142 60.1103 24.9642C60.1103 24.9842 60.2203 24.8842 60.2303 24.8742C59.9203 27.6742 61.5203 31.0442 62.6103 33.7642C62.9503 34.5642 63.6403 36.1742 64.0103 36.9642C64.9803 39.1142 65.9803 41.2842 66.9203 43.5142L63.3603 41.7542C79.8003 39.3342 95.7403 37.7942 112.39 36.2442L112.37 36.2542ZM118.63 39.4742C100.85 42.8642 82.3403 46.2342 64.3103 48.7342C62.8403 48.9442 61.4503 48.1942 60.7703 46.9742C57.0303 41.6142 53.9503 35.7442 52.5703 29.2142C50.7403 19.5042 56.5703 15.7842 65.6003 17.3742C66.1703 17.4442 66.7303 17.5042 67.0503 17.5142C67.1903 17.5242 67.2903 17.4942 67.0503 17.5642C65.9703 17.8842 65.0903 19.0542 65.0903 20.1942C65.0703 20.4142 65.1103 20.6742 65.1803 20.8642C64.3703 19.2142 62.9203 17.5842 62.1403 15.7342C60.7503 12.7742 59.9003 9.4342 61.1003 6.0242C63.7303 -1.0358 72.6003 -0.355797 78.1903 2.0942C79.9303 2.8242 81.7203 3.7242 83.4403 4.4942C84.9803 5.3842 86.9403 6.3642 88.4403 7.2942L91.6603 9.33421C100.13 14.9542 107.23 22.3242 113.71 30.0842C114.94 31.5042 116.19 33.1242 117.37 34.5942L117.98 35.3742L118.29 35.7742L118.37 35.8742C119.02 36.8442 119.1 38.4042 118.64 39.4542L118.63 39.4742Z" fill="black" fill-opacity="0.2"/>
<path d="M112.37 36.2542C111.82 37.0542 111.82 38.5242 112.32 39.2542V39.2242L112.27 39.1242C110.64 34.8442 108.04 30.9842 105.14 27.4542C98.5703 19.7742 90.2603 13.5642 81.1003 9.3742C77.7403 8.0242 73.6503 6.0942 70.1403 6.4142C66.1003 6.6242 66.8003 9.92421 68.2803 12.6142C69.9803 15.6642 74.1903 19.0842 71.5303 22.9142C69.2203 26.0542 64.6403 24.4542 61.6303 24.6542C60.7303 24.6642 60.0603 24.9142 60.1103 24.9642C60.1103 24.9842 60.2203 24.8842 60.2303 24.8742C59.9203 27.6742 61.5203 31.0442 62.6103 33.7642C62.9503 34.5642 63.6403 36.1742 64.0103 36.9642C64.9803 39.1142 65.9803 41.2842 66.9203 43.5142L63.3603 41.7542C79.8003 39.3342 95.7403 37.7942 112.39 36.2442L112.37 36.2542ZM118.63 39.4742C100.85 42.8642 82.3403 46.2342 64.3103 48.7342C62.8403 48.9442 61.4503 48.1942 60.7703 46.9742C57.0303 41.6142 53.9503 35.7442 52.5703 29.2142C50.7403 19.5042 56.5703 15.7842 65.6003 17.3742C66.1703 17.4442 66.7303 17.5042 67.0503 17.5142C67.1903 17.5242 67.2903 17.4942 67.0503 17.5642C65.9703 17.8842 65.0903 19.0542 65.0903 20.1942C65.0703 20.4142 65.1103 20.6742 65.1803 20.8642C64.3703 19.2142 62.9203 17.5842 62.1403 15.7342C60.7503 12.7742 59.9003 9.4342 61.1003 6.0242C63.7303 -1.0358 72.6003 -0.355797 78.1903 2.0942C79.9303 2.8242 81.7203 3.7242 83.4403 4.4942C84.9803 5.3842 86.9403 6.3642 88.4403 7.2942L91.6603 9.33421C100.13 14.9542 107.23 22.3242 113.71 30.0842C114.94 31.5042 116.19 33.1242 117.37 34.5942L117.98 35.3742L118.29 35.7742L118.37 35.8742C119.02 36.8442 119.1 38.4042 118.64 39.4542L118.63 39.4742Z" fill="black"/>
<path d="M112.37 36.2542C111.82 37.0542 111.82 38.5242 112.32 39.2542V39.2242L112.27 39.1242C110.64 34.8442 108.04 30.9842 105.14 27.4542C98.5703 19.7742 90.2603 13.5642 81.1003 9.3742C77.7403 8.0242 73.6503 6.0942 70.1403 6.4142C66.1003 6.6242 66.8003 9.92421 68.2803 12.6142C69.9803 15.6642 74.1903 19.0842 71.5303 22.9142C69.2203 26.0542 64.6403 24.4542 61.6303 24.6542C60.7303 24.6642 60.0603 24.9142 60.1103 24.9642C60.1103 24.9842 60.2203 24.8842 60.2303 24.8742C59.9203 27.6742 61.5203 31.0442 62.6103 33.7642C62.9503 34.5642 63.6403 36.1742 64.0103 36.9642C64.9803 39.1142 65.9803 41.2842 66.9203 43.5142L63.3603 41.7542C79.8003 39.3342 95.7403 37.7942 112.39 36.2442L112.37 36.2542ZM118.63 39.4742C100.85 42.8642 82.3403 46.2342 64.3103 48.7342C62.8403 48.9442 61.4503 48.1942 60.7703 46.9742C57.0303 41.6142 53.9503 35.7442 52.5703 29.2142C50.7403 19.5042 56.5703 15.7842 65.6003 17.3742C66.1703 17.4442 66.7303 17.5042 67.0503 17.5142C67.1903 17.5242 67.2903 17.4942 67.0503 17.5642C65.9703 17.8842 65.0903 19.0542 65.0903 20.1942C65.0703 20.4142 65.1103 20.6742 65.1803 20.8642C64.3703 19.2142 62.9203 17.5842 62.1403 15.7342C60.7503 12.7742 59.9003 9.4342 61.1003 6.0242C63.7303 -1.0358 72.6003 -0.355797 78.1903 2.0942C79.9303 2.8242 81.7203 3.7242 83.4403 4.4942C84.9803 5.3842 86.9403 6.3642 88.4403 7.2942L91.6603 9.33421C100.13 14.9542 107.23 22.3242 113.71 30.0842C114.94 31.5042 116.19 33.1242 117.37 34.5942L117.98 35.3742L118.29 35.7742L118.37 35.8742C119.02 36.8442 119.1 38.4042 118.64 39.4542L118.63 39.4742Z" fill="black" fill-opacity="0.2"/>
<path d="M38.3903 94.1449L38.5503 91.1249C49.2703 104.985 70.3103 117.975 91.4103 117.975C121.53 117.975 145.95 97.5549 145.95 72.3849C145.95 47.2149 121.53 26.7949 91.4103 26.7949C70.8803 26.7949 48.2303 42.4749 37.5303 57.8149" fill="#FECB8B"/>
<path d="M89.3809 108.125C94.8709 111.085 106.591 112.295 115.341 110.415C123.321 108.695 107.141 119.905 90.1508 119.405L89.3909 108.125H89.3809Z" fill="#FF6700"/>
<path d="M30.3807 63.9443C22.2307 46.1743 10.1307 39.9042 7.18068 47.6242C5.36068 19.9342 29.0207 45.6742 33.6807 56.3542L30.3807 63.9443Z" fill="#FECB8B"/>
<path d="M13.46 107.994C25.48 107.604 30.8 88.9338 30.75 82.8438L37.5 93.5638C30.06 103.584 22.11 109.044 13.46 107.994Z" fill="black"/>
<path d="M13.46 107.994C25.48 107.604 30.8 88.9338 30.75 82.8438L37.5 93.5638C30.06 103.584 22.11 109.044 13.46 107.994Z" fill="black" fill-opacity="0.2"/>
<path d="M13.46 107.994C25.48 107.604 30.8 88.9338 30.75 82.8438L37.5 93.5638C30.06 103.584 22.11 109.044 13.46 107.994Z" fill="black"/>
<path d="M13.46 107.994C25.48 107.604 30.8 88.9338 30.75 82.8438L37.5 93.5638C30.06 103.584 22.11 109.044 13.46 107.994Z" fill="black" fill-opacity="0.2"/>
<path d="M35.2302 81.2735C37.5802 83.6035 30.4102 71.0835 34.4102 62.9135C54.8802 21.0035 99.9002 27.2135 95.6702 28.7935C60.6902 41.8935 57.3902 79.5335 74.7902 103.393L62.4802 108.813C56.3102 109.583 33.2002 89.9235 35.2302 81.2935V81.2735Z" fill="#FF6700"/>
<path d="M41.4104 95.9533C35.2004 105.553 24.9504 116.473 12.4004 114.933C7.90043 114.373 4.14042 111.723 2.80042 106.993C0.0204198 97.0533 6.28043 82.3933 10.5604 73.4233C10.5604 73.4233 10.5604 76.6433 10.5604 76.6333C5.95043 66.9133 -1.23958 50.6033 0.770421 39.8633C2.48042 31.4333 10.6204 30.4933 17.4504 32.8733C24.8104 35.5133 30.0904 41.2133 34.4404 47.2733C36.5204 50.2333 38.3604 53.3133 40.0104 56.4933C41.6004 59.8233 36.8904 62.2733 35.0604 59.1033C30.5304 51.0033 24.4704 41.9333 15.5004 38.6933C12.8704 37.8133 9.35042 37.7033 8.33042 38.6833C5.12042 41.6733 7.87042 50.8833 9.05042 54.8633C11.0604 61.1833 13.8204 67.5333 16.8204 73.4233C17.3604 74.4633 17.3204 75.6533 16.8204 76.6333C14.2504 81.8833 11.9504 87.5533 10.4404 93.1933C9.49042 97.1133 7.67043 104.543 11.0104 107.233C12.7504 108.203 14.9204 108.213 16.8904 107.903C23.4804 106.643 28.8704 101.073 32.9404 95.8333C33.7804 94.7333 34.6604 93.4733 35.3804 92.3133C37.9204 88.4233 43.6804 91.9033 41.3904 95.9633L41.4104 95.9533Z" fill="black"/>
<path d="M41.4104 95.9533C35.2004 105.553 24.9504 116.473 12.4004 114.933C7.90043 114.373 4.14042 111.723 2.80042 106.993C0.0204198 97.0533 6.28043 82.3933 10.5604 73.4233C10.5604 73.4233 10.5604 76.6433 10.5604 76.6333C5.95043 66.9133 -1.23958 50.6033 0.770421 39.8633C2.48042 31.4333 10.6204 30.4933 17.4504 32.8733C24.8104 35.5133 30.0904 41.2133 34.4404 47.2733C36.5204 50.2333 38.3604 53.3133 40.0104 56.4933C41.6004 59.8233 36.8904 62.2733 35.0604 59.1033C30.5304 51.0033 24.4704 41.9333 15.5004 38.6933C12.8704 37.8133 9.35042 37.7033 8.33042 38.6833C5.12042 41.6733 7.87042 50.8833 9.05042 54.8633C11.0604 61.1833 13.8204 67.5333 16.8204 73.4233C17.3604 74.4633 17.3204 75.6533 16.8204 76.6333C14.2504 81.8833 11.9504 87.5533 10.4404 93.1933C9.49042 97.1133 7.67043 104.543 11.0104 107.233C12.7504 108.203 14.9204 108.213 16.8904 107.903C23.4804 106.643 28.8704 101.073 32.9404 95.8333C33.7804 94.7333 34.6604 93.4733 35.3804 92.3133C37.9204 88.4233 43.6804 91.9033 41.3904 95.9633L41.4104 95.9533Z" fill="black" fill-opacity="0.2"/>
<path d="M41.4104 95.9533C35.2004 105.553 24.9504 116.473 12.4004 114.933C7.90043 114.373 4.14042 111.723 2.80042 106.993C0.0204198 97.0533 6.28043 82.3933 10.5604 73.4233C10.5604 73.4233 10.5604 76.6433 10.5604 76.6333C5.95043 66.9133 -1.23958 50.6033 0.770421 39.8633C2.48042 31.4333 10.6204 30.4933 17.4504 32.8733C24.8104 35.5133 30.0904 41.2133 34.4404 47.2733C36.5204 50.2333 38.3604 53.3133 40.0104 56.4933C41.6004 59.8233 36.8904 62.2733 35.0604 59.1033C30.5304 51.0033 24.4704 41.9333 15.5004 38.6933C12.8704 37.8133 9.35042 37.7033 8.33042 38.6833C5.12042 41.6733 7.87042 50.8833 9.05042 54.8633C11.0604 61.1833 13.8204 67.5333 16.8204 73.4233C17.3604 74.4633 17.3204 75.6533 16.8204 76.6333C14.2504 81.8833 11.9504 87.5533 10.4404 93.1933C9.49042 97.1133 7.67043 104.543 11.0104 107.233C12.7504 108.203 14.9204 108.213 16.8904 107.903C23.4804 106.643 28.8704 101.073 32.9404 95.8333C33.7804 94.7333 34.6604 93.4733 35.3804 92.3133C37.9204 88.4233 43.6804 91.9033 41.3904 95.9633L41.4104 95.9533Z" fill="black"/>
<path d="M41.4104 95.9533C35.2004 105.553 24.9504 116.473 12.4004 114.933C7.90043 114.373 4.14042 111.723 2.80042 106.993C0.0204198 97.0533 6.28043 82.3933 10.5604 73.4233C10.5604 73.4233 10.5604 76.6433 10.5604 76.6333C5.95043 66.9133 -1.23958 50.6033 0.770421 39.8633C2.48042 31.4333 10.6204 30.4933 17.4504 32.8733C24.8104 35.5133 30.0904 41.2133 34.4404 47.2733C36.5204 50.2333 38.3604 53.3133 40.0104 56.4933C41.6004 59.8233 36.8904 62.2733 35.0604 59.1033C30.5304 51.0033 24.4704 41.9333 15.5004 38.6933C12.8704 37.8133 9.35042 37.7033 8.33042 38.6833C5.12042 41.6733 7.87042 50.8833 9.05042 54.8633C11.0604 61.1833 13.8204 67.5333 16.8204 73.4233C17.3604 74.4633 17.3204 75.6533 16.8204 76.6333C14.2504 81.8833 11.9504 87.5533 10.4404 93.1933C9.49042 97.1133 7.67043 104.543 11.0104 107.233C12.7504 108.203 14.9204 108.213 16.8904 107.903C23.4804 106.643 28.8704 101.073 32.9404 95.8333C33.7804 94.7333 34.6604 93.4733 35.3804 92.3133C37.9204 88.4233 43.6804 91.9033 41.3904 95.9633L41.4104 95.9533Z" fill="black" fill-opacity="0.2"/>
<path d="M31.6106 61.4448C42.0406 42.6848 64.9906 26.6648 86.3406 24.1448C108.931 22.1148 133.581 33.0148 144.031 53.8348C156.961 80.2448 140.261 108.075 114.271 117.625C105.351 120.985 95.7206 122.265 86.2406 121.475C68.6706 119.605 52.1606 110.755 40.2906 97.7848C39.3106 96.7848 38.0406 95.0948 37.1406 94.0148C34.6006 90.7448 32.5006 87.1748 30.9006 83.2848C30.3606 82.0048 30.9606 80.5248 32.2406 79.9848C33.4606 79.4648 34.8606 79.9848 35.4506 81.1448C38.0906 86.3348 41.9206 91.0248 46.3506 95.0748C59.2106 106.845 76.9306 115.035 94.5606 114.105C117.431 113.355 142.741 97.7948 143.421 72.9448C144.021 47.7548 119.041 30.8448 95.8006 29.8048C83.9806 28.7448 72.3306 32.9548 62.1206 39.2548C52.1606 45.5348 42.7406 54.0248 37.1806 64.3848C35.1206 68.0248 29.7506 65.1848 31.6106 61.4248H31.6006L31.6106 61.4448Z" fill="black"/>
<path d="M31.6106 61.4448C42.0406 42.6848 64.9906 26.6648 86.3406 24.1448C108.931 22.1148 133.581 33.0148 144.031 53.8348C156.961 80.2448 140.261 108.075 114.271 117.625C105.351 120.985 95.7206 122.265 86.2406 121.475C68.6706 119.605 52.1606 110.755 40.2906 97.7848C39.3106 96.7848 38.0406 95.0948 37.1406 94.0148C34.6006 90.7448 32.5006 87.1748 30.9006 83.2848C30.3606 82.0048 30.9606 80.5248 32.2406 79.9848C33.4606 79.4648 34.8606 79.9848 35.4506 81.1448C38.0906 86.3348 41.9206 91.0248 46.3506 95.0748C59.2106 106.845 76.9306 115.035 94.5606 114.105C117.431 113.355 142.741 97.7948 143.421 72.9448C144.021 47.7548 119.041 30.8448 95.8006 29.8048C83.9806 28.7448 72.3306 32.9548 62.1206 39.2548C52.1606 45.5348 42.7406 54.0248 37.1806 64.3848C35.1206 68.0248 29.7506 65.1848 31.6106 61.4248H31.6006L31.6106 61.4448Z" fill="black" fill-opacity="0.2"/>
<path d="M31.6106 61.4448C42.0406 42.6848 64.9906 26.6648 86.3406 24.1448C108.931 22.1148 133.581 33.0148 144.031 53.8348C156.961 80.2448 140.261 108.075 114.271 117.625C105.351 120.985 95.7206 122.265 86.2406 121.475C68.6706 119.605 52.1606 110.755 40.2906 97.7848C39.3106 96.7848 38.0406 95.0948 37.1406 94.0148C34.6006 90.7448 32.5006 87.1748 30.9006 83.2848C30.3606 82.0048 30.9606 80.5248 32.2406 79.9848C33.4606 79.4648 34.8606 79.9848 35.4506 81.1448C38.0906 86.3348 41.9206 91.0248 46.3506 95.0748C59.2106 106.845 76.9306 115.035 94.5606 114.105C117.431 113.355 142.741 97.7948 143.421 72.9448C144.021 47.7548 119.041 30.8448 95.8006 29.8048C83.9806 28.7448 72.3306 32.9548 62.1206 39.2548C52.1606 45.5348 42.7406 54.0248 37.1806 64.3848C35.1206 68.0248 29.7506 65.1848 31.6106 61.4248H31.6006L31.6106 61.4448Z" fill="black"/>
<path d="M31.6106 61.4448C42.0406 42.6848 64.9906 26.6648 86.3406 24.1448C108.931 22.1148 133.581 33.0148 144.031 53.8348C156.961 80.2448 140.261 108.075 114.271 117.625C105.351 120.985 95.7206 122.265 86.2406 121.475C68.6706 119.605 52.1606 110.755 40.2906 97.7848C39.3106 96.7848 38.0406 95.0948 37.1406 94.0148C34.6006 90.7448 32.5006 87.1748 30.9006 83.2848C30.3606 82.0048 30.9606 80.5248 32.2406 79.9848C33.4606 79.4648 34.8606 79.9848 35.4506 81.1448C38.0906 86.3348 41.9206 91.0248 46.3506 95.0748C59.2106 106.845 76.9306 115.035 94.5606 114.105C117.431 113.355 142.741 97.7948 143.421 72.9448C144.021 47.7548 119.041 30.8448 95.8006 29.8048C83.9806 28.7448 72.3306 32.9548 62.1206 39.2548C52.1606 45.5348 42.7406 54.0248 37.1806 64.3848C35.1206 68.0248 29.7506 65.1848 31.6106 61.4248H31.6006L31.6106 61.4448Z" fill="black" fill-opacity="0.2"/>
<path d="M80.1503 128.764C88.9403 122.894 93.0803 113.654 89.3903 108.124C85.7003 102.594 75.5803 102.874 66.7903 108.744C58.0003 114.614 53.8603 123.854 57.5503 129.384C61.2403 134.914 71.3603 134.634 80.1503 128.764Z" fill="#FECB8B"/>
<path d="M89.9406 111.245C89.2806 109.875 88.1806 106.975 86.8406 106.145C88.2506 111.785 83.0906 120.045 74.6506 124.125C67.6506 127.505 61.0106 124.655 58.8106 118.375C58.9306 118.875 56.4806 126.855 56.7106 127.315C59.5006 133.085 69.2006 134.165 78.3706 129.725C87.5506 125.285 92.7306 117.015 89.9406 111.245Z" fill="#FF6700"/>
<path d="M75.4904 105.735C70.1704 109.375 64.8204 113.595 61.8704 119.165C59.6104 123.565 58.9504 128.615 65.0604 129.405C69.3904 129.945 73.9704 128.415 77.7804 126.265C81.8004 124.025 84.9704 120.465 86.6604 116.145C87.6904 113.345 88.1204 110.105 86.8604 107.335C86.4904 106.645 86.7904 105.775 87.5004 105.445C89.7104 104.415 91.3404 109.915 91.5104 111.425C92.3404 117.455 89.9004 123.475 85.9404 127.975C78.8104 135.995 62.6504 141.945 54.5904 132.095C48.3904 123.155 56.0904 111.885 63.8304 107.085C67.0404 104.995 70.5204 103.505 74.0904 102.575C75.0204 102.335 75.9804 102.895 76.2204 103.825C76.4104 104.575 76.1004 105.325 75.4904 105.715V105.735Z" fill="black"/>
<path d="M75.4904 105.735C70.1704 109.375 64.8204 113.595 61.8704 119.165C59.6104 123.565 58.9504 128.615 65.0604 129.405C69.3904 129.945 73.9704 128.415 77.7804 126.265C81.8004 124.025 84.9704 120.465 86.6604 116.145C87.6904 113.345 88.1204 110.105 86.8604 107.335C86.4904 106.645 86.7904 105.775 87.5004 105.445C89.7104 104.415 91.3404 109.915 91.5104 111.425C92.3404 117.455 89.9004 123.475 85.9404 127.975C78.8104 135.995 62.6504 141.945 54.5904 132.095C48.3904 123.155 56.0904 111.885 63.8304 107.085C67.0404 104.995 70.5204 103.505 74.0904 102.575C75.0204 102.335 75.9804 102.895 76.2204 103.825C76.4104 104.575 76.1004 105.325 75.4904 105.715V105.735Z" fill="black" fill-opacity="0.2"/>
<path d="M75.4904 105.735C70.1704 109.375 64.8204 113.595 61.8704 119.165C59.6104 123.565 58.9504 128.615 65.0604 129.405C69.3904 129.945 73.9704 128.415 77.7804 126.265C81.8004 124.025 84.9704 120.465 86.6604 116.145C87.6904 113.345 88.1204 110.105 86.8604 107.335C86.4904 106.645 86.7904 105.775 87.5004 105.445C89.7104 104.415 91.3404 109.915 91.5104 111.425C92.3404 117.455 89.9004 123.475 85.9404 127.975C78.8104 135.995 62.6504 141.945 54.5904 132.095C48.3904 123.155 56.0904 111.885 63.8304 107.085C67.0404 104.995 70.5204 103.505 74.0904 102.575C75.0204 102.335 75.9804 102.895 76.2204 103.825C76.4104 104.575 76.1004 105.325 75.4904 105.715V105.735Z" fill="black"/>
<path d="M75.4904 105.735C70.1704 109.375 64.8204 113.595 61.8704 119.165C59.6104 123.565 58.9504 128.615 65.0604 129.405C69.3904 129.945 73.9704 128.415 77.7804 126.265C81.8004 124.025 84.9704 120.465 86.6604 116.145C87.6904 113.345 88.1204 110.105 86.8604 107.335C86.4904 106.645 86.7904 105.775 87.5004 105.445C89.7104 104.415 91.3404 109.915 91.5104 111.425C92.3404 117.455 89.9004 123.475 85.9404 127.975C78.8104 135.995 62.6504 141.945 54.5904 132.095C48.3904 123.155 56.0904 111.885 63.8304 107.085C67.0404 104.995 70.5204 103.505 74.0904 102.575C75.0204 102.335 75.9804 102.895 76.2204 103.825C76.4104 104.575 76.1004 105.325 75.4904 105.715V105.735Z" fill="black" fill-opacity="0.2"/>
<path d="M121.69 67.7433C124.89 66.8333 126.26 61.7633 124.75 56.4033C123.23 51.0533 119.41 47.4433 116.21 48.3533C113 49.2633 111.64 54.3333 113.15 59.6933C114.66 65.0433 118.49 68.6533 121.69 67.7433Z" fill="black"/>
<path d="M121.69 67.7433C124.89 66.8333 126.26 61.7633 124.75 56.4033C123.23 51.0533 119.41 47.4433 116.21 48.3533C113 49.2633 111.64 54.3333 113.15 59.6933C114.66 65.0433 118.49 68.6533 121.69 67.7433Z" fill="black" fill-opacity="0.2"/>
<path d="M121.69 67.7433C124.89 66.8333 126.26 61.7633 124.75 56.4033C123.23 51.0533 119.41 47.4433 116.21 48.3533C113 49.2633 111.64 54.3333 113.15 59.6933C114.66 65.0433 118.49 68.6533 121.69 67.7433Z" fill="black"/>
<path d="M121.69 67.7433C124.89 66.8333 126.26 61.7633 124.75 56.4033C123.23 51.0533 119.41 47.4433 116.21 48.3533C113 49.2633 111.64 54.3333 113.15 59.6933C114.66 65.0433 118.49 68.6533 121.69 67.7433Z" fill="black" fill-opacity="0.2"/>
<path d="M124.86 60.4449C126.11 60.0949 126.7 58.2849 126.17 56.4249C125.64 54.5549 124.2 53.3349 122.94 53.6849C121.69 54.0349 121.1 55.8449 121.63 57.7049C122.16 59.5749 123.6 60.7949 124.86 60.4449Z" fill="white"/>
<path d="M101.711 70.7834C102.641 69.9834 104.201 70.0134 105.151 70.6534C106.181 71.3234 106.631 71.9934 107.381 72.7434C107.641 73.0134 107.671 72.9434 107.441 72.7934C107.401 72.7734 107.331 72.7334 107.241 72.6934C107.101 72.6434 107.191 72.6634 107.201 72.6634C107.981 72.8434 108.741 72.9434 109.571 72.9434C111.661 72.9934 114.011 72.4034 116.071 72.0234C118.851 71.5634 120.201 75.3634 117.791 76.7734C113.951 78.9534 109.161 79.7334 104.991 77.9934C103.561 77.3334 102.871 76.0834 102.141 75.0234C102.051 74.9034 102.411 75.1534 102.511 75.1734C103.161 75.4934 104.291 75.3734 104.871 74.8434C102.151 76.8634 99.0808 72.9434 101.701 70.7934L101.711 70.7834Z" fill="black"/>
<path d="M101.711 70.7834C102.641 69.9834 104.201 70.0134 105.151 70.6534C106.181 71.3234 106.631 71.9934 107.381 72.7434C107.641 73.0134 107.671 72.9434 107.441 72.7934C107.401 72.7734 107.331 72.7334 107.241 72.6934C107.101 72.6434 107.191 72.6634 107.201 72.6634C107.981 72.8434 108.741 72.9434 109.571 72.9434C111.661 72.9934 114.011 72.4034 116.071 72.0234C118.851 71.5634 120.201 75.3634 117.791 76.7734C113.951 78.9534 109.161 79.7334 104.991 77.9934C103.561 77.3334 102.871 76.0834 102.141 75.0234C102.051 74.9034 102.411 75.1534 102.511 75.1734C103.161 75.4934 104.291 75.3734 104.871 74.8434C102.151 76.8634 99.0808 72.9434 101.701 70.7934L101.711 70.7834Z" fill="black" fill-opacity="0.2"/>
<path d="M89.6605 54.3637C94.3305 55.1537 98.9604 56.0737 103.62 56.9337C105.19 57.2237 106.23 58.7237 105.94 60.2937C105.63 62.1637 103.71 62.7037 102.2 63.2737C101.03 63.6337 98.1305 64.3737 96.9105 64.7137C94.5605 65.3537 92.2105 65.9937 89.8305 66.5737C88.8205 66.8237 87.8005 66.2037 87.5505 65.2037C87.3305 64.3337 87.7705 63.4537 88.5405 63.0637C90.7305 61.9737 92.9305 60.9337 95.1405 59.9037C97.1105 59.0437 99.7704 57.5237 101.84 57.0137L102.1 62.6637C97.6405 61.1037 93.1504 59.6037 88.7104 57.9737C86.5904 57.1837 87.4505 53.9937 89.6705 54.3637H89.6605Z" fill="black"/>
<path d="M89.6605 54.3637C94.3305 55.1537 98.9604 56.0737 103.62 56.9337C105.19 57.2237 106.23 58.7237 105.94 60.2937C105.63 62.1637 103.71 62.7037 102.2 63.2737C101.03 63.6337 98.1305 64.3737 96.9105 64.7137C94.5605 65.3537 92.2105 65.9937 89.8305 66.5737C88.8205 66.8237 87.8005 66.2037 87.5505 65.2037C87.3305 64.3337 87.7705 63.4537 88.5405 63.0637C90.7305 61.9737 92.9305 60.9337 95.1405 59.9037C97.1105 59.0437 99.7704 57.5237 101.84 57.0137L102.1 62.6637C97.6405 61.1037 93.1504 59.6037 88.7104 57.9737C86.5904 57.1837 87.4505 53.9937 89.6705 54.3637H89.6605Z" fill="black" fill-opacity="0.2"/>
<path d="M140.341 46.9048C151.48 46.9048 160.511 42.1993 160.511 36.3948C160.511 30.5903 151.48 25.8848 140.341 25.8848C129.201 25.8848 120.171 30.5903 120.171 36.3948C120.171 42.1993 129.201 46.9048 140.341 46.9048Z" fill="#FECB8B"/>
<path d="M155.73 46.0148C153.04 46.6748 145.96 48.7648 141.08 48.7648C143.07 52.2048 146.14 58.5348 146.14 58.5348C146.14 58.5348 150.86 55.8848 154.77 52.5048C156.96 50.6148 158.55 45.3248 155.74 46.0148H155.73Z" fill="#FF6700"/>
<path d="M132.561 30.4051C125.711 34.9451 130.721 40.5351 148.861 43.8651C148.501 50.0351 129.701 45.2651 129.701 45.2651L120.651 41.4151L120.131 32.8251C120.131 32.8251 136.921 27.5251 132.561 30.4151V30.4051Z" fill="#FF6700"/>
<path d="M151.72 46.9441C142.35 50.6941 129.92 50.5241 121.41 44.6541C114.01 39.1441 116.19 30.1841 123.89 26.2941C132.8 21.9741 143.47 21.7341 152.71 25.2541C160.19 27.8641 164.6 33.8341 162.76 41.8341C160.35 50.7341 151.23 55.4941 144.85 60.9741C142.61 62.7141 140.11 59.3541 142.42 57.7041C148.25 53.7741 154.18 49.8041 157.53 43.7241C159.36 40.3941 159.03 35.6741 156.23 33.0741C154.79 31.7541 152.71 31.0141 150.86 30.3541C144.12 28.1841 136.51 28.5041 129.84 30.8541C125.92 32.1741 120.58 35.7341 125.4 39.5841C128.69 42.1641 132.97 43.2841 137.15 43.8241C141.62 44.3741 146.27 44.2941 150.74 43.5541C152.79 43.2241 153.62 46.1341 151.72 46.9441Z" fill="black"/>
<path d="M151.72 46.9441C142.35 50.6941 129.92 50.5241 121.41 44.6541C114.01 39.1441 116.19 30.1841 123.89 26.2941C132.8 21.9741 143.47 21.7341 152.71 25.2541C160.19 27.8641 164.6 33.8341 162.76 41.8341C160.35 50.7341 151.23 55.4941 144.85 60.9741C142.61 62.7141 140.11 59.3541 142.42 57.7041C148.25 53.7741 154.18 49.8041 157.53 43.7241C159.36 40.3941 159.03 35.6741 156.23 33.0741C154.79 31.7541 152.71 31.0141 150.86 30.3541C144.12 28.1841 136.51 28.5041 129.84 30.8541C125.92 32.1741 120.58 35.7341 125.4 39.5841C128.69 42.1641 132.97 43.2841 137.15 43.8241C141.62 44.3741 146.27 44.2941 150.74 43.5541C152.79 43.2241 153.62 46.1341 151.72 46.9441Z" fill="black" fill-opacity="0.2"/>
</svg>
