<svg width="149" height="138" viewBox="0 0 149 138" fill="none" xmlns="http://www.w3.org/2000/svg">
<path d="M37.3704 58.0642C33.0304 49.8242 23.4205 34.9742 10.6305 35.1242C-7.04954 35.3342 13.5304 75.2942 13.5304 75.2942C13.5304 75.2942 -3.15956 108.014 11.3904 111.474C25.9504 114.934 38.2305 94.4242 38.2305 94.4242" fill="#FF6700"/>
<path d="M108.02 127.064C115.11 120.094 117.31 110.844 112.94 106.404C108.57 101.964 99.2803 104.014 92.2003 110.984C85.1103 117.954 82.9103 127.204 87.2803 131.644C91.6503 136.084 100.94 134.034 108.02 127.064Z" fill="black"/>
<path d="M108.02 127.064C115.11 120.094 117.31 110.844 112.94 106.404C108.57 101.964 99.2803 104.014 92.2003 110.984C85.1103 117.954 82.9103 127.204 87.2803 131.644C91.6503 136.084 100.94 134.034 108.02 127.064Z" fill="black" fill-opacity="0.2"/>
<path d="M108.02 127.064C115.11 120.094 117.31 110.844 112.94 106.404C108.57 101.964 99.2803 104.014 92.2003 110.984C85.1103 117.954 82.9103 127.204 87.2803 131.644C91.6503 136.084 100.94 134.034 108.02 127.064Z" fill="black"/>
<path d="M108.02 127.064C115.11 120.094 117.31 110.844 112.94 106.404C108.57 101.964 99.2803 104.014 92.2003 110.984C85.1103 117.954 82.9103 127.204 87.2803 131.644C91.6503 136.084 100.94 134.034 108.02 127.064Z" fill="black" fill-opacity="0.2"/>
<path d="M115.34 38.1332C115.34 38.1332 103.48 15.3632 77.3903 5.16319C64.8403 0.263186 59.7403 7.90317 66.9803 17.5232C76.2003 29.7732 41.2603 5.65322 63.6903 45.5132L115.35 38.1232L115.34 38.1332Z" fill="#FF6700"/>
<path d="M95.5101 29.0543L106.71 25.7343L87.5601 10.1243L69.8801 3.6543L63.8501 7.8443C63.8501 7.8443 89.4301 16.3643 95.5001 29.0643L95.5101 29.0543Z" fill="#FECB8B"/>
<path d="M112.21 36.5237C111.66 37.3237 111.66 38.7937 112.16 39.5237V39.4937L112.11 39.3938C110.48 35.1138 107.88 31.2537 104.98 27.7237C98.4101 20.0437 90.1001 13.8338 80.9401 9.64376C77.5801 8.29376 73.4902 6.36374 69.9802 6.68374C65.9402 6.89374 66.6401 10.1938 68.1201 12.8838C69.8201 15.9338 74.0301 19.3537 71.3701 23.1837C69.0601 26.3237 64.4801 24.7237 61.4701 24.9237C60.5701 24.9337 59.9002 25.1837 59.9502 25.2337C59.9502 25.2537 60.0601 25.1538 60.0701 25.1438C59.7601 27.9438 61.3602 31.3137 62.4502 34.0337C62.7902 34.8337 63.4801 36.4437 63.8501 37.2337C64.8201 39.3837 65.8201 41.5537 66.7601 43.7837L63.2002 42.0237C79.6402 39.6037 95.5801 38.0638 112.23 36.5138L112.21 36.5237ZM118.47 39.7437C100.69 43.1337 82.1801 46.5037 64.1501 49.0037C62.6801 49.2137 61.2901 48.4637 60.6101 47.2437C56.8701 41.8837 53.7901 36.0137 52.4101 29.4837C50.5801 19.7737 56.4101 16.0538 65.4401 17.6438C66.0101 17.7138 66.5701 17.7737 66.8901 17.7837C67.0301 17.7937 67.1301 17.7638 66.8901 17.8338C65.8101 18.1538 64.9301 19.3237 64.9301 20.4637C64.9101 20.6837 64.9501 20.9438 65.0201 21.1338C64.2101 19.4838 62.7601 17.8537 61.9801 16.0037C60.5901 13.0437 59.7401 9.70373 60.9401 6.29373C63.5701 -0.766273 72.4401 -0.0862654 78.0301 2.36373C79.7701 3.09373 81.5601 3.99376 83.2801 4.76376C84.8201 5.65376 86.7801 6.63375 88.2801 7.56375L91.5001 9.60372C99.9701 15.2237 107.07 22.5937 113.55 30.3537C114.78 31.7737 116.03 33.3937 117.21 34.8637L117.82 35.6438L118.13 36.0437L118.21 36.1438C118.86 37.1138 118.94 38.6737 118.48 39.7237L118.47 39.7437Z" fill="black"/>
<path d="M112.21 36.5237C111.66 37.3237 111.66 38.7937 112.16 39.5237V39.4937L112.11 39.3938C110.48 35.1138 107.88 31.2537 104.98 27.7237C98.4101 20.0437 90.1001 13.8338 80.9401 9.64376C77.5801 8.29376 73.4902 6.36374 69.9802 6.68374C65.9402 6.89374 66.6401 10.1938 68.1201 12.8838C69.8201 15.9338 74.0301 19.3537 71.3701 23.1837C69.0601 26.3237 64.4801 24.7237 61.4701 24.9237C60.5701 24.9337 59.9002 25.1837 59.9502 25.2337C59.9502 25.2537 60.0601 25.1538 60.0701 25.1438C59.7601 27.9438 61.3602 31.3137 62.4502 34.0337C62.7902 34.8337 63.4801 36.4437 63.8501 37.2337C64.8201 39.3837 65.8201 41.5537 66.7601 43.7837L63.2002 42.0237C79.6402 39.6037 95.5801 38.0638 112.23 36.5138L112.21 36.5237ZM118.47 39.7437C100.69 43.1337 82.1801 46.5037 64.1501 49.0037C62.6801 49.2137 61.2901 48.4637 60.6101 47.2437C56.8701 41.8837 53.7901 36.0137 52.4101 29.4837C50.5801 19.7737 56.4101 16.0538 65.4401 17.6438C66.0101 17.7138 66.5701 17.7737 66.8901 17.7837C67.0301 17.7937 67.1301 17.7638 66.8901 17.8338C65.8101 18.1538 64.9301 19.3237 64.9301 20.4637C64.9101 20.6837 64.9501 20.9438 65.0201 21.1338C64.2101 19.4838 62.7601 17.8537 61.9801 16.0037C60.5901 13.0437 59.7401 9.70373 60.9401 6.29373C63.5701 -0.766273 72.4401 -0.0862654 78.0301 2.36373C79.7701 3.09373 81.5601 3.99376 83.2801 4.76376C84.8201 5.65376 86.7801 6.63375 88.2801 7.56375L91.5001 9.60372C99.9701 15.2237 107.07 22.5937 113.55 30.3537C114.78 31.7737 116.03 33.3937 117.21 34.8637L117.82 35.6438L118.13 36.0437L118.21 36.1438C118.86 37.1138 118.94 38.6737 118.48 39.7237L118.47 39.7437Z" fill="black" fill-opacity="0.2"/>
<path d="M112.21 36.5237C111.66 37.3237 111.66 38.7937 112.16 39.5237V39.4937L112.11 39.3938C110.48 35.1138 107.88 31.2537 104.98 27.7237C98.4101 20.0437 90.1001 13.8338 80.9401 9.64376C77.5801 8.29376 73.4902 6.36374 69.9802 6.68374C65.9402 6.89374 66.6401 10.1938 68.1201 12.8838C69.8201 15.9338 74.0301 19.3537 71.3701 23.1837C69.0601 26.3237 64.4801 24.7237 61.4701 24.9237C60.5701 24.9337 59.9002 25.1837 59.9502 25.2337C59.9502 25.2537 60.0601 25.1538 60.0701 25.1438C59.7601 27.9438 61.3602 31.3137 62.4502 34.0337C62.7902 34.8337 63.4801 36.4437 63.8501 37.2337C64.8201 39.3837 65.8201 41.5537 66.7601 43.7837L63.2002 42.0237C79.6402 39.6037 95.5801 38.0638 112.23 36.5138L112.21 36.5237ZM118.47 39.7437C100.69 43.1337 82.1801 46.5037 64.1501 49.0037C62.6801 49.2137 61.2901 48.4637 60.6101 47.2437C56.8701 41.8837 53.7901 36.0137 52.4101 29.4837C50.5801 19.7737 56.4101 16.0538 65.4401 17.6438C66.0101 17.7138 66.5701 17.7737 66.8901 17.7837C67.0301 17.7937 67.1301 17.7638 66.8901 17.8338C65.8101 18.1538 64.9301 19.3237 64.9301 20.4637C64.9101 20.6837 64.9501 20.9438 65.0201 21.1338C64.2101 19.4838 62.7601 17.8537 61.9801 16.0037C60.5901 13.0437 59.7401 9.70373 60.9401 6.29373C63.5701 -0.766273 72.4401 -0.0862654 78.0301 2.36373C79.7701 3.09373 81.5601 3.99376 83.2801 4.76376C84.8201 5.65376 86.7801 6.63375 88.2801 7.56375L91.5001 9.60372C99.9701 15.2237 107.07 22.5937 113.55 30.3537C114.78 31.7737 116.03 33.3937 117.21 34.8637L117.82 35.6438L118.13 36.0437L118.21 36.1438C118.86 37.1138 118.94 38.6737 118.48 39.7237L118.47 39.7437Z" fill="black"/>
<path d="M112.21 36.5237C111.66 37.3237 111.66 38.7937 112.16 39.5237V39.4937L112.11 39.3938C110.48 35.1138 107.88 31.2537 104.98 27.7237C98.4101 20.0437 90.1001 13.8338 80.9401 9.64376C77.5801 8.29376 73.4902 6.36374 69.9802 6.68374C65.9402 6.89374 66.6401 10.1938 68.1201 12.8838C69.8201 15.9338 74.0301 19.3537 71.3701 23.1837C69.0601 26.3237 64.4801 24.7237 61.4701 24.9237C60.5701 24.9337 59.9002 25.1837 59.9502 25.2337C59.9502 25.2537 60.0601 25.1538 60.0701 25.1438C59.7601 27.9438 61.3602 31.3137 62.4502 34.0337C62.7902 34.8337 63.4801 36.4437 63.8501 37.2337C64.8201 39.3837 65.8201 41.5537 66.7601 43.7837L63.2002 42.0237C79.6402 39.6037 95.5801 38.0638 112.23 36.5138L112.21 36.5237ZM118.47 39.7437C100.69 43.1337 82.1801 46.5037 64.1501 49.0037C62.6801 49.2137 61.2901 48.4637 60.6101 47.2437C56.8701 41.8837 53.7901 36.0137 52.4101 29.4837C50.5801 19.7737 56.4101 16.0538 65.4401 17.6438C66.0101 17.7138 66.5701 17.7737 66.8901 17.7837C67.0301 17.7937 67.1301 17.7638 66.8901 17.8338C65.8101 18.1538 64.9301 19.3237 64.9301 20.4637C64.9101 20.6837 64.9501 20.9438 65.0201 21.1338C64.2101 19.4838 62.7601 17.8537 61.9801 16.0037C60.5901 13.0437 59.7401 9.70373 60.9401 6.29373C63.5701 -0.766273 72.4401 -0.0862654 78.0301 2.36373C79.7701 3.09373 81.5601 3.99376 83.2801 4.76376C84.8201 5.65376 86.7801 6.63375 88.2801 7.56375L91.5001 9.60372C99.9701 15.2237 107.07 22.5937 113.55 30.3537C114.78 31.7737 116.03 33.3937 117.21 34.8637L117.82 35.6438L118.13 36.0437L118.21 36.1438C118.86 37.1138 118.94 38.6737 118.48 39.7237L118.47 39.7437Z" fill="black" fill-opacity="0.2"/>
<path d="M38.2301 94.4144L38.3901 91.3945C49.1101 105.254 70.1501 118.244 91.2501 118.244C121.37 118.244 145.79 97.8244 145.79 72.6544C145.79 47.4844 121.37 27.0645 91.2501 27.0645C70.7201 27.0645 48.0701 42.7445 37.3701 58.0845" fill="#FECB8B"/>
<path d="M89.2202 108.395C94.7102 111.355 106.43 112.565 115.18 110.685C123.16 108.965 106.98 120.174 89.9902 119.674L89.2302 108.395H89.2202Z" fill="#FF6700"/>
<path d="M30.22 64.2137C22.07 46.4437 9.97004 40.1738 7.02004 47.8938C5.20004 20.2038 28.86 45.9438 33.52 56.6238L30.22 64.2137Z" fill="#FECB8B"/>
<path d="M13.3003 108.263C25.3203 107.873 30.6403 89.2033 30.5903 83.1133L37.3403 93.8333C29.9003 103.853 21.9503 109.313 13.3003 108.263Z" fill="black"/>
<path d="M13.3003 108.263C25.3203 107.873 30.6403 89.2033 30.5903 83.1133L37.3403 93.8333C29.9003 103.853 21.9503 109.313 13.3003 108.263Z" fill="black" fill-opacity="0.2"/>
<path d="M13.3003 108.263C25.3203 107.873 30.6403 89.2033 30.5903 83.1133L37.3403 93.8333C29.9003 103.853 21.9503 109.313 13.3003 108.263Z" fill="black"/>
<path d="M13.3003 108.263C25.3203 107.873 30.6403 89.2033 30.5903 83.1133L37.3403 93.8333C29.9003 103.853 21.9503 109.313 13.3003 108.263Z" fill="black" fill-opacity="0.2"/>
<path d="M35.07 81.543C37.42 83.873 30.25 71.353 34.25 63.183C54.72 21.273 99.74 27.483 95.51 29.063C60.53 42.163 57.23 79.803 74.63 103.663L62.32 109.083C56.15 109.853 33.04 90.193 35.07 81.563V81.543Z" fill="#FF6700"/>
<path d="M41.2503 96.2228C35.0403 105.823 24.7903 116.743 12.2403 115.203C7.74027 114.643 3.98026 111.993 2.64026 107.263C-0.139736 97.3228 6.12027 82.6628 10.4003 73.6928C10.4003 73.6928 10.4003 76.9128 10.4003 76.9028C5.79027 67.1828 -1.39974 50.8728 0.610265 40.1328C2.32026 31.7028 10.4603 30.7628 17.2903 33.1428C24.6503 35.7828 29.9303 41.4828 34.2803 47.5428C36.3603 50.5028 38.2003 53.5828 39.8503 56.7628C41.4403 60.0928 36.7303 62.5428 34.9003 59.3728C30.3703 51.2728 24.3103 42.2028 15.3403 38.9628C12.7103 38.0828 9.19026 37.9728 8.17026 38.9528C4.96026 41.9428 7.71026 51.1528 8.89026 55.1328C10.9003 61.4528 13.6603 67.8028 16.6603 73.6928C17.2003 74.7328 17.1603 75.9228 16.6603 76.9028C14.0903 82.1528 11.7903 87.8227 10.2803 93.4627C9.33028 97.3827 7.51029 104.813 10.8503 107.503C12.5903 108.473 14.7603 108.483 16.7303 108.173C23.3203 106.913 28.7103 101.343 32.7803 96.1028C33.6203 95.0028 34.5003 93.7428 35.2203 92.5828C37.7603 88.6928 43.5203 92.1728 41.2303 96.2328L41.2503 96.2228Z" fill="black"/>
<path d="M41.2503 96.2228C35.0403 105.823 24.7903 116.743 12.2403 115.203C7.74027 114.643 3.98026 111.993 2.64026 107.263C-0.139736 97.3228 6.12027 82.6628 10.4003 73.6928C10.4003 73.6928 10.4003 76.9128 10.4003 76.9028C5.79027 67.1828 -1.39974 50.8728 0.610265 40.1328C2.32026 31.7028 10.4603 30.7628 17.2903 33.1428C24.6503 35.7828 29.9303 41.4828 34.2803 47.5428C36.3603 50.5028 38.2003 53.5828 39.8503 56.7628C41.4403 60.0928 36.7303 62.5428 34.9003 59.3728C30.3703 51.2728 24.3103 42.2028 15.3403 38.9628C12.7103 38.0828 9.19026 37.9728 8.17026 38.9528C4.96026 41.9428 7.71026 51.1528 8.89026 55.1328C10.9003 61.4528 13.6603 67.8028 16.6603 73.6928C17.2003 74.7328 17.1603 75.9228 16.6603 76.9028C14.0903 82.1528 11.7903 87.8227 10.2803 93.4627C9.33028 97.3827 7.51029 104.813 10.8503 107.503C12.5903 108.473 14.7603 108.483 16.7303 108.173C23.3203 106.913 28.7103 101.343 32.7803 96.1028C33.6203 95.0028 34.5003 93.7428 35.2203 92.5828C37.7603 88.6928 43.5203 92.1728 41.2303 96.2328L41.2503 96.2228Z" fill="black" fill-opacity="0.2"/>
<path d="M41.2503 96.2228C35.0403 105.823 24.7903 116.743 12.2403 115.203C7.74027 114.643 3.98026 111.993 2.64026 107.263C-0.139736 97.3228 6.12027 82.6628 10.4003 73.6928C10.4003 73.6928 10.4003 76.9128 10.4003 76.9028C5.79027 67.1828 -1.39974 50.8728 0.610265 40.1328C2.32026 31.7028 10.4603 30.7628 17.2903 33.1428C24.6503 35.7828 29.9303 41.4828 34.2803 47.5428C36.3603 50.5028 38.2003 53.5828 39.8503 56.7628C41.4403 60.0928 36.7303 62.5428 34.9003 59.3728C30.3703 51.2728 24.3103 42.2028 15.3403 38.9628C12.7103 38.0828 9.19026 37.9728 8.17026 38.9528C4.96026 41.9428 7.71026 51.1528 8.89026 55.1328C10.9003 61.4528 13.6603 67.8028 16.6603 73.6928C17.2003 74.7328 17.1603 75.9228 16.6603 76.9028C14.0903 82.1528 11.7903 87.8227 10.2803 93.4627C9.33028 97.3827 7.51029 104.813 10.8503 107.503C12.5903 108.473 14.7603 108.483 16.7303 108.173C23.3203 106.913 28.7103 101.343 32.7803 96.1028C33.6203 95.0028 34.5003 93.7428 35.2203 92.5828C37.7603 88.6928 43.5203 92.1728 41.2303 96.2328L41.2503 96.2228Z" fill="black"/>
<path d="M41.2503 96.2228C35.0403 105.823 24.7903 116.743 12.2403 115.203C7.74027 114.643 3.98026 111.993 2.64026 107.263C-0.139736 97.3228 6.12027 82.6628 10.4003 73.6928C10.4003 73.6928 10.4003 76.9128 10.4003 76.9028C5.79027 67.1828 -1.39974 50.8728 0.610265 40.1328C2.32026 31.7028 10.4603 30.7628 17.2903 33.1428C24.6503 35.7828 29.9303 41.4828 34.2803 47.5428C36.3603 50.5028 38.2003 53.5828 39.8503 56.7628C41.4403 60.0928 36.7303 62.5428 34.9003 59.3728C30.3703 51.2728 24.3103 42.2028 15.3403 38.9628C12.7103 38.0828 9.19026 37.9728 8.17026 38.9528C4.96026 41.9428 7.71026 51.1528 8.89026 55.1328C10.9003 61.4528 13.6603 67.8028 16.6603 73.6928C17.2003 74.7328 17.1603 75.9228 16.6603 76.9028C14.0903 82.1528 11.7903 87.8227 10.2803 93.4627C9.33028 97.3827 7.51029 104.813 10.8503 107.503C12.5903 108.473 14.7603 108.483 16.7303 108.173C23.3203 106.913 28.7103 101.343 32.7803 96.1028C33.6203 95.0028 34.5003 93.7428 35.2203 92.5828C37.7603 88.6928 43.5203 92.1728 41.2303 96.2328L41.2503 96.2228Z" fill="black" fill-opacity="0.2"/>
<path d="M31.4505 61.7143C41.8805 42.9543 64.8304 26.9343 86.1804 24.4143C108.77 22.3843 133.42 33.2843 143.87 54.1043C156.8 80.5143 140.1 108.344 114.11 117.894C105.19 121.254 95.5604 122.534 86.0804 121.744C68.5104 119.874 52.0004 111.024 40.1304 98.0544C39.1504 97.0544 37.8805 95.3643 36.9805 94.2843C34.4405 91.0143 32.3404 87.4444 30.7404 83.5544C30.2004 82.2744 30.8004 80.7944 32.0804 80.2544C33.3004 79.7344 34.7004 80.2543 35.2904 81.4143C37.9304 86.6043 41.7604 91.2943 46.1904 95.3443C59.0504 107.114 76.7705 115.304 94.4005 114.374C117.27 113.624 142.58 98.0643 143.26 73.2143C143.86 48.0243 118.88 31.1144 95.6405 30.0744C83.8205 29.0144 72.1704 33.2243 61.9604 39.5243C52.0004 45.8043 42.5804 54.2943 37.0204 64.6543C34.9604 68.2943 29.5905 65.4544 31.4505 61.6944H31.4404L31.4505 61.7143Z" fill="black"/>
<path d="M31.4505 61.7143C41.8805 42.9543 64.8304 26.9343 86.1804 24.4143C108.77 22.3843 133.42 33.2843 143.87 54.1043C156.8 80.5143 140.1 108.344 114.11 117.894C105.19 121.254 95.5604 122.534 86.0804 121.744C68.5104 119.874 52.0004 111.024 40.1304 98.0544C39.1504 97.0544 37.8805 95.3643 36.9805 94.2843C34.4405 91.0143 32.3404 87.4444 30.7404 83.5544C30.2004 82.2744 30.8004 80.7944 32.0804 80.2544C33.3004 79.7344 34.7004 80.2543 35.2904 81.4143C37.9304 86.6043 41.7604 91.2943 46.1904 95.3443C59.0504 107.114 76.7705 115.304 94.4005 114.374C117.27 113.624 142.58 98.0643 143.26 73.2143C143.86 48.0243 118.88 31.1144 95.6405 30.0744C83.8205 29.0144 72.1704 33.2243 61.9604 39.5243C52.0004 45.8043 42.5804 54.2943 37.0204 64.6543C34.9604 68.2943 29.5905 65.4544 31.4505 61.6944H31.4404L31.4505 61.7143Z" fill="black" fill-opacity="0.2"/>
<path d="M31.4505 61.7143C41.8805 42.9543 64.8304 26.9343 86.1804 24.4143C108.77 22.3843 133.42 33.2843 143.87 54.1043C156.8 80.5143 140.1 108.344 114.11 117.894C105.19 121.254 95.5604 122.534 86.0804 121.744C68.5104 119.874 52.0004 111.024 40.1304 98.0544C39.1504 97.0544 37.8805 95.3643 36.9805 94.2843C34.4405 91.0143 32.3404 87.4444 30.7404 83.5544C30.2004 82.2744 30.8004 80.7944 32.0804 80.2544C33.3004 79.7344 34.7004 80.2543 35.2904 81.4143C37.9304 86.6043 41.7604 91.2943 46.1904 95.3443C59.0504 107.114 76.7705 115.304 94.4005 114.374C117.27 113.624 142.58 98.0643 143.26 73.2143C143.86 48.0243 118.88 31.1144 95.6405 30.0744C83.8205 29.0144 72.1704 33.2243 61.9604 39.5243C52.0004 45.8043 42.5804 54.2943 37.0204 64.6543C34.9604 68.2943 29.5905 65.4544 31.4505 61.6944H31.4404L31.4505 61.7143Z" fill="black"/>
<path d="M31.4505 61.7143C41.8805 42.9543 64.8304 26.9343 86.1804 24.4143C108.77 22.3843 133.42 33.2843 143.87 54.1043C156.8 80.5143 140.1 108.344 114.11 117.894C105.19 121.254 95.5604 122.534 86.0804 121.744C68.5104 119.874 52.0004 111.024 40.1304 98.0544C39.1504 97.0544 37.8805 95.3643 36.9805 94.2843C34.4405 91.0143 32.3404 87.4444 30.7404 83.5544C30.2004 82.2744 30.8004 80.7944 32.0804 80.2544C33.3004 79.7344 34.7004 80.2543 35.2904 81.4143C37.9304 86.6043 41.7604 91.2943 46.1904 95.3443C59.0504 107.114 76.7705 115.304 94.4005 114.374C117.27 113.624 142.58 98.0643 143.26 73.2143C143.86 48.0243 118.88 31.1144 95.6405 30.0744C83.8205 29.0144 72.1704 33.2243 61.9604 39.5243C52.0004 45.8043 42.5804 54.2943 37.0204 64.6543C34.9604 68.2943 29.5905 65.4544 31.4505 61.6944H31.4404L31.4505 61.7143Z" fill="black" fill-opacity="0.2"/>
<path d="M79.9804 129.033C88.7704 123.163 92.9104 113.924 89.2204 108.394C85.5304 102.864 75.4104 103.144 66.6204 109.014C57.8304 114.884 53.6904 124.123 57.3804 129.653C61.0704 135.183 71.1904 134.903 79.9804 129.033Z" fill="#FECB8B"/>
<path d="M89.7804 111.504C89.1204 110.134 88.0204 107.234 86.6804 106.404C88.0904 112.044 82.9304 120.304 74.4904 124.384C67.4904 127.764 60.8504 124.914 58.6504 118.634C58.7704 119.134 56.3204 127.114 56.5504 127.574C59.3404 133.344 69.0404 134.424 78.2104 129.984C87.3904 125.544 92.5704 117.274 89.7804 111.504Z" fill="#FF6700"/>
<path d="M75.3302 106.005C70.0102 109.645 64.6602 113.865 61.7102 119.435C59.4502 123.835 58.7902 128.885 64.9002 129.675C69.2302 130.215 73.8102 128.685 77.6202 126.535C81.6402 124.295 84.8102 120.735 86.5002 116.415C87.5302 113.615 87.9603 110.375 86.7003 107.605C86.3303 106.915 86.6302 106.045 87.3402 105.715C89.5502 104.685 91.1802 110.185 91.3502 111.695C92.1802 117.725 89.7402 123.745 85.7802 128.245C78.6502 136.265 62.4902 142.215 54.4302 132.365C48.2302 123.425 55.9302 112.155 63.6702 107.355C66.8802 105.265 70.3602 103.775 73.9302 102.845C74.8602 102.605 75.8202 103.165 76.0602 104.095C76.2502 104.845 75.9402 105.595 75.3302 105.985V106.005Z" fill="black"/>
<path d="M75.3302 106.005C70.0102 109.645 64.6602 113.865 61.7102 119.435C59.4502 123.835 58.7902 128.885 64.9002 129.675C69.2302 130.215 73.8102 128.685 77.6202 126.535C81.6402 124.295 84.8102 120.735 86.5002 116.415C87.5302 113.615 87.9603 110.375 86.7003 107.605C86.3303 106.915 86.6302 106.045 87.3402 105.715C89.5502 104.685 91.1802 110.185 91.3502 111.695C92.1802 117.725 89.7402 123.745 85.7802 128.245C78.6502 136.265 62.4902 142.215 54.4302 132.365C48.2302 123.425 55.9302 112.155 63.6702 107.355C66.8802 105.265 70.3602 103.775 73.9302 102.845C74.8602 102.605 75.8202 103.165 76.0602 104.095C76.2502 104.845 75.9402 105.595 75.3302 105.985V106.005Z" fill="black" fill-opacity="0.2"/>
<path d="M75.3302 106.005C70.0102 109.645 64.6602 113.865 61.7102 119.435C59.4502 123.835 58.7902 128.885 64.9002 129.675C69.2302 130.215 73.8102 128.685 77.6202 126.535C81.6402 124.295 84.8102 120.735 86.5002 116.415C87.5302 113.615 87.9603 110.375 86.7003 107.605C86.3303 106.915 86.6302 106.045 87.3402 105.715C89.5502 104.685 91.1802 110.185 91.3502 111.695C92.1802 117.725 89.7402 123.745 85.7802 128.245C78.6502 136.265 62.4902 142.215 54.4302 132.365C48.2302 123.425 55.9302 112.155 63.6702 107.355C66.8802 105.265 70.3602 103.775 73.9302 102.845C74.8602 102.605 75.8202 103.165 76.0602 104.095C76.2502 104.845 75.9402 105.595 75.3302 105.985V106.005Z" fill="black"/>
<path d="M75.3302 106.005C70.0102 109.645 64.6602 113.865 61.7102 119.435C59.4502 123.835 58.7902 128.885 64.9002 129.675C69.2302 130.215 73.8102 128.685 77.6202 126.535C81.6402 124.295 84.8102 120.735 86.5002 116.415C87.5302 113.615 87.9603 110.375 86.7003 107.605C86.3303 106.915 86.6302 106.045 87.3402 105.715C89.5502 104.685 91.1802 110.185 91.3502 111.695C92.1802 117.725 89.7402 123.745 85.7802 128.245C78.6502 136.265 62.4902 142.215 54.4302 132.365C48.2302 123.425 55.9302 112.155 63.6702 107.355C66.8802 105.265 70.3602 103.775 73.9302 102.845C74.8602 102.605 75.8202 103.165 76.0602 104.095C76.2502 104.845 75.9402 105.595 75.3302 105.985V106.005Z" fill="black" fill-opacity="0.2"/>
<path d="M98.4004 83.7932C98.4004 83.7932 98.4804 95.3332 107.61 94.4432C121.37 93.0932 134.78 67.1732 109.59 80.9432C102.91 84.5932 98.4103 83.7932 98.4103 83.7932H98.4004Z" fill="black"/>
<path d="M98.4004 83.7932C98.4004 83.7932 98.4804 95.3332 107.61 94.4432C121.37 93.0932 134.78 67.1732 109.59 80.9432C102.91 84.5932 98.4103 83.7932 98.4103 83.7932H98.4004Z" fill="black" fill-opacity="0.2"/>
<path d="M87.2602 60.0145C90.6202 71.5245 101.42 76.4045 108.04 71.0945C112.44 68.0145 113.66 61.1145 112.49 54.2645C111.58 48.9445 85.9501 53.5545 87.1701 59.7045L87.2602 60.0045V60.0145Z" fill="black"/>
<path d="M87.2602 60.0145C90.6202 71.5245 101.42 76.4045 108.04 71.0945C112.44 68.0145 113.66 61.1145 112.49 54.2645C111.58 48.9445 85.9501 53.5545 87.1701 59.7045L87.2602 60.0045V60.0145Z" fill="black" fill-opacity="0.2"/>
<path d="M87.2602 60.0145C90.6202 71.5245 101.42 76.4045 108.04 71.0945C112.44 68.0145 113.66 61.1145 112.49 54.2645C111.58 48.9445 85.9501 53.5545 87.1701 59.7045L87.2602 60.0045V60.0145Z" stroke="black" stroke-width="4" stroke-miterlimit="10"/>
<path d="M87.2602 60.0145C90.6202 71.5245 101.42 76.4045 108.04 71.0945C112.44 68.0145 113.66 61.1145 112.49 54.2645C111.58 48.9445 85.9501 53.5545 87.1701 59.7045L87.2602 60.0045V60.0145Z" stroke="black" stroke-opacity="0.2" stroke-width="4" stroke-miterlimit="10"/>
<path d="M119.98 53.5344C123.25 65.0644 133.28 70.0944 139.3 64.9044C143.3 61.9044 144.33 55.0444 143.14 48.1944C142.22 42.8744 118.68 47.0744 119.89 53.2244L119.98 53.5243V53.5344Z" fill="black"/>
<path d="M119.98 53.5344C123.25 65.0644 133.28 70.0944 139.3 64.9044C143.3 61.9044 144.33 55.0444 143.14 48.1944C142.22 42.8744 118.68 47.0744 119.89 53.2244L119.98 53.5243V53.5344Z" fill="black" fill-opacity="0.2"/>
<path d="M119.98 53.5344C123.25 65.0644 133.28 70.0944 139.3 64.9044C143.3 61.9044 144.33 55.0444 143.14 48.1944C142.22 42.8744 118.68 47.0744 119.89 53.2244L119.98 53.5243V53.5344Z" stroke="black" stroke-width="4" stroke-miterlimit="10"/>
<path d="M119.98 53.5344C123.25 65.0644 133.28 70.0944 139.3 64.9044C143.3 61.9044 144.33 55.0444 143.14 48.1944C142.22 42.8744 118.68 47.0744 119.89 53.2244L119.98 53.5243V53.5344Z" stroke="black" stroke-opacity="0.2" stroke-width="4" stroke-miterlimit="10"/>
<path d="M111.84 53.334C112.52 52.244 114.34 50.924 116.78 50.804C119.22 50.684 122.53 52.674 122.91 54.214" stroke="black" stroke-width="6" stroke-miterlimit="10"/>
<path d="M111.84 53.334C112.52 52.244 114.34 50.924 116.78 50.804C119.22 50.684 122.53 52.674 122.91 54.214" stroke="black" stroke-opacity="0.2" stroke-width="6" stroke-miterlimit="10"/>
<path d="M87.2602 60.0137C87.2602 60.0137 67.0602 64.0037 67.1502 67.6837C67.2402 71.3637 68.2902 77.7936 68.2902 77.7936" stroke="black" stroke-width="6" stroke-miterlimit="10" stroke-linecap="round"/>
<path d="M87.2602 60.0137C87.2602 60.0137 67.0602 64.0037 67.1502 67.6837C67.2402 71.3637 68.2902 77.7936 68.2902 77.7936" stroke="black" stroke-opacity="0.2" stroke-width="6" stroke-miterlimit="10" stroke-linecap="round"/>
<path d="M109.1 65.6341C111.14 65.0641 112.09 62.134 111.23 59.104C110.37 56.074 108.03 54.084 105.99 54.654C103.96 55.234 103 58.1541 103.86 61.1841C104.72 64.2141 107.06 66.2041 109.1 65.6341Z" fill="white"/>
<path d="M138.62 59.0245C140.4 58.5245 141.24 55.9646 140.48 53.3046C139.73 50.6546 137.68 48.9045 135.9 49.4145C134.12 49.9145 133.28 52.4746 134.04 55.1346C134.79 57.7846 136.84 59.5345 138.62 59.0245Z" fill="white"/>
</svg>
